<?xml version="1.0" standalone="no"?>
<!DOCTYPE svg PUBLIC "-//W3C//DTD SVG 1.1//EN" "http://www.w3.org/Graphics/SVG/1.1/DTD/svg11.dtd" >
<svg xmlns="http://www.w3.org/2000/svg">
<metadata>Generated by IcoMoon</metadata>
<defs>
<font id="icon" horiz-adv-x="1024">
<font-face units-per-em="1024" ascent="960" descent="-64" />
<missing-glyph horiz-adv-x="1024" />
<glyph unicode="&#x20;" horiz-adv-x="512" d="" />
<glyph unicode="&#xe900;" glyph-name="sms" horiz-adv-x="1044" d="M830.145 789.362h-46.977c-19.839 97.221-106.025 170.638-209.023 170.638h-341.334c-117.632 0-213.333-95.685-213.333-213.297v-548.346c0-33.872 18.56-64.844 48.384-80.798 13.568-7.295 28.459-10.879 43.307-10.879 17.749 0 35.456 5.163 50.773 15.358l125.866 83.911c29.483-82.545 108.417-141.799 201.003-141.799h243.073l169.13-112.749c15.36-10.24 33.024-15.401 50.774-15.401 14.848 0 29.696 3.627 43.305 10.92 29.868 15.956 48.384 46.926 48.384 80.798v548.346c0 117.613-95.701 213.298-213.332 213.298zM114.624 193.024c-0.811-0.512-3.2-2.048-6.485-0.299-3.371 1.792-3.371 4.651-3.371 5.589v548.389c0 70.558 57.429 127.978 127.999 127.978h341.334c70.57 0 128-57.42 128-127.978v-298.617c0-70.56-57.43-127.98-128-127.98h-256c-13.951 0-23.083-6.783-24.107-7.465l-179.37-119.618zM958.145 27.675c0-0.895 0-3.795-3.371-5.587-3.371-1.749-5.675-0.213-6.443 0.297l-179.839 119.917c-6.998 4.651-15.233 7.168-23.681 7.168h-256c-55.636 0-103.039 35.662-120.662 85.318h205.996c117.631 0 213.332 95.687 213.332 213.299v255.957h42.668c70.57 0 128-57.42 128-127.98v-548.389z" />
<glyph unicode="&#xe901;" glyph-name="minus" horiz-adv-x="1044" d="M915.476 320h-767.999c-33.948 0-66.505 13.486-90.51 37.491s-37.49 56.562-37.49 90.509c0 33.948 13.486 66.505 37.49 90.509s56.562 37.491 90.51 37.491h767.999c33.95 0 66.507-13.486 90.511-37.491s37.489-56.562 37.489-90.509c0-33.948-13.484-66.505-37.489-90.509s-56.562-37.491-90.511-37.491z" />
<glyph unicode="&#xe902;" glyph-name="add-1" horiz-adv-x="1044" d="M1043.479 448c0-27.159-10.789-53.203-29.993-72.407s-45.251-29.993-72.409-29.993h-307.198v-307.2c0-27.159-10.789-53.205-29.993-72.407-19.204-19.204-45.251-29.993-72.409-29.993-27.156 0-53.203 10.789-72.407 29.993-19.204 19.202-29.991 45.249-29.991 72.407v307.2h-307.201c-27.158 0-53.204 10.789-72.408 29.993s-29.992 45.249-29.992 72.407c0 27.159 10.789 53.205 29.992 72.407 19.204 19.204 45.25 29.993 72.408 29.993h307.201v307.2c0 27.158 10.787 53.204 29.991 72.408s45.251 29.992 72.407 29.992c27.159 0 53.205-10.789 72.409-29.992s29.993-45.25 29.993-72.408v-307.2h307.198c27.159 0 53.205-10.789 72.409-29.993 19.204-19.202 29.993-45.249 29.993-72.407z" />
<glyph unicode="&#xe903;" glyph-name="detail" horiz-adv-x="1044" d="M830.145 960h-597.334c-117.76 0-213.333-95.573-213.333-213.334v-597.332c0-117.76 95.573-213.334 213.333-213.334h597.334c117.76 0 213.332 95.574 213.332 213.334v597.332c0 117.761-95.572 213.334-213.332 213.334zM958.145 149.334c0-70.4-57.6-128-128-128h-597.334c-70.4 0-128 57.6-128 128v597.332c0 70.401 57.6 128.001 128 128.001h597.334c70.4 0 128-57.6 128-128.001v-597.332zM232.81 533.334c0 23.466 19.2 42.666 42.666 42.666h384c23.468 0 42.668-19.2 42.668-42.666 0-23.468-19.2-42.668-42.668-42.668h-384c-23.466 0-42.666 19.2-42.666 42.668zM232.81 704c0 23.466 19.2 42.666 42.666 42.666h256c23.468 0 42.668-19.2 42.668-42.666s-19.2-42.666-42.668-42.666h-256c-23.466 0-42.666 19.2-42.666 42.666zM830.145 362.666c0-23.466-19.2-42.666-42.668-42.666h-512c-23.466 0-42.666 19.2-42.666 42.666 0 23.468 19.2 42.668 42.666 42.668h512c23.468 0 42.668-19.2 42.668-42.668zM446.145 192c0-23.466-19.2-42.666-42.668-42.666h-128c-23.466 0-42.666 19.2-42.666 42.666s19.2 42.666 42.666 42.666h128c23.468 0 42.668-19.2 42.668-42.666z" />
<glyph unicode="&#xe904;" glyph-name="online-booking" d="M164.834 151.669c-7.928-13.64-22.206-21.311-36.953-21.311-7.246 0-14.577 1.833-21.311 5.712-65.724 38.019-106.556 108.728-106.556 184.596v340.978c0.043 117.51 95.644 213.112 213.154 213.112v42.622c0 23.528 19.094 42.622 42.621 42.622s42.623-19.095 42.623-42.622v-42.622h298.357v42.622c0 23.528 19.053 42.622 42.621 42.622 23.57 0 42.623-19.095 42.623-42.622v-42.622c117.51 0 213.111-95.602 213.111-213.112v-340.978c0-23.527-19.053-42.621-42.621-42.621-23.57 0-42.623 19.094-42.623 42.621v255.734h-42.623c-23.57 0-42.621 19.096-42.621 42.623s19.050 42.621 42.621 42.621h42.623c0 70.498-57.371 127.868-127.867 127.868h-468.845c-70.498 0-127.867-57.369-127.867-127.868h340.978c23.527 0 42.623-19.094 42.623-42.621s-19.096-42.623-42.623-42.623h-340.978v-255.734c0-45.521 24.508-87.972 63.933-110.774 20.374-11.764 27.406-37.849 15.6-58.223zM884.81 168.077l-159.791 59.716v215.028c0 64.616-45.861 120.793-106.684 130.681-37.55 6.095-75.356-4.348-103.954-28.684-28.643-24.338-45.095-59.886-45.095-97.436v-322.351l-43.262 34.437c-0.297 0.256-0.682 0.256-0.979 0.512-51.616 44.882-129.956 41.558-177.011-8.823-48.164-51.487-45.436-132.555 5.54-180.292l23.783-22.931c7.928-7.672 18.541-11.934 29.579-11.934 38.361 0 57.201 46.672 29.581 73.31l-24.209 23.357c-17.177 16.112-18.072 43.176-1.962 60.353 15.985 17.134 42.965 17.945 60.099 2.046 0.426-0.383 114.952-91.681 114.952-91.681 12.829-10.23 30.39-12.147 45.052-5.071 14.748 7.117 24.123 22.034 24.123 38.402v410.794c0 12.53 5.499 24.379 15.047 32.52 9.718 8.227 22.077 11.637 35.035 9.505 19.735-3.24 35.162-23.697 35.162-46.586v-244.609c0-17.775 11.041-33.714 27.705-39.938l187.496-70.070c47.055-17.562 79.532-61.29 82.815-111.329 1.491-22.548 20.244-39.852 42.494-39.852 0.938 0 1.874 0 2.812 0.086 23.486 1.577 41.302 21.864 39.768 45.306-5.499 83.454-59.673 156.297-138.097 185.534z" />
<glyph unicode="&#xe905;" glyph-name="operations" d="M770.652 597.334c-11.819 20.437-37.845 27.435-58.282 15.616l-41.515-23.98c-30.081 33.878-70.144 58.667-116.181 68.012v46.975c0 23.552-19.116 42.668-42.668 42.668s-42.666-19.116-42.666-42.668v-46.975c-46.037-9.388-86.102-34.177-116.181-68.012l-41.515 23.98c-20.437 11.776-46.506 4.778-58.282-15.616-11.776-20.396-4.78-46.508 15.616-58.284l41.556-23.978c-7.082-21.205-11.86-43.477-11.86-67.072s4.735-45.867 11.86-67.072l-41.556-23.978c-20.396-11.776-27.392-37.888-15.616-58.284 7.936-13.695 22.229-21.332 36.991-21.332 7.211 0 14.549 1.835 21.291 5.716l41.515 23.98c30.079-33.878 70.144-58.667 116.181-68.012v-46.975c0-23.552 19.114-42.666 42.666-42.666s42.668 19.114 42.668 42.666v46.975c46.037 9.388 86.1 34.177 116.181 68.012l41.515-23.98c6.74-3.881 14.080-5.716 21.291-5.716 14.762 0 29.098 7.637 36.991 21.332 11.776 20.439 4.778 46.508-15.616 58.284l-41.558 23.978c7.084 21.205 11.862 43.477 11.862 67.072s-4.735 45.867-11.862 67.072l41.558 23.978c20.394 11.776 27.392 37.888 15.616 58.284zM512.006 320c-70.57 0-128 57.43-128 128s57.43 128 128 128c70.572 0 128-57.43 128-128s-57.428-128-128-128zM85.17 486.826c-2.005-22.186-20.608-38.826-42.453-38.826-1.28 0-2.56 0.043-3.883 0.17-23.467 2.134-40.789 22.87-38.656 46.336 23.552 261.035 248.363 465.494 511.828 465.494 126.763 0 248.193-48.171 341.334-131.413v88.747c0 23.552 19.114 42.667 42.666 42.667s42.668-19.115 42.668-42.667v-170.667c0-47.061-38.273-85.332-85.334-85.332h-170.666c-23.552 0-42.668 19.114-42.668 42.666s19.116 42.666 42.668 42.666h133.247c-79.659 80.769-189.227 128.001-303.915 128.001-219.732 0-407.21-170.368-426.836-387.841zM1023.836 401.494c-23.552-261.036-248.363-465.494-511.83-465.494-126.761 0-248.191 48.171-341.332 131.414v-88.748c0-23.552-19.115-42.666-42.667-42.666s-42.667 19.114-42.667 42.666v170.668c0 47.061 38.272 85.332 85.333 85.332h170.666c23.552 0 42.666-19.114 42.666-42.666s-19.114-42.666-42.666-42.666h-133.247c79.657-80.769 189.225-128 303.913-128 219.734 0 407.212 170.367 426.838 387.84 2.134 23.466 22.401 40.362 46.336 38.656 23.466-2.134 40.79-22.87 38.656-46.336z" />
<glyph unicode="&#xe906;" glyph-name="up-arrow-1" d="M511.361-64c-35.189 0-63.98 28.783-63.98 63.959v741.298l-338.457-338.348c-24.952-24.945-65.258-24.945-90.21 0-24.952 24.943-24.952 65.239 0 90.182l447.861 447.721c6.398 6.396 13.437 10.873 21.115 14.071 7.676 3.198 15.354 4.477 24.312 5.117 8.317 0 16.636-1.919 24.312-5.117 7.678-3.198 14.713-7.675 21.111-14.071l447.861-447.721c24.953-24.943 24.953-65.239 0-90.182-24.951-24.945-65.257-24.945-90.21 0l-338.452 338.348v-741.298c0-35.176-28.791-63.959-63.98-63.959h-1.282z" />
<glyph unicode="&#xe907;" glyph-name="play" d="M512 960c-282.325 0-512-229.675-512-512s229.675-512 512-512c282.325 0 512 229.675 512 512s-229.675 512-512 512zM512 64c-211.755 0-384 172.288-384 384s172.245 384 384 384c211.755 0 384-172.288 384-384s-172.245-384-384-384zM678.998 405.291l-221.952-121.6c-32.684-18.389-73.046 5.247-73.046 42.709v243.157c0 37.505 40.362 61.1 73.046 42.709l221.952-121.6c33.321-18.729 33.321-66.644 0-85.375z" />
<glyph unicode="&#xe908;" glyph-name="password" d="M792.447 869.291l-267.049 88.533c-8.661 2.901-18.176 2.901-26.837 0l-267.051-88.533c-87.467-29.013-146.219-110.379-146.219-202.497v-220.629c0-280.021 298.879-451.285 390.486-497.066 0 0 18.346-13.099 36.266-13.099s33.749 10.24 33.749 10.24c92.16 37.077 392.833 182.657 392.833 499.925v220.629c0 92.118-58.71 173.483-146.178 202.497zM853.334 446.165c0-263.766-259.756-388.735-339.329-420.735-80.597 40.276-343.338 189.61-343.338 420.735v220.629c0 55.253 35.243 104.065 87.723 121.515l253.61 84.096 253.61-84.096c52.439-17.408 87.724-66.262 87.724-121.515v-220.629zM618.666 554.666c0-43.733-26.325-81.322-64-97.749v-136.917c0-23.595-19.071-42.666-42.666-42.666s-42.666 19.071-42.666 42.666v136.917c-37.675 16.47-64 54.016-64 97.749 0 58.923 47.743 106.668 106.666 106.668s106.666-47.745 106.666-106.668z" />
<glyph unicode="&#xe909;" glyph-name="phone" d="M641.921 959.998c-1.153 0.043-258.689 0.043-259.84 0-116.736-1.024-211.414-96.341-211.414-213.291v-597.334c0-117.631 95.702-213.332 213.333-213.332h256c117.633 0 213.334 95.701 213.334 213.332v597.291c0 116.993-94.677 212.267-211.413 213.334zM768 149.373c0-70.57-57.43-128-128-128h-256c-70.57 0-128 57.43-128 128v597.291c0 61.995 44.288 113.793 102.869 125.526l29.612-59.264c7.209-14.464 22.016-23.595 38.185-23.595h170.668c16.171 0 30.933 9.131 38.187 23.595l29.61 59.264c58.581-11.691 102.869-63.531 102.869-125.526v-597.291zM554.666 106.707h-85.332c-23.552 0-42.668 19.114-42.668 42.666s19.116 42.668 42.668 42.668h85.332c23.552 0 42.668-19.116 42.668-42.668s-19.116-42.666-42.668-42.666z" />
<glyph unicode="&#xe90a;" glyph-name="upload" horiz-adv-x="860" d="M140.091 675.418c-16.363 17.005-15.85 44.048 1.154 60.412l195.973 188.581c47.21 47.252 132.229 47.85 180.679-0.598l195.332-187.983c17.005-16.364 17.517-43.407 1.153-60.412-8.374-8.716-19.567-13.115-30.804-13.115-10.68 0-21.361 3.973-29.606 11.919l-184.011 177.132v-573.565c0-23.583-19.141-42.723-42.725-42.723-23.583 0-42.723 19.141-42.723 42.723v573.565l-184.010-177.132c-16.961-16.364-43.963-15.809-60.411 1.196zM811.749 619.577c-23.585 0-42.723-19.139-42.723-42.723v-427.235c0-70.666-57.506-128.172-128.172-128.172h-427.235c-70.665 0-128.171 57.506-128.171 128.172v427.235c0 23.585-19.14 42.723-42.724 42.723s-42.724-19.139-42.724-42.723v-427.235c0-117.789 95.829-213.619 213.619-213.619h427.235c117.789 0 213.619 95.83 213.619 213.619v427.235c0 23.585-19.141 42.723-42.723 42.723z" />
<glyph unicode="&#xe90b;" glyph-name="star" d="M56.617 430.93l151.894-110.934-57.686-178.645c-9.322-27.707-9.44-57.686-0.337-85.465s26.941-51.874 50.854-68.69c23.504-17.357 51.985-26.653 81.202-26.507s57.604 9.728 80.931 27.318l148.523 109.312 148.566-109.185c23.46-17.256 51.788-26.628 80.91-26.771 29.125-0.141 57.543 8.956 81.17 25.983s41.247 41.107 50.326 68.78c9.079 27.673 9.15 57.51 0.201 85.225l-57.684 178.645 151.892 110.934c23.431 17.129 40.847 41.226 49.764 68.848 8.917 27.619 8.878 57.352-0.113 84.949s-26.472 51.646-49.949 68.714c-23.476 17.066-51.745 26.28-80.769 26.321h-186.581l-56.619 176.469c-8.905 27.778-26.399 52.010-49.965 69.203-23.564 17.193-51.98 26.457-81.15 26.457s-57.586-9.264-81.15-26.457c-23.564-17.192-41.060-41.425-49.965-69.203l-56.619-176.469h-186.41c-29.024-0.041-57.293-9.255-80.769-26.321-23.476-17.068-40.957-41.118-49.948-68.714s-9.030-57.33-0.114-84.949c8.917-27.621 26.334-51.718 49.764-68.848h-0.171z" />
<glyph unicode="&#xe90c;" glyph-name="pin" d="M511.998 704.004c-33.755 0-66.75-10.009-94.816-28.762s-49.94-45.408-62.859-76.593c-12.917-31.185-16.296-65.501-9.712-98.607s22.839-63.515 46.709-87.384c23.867-23.867 54.278-40.122 87.384-46.707s67.42-3.205 98.605 9.712c31.187 12.917 57.842 34.791 76.593 62.857 18.754 28.068 28.764 61.063 28.764 94.818 0 45.263-17.981 88.672-49.988 120.68-32.006 32.006-75.416 49.986-120.68 49.986zM511.998 448.004c-16.878 0-33.376 5.005-47.409 14.381-14.033 9.378-24.969 22.704-31.429 38.298-6.457 15.591-8.149 32.75-4.856 49.304 3.293 16.552 11.42 31.758 23.353 43.692 11.936 11.934 27.14 20.060 43.692 23.353 16.554 3.293 33.712 1.604 49.304-4.856 15.593-6.459 28.92-17.396 38.298-31.429 9.376-14.033 14.381-30.532 14.381-47.409 0-22.632-8.991-44.337-24.994-60.34s-37.708-24.994-60.34-24.994zM511.998-63.996c-35.928-0.184-71.377 8.243-103.379 24.574s-59.625 40.092-80.556 69.294c-162.603 224.297-245.078 392.917-245.078 501.205 0 113.781 45.2 222.902 125.655 303.358s189.577 125.655 303.358 125.655c113.783 0 222.902-45.199 303.358-125.655s125.655-189.577 125.655-303.358c0-108.288-82.473-276.908-245.076-501.205-20.933-29.202-48.556-52.963-80.558-69.294s-67.451-24.758-103.379-24.574zM511.998 866.949c-89.070-0.102-174.463-35.53-237.445-98.512s-98.41-148.376-98.512-237.446c0-85.76 80.768-244.351 227.37-446.55 12.446-17.142 28.774-31.095 47.647-40.714 18.874-9.622 39.756-14.637 60.94-14.637s42.068 5.016 60.94 14.637c18.874 9.619 35.201 23.572 47.647 40.714 146.602 202.199 227.371 360.79 227.371 446.55-0.102 89.070-35.531 174.463-98.513 237.446s-148.374 98.41-237.445 98.512z" />
<glyph unicode="&#xe90d;" glyph-name="new-lead" d="M682.668 277.332c0-11.315-4.495-22.168-12.497-30.169s-18.854-12.497-30.169-12.497h-85.334v-85.334c0-11.315-4.495-22.168-12.497-30.169s-18.854-12.497-30.169-12.497c-11.317 0-22.17 4.495-30.171 12.497s-12.497 18.854-12.497 30.169v85.334h-85.332c-11.317 0-22.17 4.495-30.171 12.497s-12.497 18.854-12.497 30.169c0 11.317 4.495 22.17 12.497 30.171s18.854 12.497 30.171 12.497h85.332v85.332c0 11.317 4.495 22.17 12.497 30.171s18.854 12.497 30.171 12.497c11.315 0 22.168-4.495 30.169-12.497s12.497-18.854 12.497-30.171v-85.332h85.334c11.315 0 22.168-4.495 30.169-12.497s12.497-18.854 12.497-30.171zM938.668 512.639v-363.307c-0.068-56.558-22.565-110.78-62.558-150.774s-94.216-62.491-150.776-62.558h-426.666c-56.558 0.068-110.781 22.565-150.774 62.558s-62.491 94.216-62.559 150.774v597.334c0.068 56.558 22.566 110.781 62.559 150.774s94.217 62.491 150.774 62.559h192.641c39.236 0.101 78.105-7.577 114.356-22.59s69.167-37.064 96.844-64.876l148.65-148.736c27.828-27.658 49.893-60.563 64.913-96.809 15.022-36.246 22.702-75.112 22.596-114.348zM642.177 812.202c-13.427 13.006-28.504 24.195-44.843 33.28v-184.15c0-11.315 4.495-22.168 12.497-30.169s18.854-12.497 30.171-12.497h184.148c-9.089 16.333-20.294 31.396-33.321 44.8l-148.652 148.736zM853.334 512.639c0 7.041-1.364 13.781-2.005 20.693h-211.327c-33.948 0-66.505 13.486-90.509 37.491s-37.491 56.562-37.491 90.509v211.328c-6.912 0.64-13.697 2.005-20.693 2.005h-192.641c-33.948 0-66.505-13.486-90.509-37.49s-37.49-56.562-37.49-90.509v-597.334c0-33.948 13.486-66.505 37.49-90.509s56.562-37.491 90.509-37.491h426.666c33.948 0 66.507 13.486 90.511 37.491s37.489 56.562 37.489 90.509v363.307z" />
<glyph unicode="&#xe90e;" glyph-name="overdue" d="M511.998 917.33c-124.475 0-243.851-49.447-331.868-137.464s-137.465-207.394-137.465-331.87c0-11.315 4.495-22.168 12.497-30.169s18.854-12.497 30.17-12.497c11.316 0 22.168 4.495 30.17 12.497s12.497 18.854 12.497 30.169c0.397 77.521 24.248 153.104 68.414 216.814s106.583 112.558 179.037 140.123c72.454 27.565 151.554 32.556 226.9 14.315 75.344-18.241 143.403-58.858 195.226-116.511 51.825-57.653 84.986-129.64 95.121-206.496s-3.226-154.978-38.33-224.096c-35.103-69.118-90.305-125.993-158.343-163.144-68.039-37.153-145.727-52.84-222.851-45.005-5.607 0.528-11.264-0.059-16.644-1.729-5.378-1.669-10.373-4.387-14.696-7.997s-7.891-8.038-10.494-13.033c-2.601-4.995-4.19-10.455-4.671-16.067-0.528-5.607 0.059-11.264 1.729-16.642 1.669-5.38 4.387-10.375 7.997-14.698 3.609-4.323 8.038-7.889 13.033-10.492s10.455-4.192 16.067-4.674c15.36 0 30.72-2.134 46.506-2.134 124.758 0 244.406 49.56 332.624 137.777s137.777 207.866 137.777 332.624c0 124.756-49.56 244.404-137.777 332.622s-207.866 137.777-332.624 137.777zM511.996 746.66c-11.315 0-22.168-4.495-30.169-12.497s-12.497-18.854-12.497-30.169v-256c0-11.317 4.495-22.17 12.497-30.171s18.854-12.497 30.169-12.497h170.668c11.315 0 22.168 4.495 30.169 12.497s12.497 18.854 12.497 30.171c0 11.315-4.495 22.168-12.497 30.169s-18.854 12.497-30.169 12.497h-128v213.334c0 11.315-4.495 22.168-12.497 30.169s-18.854 12.497-30.171 12.497zM298.664 234.666v170.668c0 11.315-4.495 22.168-12.497 30.169s-18.854 12.497-30.171 12.497c-11.315 0-22.168-4.495-30.169-12.497s-12.497-18.854-12.497-30.169v-170.668c0-11.315 4.495-22.168 12.497-30.169s18.854-12.497 30.169-12.497c11.317 0 22.17 4.495 30.171 12.497s12.497 18.854 12.497 30.169zM256-21.34c35.346 0 64 28.654 64 64s-28.654 64-64 64c-35.346 0-64-28.654-64-64s28.654-64 64-64z" />
<glyph unicode="&#xe90f;" glyph-name="team" d="M512 277.334c-33.755 0-66.75 10.009-94.818 28.762-28.066 18.754-49.94 45.406-62.857 76.593-12.917 31.185-16.298 65.499-9.712 98.605 6.584 33.108 22.839 63.517 46.707 87.386 23.869 23.867 54.278 40.122 87.384 46.707 33.108 6.584 67.422 3.205 98.607-9.712s57.84-34.791 76.593-62.859c18.754-28.066 28.762-61.061 28.762-94.816 0-45.263-17.979-88.674-49.986-120.68s-75.418-49.986-120.68-49.986zM512 533.334c-16.878 0-33.376-5.005-47.409-14.381-14.033-9.378-24.969-22.704-31.429-38.298s-8.149-32.75-4.856-49.304c3.293-16.552 11.42-31.758 23.353-43.692s27.14-20.060 43.692-23.353c16.554-3.293 33.712-1.604 49.304 4.856 15.593 6.459 28.92 17.396 38.298 31.429 9.376 14.033 14.381 30.532 14.381 47.409 0 22.632-8.991 44.337-24.994 60.34s-37.708 24.994-60.34 24.994zM768-21.334c0 67.895-26.972 133.011-74.981 181.021s-113.123 74.979-181.019 74.979c-67.895 0-133.009-26.97-181.019-74.979s-74.981-113.125-74.981-181.021c0-11.315 4.495-22.168 12.497-30.169s18.854-12.497 30.169-12.497c11.317 0 22.17 4.495 30.171 12.497s12.497 18.854 12.497 30.169c0 45.265 17.979 88.674 49.986 120.68s75.418 49.988 120.68 49.988c45.263 0 88.674-17.981 120.68-49.988s49.986-75.416 49.986-120.68c0-11.315 4.495-22.168 12.497-30.169s18.854-12.497 30.171-12.497c11.315 0 22.168 4.495 30.169 12.497s12.497 18.854 12.497 30.169zM768 618.666c-33.755 0-66.75 10.011-94.818 28.762-28.066 18.754-49.94 45.408-62.857 76.593-12.917 31.186-16.298 65.501-9.712 98.607 6.584 33.106 22.839 63.516 46.707 87.384s54.278 40.123 87.384 46.708c33.108 6.585 67.422 3.205 98.607-9.712s57.84-34.792 76.593-62.858c18.754-28.066 28.762-61.063 28.762-94.817 0-45.264-17.979-88.673-49.986-120.68s-75.418-49.988-120.68-49.988zM768 874.667c-16.878 0-33.376-5.005-47.409-14.381s-24.969-22.704-31.429-38.296c-6.459-15.593-8.149-32.75-4.856-49.303s11.42-31.758 23.353-43.692c11.934-11.934 27.14-20.062 43.692-23.353 16.554-3.293 33.712-1.604 49.304 4.856 15.593 6.457 28.92 17.396 38.298 31.429 9.376 14.033 14.381 30.531 14.381 47.408 0 22.632-8.991 44.337-24.994 60.34s-37.708 24.994-60.34 24.994zM1024 320c-0.068 67.875-27.060 132.95-75.055 180.945s-113.070 74.988-180.945 75.055c-11.315 0-22.168-4.495-30.169-12.497s-12.497-18.854-12.497-30.169c0-11.317 4.495-22.17 12.497-30.171s18.854-12.497 30.169-12.497c45.263 0 88.674-17.979 120.68-49.986s49.986-75.418 49.986-120.68c0-11.315 4.495-22.168 12.497-30.169s18.854-12.497 30.171-12.497c11.315 0 22.168 4.495 30.169 12.497s12.497 18.854 12.497 30.169zM256 618.666c-33.755 0-66.751 10.011-94.817 28.762-28.066 18.754-49.941 45.408-62.858 76.593-12.917 31.186-16.297 65.501-9.712 98.607s22.84 63.516 46.708 87.384c23.868 23.868 54.278 40.123 87.383 46.708 33.108 6.585 67.422 3.205 98.607-9.712s57.84-34.792 76.593-62.858c18.754-28.066 28.762-61.063 28.762-94.817 0-45.264-17.979-88.673-49.986-120.68s-75.418-49.988-120.68-49.988zM256 874.667c-16.878 0-33.376-5.005-47.409-14.381s-24.97-22.704-31.429-38.296c-6.459-15.593-8.149-32.75-4.856-49.303s11.42-31.758 23.354-43.692c11.933-11.934 27.14-20.062 43.692-23.353 16.554-3.293 33.712-1.604 49.304 4.856 15.593 6.457 28.92 17.396 38.298 31.429 9.376 14.033 14.381 30.531 14.381 47.408 0 22.632-8.991 44.337-24.994 60.34s-37.708 24.994-60.34 24.994zM85.333 320c0 45.263 17.981 88.672 49.987 120.68 32.006 32.006 75.417 49.986 120.68 49.986 11.315 0 22.168 4.495 30.169 12.497s12.497 18.854 12.497 30.171c0 11.315-4.495 22.168-12.497 30.169s-18.854 12.497-30.169 12.497c-67.875-0.068-132.95-27.060-180.944-75.055s-74.988-113.070-75.056-180.945c0-11.315 4.495-22.168 12.497-30.169s18.854-12.497 30.17-12.497c11.316 0 22.168 4.495 30.17 12.497s12.497 18.854 12.497 30.169z" />
<glyph unicode="&#xe910;" glyph-name="list" d="M298.666 703.996h682.668c11.315 0 22.168 4.495 30.169 12.497s12.497 18.854 12.497 30.171c0 11.315-4.495 22.168-12.497 30.169s-18.854 12.497-30.169 12.497h-682.668c-11.315 0-22.168-4.495-30.169-12.497s-12.497-18.854-12.497-30.169c0-11.317 4.495-22.17 12.497-30.171s18.854-12.497 30.169-12.497zM981.334 490.67h-682.668c-11.315 0-22.168-4.495-30.169-12.497s-12.497-18.854-12.497-30.169c0-11.317 4.495-22.17 12.497-30.171s18.854-12.497 30.169-12.497h682.668c11.315 0 22.168 4.495 30.169 12.497s12.497 18.854 12.497 30.171c0 11.315-4.495 22.168-12.497 30.169s-18.854 12.497-30.169 12.497zM981.334 192h-682.668c-11.315 0-22.168-4.495-30.169-12.497s-12.497-18.854-12.497-30.169c0-11.317 4.495-22.17 12.497-30.171s18.854-12.497 30.169-12.497h682.668c11.315 0 22.168 4.495 30.169 12.497s12.497 18.854 12.497 30.171c0 11.315-4.495 22.168-12.497 30.169s-18.854 12.497-30.169 12.497zM85.333 661.334c47.128 0 85.333 38.203 85.333 85.332s-38.205 85.334-85.333 85.334c-47.128 0-85.333-38.205-85.333-85.334s38.205-85.332 85.333-85.332zM85.333 362.664c47.128 0 85.333 38.205 85.333 85.332 0 47.129-38.205 85.334-85.333 85.334s-85.333-38.205-85.333-85.334c0-47.127 38.205-85.332 85.333-85.332zM85.333 64.004c47.128 0 85.333 38.203 85.333 85.332s-38.205 85.334-85.333 85.334c-47.128 0-85.333-38.205-85.333-85.334s38.205-85.332 85.333-85.332z" />
<glyph unicode="&#xe911;" glyph-name="info" d="M512 960c-101.263 0-200.253-30.028-284.451-86.288s-149.823-136.224-188.575-229.778c-38.752-93.557-48.891-196.502-29.136-295.821 19.756-99.318 68.519-190.548 140.123-262.152 71.605-71.604 162.834-120.367 262.153-140.122 99.318-19.757 202.263-9.617 295.819 29.135s173.519 104.376 229.777 188.574c56.261 84.199 86.288 183.19 86.288 284.453-0.147 135.746-54.137 265.89-150.122 361.876-95.988 95.987-226.132 149.977-361.878 150.124zM512 21.334c-84.386 0-166.877 25.022-237.044 71.905-70.164 46.883-124.851 113.519-157.145 191.482s-40.743 163.752-24.28 246.518c16.463 82.764 57.099 158.79 116.769 218.46s135.696 100.306 218.46 116.769c82.766 16.463 168.554 8.014 246.518-24.28s144.599-86.98 191.482-157.145c46.883-70.164 71.905-152.658 71.905-237.044-0.123-113.121-45.115-221.573-125.104-301.562s-188.441-124.981-301.562-125.104zM512 533.334h-42.666c-11.317 0-22.17-4.495-30.171-12.497s-12.497-18.854-12.497-30.171c0-11.315 4.495-22.168 12.497-30.169s18.854-12.497 30.171-12.497h42.666v-256c0-11.315 4.495-22.168 12.497-30.169s18.854-12.497 30.169-12.497c11.317 0 22.17 4.495 30.171 12.497s12.497 18.854 12.497 30.169v256c0 22.632-8.991 44.337-24.994 60.34s-37.708 24.994-60.34 24.994zM512 618.666c35.346 0 64 28.654 64 64s-28.654 64-64 64c-35.346 0-64-28.654-64-64s28.654-64 64-64z" />
<glyph unicode="&#xe912;" glyph-name="export" d="M796.16 68.266c-17.494 15.788-44.8 14.080-60.16-3.84-24.32-27.732-59.306-43.52-96-43.52h-426.666c-70.401 0-128.001 57.6-128.001 128v597.76c0 70.401 57.6 128.001 128.001 128.001h192.426c6.826 0 14.080 0 20.906-0.853v-212.479c0-70.4 57.6-128 128-128h247.894c13.226 0 25.6 5.972 33.706 16.64 8.108 10.666 10.668 23.892 7.68 36.692-13.226 52.054-40.106 99.414-78.080 137.388l-148.48 148.479c-56.32 56.32-131.412 87.467-211.2 87.467h-192.852c-117.761 0-213.334-95.573-213.334-213.334v-597.332c0-117.76 95.573-213.334 213.334-213.334h426.666c61.014 0 119.466 26.454 160 72.106 15.786 17.494 14.080 44.8-3.84 60.16zM512 846.507c16.214-9.387 31.146-20.907 44.8-34.56l148.48-148.481c13.226-13.226 24.746-28.586 34.134-44.8h-185.174c-23.466 0-42.666 19.2-42.666 42.668v185.173h0.426zM986.88 188.16l-68.694-68.694c-8.532-8.532-19.2-12.372-30.292-12.372-11.094 0-21.76 4.266-30.294 12.372-16.64 16.64-16.64 43.52 0 60.16l55.040 55.040h-315.734c-23.466 0-42.666 19.2-42.666 42.668 0 23.466 19.2 42.666 42.666 42.666h315.734l-55.040 55.040c-16.64 16.64-16.64 43.52 0 60.16s43.52 16.64 60.16 0l68.694-68.694c49.066-49.066 49.066-129.28 0-178.772l0.426 0.426z" />
<glyph unicode="&#xe913;" glyph-name="import" d="M851.157 723.798l-148.65 148.735c-56.449 56.405-131.457 87.467-211.2 87.467h-192.641c-117.631 0-213.333-95.701-213.333-213.334v-256c0-23.552 19.072-42.666 42.667-42.666s42.667 19.114 42.667 42.666v256c0 70.571 57.429 128.001 127.999 128.001h192.641c6.955 0 13.867-0.341 20.693-0.981v-212.351c0-70.572 57.43-128 128-128h212.353c0.639-6.828 0.981-13.74 0.981-20.693v-363.307c0-70.572-57.43-128-128-128h-426.668c-70.57 0-127.999 57.428-127.999 128 0 23.552-19.072 42.666-42.667 42.666s-42.667-19.114-42.667-42.666c0-117.633 95.701-213.334 213.333-213.334h426.668c117.631 0 213.332 95.701 213.332 213.334v363.307c0 79.829-31.103 154.751-87.509 211.157zM640 618.666c-23.552 0-42.666 19.159-42.666 42.668v185.215c16.212-9.301 31.275-20.779 44.843-34.347l148.65-148.737c13.568-13.525 25.045-28.586 34.347-44.8h-185.174zM443.648 277.334h-400.981c-23.595 0-42.667 19.114-42.667 42.666s19.072 42.666 42.667 42.666h400.981l-55.167 55.169c-16.683 16.683-16.683 43.69 0 60.33 16.681 16.683 43.647 16.683 60.33 0l68.821-68.864c49.238-49.236 49.238-129.364 0-178.645l-68.821-68.864c-8.321-8.319-19.243-12.501-30.165-12.501-10.924 0-21.846 4.182-30.165 12.501-16.683 16.64-16.683 43.647 0 60.33l55.167 55.212z" />
<glyph unicode="&#xe914;" glyph-name="expand-window" d="M975.679 414.3c-12.73 0-24.938-5.057-33.942-14.060-9.001-9.001-14.057-21.211-14.057-33.942v-193.219c-0.043-37.319-14.887-73.097-41.275-99.486s-62.167-41.232-99.486-41.275h-549.839c-37.319 0.043-73.098 14.887-99.486 41.275s-41.232 62.167-41.275 99.486v549.839c0.042 37.319 14.886 73.098 41.275 99.486s62.167 41.232 99.486 41.275h193.219c12.73 0 24.941 5.057 33.942 14.059 9.003 9.002 14.060 21.211 14.060 33.941s-5.057 24.94-14.060 33.941c-9.001 9.002-21.211 14.059-33.942 14.059h-193.219c-62.77-0.074-122.948-25.042-167.333-69.427s-69.353-104.563-69.427-167.333v-549.839c0.074-62.771 25.042-122.948 69.427-167.334 44.385-44.384 104.563-69.353 167.333-69.427h549.839c62.771 0.074 122.948 25.043 167.334 69.427 44.384 44.386 69.353 104.563 69.427 167.334v193.219c0 12.73-5.059 24.941-14.060 33.942-9.001 9.003-21.211 14.060-33.942 14.060zM974.66 960h-298.4c-12.569 0.002-24.637-4.925-33.614-13.725-8.974-8.799-14.139-20.768-14.385-33.335-0.502-26.94 22.159-48.94 49.078-48.94h182.661l-382.28-382.401c-9.001-9.001-14.057-21.209-14.057-33.939s5.057-24.938 14.057-33.939c9.001-9.001 21.209-14.057 33.939-14.057s24.938 5.057 33.939 14.057l382.401 382.279v-183.32c0-12.73 5.057-24.938 14.060-33.942 9.001-9.001 21.209-14.057 33.939-14.057 12.732 0 24.941 5.057 33.942 14.057 9.003 9.003 14.060 21.211 14.060 33.942v298c0 6.478-1.276 12.893-3.756 18.878s-6.115 11.423-10.697 16.003c-4.581 4.58-10.021 8.213-16.007 10.69s-12.401 3.751-18.881 3.749z" />
<glyph unicode="&#xe915;" glyph-name="job" d="M810.666 789.333h-46.975c-19.841 97.237-106.027 170.667-209.025 170.667h-85.332c-102.998 0-189.227-73.429-209.025-170.667h-46.975c-117.633 0-213.334-95.7-213.334-213.333v-426.666c0-117.633 95.701-213.334 213.334-213.334h597.332c117.633 0 213.334 95.701 213.334 213.334v426.666c0 117.633-95.701 213.333-213.334 213.333zM469.334 874.667h85.332c55.638 0 103.041-35.669 120.662-85.333h-326.656c17.621 49.664 65.024 85.333 120.662 85.333zM213.334 704h597.332c70.572 0 128-57.43 128-128v-42.666h-128v42.666c0 23.552-19.071 42.666-42.666 42.666s-42.666-19.114-42.666-42.666v-42.666h-426.668v42.666c0 23.552-19.071 42.666-42.666 42.666s-42.666-19.114-42.666-42.666v-42.666h-128.001v42.666c0 70.57 57.429 128 128.001 128zM810.666 21.334h-597.332c-70.571 0-128.001 57.428-128.001 128v298.666h128.001v-42.666c0-23.552 19.071-42.668 42.666-42.668s42.666 19.116 42.666 42.668v42.666h426.668v-42.666c0-23.552 19.071-42.668 42.666-42.668s42.666 19.116 42.666 42.668v42.666h128v-298.666c0-70.572-57.428-128-128-128z" />
<glyph unicode="&#xe916;" glyph-name="attachment" d="M455.694-63.998c-103.545-0.135-203.014 40.339-277.050 112.73-154.916 160.983-151.891 416.52 6.794 573.792l248.932 248.89c101.712 104.638 265.007 118.251 382.642 31.898 125.323-96.215 148.918-275.808 52.703-401.129-7.516-9.789-15.655-19.081-24.369-27.818l-260.499-260.497c-29.317-30.652-68.225-50.371-110.279-55.89-57.004-6.246-113.435 15.919-150.95 59.288-57.516 73.679-51.366 178.606 14.359 245.064l198.588 198.414c25.184 25.176 66.007 25.176 91.189 0 25.176-25.182 25.176-66.005 0-91.189l-204.691-204.737c-18.012-18.022-18.002-47.233 0.023-65.241 18.022-18.010 47.233-18.002 65.241 0.020l262.863 262.82c53.965 52.472 63.945 135.51 23.947 199.275-47.231 72.753-144.497 93.444-217.25 46.213-9.107-5.913-17.578-12.755-25.276-20.417l-259.424-259.639c-98.055-95.212-110.794-248.187-29.835-358.308 90.046-117.275 258.116-139.348 375.39-49.302 9.163 7.037 17.861 14.658 26.038 22.819l204.737 204.691c25.182 25.176 66.005 25.176 91.189 0 25.174-25.182 25.174-66.005 0-91.189l-204.734-204.691c-74.287-74.377-175.155-116.077-280.277-115.868z" />
<glyph unicode="&#xe917;" glyph-name="edit-2" d="M963.996 899.988c-38.697 38.7-90.147 60.012-144.873 60.012s-106.179-21.312-144.876-60.010l-572.59-572.593c-4.872-4.872-8.402-10.92-10.25-17.558l-89.936-323.113c-3.878-13.937 0.068-28.883 10.326-39.084 7.6-7.561 17.784-11.643 28.212-11.643 3.644 0 7.32 0.5 10.926 1.524l323.114 91.783c13.631 3.871 24.199 14.67 27.775 28.383s-0.371 28.295-10.377 38.334l-203.704 204.321 474.63 474.633 176.517-176.515-363.348-362.359c-15.643-15.6-15.677-40.925-0.078-56.568 15.6-15.645 40.929-15.675 56.57-0.078l431.958 430.785c38.701 38.697 60.013 90.147 60.013 144.873s-21.311 106.176-60.008 144.872zM286.794 87.683l-189.135-53.723 52.97 190.304 136.165-136.581zM907.465 666.849l-11.93-11.897-176.593 176.594 11.876 11.876c23.587 23.588 54.946 36.578 88.304 36.578s64.717-12.99 88.304-36.58c23.589-23.586 36.579-54.946 36.579-88.304s-12.99-64.719-36.54-88.267z" />
<glyph unicode="&#xe918;" glyph-name="direction" d="M961.835 598.141l-299.69 299.691c-82.731 82.731-217.516 82.731-300.247 0l-299.733-299.691c-82.731-82.772-82.731-217.471 0-300.245l299.692-299.69c41.386-41.388 95.744-62.038 150.143-62.038 54.401 0 108.757 20.65 150.145 62.038l299.69 299.69c82.731 82.774 82.731 217.473 0 300.245zM730.794 400.169l-103.295-103.297c-8.321-8.319-19.243-12.501-30.165-12.501-10.924 0-21.846 4.182-30.165 12.501-16.683 16.683-16.683 43.649 0 60.33l90.794 90.796h-231.297c-23.552 0-42.666-19.116-42.666-42.668v-128c0-23.593-19.071-42.666-42.666-42.666s-42.668 19.073-42.668 42.666v128c0 70.572 57.43 128 128 128h231.297l-90.794 90.796c-16.683 16.683-16.683 43.647 0 60.33 16.681 16.683 43.647 16.683 60.33 0l103.295-103.295c49.92-49.92 49.92-131.072 0-180.992z" />
<glyph unicode="&#xe919;" glyph-name="add-user" d="M317.975 361.896c-181.829-16.435-320.357-170.076-317.943-352.629v-9.259c0-35.344 28.653-63.998 63.998-63.998s63.998 28.654 63.998 63.998v11.819c-1.924 112.087 80.793 207.669 191.995 221.858 117.381 11.641 221.977-74.080 233.615-191.463 0.688-6.939 1.036-13.908 1.042-20.881v-21.334c0-35.344 28.654-63.998 63.998-63.998s63.998 28.654 63.998 63.998v21.334c-0.207 188.721-153.364 341.537-342.084 341.33-7.547-0.008-15.092-0.266-22.618-0.774zM341.352 447.996c141.38 0 255.992 114.612 255.992 255.992s-114.612 255.992-255.992 255.992c-141.379 0-255.991-114.612-255.991-255.992 0.142-141.322 114.67-255.85 255.991-255.992zM341.352 831.984c70.691 0 127.996-57.306 127.996-127.996s-57.305-127.996-127.996-127.996c-70.689 0-127.996 57.307-127.996 127.996s57.307 127.996 127.996 127.996zM960.002 533.324h-63.998v63.998c0 35.344-28.654 63.998-63.998 63.998s-63.998-28.654-63.998-63.998v-63.998h-63.998c-35.344 0-63.998-28.654-63.998-63.998s28.654-63.998 63.998-63.998h63.998v-63.998c0-35.344 28.654-63.998 63.998-63.998s63.998 28.654 63.998 63.998v63.998h63.998c35.344 0 63.998 28.654 63.998 63.998s-28.654 63.998-63.998 63.998z" />
<glyph unicode="&#xe91a;" glyph-name="tick" d="M695.382 606.378l59.904-60.799-247.169-243.499c-16.511-16.511-38.23-24.746-60.031-24.746-21.803 0-43.735 8.319-60.416 24.959l-118.7 115.030 59.435 61.311 119.169-115.497 247.808 243.241zM1024 448c0-282.325-229.675-512-512-512s-512 229.675-512 512c0 282.325 229.675 512 512 512s512-229.675 512-512zM938.666 448c0 235.264-191.402 426.667-426.666 426.667s-426.667-191.403-426.667-426.667c0-235.264 191.403-426.666 426.667-426.666s426.666 191.402 426.666 426.666z" />
<glyph unicode="&#xe91b;" glyph-name="view" d="M992.895 558.123c-66.175 107.776-216.703 288.597-480.895 288.597s-414.72-180.821-480.896-288.597c-20.457-33.090-31.294-71.221-31.294-110.123s10.836-77.033 31.294-110.123c66.176-107.776 216.704-288.596 480.896-288.596s414.72 180.82 480.895 288.596c20.457 33.090 31.295 71.221 31.295 110.123s-10.838 77.033-31.295 110.123zM920.15 382.55c-56.832-92.416-185.473-247.937-408.15-247.937s-351.317 155.521-408.149 247.937c-12.154 19.667-18.592 42.33-18.592 65.45s6.438 45.783 18.592 65.45c56.832 92.416 185.472 247.937 408.149 247.937s351.318-155.349 408.15-247.937c12.153-19.667 18.592-42.33 18.592-65.45s-6.439-45.783-18.592-65.45zM512 661.334c-42.193 0-83.44-12.513-118.522-35.955s-62.425-56.758-78.572-95.74c-16.148-38.982-20.371-81.877-12.141-123.259s28.549-79.395 58.384-109.23c29.835-29.835 67.848-50.153 109.23-58.384s84.277-4.008 123.259 12.141c38.982 16.146 72.298 43.489 95.74 78.572s35.955 76.329 35.955 118.522c-0.068 56.56-22.567 110.782-62.56 150.774-39.991 39.993-94.214 62.493-150.774 62.56zM512 320c-25.315 0-50.063 7.508-71.113 21.572-21.049 14.066-37.456 34.056-47.143 57.444-9.689 23.39-12.225 49.125-7.285 73.955 4.938 24.83 17.129 47.636 35.031 65.538s40.708 30.093 65.538 35.031c24.83 4.94 50.565 2.404 73.955-7.285 23.388-9.687 43.379-26.094 57.444-47.143s21.572-45.797 21.572-71.113c0-33.948-13.486-66.505-37.491-90.509s-56.562-37.491-90.509-37.491z" />
<glyph unicode="&#xe91c;" glyph-name="send" d="M986.411 922.363c-15.297 15.482-34.329 26.758-55.255 32.737-20.929 5.979-43.043 6.46-64.211 1.396l-682.667-143.787c-39.314-5.392-76.342-21.652-106.914-46.951s-53.474-58.63-66.126-96.241c-12.652-37.612-14.553-78.006-5.487-116.64s28.737-73.968 56.799-102.023l73.301-73.259c3.967-3.967 7.114-8.675 9.259-13.859s3.247-10.74 3.243-16.349v-135.168c0.094-19.005 4.469-37.745 12.8-54.827l-0.341-0.299 1.109-1.11c12.502-25.135 32.921-45.464 58.112-57.856l1.11-1.108 0.297 0.34c17.082-8.329 35.822-12.706 54.827-12.8h135.168c11.309 0.010 22.159-4.471 30.165-12.458l73.259-73.259c19.651-19.866 43.037-35.647 68.813-46.434s53.432-16.364 81.375-16.413c23.284 0.029 46.412 3.832 68.479 11.264 37.267 12.237 70.373 34.644 95.584 64.694 25.209 30.050 41.521 66.548 47.094 105.374l143.999 684.161c5.327 21.349 5.014 43.715-0.911 64.906-5.923 21.191-17.254 40.477-32.881 55.969zM196.268 437.84l-73.344 73.259c-17.079 16.669-29.049 37.861-34.505 61.092-5.456 23.233-4.173 47.538 3.7 70.066 7.633 23.112 21.743 43.545 40.653 58.868 18.91 15.325 41.823 24.895 66.014 27.574l675.883 142.294-641.067-641.152v117.547c0.063 16.796-3.201 33.438-9.609 48.964s-15.831 29.628-27.724 41.488zM792.363 131.92c-3.275-23.566-13.056-45.752-28.24-64.070-15.186-18.315-35.176-32.039-57.727-39.625s-46.77-8.737-69.939-3.324c-23.169 5.415-44.37 17.179-61.225 33.974l-73.386 73.386c-11.846 11.911-25.936 21.354-41.454 27.785-15.52 6.429-32.16 9.718-48.957 9.677h-117.547l641.153 640.938-142.678-678.742z" />
<glyph unicode="&#xe91d;" glyph-name="new" d="M499.718 529.392c101.093 0 183.312 82.233 183.312 183.296 0 101.078-82.219 183.312-183.312 183.312s-183.312-82.234-183.312-183.312c0-101.063 82.219-183.296 183.312-183.296zM619.031 712.688c0-65.782-53.533-119.296-119.312-119.296-65.782 0-119.312 53.514-119.312 119.296 0 65.797 53.531 119.312 119.312 119.312 65.78 0 119.312-53.516 119.312-119.312zM294.748 24.639h252.156c17.687 0 32 14.328 32 32 0 10.566-5.454 19.481-13.347 25.309-5.31 3.92-11.54 6.691-18.653 6.691h-252.156c-36.626 0-66.439 29.798-66.439 66.437 0 72.329 28.219 140.376 79.438 191.625 51.218 51.218 119.407 79.438 191.969 79.438 72.532 0 140.718-28.219 191.906-79.421 11.094-11.078 21.125-23.093 29.907-35.719 2.066-2.968 4.755-5.161 7.518-7.191 10.729-7.885 25.514-8.821 37.044-0.793 14.5 10.093 18.094 30.030 7.999 44.546-10.936 15.702-23.437 30.64-37.188 44.39-63.312 63.312-147.562 98.187-237.187 98.187-89.655 0-173.906-34.875-237.218-98.187-63.313-63.328-98.188-147.454-98.188-236.876 0-71.922 58.5-130.437 130.438-130.437zM772.94 205.48c0 17.672-14.311 32-32 32-17.687 0-32-14.328-32-32v-54.749h-54.749c-17.689 0-32-14.33-32-32 0-17.672 14.311-32 32-32h54.749v-54.735c0-17.672 14.313-32 32-32 17.689 0 32 14.328 32 32v54.735h54.751c17.687 0 32 14.328 32 32 0 17.67-14.313 32-32 32h-54.751v54.749z" />
<glyph unicode="&#xe91e;" glyph-name="returning" d="M452.481 473.6c94.398 0 171.198 76.8 171.198 171.201-7.999 226.56-334.399 226.56-342.399 0 0-94.401 76.8-171.201 171.201-171.201zM452.481 752.001c141.439-4.481 141.439-209.922 0-214.401-141.441 4.479-141.441 209.92 0 214.401zM804.479 112.001c0-17.601-14.399-32.002-32-32.002h-509.118c-42.24 0.641-41.921 63.361 0 64h474.88c-15.682 120.642-119.359 214.401-244.161 214.401h-83.519c-135.68 0-246.401-110.399-246.401-246.399-0.64-42.242-63.36-41.921-64 0 0 171.198 139.2 310.399 310.401 310.399h83.519c171.201 0 310.399-139.201 310.399-310.399zM891.519 448h-131.838l32.319-32.641c29.44-29.438-15.682-74.879-45.122-45.119l-87.038 87.359c-12.481 12.481-11.842 33.28 0.319 45.441l87.040 87.040c29.759 29.44 74.559-15.679 45.119-45.119l-32.319-32.641h131.84c41.921-0.639 41.921-63.359 0-64l-0.322-0.319z" />
<glyph unicode="&#xe91f;" glyph-name="down-arrow" d="M813.269 624.9c-5.943 5.947-13.001 10.666-20.767 13.883-7.768 3.219-16.093 4.876-24.502 4.876-8.407 0-16.734-1.657-24.5-4.876-7.768-3.217-14.825-7.936-20.769-13.883l-195.67-195.627c-4-4-9.425-6.246-15.081-6.246s-11.082 2.247-15.084 6.246l-195.627 195.627c-11.999 12.007-28.279 18.754-45.253 18.758-16.976 0.004-33.257-6.736-45.265-18.735-12.005-12.001-18.753-28.281-18.756-45.255-0.004-16.976 6.735-33.257 18.736-45.263l195.67-195.67c13.867-13.869 30.329-24.869 48.447-32.375 18.121-7.506 37.54-11.368 57.151-11.368s39.033 3.863 57.151 11.368c18.119 7.506 34.583 18.506 48.45 32.375l195.668 195.67c11.999 12.001 18.739 28.277 18.739 45.246 0 16.972-6.74 33.247-18.739 45.249z" />
<glyph unicode="&#xe920;" glyph-name="inbox" d="M919.808 435.196l-92.074 276.736c-9.093 31.474-28.148 59.15-54.303 78.874-26.157 19.725-58.006 30.435-90.765 30.524h-341.332c-32.76-0.088-64.608-10.799-90.765-30.524-26.155-19.725-45.21-47.401-54.302-78.874l-92.032-276.736c-5.465-16.325-8.246-33.43-8.235-50.645v-192.555c-2.506-21.617-0.091-43.52 7.064-64.074 7.155-20.552 18.864-39.221 34.252-54.608 15.388-15.389 34.057-27.099 54.609-34.253 20.552-7.156 42.457-9.57 64.074-7.066h512c21.617-2.505 43.522-0.090 64.074 7.066 20.552 7.154 39.221 18.864 54.61 34.253 15.389 15.387 27.097 34.056 34.253 54.608 7.154 20.554 9.568 42.457 7.064 64.074v192.555c0.012 17.213-2.755 34.314-8.192 50.645zM257.194 691.708c4.905 18.643 15.792 35.16 30.992 47.014 15.2 11.856 33.872 18.392 53.148 18.608h341.332c19.276-0.216 37.947-6.752 53.148-18.608 15.198-11.854 26.087-28.371 30.992-47.014l84.777-254.378h-124.33c-27.179-0.604-53.719-8.366-76.941-22.501s-42.306-34.144-55.325-58.010c-8.475-14.463-20.584-26.456-35.127-34.789-14.543-8.335-31.013-12.72-47.774-12.72-16.763 0-33.233 4.385-47.776 12.72-14.543 8.333-26.653 20.326-35.127 34.789-13.027 23.853-32.115 43.854-55.335 57.981-23.222 14.127-49.756 21.883-76.931 22.487h-124.501l84.778 254.421zM768 95.996h-512c-67.285 0-96 28.715-96 96v181.334h136.747c16.001-0.668 31.545-5.528 45.076-14.094s24.574-20.539 32.023-34.716c14.121-24.101 34.302-44.087 58.538-57.975s51.683-21.195 79.616-21.195c27.933 0 55.38 7.307 79.616 21.195 24.234 13.887 44.417 33.874 58.538 57.975 7.438 14.189 18.479 26.171 32.010 34.746 13.533 8.573 29.082 13.439 45.089 14.107h136.534v-181.377c0.213-67.285-28.502-96-95.787-96z" />
<glyph unicode="&#xe921;" glyph-name="help" d="M512 960c-101.263 0-200.253-30.028-284.451-86.288s-149.823-136.224-188.575-229.778c-38.752-93.557-48.891-196.502-29.136-295.821 19.756-99.318 68.519-190.548 140.123-262.152 71.605-71.604 162.834-120.367 262.153-140.122 99.318-19.757 202.263-9.617 295.819 29.135s173.519 104.376 229.777 188.574c56.261 84.199 86.288 183.19 86.288 284.453-0.147 135.746-54.137 265.89-150.122 361.876-95.988 95.987-226.132 149.977-361.878 150.124zM512 21.334c-84.386 0-166.877 25.022-237.044 71.905-70.164 46.883-124.851 113.519-157.145 191.482s-40.743 163.752-24.28 246.518c16.463 82.764 57.099 158.79 116.769 218.46s135.696 100.306 218.46 116.769c82.766 16.463 168.554 8.014 246.518-24.28s144.599-86.98 191.482-157.145c46.883-70.164 71.905-152.658 71.905-237.044-0.123-113.121-45.115-221.573-125.104-301.562s-188.441-124.981-301.562-125.104zM542.593 743.979c-24.605 4.483-49.895 3.504-74.078-2.869-24.185-6.373-46.674-17.981-65.874-34.007-19.2-16.028-34.644-36.076-45.238-58.73s-16.081-47.362-16.069-72.372c0-11.315 4.495-22.168 12.497-30.169s18.854-12.497 30.169-12.497c11.315 0 22.168 4.495 30.169 12.497s12.497 18.854 12.497 30.169c-0.010 12.554 2.748 24.955 8.081 36.319s13.107 21.414 22.768 29.43c9.662 8.014 20.974 13.799 33.126 16.941 12.155 3.142 24.852 3.564 37.188 1.235 16.855-3.271 32.352-11.493 44.513-23.615 12.159-12.122 20.429-27.593 23.755-44.438 3.357-17.68 1.038-35.971-6.625-52.255-7.664-16.286-20.277-29.729-36.043-38.412-26.104-15.124-47.675-36.97-62.466-63.267-14.791-26.294-22.26-56.074-21.629-86.237v-31.701c0-11.315 4.495-22.168 12.497-30.169s18.854-12.497 30.169-12.497c11.315 0 22.168 4.495 30.169 12.497s12.497 18.854 12.497 30.169v31.701c-0.535 14.848 2.851 29.575 9.816 42.697 6.967 13.124 17.267 24.179 29.864 32.055 30.913 16.978 55.806 43.117 71.258 74.82 15.45 31.705 20.699 67.416 15.026 102.226-5.673 34.808-21.991 67.004-46.711 92.16-24.717 25.156-56.623 42.037-91.326 48.321zM554.666 192c0 23.564-19.102 42.666-42.666 42.666s-42.666-19.102-42.666-42.666c0-23.564 19.102-42.666 42.666-42.666s42.666 19.102 42.666 42.666z" />
<glyph unicode="&#xe922;" glyph-name="inventory" d="M269.855 794.585c-19.89 0-38.074-11.238-46.967-29.029l-38-75.997h654.223l-37.999 75.997c-8.892 17.791-27.077 29.029-46.967 29.029h-484.291zM858.585 626.543h-693.17v-472.615c0-29.002 23.511-52.513 52.512-52.513h588.145c29.002 0 52.513 23.511 52.513 52.513v472.615zM166.524 793.738c19.569 39.139 59.573 63.862 103.33 63.862h484.291c43.758 0 83.761-24.723 103.33-63.863l60.797-121.596c2.189-4.375 3.328-9.198 3.328-14.090v-504.123c0-63.805-51.722-115.528-115.528-115.528h-588.145c-63.804 0-115.528 51.722-115.528 115.528v504.123c0 4.893 1.139 9.716 3.326 14.090l60.798 121.596zM375.466 237.949c0 17.4 14.109 31.508 31.508 31.508h210.051c17.4 0 31.508-14.109 31.508-31.508 0-17.402-14.109-31.508-31.508-31.508h-210.051c-17.4 0-31.508 14.107-31.508 31.508z" />
<glyph unicode="&#xe923;" glyph-name="search" d="M926.294 94.296l-120.746 120.32c65.458 80.867 97.389 183.769 89.211 287.488-8.178 103.717-55.845 200.344-133.167 269.952-77.324 69.609-178.412 106.893-282.415 104.164-104.006-2.729-202.998-45.262-276.565-118.83s-116.101-172.56-118.829-276.565c-2.729-104.004 34.555-205.089 104.164-282.413s166.235-124.989 269.954-133.169c103.717-8.178 206.619 23.755 287.488 89.213l120.32-120.748c3.965-3.998 8.686-7.172 13.883-9.339 5.2-2.167 10.777-3.281 16.409-3.281 5.634 0 11.211 1.114 16.409 3.281 5.2 2.167 9.918 5.341 13.885 9.339 4 3.967 7.174 8.686 9.339 13.885 2.167 5.2 3.281 10.777 3.281 16.409s-1.114 11.209-3.281 16.409c-2.165 5.2-5.339 9.918-9.339 13.885zM170.667 469.336c0 63.289 18.768 125.157 53.929 177.781s85.139 93.641 143.612 117.86 122.814 30.557 184.887 18.21c62.075-12.347 119.093-42.824 163.846-87.577s75.229-101.771 87.577-163.846c12.347-62.073 6.011-126.415-18.209-184.887s-65.235-108.45-117.86-143.612c-52.623-35.162-114.491-53.928-177.781-53.928-84.869 0-166.263 33.714-226.275 93.725-60.011 60.013-93.725 141.406-93.725 226.275z" />
<glyph unicode="&#xe924;" glyph-name="report-2" d="M943.735 700.6l-243.401 235.6c-14.801 14.4-35 22.6-55.8 22.6l-458.402 1.2c-55.6 0-100.8-44.8-100.8-100v-823.601c0-54.2 46.6-100.198 101.8-100.198h678.002c54.198 0 98.198 45.001 98.198 100.399v616.2c0 18.6-6.998 35.6-19.597 47.8zM699.331 825.8l125.805-121.599h-104.002c-11.6 0-21.803 8.999-21.803 19.2v102.399zM865.135 16.2h-678.002c-11.2 0-21.8 9.802-21.8 20.4v823.4c0 10.6 9.8 20 20.8 20l433.199-1.2v-155.399c0-54.602 45.603-99.201 101.802-99.201h162.198v-587.6c0-10.002-6.801-20.4-18.196-20.4zM365.332 654.201c-22 0-39.999-18.002-39.999-40.002v-431.999c0-22 18-40.002 39.999-40.002s39.999 18.002 39.999 40.002v431.999c0 22-18 40.002-39.999 40.002zM525.332 550.199c-22 0-39.999-18.002-39.999-39.999v-327.999c0-22 18-40.002 39.999-40.002s39.999 18.002 39.999 40.002v327.999c0 21.998-18 39.999-39.999 39.999zM685.332 446.2c-22 0-39.999-18.002-39.999-39.999v-224c0-22 18-40.002 39.999-40.002s39.999 18.002 39.999 40.002v224c0 21.998-18 39.999-39.999 39.999z" />
<glyph unicode="&#xe925;" glyph-name="report-1" d="M320 928c-159.058 0-288-128.942-288-288v-384c0-159.058 128.942-288 288-288h384c159.058 0 288 128.942 288 288v176.001c0 17.672-14.326 31.998-32 31.998s-32-14.326-32-31.998v-176.001c0-123.711-100.289-224-224-224h-384c-123.712 0-224 100.289-224 224v384c0 123.712 100.288 224 224 224h384c123.711 0 224-100.288 224-224v-48.001c0-17.672 14.326-31.998 32-31.998s32 14.326 32 31.998v48.001c0 159.058-128.942 288-288 288h-384zM544 655.999c0 17.674-14.326 32.002-32 32.002s-32-14.328-32-32.002v-399.999c0-17.674 14.326-32 32-32s32 14.326 32 32v399.999zM352 544c0 17.674-14.326 32-32 32s-32-14.326-32-32v-288c0-17.674 14.326-32 32-32s32 14.326 32 32v288zM736 416c0 17.674-14.326 32-32 32s-32-14.326-32-32v-160c0-17.674 14.326-32 32-32s32 14.326 32 32v160z" />
<glyph unicode="&#xe926;" glyph-name="filter" d="M42.667 757.332h116.736c9.158-33.696 29.149-63.441 56.889-84.648s61.688-32.696 96.604-32.696c34.918 0 68.866 11.489 96.606 32.696 27.738 21.207 47.731 50.952 56.887 84.648h514.945c11.315 0 22.168 4.495 30.169 12.497s12.497 18.854 12.497 30.17c0 11.316-4.495 22.168-12.497 30.17s-18.854 12.497-30.169 12.497h-514.945c-9.157 33.695-29.149 63.441-56.887 84.648-27.74 21.207-61.688 32.697-96.606 32.697-34.916 0-68.864-11.49-96.604-32.697s-47.731-50.952-56.889-84.648h-116.736c-11.316 0-22.168-4.495-30.17-12.497s-12.497-18.854-12.497-30.17c0-11.316 4.495-22.168 12.497-30.17s18.854-12.497 30.17-12.497zM312.875 874.666c14.768 0 29.202-4.379 41.482-12.584s21.848-19.866 27.501-33.509c5.65-13.644 7.129-28.657 4.25-43.141-2.882-14.484-9.992-27.788-20.435-38.23s-23.747-17.555-38.232-20.435c-14.483-2.882-29.495-1.403-43.139 4.248s-25.305 15.223-33.509 27.501-12.583 26.715-12.583 41.483c0.023 19.796 7.895 38.775 21.893 52.772s32.977 21.872 52.773 21.894zM981.334 490.666h-116.736c-9.144 33.702-29.127 63.459-56.865 84.675-27.736 21.215-61.688 32.711-96.608 32.711s-68.87-11.495-96.608-32.711c-27.738-21.215-47.72-50.973-56.863-84.675h-514.987c-11.316 0-22.168-4.495-30.17-12.497s-12.497-18.854-12.497-30.171c0-11.315 4.495-22.168 12.497-30.169s18.854-12.497 30.17-12.497h514.987c9.142-33.702 29.125-63.459 56.863-84.675s61.688-32.711 96.608-32.711c34.92 0 68.872 11.495 96.608 32.711 27.738 21.215 47.72 50.973 56.865 84.675h116.736c11.315 0 22.168 4.495 30.169 12.497s12.497 18.854 12.497 30.169c0 11.317-4.495 22.17-12.497 30.171s-18.854 12.497-30.169 12.497zM711.125 373.332c-14.768 0-29.202 4.379-41.482 12.583-12.28 8.206-21.85 19.868-27.501 33.509-5.65 13.644-7.129 28.658-4.25 43.141 2.882 14.483 9.992 27.789 20.435 38.23 10.443 10.443 23.747 17.555 38.232 20.435 14.483 2.882 29.495 1.403 43.139-4.248s25.305-15.223 33.509-27.501c8.204-12.28 12.583-26.716 12.583-41.484-0.023-19.794-7.895-38.773-21.893-52.771s-32.977-21.873-52.773-21.895zM981.334 138.666h-514.945c-9.157 33.696-29.149 63.441-56.887 84.648-27.74 21.207-61.688 32.696-96.606 32.696-34.916 0-68.864-11.489-96.604-32.696s-47.731-50.952-56.889-84.648h-116.736c-11.316 0-22.168-4.495-30.17-12.497s-12.497-18.854-12.497-30.171c0-11.315 4.495-22.168 12.497-30.169s18.854-12.497 30.17-12.497h116.736c9.158-33.696 29.149-63.441 56.889-84.648s61.688-32.696 96.604-32.696c34.918 0 68.866 11.489 96.606 32.696 27.738 21.207 47.731 50.952 56.887 84.648h514.945c11.315 0 22.168 4.495 30.169 12.497s12.497 18.854 12.497 30.169c0 11.317-4.495 22.17-12.497 30.171s-18.854 12.497-30.169 12.497zM312.875 21.332c-14.768 0-29.204 4.379-41.482 12.583-12.28 8.206-21.85 19.868-27.501 33.509-5.652 13.644-7.131 28.658-4.25 43.141s9.992 27.789 20.435 38.23c10.443 10.443 23.747 17.553 38.23 20.435s29.497 1.403 43.141-4.248c13.644-5.652 25.305-15.223 33.509-27.501 8.204-12.28 12.583-26.716 12.583-41.484-0.033-19.792-7.911-38.765-21.905-52.759-13.996-13.996-32.969-21.873-52.761-21.907z" />
<glyph unicode="&#xe927;" glyph-name="user" d="M39.666 21.33c0-23.562 19.083-42.666 42.667-42.666s42.667 19.104 42.667 42.666c0 150.563 86.678 283.857 221.784 346.89 46.758-30.384 102.382-48.224 162.175-48.224 60.017 0 115.855 17.959 162.724 48.558 40.333-19.038 77.709-44.657 108.816-75.745 72.542-72.563 112.501-168.978 112.501-271.479 0-23.562 19.083-42.666 42.666-42.666 23.585 0 42.668 19.104 42.668 42.666 0 125.293-48.835 243.124-137.501 331.813-29.669 29.684-64.152 55.138-101.147 76.122 42.42 51.581 67.938 117.559 67.938 189.399 0 164.687-134.001 298.666-298.666 298.666-164.667 0-298.668-133.979-298.668-298.666 0-71.666 25.414-137.482 67.645-189.008-146.465-82.465-238.27-236.542-238.27-408.326zM508.959 831.997c117.625 0 213.332-95.708 213.332-213.333s-95.707-213.334-213.332-213.334c-117.625 0-213.334 95.709-213.334 213.334s95.709 213.333 213.334 213.333z" />
<glyph unicode="&#xe928;" glyph-name="dispatch" d="M692.746 176.933h-331.356c-7.961 0-15.596 3.162-21.223 8.79-5.63 5.63-8.792 13.265-8.792 21.225s3.162 15.596 8.792 21.223c5.628 5.63 13.263 8.792 21.223 8.792h301.339v421.902c-0.014 16.011-6.388 31.363-17.715 42.678-11.327 11.317-26.683 17.674-42.697 17.674h-481.933c-16.001-0.016-31.343-6.38-42.658-17.695s-17.678-26.657-17.694-42.658v-361.49c0-16.011 6.357-31.369 17.673-42.697s26.667-17.699 42.679-17.715c7.961 0 15.595-3.162 21.224-8.792 5.629-5.628 8.791-13.263 8.791-21.223s-3.163-15.596-8.791-21.225c-5.629-5.628-13.264-8.79-21.224-8.79-31.928 0.031-62.539 12.732-85.11 35.316-22.571 22.581-35.257 53.199-35.273 85.127v361.49c0.037 31.916 12.732 62.515 35.3 85.084s53.167 35.263 85.083 35.3h481.933c31.918-0.037 62.515-12.732 85.084-35.3s35.262-53.168 35.299-85.084v-451.918c0-7.95-3.154-15.575-8.77-21.203s-13.234-8.796-21.185-8.813zM959.066 176.933h-55.45c-7.961 0-15.596 3.162-21.223 8.79-5.63 5.63-8.792 13.265-8.792 21.225s3.162 15.596 8.792 21.223c5.628 5.63 13.263 8.792 21.223 8.792h55.45c1.296 0 2.54 0.514 3.459 1.43s1.438 2.157 1.444 3.453v229.382c-0.037 33.806-13.486 66.218-37.396 90.12-23.908 23.9-56.324 37.339-90.13 37.366h-113.68v-361.751h60.35c7.961 0 15.596-3.162 21.225-8.792 5.628-5.628 8.792-13.263 8.792-21.223s-3.164-15.596-8.792-21.225c-5.63-5.628-13.265-8.79-21.225-8.79h-90.366c-7.963 0-15.596 3.162-21.225 8.79-5.628 5.63-8.792 13.265-8.792 21.225v421.782c0 7.961 3.164 15.596 8.792 21.225 5.63 5.628 13.265 8.792 21.225 8.792h143.696c49.715-0.059 97.376-19.835 132.53-54.989s54.929-82.815 54.987-132.53v-229.323c-0.004-17.215-6.84-33.726-19.007-45.908s-28.67-19.038-45.885-19.065zM993.985 417.98h-301.238c-7.961 0-15.596 3.162-21.225 8.79-5.628 5.63-8.792 13.265-8.792 21.225s3.164 15.596 8.792 21.223c5.63 5.63 13.265 8.792 21.225 8.792h301.238c7.961 0 15.596-3.162 21.223-8.792 5.63-5.628 8.792-13.263 8.792-21.223s-3.162-15.596-8.792-21.225c-5.628-5.628-13.263-8.79-21.223-8.79zM180.635 116.74c-17.856 0-35.311 5.296-50.156 15.217-14.846 9.923-26.416 24.023-33.246 40.522-6.83 16.497-8.615 34.65-5.127 52.163s12.091 33.595 24.721 46.217c12.63 12.622 28.72 21.215 46.234 24.691s35.666 1.679 52.158-5.161c16.495-6.842 30.587-18.422 40.499-33.274s15.196-32.309 15.184-50.166c-0.043-23.923-9.568-46.852-26.489-63.76-16.923-16.91-39.857-26.421-63.779-26.448zM180.635 237.224c-5.978 0-11.823-1.772-16.794-5.093s-8.847-8.040-11.136-13.562c-2.29-5.523-2.891-11.6-1.727-17.465 1.163-5.863 4.039-11.252 8.264-15.481 4.225-4.231 9.608-7.113 15.471-8.284s11.941-0.578 17.466 1.704c5.526 2.281 10.25 6.152 13.578 11.119 3.326 4.966 5.108 10.809 5.114 16.787 0.004 3.973-0.776 7.907-2.294 11.579-1.52 3.672-3.746 7.008-6.553 9.82s-6.142 5.042-9.811 6.566c-3.67 1.522-7.604 2.308-11.577 2.31zM301.138 116.74c-17.854 0-35.31 5.296-50.156 15.217-14.846 9.923-26.415 24.023-33.245 40.522-6.83 16.497-8.616 34.65-5.126 52.163 3.488 17.512 12.089 33.595 24.719 46.217s28.721 21.215 46.236 24.691c17.512 3.475 35.666 1.679 52.158-5.161 16.493-6.842 30.587-18.422 40.499-33.274 9.91-14.852 15.194-32.309 15.182-50.166-0.037-23.923-9.56-46.856-26.483-63.767s-39.86-26.419-63.785-26.442zM301.138 237.224c-5.978 0-11.821-1.772-16.794-5.093-4.97-3.32-8.847-8.040-11.137-13.562s-2.89-11.6-1.726-17.465c1.163-5.863 4.039-11.252 8.264-15.481 4.225-4.231 9.609-7.113 15.471-8.284s11.942-0.578 17.467 1.704 10.25 6.152 13.576 11.119c3.328 4.966 5.108 10.809 5.116 16.787 0.002 3.973-0.776 7.907-2.296 11.579-1.518 3.672-3.744 7.008-6.552 9.82s-6.142 5.042-9.812 6.566c-3.67 1.522-7.602 2.308-11.577 2.31zM843.364 116.74c-17.854 0-35.31 5.296-50.156 15.217-14.846 9.923-26.415 24.023-33.245 40.522-6.832 16.497-8.616 34.65-5.128 52.163s12.091 33.595 24.721 46.217c12.63 12.622 28.721 21.215 46.234 24.691s35.666 1.679 52.161-5.161c16.493-6.842 30.587-18.422 40.497-33.274 9.912-14.852 15.196-32.309 15.184-50.166-0.041-23.923-9.568-46.852-26.489-63.76-16.921-16.91-39.856-26.421-63.779-26.448zM843.364 237.224c-5.978 0-11.823-1.772-16.794-5.093s-8.847-8.040-11.137-13.562c-2.29-5.523-2.89-11.6-1.726-17.465 1.163-5.863 4.039-11.252 8.264-15.481 4.225-4.231 9.607-7.113 15.471-8.284s11.94-0.578 17.465 1.704c5.528 2.281 10.252 6.152 13.578 11.119 3.328 4.966 5.108 10.809 5.116 16.787 0.002 3.973-0.778 7.907-2.296 11.579s-3.744 7.008-6.552 9.82c-2.808 2.812-6.142 5.042-9.812 6.566-3.67 1.522-7.604 2.308-11.577 2.31z" />
<glyph unicode="&#xe929;" glyph-name="download" d="M851.157 723.798l-148.65 148.735c-56.447 56.405-131.455 87.467-211.2 87.467h-192.639c-117.633 0-213.334-95.701-213.334-213.334v-597.332c0-117.633 95.701-213.334 213.334-213.334h426.666c117.631 0 213.334 95.701 213.334 213.334v363.307c0 79.829-31.105 154.751-87.511 211.157zM790.827 663.425c13.568-13.527 25.045-28.588 34.347-44.802h-185.217c-23.552 0-42.666 19.159-42.666 42.668v185.258c16.214-9.301 31.275-20.779 44.843-34.347l148.693-148.778zM853.334 149.291c0-70.57-57.43-128-128-128h-426.666c-70.572 0-128.001 57.43-128.001 128v597.375c0 70.571 57.429 128.001 128.001 128.001h192.639c6.955 0 13.867-0.341 20.693-0.981v-212.351c0-70.572 57.43-128 128-128h212.353c0.639-6.828 0.981-13.74 0.981-20.693v-363.35zM670.165 272.81c16.683-16.64 16.683-43.647 0-60.33l-68.821-68.864c-24.619-24.619-57.002-36.95-89.344-36.95-32.34 0-64.725 12.331-89.344 36.95l-68.821 68.864c-16.683 16.683-16.683 43.69 0 60.33 16.683 16.683 43.649 16.683 60.33 0l55.169-55.167v187.648c0 23.552 19.071 42.666 42.666 42.666s42.668-19.114 42.668-42.666v-187.648l55.167 55.167c16.683 16.683 43.649 16.683 60.33 0z" />
<glyph unicode="&#xe92a;" glyph-name="up-and-down" d="M268.497 606.169c-16.663-16.663-16.663-43.676 0-60.338s43.678-16.663 60.34 0l183.163 183.163 183.163-183.163c16.663-16.663 43.678-16.663 60.34 0 16.66 16.663 16.66 43.676 0 60.338l-213.334 213.334c-7.999 8.001-18.854 12.497-30.169 12.497s-22.17-4.495-30.169-12.497l-213.334-213.334zM755.503 289.831c16.66 16.66 16.66 43.678 0 60.338-16.663 16.663-43.678 16.663-60.34 0l-183.163-183.163-183.163 183.163c-16.663 16.663-43.678 16.663-60.34 0-16.663-16.66-16.663-43.678 0-60.338l213.334-213.334c16.66-16.66 43.678-16.66 60.338 0l213.334 213.334z" />
<glyph unicode="&#xe92b;" glyph-name="call" d="M512-64c-282.325 0-512 229.675-512 512s229.675 512 512 512c282.325 0 512-229.675 512-512s-229.675-512-512-512zM512 874.667c-235.264 0-426.667-191.403-426.667-426.667s191.403-426.666 426.667-426.666c235.264 0 426.666 191.402 426.666 426.666s-191.402 426.667-426.666 426.667zM629.205 363.905l-45.611-36.311c-88.363 33.751-153.557 96.256-192 192l36.309 45.611c19.030 19.030 19.030 49.92 0 68.95l-42.666 55.552c-19.028 19.030-49.92 19.030-68.95 0l-25.6-22.272c-23.552-23.509-34.687-54.485-34.687-85.334 0-170.666 231.637-390.101 390.101-390.101 30.849 0 61.825 11.137 85.334 34.689l22.272 25.6c19.030 19.028 19.030 49.92 0 68.948l-55.552 42.668c-19.030 19.028-49.92 19.028-68.95 0z" />
<glyph unicode="&#xe92c;" glyph-name="delete" d="M896 789.333h-132.266c-9.904 48.153-36.104 91.42-74.187 122.508s-85.719 48.097-134.881 48.159h-85.332c-49.162-0.062-96.797-17.071-134.881-48.159s-64.283-74.355-74.187-122.508h-132.266c-11.316 0-22.168-4.495-30.17-12.497s-12.497-18.854-12.497-30.171c0-11.315 4.495-22.168 12.497-30.169s18.854-12.497 30.17-12.497h42.667v-554.666c0.068-56.56 22.566-110.782 62.559-150.776s94.214-62.491 150.774-62.558h256c56.56 0.068 110.782 22.565 150.776 62.558 39.991 39.993 62.491 94.216 62.558 150.776v554.666h42.666c11.315 0 22.168 4.495 30.169 12.497s12.497 18.854 12.497 30.169c0 11.317-4.495 22.169-12.497 30.171s-18.854 12.497-30.169 12.497zM469.334 874.667h85.332c26.466-0.032 52.273-8.251 73.884-23.528 21.608-15.277 37.964-36.866 46.821-61.805h-326.742c8.858 24.939 25.213 46.527 46.821 61.805 21.61 15.278 47.417 23.496 73.884 23.528zM768 149.334c0-33.948-13.486-66.505-37.491-90.511s-56.562-37.489-90.509-37.489h-256c-33.948 0-66.505 13.484-90.509 37.489-24.005 24.007-37.491 56.564-37.491 90.511v554.666h512v-554.666zM426.666 192c11.317 0 22.17 4.495 30.171 12.497s12.497 18.854 12.497 30.169v256c0 11.317-4.495 22.17-12.497 30.171s-18.854 12.497-30.171 12.497c-11.315 0-22.168-4.495-30.169-12.497s-12.497-18.854-12.497-30.171v-256c0-11.315 4.495-22.168 12.497-30.169s18.854-12.497 30.169-12.497zM597.334 192c11.315 0 22.168 4.495 30.169 12.497s12.497 18.854 12.497 30.169v256c0 11.317-4.495 22.17-12.497 30.171s-18.854 12.497-30.169 12.497c-11.317 0-22.17-4.495-30.171-12.497s-12.497-18.854-12.497-30.171v-256c0-11.315 4.495-22.168 12.497-30.169s18.854-12.497 30.171-12.497z" />
<glyph unicode="&#xe92d;" glyph-name="close-1" d="M213.365 209.652c-16.662-16.667-16.659-43.68 0.004-60.34 16.665-16.66 43.68-16.66 60.34 0.004l238.303 238.344 238.324-238.324c16.66-16.66 43.678-16.66 60.34 0 16.66 16.663 16.66 43.68 0 60.34l-238.328 238.328 238.309 238.352c16.656 16.663 16.656 43.678-0.008 60.338-16.66 16.662-43.678 16.66-60.34-0.004l-238.305-238.348-238.324 238.328c-16.663 16.662-43.678 16.662-60.34 0s-16.662-43.678 0-60.34l238.334-238.33-238.309-238.348z" />
<glyph unicode="&#xe92e;" glyph-name="close" d="M670.165 545.835l-97.835-97.835 97.835-97.835c16.683-16.683 16.683-43.647 0-60.33-8.319-8.321-19.243-12.501-30.165-12.501s-21.846 4.18-30.165 12.501l-97.835 97.835-97.835-97.835c-8.319-8.321-19.243-12.501-30.165-12.501s-21.846 4.18-30.165 12.501c-16.683 16.683-16.683 43.647 0 60.33l97.835 97.835-97.835 97.835c-16.683 16.683-16.683 43.647 0 60.33s43.647 16.683 60.33 0l97.835-97.835 97.835 97.835c16.683 16.683 43.647 16.683 60.33 0s16.683-43.647 0-60.33zM1024 448c0-282.325-229.675-512-512-512s-512 229.675-512 512c0 282.325 229.675 512 512 512s512-229.675 512-512zM938.666 448c0 235.264-191.402 426.667-426.666 426.667s-426.667-191.403-426.667-426.667c0-235.264 191.403-426.666 426.667-426.666s426.666 191.402 426.666 426.666z" />
<glyph unicode="&#xe92f;" glyph-name="time" d="M512-64c-282.325 0-512 229.675-512 512s229.675 512 512 512c282.325 0 512-229.675 512-512s-229.675-512-512-512zM512 874.667c-235.264 0-426.667-191.403-426.667-426.667s191.403-426.666 426.667-426.666c235.264 0 426.666 191.402 426.666 426.666s-191.402 426.667-426.666 426.667zM725.334 448c0 23.595-19.073 42.666-42.668 42.666h-128v213.334c0 23.595-19.114 42.666-42.666 42.666s-42.666-19.071-42.666-42.666v-256c0-23.595 19.114-42.666 42.666-42.666h170.666c23.595 0 42.668 19.071 42.668 42.666z" />
<glyph unicode="&#xe930;" glyph-name="calendar" d="M810.666 874.667h-42.666v42.667c0 11.316-4.495 22.168-12.497 30.17s-18.854 12.497-30.169 12.497c-11.317 0-22.17-4.495-30.171-12.497s-12.497-18.854-12.497-30.17v-42.667h-341.332v42.667c0 11.316-4.495 22.168-12.497 30.17s-18.854 12.497-30.171 12.497c-11.315 0-22.168-4.495-30.169-12.497s-12.497-18.854-12.497-30.17v-42.667h-42.666c-56.559-0.068-110.782-22.565-150.775-62.559s-62.491-94.216-62.559-150.774v-512c0.068-56.56 22.566-110.782 62.559-150.776s94.216-62.491 150.775-62.558h597.332c56.56 0.068 110.782 22.565 150.776 62.558s62.491 94.216 62.558 150.776v512c-0.068 56.558-22.565 110.781-62.558 150.774s-94.216 62.491-150.776 62.559zM85.333 661.334c0 33.948 13.486 66.505 37.49 90.509s56.562 37.49 90.51 37.49h597.332c33.948 0 66.505-13.486 90.511-37.49 24.005-24.005 37.489-56.562 37.489-90.509v-42.668h-853.333v42.668zM810.666 21.334h-597.332c-33.948 0-66.506 13.484-90.51 37.489-24.005 24.007-37.49 56.564-37.49 90.511v384h853.333v-384c0-33.948-13.484-66.505-37.489-90.511-24.007-24.005-56.564-37.489-90.511-37.489zM512 256c35.346 0 64 28.654 64 64s-28.654 64-64 64c-35.346 0-64-28.654-64-64s28.654-64 64-64zM298.666 256c35.346 0 64 28.654 64 64s-28.654 64-64 64c-35.346 0-64-28.654-64-64s28.654-64 64-64zM725.334 256c35.346 0 64 28.654 64 64s-28.654 64-64 64c-35.346 0-64-28.654-64-64s28.654-64 64-64z" />
<glyph unicode="&#xe931;" glyph-name="calendar-edit" d="M810.666 874.667h-42.666v42.667c0 23.552-19.114 42.667-42.666 42.667s-42.668-19.115-42.668-42.667v-42.667h-341.332v42.667c0 23.552-19.116 42.667-42.668 42.667s-42.666-19.115-42.666-42.667v-42.667h-42.666c-117.633 0-213.334-95.701-213.334-213.333v-512c0-117.633 95.701-213.334 213.334-213.334h170.666c23.552 0 42.666 19.114 42.666 42.666s-19.114 42.668-42.666 42.668h-170.666c-70.571 0-128.001 57.428-128.001 128v384h896.001c23.552 0 42.666 19.114 42.666 42.666v85.334c0 117.631-95.701 213.333-213.334 213.333zM938.666 618.666h-853.333v42.668c0 70.57 57.429 127.999 128.001 127.999h597.332c70.572 0 128-57.429 128-127.999v-42.668zM805.503 410.495l-243.497-243.497c-32.215-32.215-50.006-75.094-50.006-120.705v-67.67c0-23.552 19.114-42.666 42.666-42.666h67.67c45.611 0 88.447 17.793 120.662 50.006l243.497 243.499c24.193 24.191 37.505 56.32 37.505 90.538s-13.312 66.347-37.462 90.495c-48.384 48.384-132.692 48.384-181.035 0zM926.165 289.835l-243.542-243.499c-16.085-16.128-37.503-25.002-60.33-25.002h-25.002v25.002c0 22.784 8.874 44.202 25.002 60.33l243.542 243.499c16.085 16.128 44.202 16.128 60.33 0 8.065-8.022 12.501-18.731 12.501-30.165s-4.436-22.102-12.501-30.165zM213.334 362.666c0 23.552 19.114 42.668 42.666 42.668h298.666c23.552 0 42.668-19.116 42.668-42.668s-19.116-42.666-42.668-42.666h-298.666c-23.552 0-42.666 19.114-42.666 42.666zM469.334 192c0-23.552-19.116-42.666-42.668-42.666h-170.666c-23.552 0-42.666 19.114-42.666 42.666s19.114 42.666 42.666 42.666h170.666c23.552 0 42.668-19.114 42.668-42.666z" />
<glyph unicode="&#xe932;" glyph-name="estimate" d="M896 960h-618.709c-82.304 0-149.291-67.029-149.291-149.333v-149.333c0-23.552 19.115-42.668 42.667-42.668s42.667 19.116 42.667 42.668v149.333c0 35.285 28.713 64 64 64 35.285 0 64-28.715 64-64 0-58.795 47.872-106.667 106.666-106.667h362.666v-554.666c0-70.572-57.428-128-128-128h-85.332c-23.552 0-42.668-19.116-42.668-42.668s19.116-42.666 42.668-42.666h85.332c117.633 0 213.334 95.701 213.334 213.334v554.666h21.334c58.794 0 106.666 47.872 106.666 106.667v21.333c0 70.571-57.43 128-128 128zM938.666 810.667c0-11.776-9.556-21.333-21.332-21.333h-469.334c-11.776 0-21.334 9.557-21.334 21.333 0 22.912-5.204 44.587-14.42 64h483.754c23.509 0 42.666-19.157 42.666-42.667v-21.333zM362.666 533.334h-213.333c-82.347 0-149.333-66.988-149.333-149.334v-298.666c0-82.348 66.987-149.334 149.333-149.334h213.333c82.348 0 149.334 66.986 149.334 149.334v298.666c0 82.346-66.986 149.334-149.334 149.334zM426.666 85.334c0-35.285-28.715-64-64-64h-213.333c-35.285 0-64 28.715-64 64v298.666c0 35.285 28.715 64 64 64h213.333c35.285 0 64-28.715 64-64v-298.666zM384 362.666c0-23.552-19.114-42.666-42.666-42.666h-170.667c-23.552 0-42.667 19.114-42.667 42.666s19.115 42.668 42.667 42.668h170.667c23.552 0 42.666-19.116 42.666-42.668zM384 234.666c0-23.552-19.114-42.666-42.666-42.666h-21.334c-23.552 0-42.666 19.114-42.666 42.666s19.114 42.668 42.666 42.668h21.334c23.552 0 42.666-19.116 42.666-42.668zM234.666 234.666c0-23.552-19.114-42.666-42.666-42.666h-21.333c-23.552 0-42.667 19.114-42.667 42.666s19.115 42.668 42.667 42.668h21.333c23.552 0 42.666-19.116 42.666-42.668zM384 106.666c0-23.552-19.114-42.666-42.666-42.666h-21.334c-23.552 0-42.666 19.114-42.666 42.666s19.114 42.668 42.666 42.668h21.334c23.552 0 42.666-19.116 42.666-42.668zM234.666 106.666c0-23.552-19.114-42.666-42.666-42.666h-21.333c-23.552 0-42.667 19.114-42.667 42.666s19.115 42.668 42.667 42.668h21.333c23.552 0 42.666-19.116 42.666-42.668z" />
<glyph unicode="&#xe933;" glyph-name="document-1" d="M725.332 960h-426.666c-117.632 0-213.333-95.701-213.333-213.334v-597.332c0-117.633 95.701-213.334 213.333-213.334h426.666c117.633 0 213.334 95.701 213.334 213.334v597.332c0 117.633-95.701 213.334-213.334 213.334zM298.666 874.667h426.666c70.572 0 128-57.429 128-128.001h-682.666c0 70.571 57.43 128.001 128 128.001zM725.332 21.334h-426.666c-70.57 0-128 57.428-128 128v512h682.666v-512c0-70.572-57.428-128-128-128zM725.332 490.666c0-23.593-19.114-42.666-42.666-42.666h-341.334c-23.552 0-42.666 19.073-42.666 42.666 0 23.595 19.114 42.668 42.666 42.668h341.334c23.552 0 42.666-19.073 42.666-42.668zM554.666 320c0-23.595-19.114-42.666-42.666-42.666h-170.668c-23.552 0-42.666 19.071-42.666 42.666s19.114 42.666 42.666 42.666h170.668c23.552 0 42.666-19.071 42.666-42.666z" />
<glyph unicode="&#xe934;" glyph-name="up-arrow" d="M755.626 538.456l-183.468 183.040c-15.987 15.892-37.616 24.814-60.16 24.814-22.542 0-44.171-8.921-60.16-24.814l-183.466-183.040c-7.946-7.995-12.407-18.809-12.407-30.081s4.461-22.086 12.407-30.079c3.967-4 8.686-7.174 13.885-9.339 5.198-2.167 10.777-3.283 16.409-3.283s11.209 1.116 16.409 3.283c5.2 2.165 9.918 5.339 13.883 9.339l140.374 140.372v-469.332c0-11.317 4.495-22.17 12.497-30.171s18.854-12.497 30.169-12.497c11.317 0 22.17 4.495 30.171 12.497s12.497 18.854 12.497 30.171v469.332l140.372-140.372c7.979-8.034 18.821-12.571 30.142-12.612 11.323-0.039 22.198 4.42 30.233 12.399 8.034 7.977 12.569 18.819 12.61 30.142 0.041 11.321-4.42 22.196-12.397 30.231z" />
<glyph unicode="&#xe935;" glyph-name="invoice" d="M682.668-21.334c0-23.552-19.073-42.666-42.668-42.666h-384c-117.631 0-213.333 95.701-213.333 213.334v597.332c0 117.633 95.701 213.334 213.333 213.334h192.641c79.743 0 154.751-31.061 211.2-87.467l148.65-148.735c11.563-11.563 22.315-24.236 31.916-37.675 13.695-19.157 9.257-45.824-9.9-59.521-19.157-13.652-45.867-9.257-59.519 9.943-6.869 9.599-14.549 18.688-22.784 26.88l-148.693 148.735c-13.568 13.568-28.631 25.045-44.843 34.347v-185.173c0-23.509 19.114-42.668 42.666-42.668h128c23.595 0 42.666-19.114 42.666-42.666s-19.071-42.666-42.666-42.666h-128c-70.57 0-128 57.428-128 128v212.351c-6.826 0.64-13.738 0.981-20.693 0.981h-192.641c-70.57 0-127.999-57.429-127.999-128.001v-597.332c0-70.572 57.429-128 127.999-128h384c23.595 0 42.668-19.116 42.668-42.668zM925.227 265.941l-129.749 21.633c-15.915 2.644-27.478 16.298-27.478 32.426 0 23.509 19.116 42.666 42.668 42.666h96.768c15.188 0 29.354-8.192 36.991-21.332 11.733-20.396 37.761-27.349 58.284-15.573 20.394 11.817 27.392 37.888 15.53 58.282-22.784 39.467-65.28 64-110.848 64h-11.434v42.666c0 23.552-19.073 42.668-42.668 42.668s-42.666-19.116-42.666-42.668v-42.666c-70.57 0-128-57.43-128-128 0-58.026 41.558-107.094 98.773-116.609l129.749-21.631c15.915-2.646 27.478-16.3 27.478-32.426 0-23.511-19.114-42.668-42.666-42.668h-96.768c-15.19 0-29.356 8.192-36.993 21.334-11.733 20.437-37.802 27.392-58.282 15.573-20.396-11.819-27.392-37.888-15.532-58.282 22.784-39.467 65.28-63.957 110.848-63.957h11.436v-42.668c0-23.552 19.071-42.666 42.666-42.666s42.666 19.114 42.666 42.666v42.668c70.572 0 128 57.428 128 128 0 58.026-41.556 107.049-98.773 116.564zM320 320h234.668c23.595 0 42.666 19.114 42.666 42.666s-19.071 42.668-42.666 42.668h-234.668c-58.794 0-106.666-47.872-106.666-106.668v-85.332c0-58.796 47.872-106.668 106.666-106.668h234.668c23.595 0 42.666 19.116 42.666 42.668s-19.071 42.666-42.666 42.666h-234.668c-11.776 0-21.332 9.558-21.332 21.334v85.332c0 11.776 9.556 21.334 21.332 21.334zM256 490.666h85.334c23.552 0 42.666 19.116 42.666 42.668s-19.114 42.666-42.666 42.666h-85.334c-23.552 0-42.666-19.114-42.666-42.666s19.114-42.668 42.666-42.668zM256 661.334h85.334c23.552 0 42.666 19.114 42.666 42.666s-19.114 42.666-42.666 42.666h-85.334c-23.552 0-42.666-19.114-42.666-42.666s19.114-42.666 42.666-42.666z" />
<glyph unicode="&#xe936;" glyph-name="technician" d="M922.305 282.333c-31.949 42.748-70.046 80.095-113.543 110.995-25.35 17.998-52.048 33.597-80.097 46.797 37.648 41.998 63.148 95.095 71.248 153.592h51.446c22.049 0 40.049 17.85 40.049 40.049s-17.848 39.748-39.897 39.748h-15.45c-15 121.795-97.196 223.040-208.339 265.338-1.501 0.75-3.15 1.2-4.651 1.8-34.648 12.599-71.995 19.499-110.993 19.499s-76.347-6.9-110.995-19.499c-1.651-0.45-3.15-1.050-4.649-1.8-111.294-42.298-193.491-143.543-208.49-265.338h-15.449c-22.049 0-40.048-17.848-40.048-40.047s17.849-40.049 40.048-40.049h51.447c8.1-58.497 33.599-111.444 71.248-153.592-27.9-13.050-54.749-28.649-80.097-46.799-43.348-30.898-81.596-68.248-113.544-110.995-66.447-88.795-101.545-194.689-101.545-305.983 0-22.049 17.849-40.049 40.048-40.049h943.903c22.049 0 40.049 17.848 40.049 40.049 0 111.444-35.248 217.338-101.695 306.285zM365.382 382.527c43.049-25.199 93.145-39.748 146.543-39.748s103.496 14.549 146.543 39.748c22.2-7.948 43.649-17.848 64.199-29.397v-337.035h-421.48v337.035c20.699 11.549 42.148 21.449 64.197 29.397zM372.582 836.706v-68.697c0-22.048 17.848-40.048 40.047-40.048s40.049 17.848 40.049 40.048v104.695c19.048 4.8 38.998 7.2 59.398 7.2 20.398 0 40.348-2.55 59.396-7.2v-104.695c0-22.048 17.85-40.048 40.049-40.048s40.049 17.848 40.049 40.048v68.697c54.147-37.348 92.695-95.695 103.795-163.193h-486.576c11.098 67.498 49.648 125.844 103.795 163.193zM718.916 593.568c-18.749-97.196-104.395-170.691-206.991-170.691s-188.24 73.646-206.989 170.691h413.981zM165.742 234.336c16.499 22.049 35.098 42.447 55.497 61.047v-279.288h-139.493c7.2 79.196 35.848 154.042 83.996 218.241zM802.761 16.095v279.288c20.4-18.45 38.998-38.849 55.497-61.047 47.999-64.348 76.646-139.045 83.847-218.391h-139.344v0.15z" />
<glyph unicode="&#xe937;" glyph-name="copy" d="M554.666 106.666c56.56 0.068 110.782 22.565 150.774 62.558 39.993 39.993 62.493 94.216 62.56 150.776v373.631c0.066 22.428-4.319 44.644-12.904 65.365-8.583 20.72-21.195 39.53-37.102 55.339l-95.658 95.659c-15.811 15.907-34.621 28.518-55.341 37.102s-42.936 12.97-65.364 12.903h-202.965c-56.56-0.068-110.782-22.566-150.775-62.559s-62.491-94.216-62.559-150.775v-426.666c0.068-56.56 22.565-110.782 62.559-150.776s94.215-62.491 150.775-62.558h256zM170.666 320v426.666c0 33.948 13.486 66.505 37.491 90.51s56.562 37.49 90.509 37.49c0 0 209.877-0.597 213.334-1.024v-84.309c0-22.632 8.989-44.336 24.994-60.339 16.003-16.003 37.708-24.994 60.338-24.994h84.31c0.426-3.457 1.024-384 1.024-384 0-33.948-13.486-66.505-37.491-90.511s-56.562-37.489-90.509-37.489h-256c-33.948 0-66.505 13.484-90.509 37.489-24.005 24.007-37.491 56.564-37.491 90.511zM938.666 618.666v-469.334c-0.068-56.558-22.565-110.78-62.558-150.774s-94.216-62.491-150.776-62.558h-384c-11.315 0-22.168 4.495-30.169 12.497s-12.497 18.854-12.497 30.169c0 11.315 4.495 22.168 12.497 30.169s18.854 12.497 30.169 12.497h384c33.948 0 66.505 13.486 90.509 37.491s37.491 56.562 37.491 90.509v469.334c0 11.315 4.495 22.168 12.497 30.169s18.854 12.497 30.171 12.497c11.315 0 22.168-4.495 30.169-12.497s12.497-18.854 12.497-30.169z" />
<glyph unicode="&#xe938;" glyph-name="add" d="M960 512h-384v384c0 35.346-28.654 64-64 64s-64-28.654-64-64v-384h-384c-35.346 0-64-28.654-64-64s28.654-64 64-64h384v-384c0-35.346 28.654-64 64-64s64 28.654 64 64v384h384c35.346 0 64 28.654 64 64s-28.654 64-64 64z" />
<glyph unicode="&#xe939;" glyph-name="edit" d="M975.061 911.021c-29.008 28.962-68.321 45.229-109.312 45.229s-80.306-16.267-109.312-45.229l-693.931-693.931c-19.872-19.761-35.628-43.264-46.357-69.155-10.729-25.889-16.218-53.647-16.149-81.672v-87.595c0-11.315 4.495-22.168 12.497-30.169s18.854-12.497 30.17-12.497h87.595c28.022-0.080 55.781 5.401 81.67 16.122 25.889 10.723 49.396 26.474 69.157 46.342l693.973 693.973c28.948 29.006 45.208 68.311 45.208 109.291s-16.259 80.286-45.208 109.291zM220.756 58.796c-24.063-23.904-56.577-37.362-90.495-37.46h-44.928v44.927c-0.043 16.814 3.249 33.47 9.687 49.005s15.892 29.637 27.817 41.492l526.635 526.633 98.132-98.132-526.848-526.465zM914.688 752.769l-106.924-106.965-98.132 97.921 106.965 106.965c6.443 6.429 14.090 11.527 22.503 15.001s17.428 5.257 26.532 5.247c9.103-0.010 18.115-1.813 26.52-5.305 8.407-3.493 16.042-8.607 22.471-15.050 6.431-6.444 11.528-14.090 15.002-22.504 3.475-8.414 5.257-17.429 5.247-26.532-0.008-9.103-1.812-18.114-5.304-26.52s-8.606-16.042-15.051-22.472l0.172 0.213z" />
<glyph unicode="&#xe93a;" glyph-name="document" d="M725.334 362.666c0-11.315-4.495-22.17-12.497-30.171s-18.854-12.495-30.169-12.495h-341.334c-11.315 0-22.17 4.493-30.171 12.495s-12.495 18.856-12.495 30.171c0 11.315 4.493 22.168 12.495 30.169s18.856 12.497 30.171 12.497h341.334c11.315 0 22.168-4.495 30.169-12.497s12.497-18.854 12.497-30.169zM554.668 234.666h-213.334c-11.315 0-22.17-4.495-30.171-12.497s-12.495-18.854-12.495-30.169c0-11.317 4.493-22.17 12.495-30.171s18.856-12.497 30.171-12.497h213.334c11.315 0 22.168 4.495 30.169 12.497s12.497 18.854 12.497 30.171c0 11.315-4.495 22.168-12.497 30.169s-18.854 12.497-30.169 12.497zM938.668 512.639v-363.307c-0.070-56.558-22.567-110.78-62.56-150.774s-94.216-62.491-150.774-62.558h-426.666c-56.56 0.068-110.782 22.565-150.776 62.558s-62.491 94.216-62.559 150.774v597.334c0.068 56.558 22.565 110.781 62.559 150.774s94.216 62.491 150.776 62.559h192.639c39.238 0.101 78.105-7.577 114.356-22.59s69.167-37.064 96.844-64.876l148.65-148.736c27.83-27.658 49.893-60.563 64.915-96.809 15.020-36.246 22.7-75.112 22.596-114.348zM642.177 812.202c-13.429 13.006-28.504 24.195-44.843 33.28v-184.15c0-11.315 4.495-22.168 12.497-30.169s18.854-12.497 30.169-12.497h184.15c-9.091 16.333-20.294 31.396-33.323 44.8l-148.65 148.736zM853.334 512.639c0 7.041-1.366 13.781-2.005 20.693h-211.329c-33.948 0-66.505 13.486-90.509 37.491s-37.491 56.562-37.491 90.509v211.328c-6.912 0.64-13.695 2.005-20.693 2.005h-192.639c-33.948 0-66.507-13.486-90.511-37.49s-37.49-56.562-37.49-90.509v-597.334c0-33.948 13.486-66.505 37.49-90.509s56.564-37.491 90.511-37.491h426.666c33.948 0 66.505 13.486 90.509 37.491s37.491 56.562 37.491 90.509v363.307z" />
<glyph unicode="&#xe93b;" glyph-name="notification" d="M962.347 377.084l-81.066 291.67c-23.763 85.447-75.403 160.5-146.717 213.228s-158.206 80.106-246.864 77.781c-88.66-2.324-173.998-34.218-242.448-90.61-68.453-56.393-116.091-134.048-135.342-220.623l-62.763-282.241c-6.933-31.185-6.773-63.531 0.469-94.648 7.241-31.115 21.379-60.207 41.369-85.129 19.99-24.92 45.322-45.033 74.126-58.853 28.804-13.822 60.344-20.996 92.293-20.994h47.53c9.791-48.226 35.957-91.585 74.058-122.726 38.103-31.142 85.799-48.155 135.008-48.155s96.907 17.013 135.008 48.155c38.103 31.142 64.266 74.5 74.060 122.726h35.754c32.887-0.002 65.331 7.598 94.796 22.211 29.463 14.61 55.151 35.836 75.053 62.020 19.902 26.182 33.483 56.611 39.678 88.91 6.197 32.297 4.798 65.591-4.002 97.28zM512 21.33c-26.378 0.109-52.081 8.366-73.587 23.64-21.506 15.276-37.769 36.823-46.561 61.694h240.298c-8.792-24.871-25.055-46.418-46.563-61.694-21.506-15.274-47.206-23.532-73.587-23.64zM858.71 242.557c-11.889-15.774-27.294-28.555-44.988-37.333-17.693-8.776-37.192-13.306-56.943-13.228h-501.375c-19.167 0.004-38.089 4.311-55.368 12.605s-32.475 20.361-44.466 35.314c-11.991 14.952-20.471 32.408-24.815 51.075s-4.439 38.072-0.28 56.783l62.72 282.282c15.119 68.002 52.536 128.999 106.302 173.293s120.797 69.345 190.435 71.169c69.638 1.824 137.888-19.682 193.898-61.101 56.013-41.419 96.571-100.372 115.231-167.49l81.066-291.67c5.358-19.001 6.21-38.992 2.492-58.38-3.719-19.39-11.905-37.646-23.91-53.32z" />
<glyph unicode="&#xe93c;" glyph-name="email" d="M783.999 43.999h-543.998c-132.337 0-240.001 107.665-240.001 240.001v327.999c0 132.336 107.664 240 240.001 240h543.998c132.338 0 240.001-107.665 240.001-240v-327.999c0-132.336-107.663-240.001-240.001-240.001zM240.001 772c-88.225 0-160.001-71.776-160.001-160v-327.999c0-88.224 71.776-160 160.001-160h543.998c88.226 0 160.002 71.776 160.002 160v327.999c0 88.224-71.776 160-160.002 160h-543.998zM658.571 377.188l197.71 151.024c17.558 13.41 20.916 38.513 7.508 56.068-13.412 17.555-38.513 20.916-56.068 7.506l-197.687-151.005c-57.082-43.538-136.8-43.571-193.919-0.111l-191.562 148.91c-17.443 13.56-42.575 10.41-56.131-7.033-13.558-17.441-10.41-42.572 7.032-56.13l191.709-149.025c0.096-0.076 0.195-0.15 0.293-0.223 42.848-32.68 94.188-49.019 145.539-49.019 51.354 0 102.715 16.349 145.576 49.037z" />
<glyph unicode="&#xe93d;" glyph-name="house" d="M597.334 191.998h-170.668c-47.061 0-85.332 38.273-85.332 85.334v170.666c0 47.061 38.271 85.334 85.332 85.334h170.668c47.061 0 85.332-38.273 85.332-85.334v-170.666c0-47.061-38.271-85.334-85.332-85.334zM426.666 447.998v-170.666h170.752l-0.084 170.666h-170.668zM810.666-64.002h-597.332c-117.633 0-213.334 95.701-213.334 213.334v395.776c0 71.039 35.157 137.173 94.037 176.853l298.624 201.557c72.491 48.896 166.187 48.896 238.678 0l298.666-201.557c58.837-39.68 93.995-105.771 93.995-176.853v-395.776c0-117.633-95.701-213.334-213.334-213.334zM512 874.793c-24.918 0-49.834-7.339-71.594-22.059l-298.667-201.515c-35.328-23.808-56.405-63.445-56.405-106.068v-395.778c0-70.57 57.429-128 128.001-128h597.332c70.572 0 128 57.43 128 128v395.735c0 42.623-21.076 82.303-56.363 106.068l-298.709 201.558c-21.76 14.72-46.676 22.059-71.594 22.059z" />
<glyph unicode="&#xe93e;" glyph-name="expand" d="M414.165 350.165c16.683-16.683 16.683-43.647 0-60.33l-268.501-268.501h195.67c23.593 0 42.666-19.116 42.666-42.668s-19.073-42.666-42.666-42.666h-213.334c-70.571 0-128 57.43-128 128v213.334c0 23.552 19.072 42.666 42.667 42.666s42.667-19.114 42.667-42.666v-195.67l268.502 268.501c16.683 16.683 43.647 16.683 60.33 0zM896 960h-213.334c-23.595 0-42.666-19.115-42.666-42.667s19.071-42.667 42.666-42.667h195.67l-268.501-268.502c-16.683-16.683-16.683-43.647 0-60.33 8.319-8.321 19.243-12.501 30.165-12.501s21.846 4.18 30.165 12.501l268.501 268.501v-195.67c0-23.552 19.073-42.666 42.668-42.666 23.593 0 42.666 19.114 42.666 42.666v213.334c0 70.571-57.43 128-128 128z" />
<glyph unicode="&#xe93f;" glyph-name="address" d="M512 704c-33.755 0-66.75-10.009-94.818-28.762-28.066-18.754-49.94-45.408-62.857-76.593s-16.298-65.501-9.712-98.607c6.584-33.106 22.839-63.517 46.707-87.384 23.869-23.867 54.278-40.122 87.384-46.707 33.108-6.586 67.422-3.207 98.607 9.712 31.185 12.917 57.84 34.791 76.593 62.857s28.762 61.063 28.762 94.818c0 45.263-17.979 88.672-49.986 120.678-32.008 32.006-75.418 49.988-120.68 49.988zM512 448c-16.878 0-33.376 5.005-47.409 14.381s-24.969 22.704-31.429 38.298c-6.459 15.591-8.149 32.75-4.856 49.302 3.293 16.554 11.42 31.758 23.353 43.692 11.934 11.936 27.14 20.062 43.692 23.355 16.554 3.291 33.71 1.602 49.304-4.856 15.593-6.459 28.92-17.398 38.298-31.431 9.376-14.033 14.381-30.53 14.381-47.407 0-22.632-8.991-44.337-24.994-60.34s-37.708-24.994-60.34-24.994zM512-63.996c-35.928-0.184-71.377 8.243-103.379 24.574s-59.625 40.092-80.556 69.294c-162.604 224.297-245.078 392.917-245.078 501.205 0 113.781 45.199 222.902 125.655 303.358s189.577 125.655 303.358 125.655c113.781 0 222.902-45.199 303.358-125.655s125.655-189.577 125.655-303.358c0-108.288-82.475-276.908-245.076-501.205-20.933-29.202-48.556-52.963-80.558-69.294s-67.451-24.758-103.379-24.574zM512 866.949c-89.070-0.102-174.463-35.53-237.445-98.512s-98.41-148.376-98.512-237.446c0-85.76 80.768-244.351 227.37-446.55 12.446-17.142 28.774-31.095 47.647-40.714 18.874-9.622 39.756-14.637 60.94-14.637s42.068 5.016 60.94 14.637c18.874 9.619 35.201 23.572 47.647 40.714 146.602 202.199 227.371 360.79 227.371 446.55-0.102 89.070-35.531 174.463-98.513 237.446s-148.376 98.41-237.445 98.512z" />
<glyph unicode="&#xe940;" glyph-name="pending" horiz-adv-x="1044" d="M531.479 960c-101.265 0-200.255-30.028-284.453-86.288s-149.822-136.224-188.574-229.778c-38.752-93.557-48.891-196.502-29.136-295.821 19.756-99.318 68.519-190.548 140.123-262.152s162.835-120.367 262.152-140.122c99.318-19.757 202.265-9.617 295.819 29.135 93.557 38.752 173.521 104.376 229.779 188.574s86.288 183.19 86.288 284.453c-0.147 135.746-54.137 265.89-150.125 361.876-95.986 95.987-226.13 149.977-361.875 150.124zM531.479 21.334c-84.388 0-166.879 25.022-237.044 71.905s-124.852 113.519-157.146 191.482c-32.293 77.963-40.743 163.752-24.28 246.518s57.099 158.79 116.77 218.46c59.671 59.67 135.694 100.306 218.46 116.769s168.552 8.014 246.516-24.28c77.963-32.293 144.599-86.98 191.482-157.145s71.907-152.658 71.907-237.044c-0.125-113.121-45.117-221.573-125.104-301.562-79.989-79.989-188.443-124.981-301.562-125.104zM531.476 746.67c-11.315 0-22.168-4.495-30.169-12.497s-12.497-18.854-12.497-30.169v-341.334c0-11.315 4.495-22.168 12.497-30.169s18.854-12.497 30.169-12.497c11.315 0 22.168 4.495 30.169 12.497s12.497 18.854 12.497 30.169v341.334c0 11.315-4.495 22.168-12.497 30.169s-18.854 12.497-30.169 12.497zM574.142 192.004c0 23.564-19.102 42.666-42.666 42.666s-42.666-19.102-42.666-42.666c0-23.564 19.102-42.668 42.666-42.668s42.666 19.104 42.666 42.668z" />
<glyph unicode="&#xe941;" glyph-name="tick-fill" horiz-adv-x="1044" d="M531.476 960c-282.325 0-511.999-229.675-511.999-512s229.674-512 511.999-512c282.327 0 512 229.675 512 512s-229.673 512-512 512zM527.596 302.123c-16.513-16.513-38.23-24.746-60.033-24.746s-43.733 8.319-60.416 24.959l-118.698 115.030 59.435 61.311 119.167-115.499 247.851 243.243 59.904-60.799-247.21-243.499z" />
<glyph unicode="&#xe942;" glyph-name="Vector" horiz-adv-x="1066" d="M867.418-55.123l-325.093 238.933-325.095-238.933 124.821 385.872-324.919 237.409h401.155l124.038 386.525 124.038-386.525h401.109l-324.875-237.409 124.821-385.872z" />
</font>
</defs>
</svg>
