<svg width="17" height="18" viewBox="0 0 17 18" fill="none" xmlns="http://www.w3.org/2000/svg">
<path d="M14.5162 7.12492C14.1712 7.12492 13.8912 6.84491 13.8912 6.49992C13.8912 3.94179 11.899 1.75492 9.35525 1.52117C6.80556 1.28648 4.43963 3.07085 3.97463 5.58398C3.919 5.88335 3.89088 6.19148 3.89088 6.49992C3.89088 6.84491 3.61088 7.12492 3.26588 7.12492C2.92088 7.12492 2.64088 6.84491 2.64088 6.49992C2.64088 6.11523 2.67588 5.73054 2.74525 5.35648C3.3265 2.21492 6.27838 -0.0182098 9.46994 0.276165C12.6503 0.568665 15.1412 3.30241 15.1412 6.49992C15.1412 6.84523 14.8615 7.12492 14.5162 7.12492Z" fill="white"/>
<path d="M14.5162 14.6249C14.1712 14.6249 13.8912 14.3449 13.8912 13.9999C13.8912 13.6549 14.1712 13.3749 14.5162 13.3749C15.1312 13.3749 15.5112 12.954 15.6615 12.5599C15.8112 12.168 15.8081 11.603 15.3496 11.193C15.0924 10.963 15.0699 10.5677 15.3006 10.3105C15.5303 10.0534 15.9259 10.0312 16.1828 10.2615C16.9503 10.9477 17.204 12.0252 16.829 13.0059C16.4534 13.9893 15.5456 14.6249 14.5162 14.6249Z" fill="white"/>
<path d="M14.5162 8.55742C14.1712 8.55742 13.8912 8.27742 13.8912 7.93242L13.8912 6.49992C13.8912 6.15492 14.1712 5.87523 14.5162 5.87523C14.8612 5.87523 15.1412 6.15492 15.1412 6.49992L15.1412 7.93242C15.1412 8.27742 14.8615 8.55742 14.5162 8.55742Z" fill="white"/>
<path d="M15.7659 11.3524C15.6174 11.3524 15.4687 11.2996 15.3496 11.193C14.4228 10.364 13.8912 9.17585 13.8912 7.93242C13.8912 7.58742 14.1712 7.30742 14.5162 7.30742C14.8612 7.30742 15.1412 7.58742 15.1412 7.93242C15.1412 8.82054 15.5209 9.66929 16.1828 10.2615C16.4399 10.4915 16.4624 10.8871 16.2318 11.1443C16.1087 11.2821 15.9378 11.3524 15.7659 11.3524Z" fill="white"/>
<path d="M3.26619 8.55742C2.92119 8.55742 2.64119 8.27742 2.64119 7.93242L2.64088 6.49992C2.64088 6.15492 2.92119 5.87523 3.26619 5.87523C3.61119 5.87523 3.89088 6.15492 3.89088 6.49992L3.89119 7.93242C3.89119 8.27742 3.6115 8.55742 3.26619 8.55742Z" fill="white"/>
<path d="M2.0165 11.3524C1.84463 11.3524 1.67369 11.2821 1.55056 11.144C1.32025 10.8868 1.34244 10.4915 1.59963 10.2615C2.2615 9.66929 2.64119 8.82085 2.64119 7.93242C2.64119 7.58742 2.92119 7.3071 3.26619 7.3071C3.61119 7.3071 3.89119 7.58742 3.89119 7.93242C3.89119 9.17585 3.35963 10.364 2.43275 11.193C2.31369 11.2999 2.16494 11.3524 2.0165 11.3524Z" fill="white"/>
<path d="M8.89119 17.7499C6.85838 17.7499 5.14119 16.0327 5.14119 13.9999C5.14119 13.6549 5.42119 13.3749 5.76619 13.3749C6.11119 13.3749 6.39119 13.6549 6.39119 13.9999C6.39119 15.3549 7.53588 16.4999 8.89119 16.4999C10.2465 16.4999 11.3912 15.3549 11.3912 13.9999C11.3912 13.6549 11.6712 13.3749 12.0162 13.3749C12.3612 13.3749 12.6412 13.6549 12.6412 13.9999C12.6412 16.0327 10.924 17.7499 8.89119 17.7499Z" fill="white"/>
<path d="M3.26619 14.6249C2.23681 14.6249 1.32963 13.9909 0.954939 13.0096C0.579314 12.0265 0.832439 10.9474 1.59963 10.2615C1.85713 10.0315 2.25213 10.0537 2.48213 10.3112C2.71213 10.5687 2.68994 10.9627 2.43275 11.193C1.97463 11.6027 1.97213 12.1702 2.12244 12.564C2.27213 12.9562 2.6515 13.3755 3.26619 13.3755C3.61119 13.3755 3.89119 13.6555 3.89119 14.0005C3.89119 14.3455 3.6115 14.6249 3.26619 14.6249Z" fill="white"/>
<path d="M14.5162 14.6249L3.26619 14.6249C2.92119 14.6249 2.64119 14.3449 2.64119 13.9999C2.64119 13.6549 2.92119 13.3755 3.26619 13.3755L14.5162 13.3749C14.8612 13.3749 15.1412 13.6549 15.1412 13.9999C15.1412 14.3449 14.8615 14.6249 14.5162 14.6249Z" fill="white"/>
</svg>
