<svg width="35" height="36" viewBox="0 0 35 36" fill="none" xmlns="http://www.w3.org/2000/svg">
<g clip-path="url(#clip0_2261_9848)">
<path d="M33.5002 -2H1.4998C-0.709228 -2 -2.5 -0.209228 -2.5 1.9998V34.0002C-2.5 36.2092 -0.709228 38 1.4998 38H33.5002C35.7092 38 37.5 36.2092 37.5 34.0002V1.9998C37.5 -0.209228 35.7092 -2 33.5002 -2Z" fill="white" stroke="#474747" stroke-width="0.69" stroke-miterlimit="10"/>
<path d="M18.7654 22.6349C19.4406 21.1196 20.1109 19.6122 20.7832 18.1048C22.2846 14.7346 23.787 11.3644 25.2894 7.99412C25.6469 7.19277 26.3489 7.09744 26.9169 7.77367C28.0668 9.14401 29.2108 10.5183 30.3646 11.8837C30.6278 12.1945 30.6903 12.5162 30.5781 12.9075C29.1512 17.8904 27.7302 22.8752 26.3072 27.8581C26.0649 28.7061 25.4691 28.9087 24.7562 28.3883C23.3292 27.3457 21.9013 26.304 20.4803 25.2544C20.3731 25.175 20.2728 25.0409 20.241 24.9138C19.9858 23.8801 19.6392 23.328 18.7644 22.6339L18.7654 22.6349Z" fill="#253D8D"/>
<path d="M16.2292 22.6443C15.3882 23.2064 14.9453 24.0167 14.7308 24.9769C14.709 25.0762 14.6256 25.1814 14.5411 25.243C13.0755 26.3224 11.6068 27.3998 10.1332 28.4693C9.56225 28.8834 8.92077 28.653 8.72515 27.9688C7.29126 22.9532 5.86134 17.9355 4.42546 12.9209C4.31425 12.5336 4.3639 12.2069 4.62903 11.8931C5.79779 10.5099 6.95463 9.1177 8.12141 7.73346C8.64869 7.10787 9.36166 7.21014 9.69531 7.95887C11.8422 12.7719 13.9861 17.586 16.1309 22.3991C16.1647 22.4745 16.1925 22.553 16.2292 22.6433V22.6443Z" fill="#253D8D"/>
<path d="M10.4856 7.33911H24.5097C24.4799 7.42947 24.4611 7.50693 24.4293 7.57842C23.62 9.39363 22.8057 11.2068 22.0044 13.025C21.924 13.2077 21.8316 13.2713 21.635 13.2713C18.8675 13.2653 16.1 13.2703 13.3315 13.2604C13.2283 13.2604 13.0724 13.167 13.0316 13.0757C12.1916 11.2168 11.3654 9.35192 10.5362 7.48906C10.5204 7.45231 10.5104 7.41359 10.4866 7.33911H10.4856Z" fill="#0D79D4"/>
<path d="M15.6074 25.803C15.6213 25.1486 15.7832 24.5151 16.1933 23.963C16.8934 23.0196 18.0254 23.0007 18.7622 23.9153C19.5874 24.9401 19.5864 26.7503 18.7592 27.7771C18.0313 28.6817 16.9162 28.6728 16.2102 27.7503C15.7782 27.1852 15.6144 26.5299 15.6074 25.804V25.803Z" fill="#0D79D4"/>
</g>
<defs>
<clipPath id="clip0_2261_9848">
<path d="M0 8.5C0 4.08172 3.58172 0.5 8 0.5H27C31.4183 0.5 35 4.08172 35 8.5V27.5C35 31.9183 31.4183 35.5 27 35.5H8C3.58172 35.5 0 31.9183 0 27.5V8.5Z" fill="white"/>
</clipPath>
</defs>
</svg>
