<svg width="200" height="200" viewBox="0 0 200 200" fill="none" xmlns="http://www.w3.org/2000/svg">
<path d="M18.2439 74.7421L183.523 86.7947C190.834 87.327 196.363 93.7018 195.869 101.04L195.098 112.421C194.604 119.759 188.266 125.272 180.954 124.727L15.6759 112.674C8.36393 112.142 2.83569 105.767 3.32906 98.429L4.10074 87.0482C4.5941 79.7102 10.932 74.2098 18.2439 74.7421Z" fill="#F9F9F9"/>
<path fill-rule="evenodd" clip-rule="evenodd" d="M24.9363 85.9583C23.7219 84.5515 21.5966 84.3994 20.2051 85.6161L13.8925 91.1037C12.5009 92.3204 12.3491 94.4369 13.5762 95.8436L19.0792 102.193C20.2936 103.6 22.4189 103.752 23.8104 102.535L30.123 97.0476C31.5146 95.831 31.6664 93.7145 30.4393 92.3077L24.9363 85.9583ZM26.5429 91.7121C26.8465 92.0669 26.8086 92.5992 26.467 92.8907L21.1159 97.5546C20.7617 97.8588 20.243 97.8207 19.9394 97.4659L17.5991 94.7664C17.2955 94.4115 17.3334 93.8792 17.675 93.5877C18.0292 93.2836 18.5479 93.3216 18.8515 93.6765L20.6352 95.7423L25.3538 91.636C25.708 91.3319 26.2267 91.3699 26.5303 91.7247L26.5429 91.7121Z" fill="#808080"/>
<path d="M182.245 105.767C182.08 108.213 179.968 110.051 177.526 109.873L92.9326 103.701C90.4911 103.524 88.6567 101.395 88.8212 98.9485C88.9857 96.5025 91.0983 94.6648 93.5398 94.8423L178.133 101.014C180.575 101.192 182.409 103.321 182.245 105.767Z" fill="#BBBBBB"/>
<path d="M83.7735 98.581C83.6091 101.027 81.4964 102.865 79.0549 102.687L46.2523 100.292C43.8108 100.114 41.9765 97.9853 42.1409 95.5393C42.3054 93.0933 44.418 91.2556 46.8595 91.4331L79.6621 93.8284C82.1037 94.0058 83.938 96.135 83.7735 98.581Z" fill="#BBBBBB"/>
<path d="M181.941 126.666C181.574 126.666 181.195 126.653 180.815 126.628L15.5367 114.563C7.18745 113.954 0.862227 106.654 1.4315 98.2898L2.20317 86.9089C2.48148 82.8534 4.31579 79.1527 7.36455 76.4912C10.426 73.8298 14.3476 72.5371 18.3831 72.8286L183.662 84.8812C191.998 85.4895 198.336 92.7895 197.767 101.154L196.995 112.535C196.717 116.59 194.883 120.291 191.834 122.94C189.063 125.348 185.585 126.653 181.941 126.653V126.666ZM17.2698 76.6053C14.5373 76.6053 11.944 77.5812 9.86934 79.3808C7.57961 81.3706 6.20071 84.1461 5.9983 87.1751L5.22663 98.5559C4.79651 104.842 9.55308 110.317 15.815 110.773L181.094 122.826C184.13 123.054 187.052 122.065 189.342 120.076C191.631 118.086 192.998 115.31 193.213 112.281L193.984 100.901C194.415 94.6271 189.658 89.1395 183.396 88.6832L18.1174 76.6307C17.8391 76.6053 17.5482 76.6053 17.2698 76.6053Z" fill="white"/>
<path fill-rule="evenodd" clip-rule="evenodd" d="M0.875352 86.8201C1.53317 77.7458 9.4144 70.9274 18.4721 71.5864L183.75 83.639C192.808 84.298 199.614 92.1937 198.956 101.268L198.134 112.649C197.476 121.723 189.595 128.541 180.537 127.882L15.2589 115.817C6.20118 115.158 -0.60475 107.263 0.0530726 98.1883L0.875352 86.8074V86.8201ZM18.2824 74.1085C10.6162 73.5508 3.94941 79.3173 3.39279 86.9975L2.57051 98.3784C2.01389 106.059 7.76984 112.738 15.436 113.295L180.714 125.348C188.38 125.905 195.047 120.139 195.604 112.459L196.426 101.078C196.983 93.3976 191.227 86.7187 183.56 86.161L18.2824 74.1085Z" fill="#DDDDDD"/>
<path d="M15.967 25.6635C15.967 25.6601 15.9699 25.6572 15.9733 25.657L181.562 19.1683C188.886 18.8768 195.098 24.6053 195.414 31.9433L195.92 43.3369C196.236 50.6749 190.556 56.8596 183.232 57.1511L17.6369 63.6526C10.3123 63.9441 4.1009 58.2156 3.78463 50.8776L3.27861 39.4841C2.96235 32.1483 8.63908 25.965 15.9607 25.6702C15.9642 25.67 15.967 25.6672 15.967 25.6635Z" fill="#F9F9F9"/>
<path fill-rule="evenodd" clip-rule="evenodd" d="M22.2288 52.8927C26.8842 52.7153 30.4896 48.7865 30.2871 44.1226C30.0847 39.4587 26.1378 35.8341 21.4951 36.0115C16.8397 36.189 13.2344 40.1178 13.4368 44.7816C13.6392 49.4455 17.5861 53.0702 22.2288 52.8927ZM26.1758 42.7665C26.492 42.4244 26.4667 41.8921 26.1252 41.5752C25.7836 41.2584 25.2523 41.2837 24.936 41.6259L20.6728 46.2644L18.6614 44.4014C18.3198 44.0846 17.7885 44.1099 17.4722 44.4521C17.156 44.7943 17.1813 45.3266 17.5229 45.6434L20.1668 48.0768C20.5084 48.3936 21.0397 48.3683 21.3559 48.0261L26.1884 42.7665H26.1758Z" fill="#808080"/>
<path d="M182.397 38.1663C182.51 40.6123 180.613 42.6781 178.171 42.7668L145.306 44.0596C142.864 44.1609 140.789 42.2472 140.688 39.8012C140.574 37.3552 142.472 35.2894 144.913 35.2007L177.779 33.908C180.221 33.8066 182.295 35.7203 182.397 38.1663Z" fill="#BBBBBB"/>
<path d="M135.628 39.9913C135.742 42.4373 133.844 44.5031 131.403 44.5918L46.6446 47.9123C44.2031 48.0137 42.1284 46.1 42.0272 43.654C41.926 41.208 43.8109 39.1422 46.2525 39.0535L131.01 35.733C133.452 35.6316 135.527 37.5453 135.628 39.9913Z" fill="#BBBBBB"/>
<path d="M17.1052 65.5538C9.00895 65.5538 2.24096 59.1283 1.88675 50.9538L1.38073 39.5603C1.20363 35.5047 2.60782 31.6266 5.35297 28.6357C8.09811 25.6574 11.83 23.9211 15.8908 23.7563L181.486 17.2675C189.873 16.9506 196.945 23.4902 197.312 31.8547L197.816 43.2483C197.993 47.3038 196.576 51.1946 193.844 54.1729C191.099 57.1512 187.367 58.8875 183.306 59.0522L17.7124 65.5411C17.51 65.5411 17.3076 65.5411 17.1052 65.5411V65.5538ZM16.0426 27.5584C13.0065 27.6725 10.1981 28.9778 8.14872 31.2084C6.09935 33.4389 5.03671 36.3539 5.17586 39.3955L5.68188 50.7891C5.96019 57.0752 11.286 62.0179 17.5733 61.7517L183.167 55.2628C186.203 55.1488 189.013 53.8434 191.062 51.6129C193.112 49.3823 194.174 46.4674 194.035 43.4257L193.527 32.0322C193.249 25.7461 187.925 20.8161 181.638 21.0695L16.0426 27.5584Z" fill="white"/>
<path fill-rule="evenodd" clip-rule="evenodd" d="M0.0527552 39.611C-0.301457 30.524 6.77014 22.8565 15.8405 22.5016L181.435 16.0128C190.518 15.6579 198.159 22.7424 198.513 31.8294L198.956 43.2229C199.31 52.3099 192.239 59.9774 183.168 60.3323L17.5736 66.8212C8.50325 67.176 0.849734 60.0915 0.495522 51.0045L0.0527552 39.611ZM15.9417 25.0364C8.26289 25.3405 2.27923 31.8167 2.58284 39.5096L3.02561 50.9031C3.32922 58.596 9.79359 64.5906 17.4724 64.2864L183.067 57.7976C190.746 57.4934 196.73 51.0172 196.426 43.3243L195.983 31.9308C195.68 24.2379 189.215 18.2433 181.536 18.5475L15.9417 25.0364Z" fill="#DDDDDD"/>
<path d="M15.4102 148.198L180.613 135.043C187.925 134.46 194.351 139.922 194.971 147.248L195.933 158.616C196.552 165.941 191.125 172.354 183.814 172.924L18.6108 186.08C11.2988 186.663 4.87241 181.2 4.25254 173.875L3.29111 162.507C2.67124 155.181 8.09828 148.769 15.4102 148.198Z" fill="#F9F9F9"/>
<path fill-rule="evenodd" clip-rule="evenodd" d="M22.7604 175.155C27.4032 174.787 30.8441 170.719 30.4646 166.068C30.0724 161.417 25.9863 157.944 21.3436 158.312C16.7009 158.679 13.26 162.747 13.6395 167.399C14.0316 172.05 18.1177 175.522 22.7604 175.155ZM26.3026 164.877C26.6062 164.522 26.5556 163.989 26.2014 163.685C25.8472 163.381 25.3158 163.419 25.0122 163.774L20.9388 168.59L18.8515 166.816C18.4973 166.512 17.9659 166.55 17.6623 166.904C17.3587 167.259 17.4093 167.792 17.7635 168.096L20.496 170.428C20.8502 170.732 21.3816 170.694 21.6852 170.339L26.3026 164.889V164.877Z" fill="#808080"/>
<path d="M182.207 153.99C182.409 156.436 180.6 158.565 178.171 158.755L93.6151 165.485C91.1735 165.675 89.0356 163.863 88.8332 161.417C88.6308 158.971 90.44 156.842 92.8689 156.651L177.425 149.922C179.867 149.732 182.004 151.557 182.207 153.99Z" fill="#BBBBBB"/>
<path d="M83.7735 161.822C83.9759 164.268 82.1669 166.397 79.738 166.588L46.9481 169.198C44.5065 169.388 42.3686 167.576 42.1662 165.13C41.9638 162.684 43.7728 160.555 46.2017 160.365L78.9916 157.754C81.4332 157.564 83.5711 159.376 83.7735 161.822Z" fill="#BBBBBB"/>
<path d="M17.536 188.031C9.70536 188.031 3.01327 181.986 2.35545 174.04L1.39402 162.671C1.05246 158.616 2.30485 154.687 4.92349 151.595C7.54213 148.502 11.2108 146.627 15.2589 146.297L180.461 133.142C188.81 132.483 196.16 138.731 196.856 147.083L197.818 158.451C198.159 162.507 196.907 166.435 194.288 169.528C191.669 172.62 188.001 174.496 183.953 174.825L18.7504 187.981C18.3456 188.019 17.9408 188.031 17.536 188.031ZM15.5625 150.099C12.5264 150.34 9.78126 151.747 7.82044 154.066C5.85962 156.385 4.92349 159.326 5.1765 162.367L6.13793 173.735C6.66925 180.009 12.1975 184.698 18.4595 184.204L183.662 171.049C186.698 170.808 189.443 169.401 191.404 167.082C193.365 164.763 194.301 161.822 194.048 158.781L193.086 147.412C192.555 141.139 187.027 136.462 180.765 136.944L15.5625 150.099Z" fill="white"/>
<path fill-rule="evenodd" clip-rule="evenodd" d="M0.0527542 162.773C-0.668321 153.699 6.08701 145.765 15.1447 145.042L180.347 131.887C189.405 131.165 197.324 137.933 198.045 147.007L198.943 158.375C199.664 167.449 192.909 175.383 183.851 176.105L18.6489 189.261C9.59119 189.983 1.67201 183.215 0.950934 174.141L0.0527542 162.773ZM15.3471 147.565C7.68097 148.173 1.96297 154.89 2.58284 162.57L3.48102 173.938C4.08824 181.618 10.793 187.334 18.4591 186.726L183.662 173.571C191.328 172.962 197.046 166.245 196.426 158.565L195.528 147.197C194.921 139.517 188.216 133.788 180.55 134.409L15.3471 147.565Z" fill="#DDDDDD"/>
<path fill-rule="evenodd" clip-rule="evenodd" d="M121.079 134.359C134.11 124.017 137.956 105.399 129.391 90.5459C119.979 74.2097 99.1307 68.6206 82.8369 78.0498C66.5305 87.4789 60.9516 108.365 70.3636 124.689C78.9279 139.542 96.9421 145.511 112.401 139.377L120.295 153.078L128.973 148.059L121.079 134.359ZM122.445 94.5636C129.644 107.047 125.368 123.016 112.907 130.227C100.446 137.438 84.5068 133.155 77.3087 120.671C70.1106 108.188 74.3864 92.219 86.8471 85.0077C99.3078 77.7965 115.247 82.0801 122.445 94.5636Z" fill="#8D8D8D"/>
<path d="M122.458 94.5636C129.656 107.047 125.38 123.016 112.92 130.227C100.459 137.438 84.5194 133.155 77.3213 120.671C70.1232 108.188 74.3991 92.219 86.8597 85.0077C99.3204 77.7965 115.26 82.0801 122.458 94.5636Z" fill="#FCFCFC"/>
<path fill-rule="evenodd" clip-rule="evenodd" d="M111.655 128.035C122.913 121.52 126.772 107.11 120.27 95.831C113.767 84.5515 99.3837 80.686 88.1248 87.2003C76.8659 93.7145 73.0075 108.124 79.5098 119.404C86.0122 130.683 100.396 134.536 111.655 128.035ZM112.92 130.227C125.38 123.016 129.656 107.047 122.458 94.5636C115.26 82.0801 99.3204 77.7965 86.8597 85.0077C74.3991 92.219 70.1232 108.188 77.3213 120.671C84.5194 133.155 100.459 137.438 112.92 130.227Z" fill="black" fill-opacity="0.875"/>
<path d="M114.703 152.533C112.806 148.921 114.083 144.447 117.626 142.394L121.269 140.29C124.798 138.249 129.315 139.365 131.49 142.825L151.566 174.8C153.856 178.45 152.668 183.279 148.936 185.433L142.813 188.969C139.082 191.124 134.312 189.755 132.301 185.927L114.691 152.52L114.703 152.533Z" fill="#F9F9F9"/>
<path fill-rule="evenodd" clip-rule="evenodd" d="M123.799 144.675L120.156 146.779C118.98 147.463 118.55 148.946 119.182 150.163L136.792 183.57C137.462 184.838 139.056 185.294 140.296 184.584L146.419 181.048C147.659 180.326 148.063 178.716 147.292 177.5L127.215 145.524C126.494 144.371 124.989 144.003 123.812 144.675H123.799ZM117.626 142.394C114.096 144.434 112.806 148.921 114.703 152.533L132.314 185.94C134.325 189.755 139.094 191.136 142.826 188.982L148.949 185.446C152.681 183.291 153.87 178.463 151.58 174.813L131.504 142.837C129.328 139.377 124.812 138.262 121.282 140.303L117.639 142.406L117.626 142.394Z" fill="white"/>
<path fill-rule="evenodd" clip-rule="evenodd" d="M117.209 142.66L115.134 139.061C114.185 137.413 112.212 136.779 110.517 137.375C96.4239 142.444 80.3073 136.855 72.5526 123.421C63.8364 108.302 69.0105 88.9744 84.1024 80.2423C99.1944 71.5102 118.486 76.6937 127.202 91.8133C134.945 105.26 131.719 122.04 120.283 131.735C118.916 132.901 118.474 134.929 119.422 136.577L121.497 140.176C122.281 139.758 123.116 139.491 123.951 139.365L121.624 135.322C121.307 134.777 121.447 134.093 121.927 133.687C134.274 123.218 137.766 105.095 129.404 90.5713C119.992 74.235 99.1438 68.646 82.85 78.0751C66.5436 87.5043 60.9648 108.39 70.3767 124.714C78.7513 139.238 96.1709 145.271 111.389 139.796C111.984 139.58 112.642 139.808 112.958 140.353L115.336 144.485C115.842 143.8 116.475 143.192 117.221 142.685L117.209 142.66Z" fill="#808080"/>
<path fill-rule="evenodd" clip-rule="evenodd" d="M122.534 142.482L118.891 144.586C116.538 145.942 115.678 148.933 116.943 151.341L134.553 184.749C135.894 187.296 139.069 188.209 141.561 186.777L147.684 183.241C150.163 181.796 150.96 178.589 149.43 176.156L129.353 144.181C127.911 141.874 124.9 141.126 122.534 142.495V142.482ZM117.626 142.394C114.096 144.434 112.806 148.908 114.703 152.533L132.314 185.94C134.325 189.755 139.094 191.136 142.826 188.982L148.949 185.446C152.681 183.291 153.87 178.463 151.58 174.813L131.504 142.837C129.328 139.377 124.812 138.262 121.282 140.303L117.639 142.406L117.626 142.394Z" fill="#DDDDDD"/>
</svg>
