<svg width="24" height="20" viewBox="0 0 24 20" fill="none" xmlns="http://www.w3.org/2000/svg">
<path fill-rule="evenodd" clip-rule="evenodd" d="M23.1614 3.34406C19.7437 5.02763 18.0349 7.00579 18.0349 9.2786C19.4916 9.44695 20.6962 10.0432 21.6487 11.0674C22.6011 12.0915 23.0773 13.277 23.0773 14.6239C23.0773 16.0549 22.6151 17.2615 21.6907 18.2435C20.7662 19.2256 19.6037 19.7166 18.203 19.7166C16.6342 19.7166 15.2755 19.0783 14.127 17.8016C12.9784 16.5249 12.4041 14.9746 12.4041 13.1508C12.4041 7.67919 15.4576 3.4002 21.5646 0.31366L23.1614 3.34406ZM11.1002 3.34406C7.65451 5.02763 5.93168 7.00579 5.93168 9.2786C7.41641 9.44695 8.635 10.0432 9.58747 11.0674C10.5399 12.0915 11.0162 13.277 11.0162 14.6239C11.0162 16.0549 10.5469 17.2615 9.60848 18.2435C8.67002 19.2256 7.50045 19.7166 6.09976 19.7166C4.53098 19.7166 3.17934 19.0783 2.04478 17.8016C0.910214 16.5249 0.342941 14.9746 0.342941 13.1508C0.342941 7.67919 3.3824 3.4002 9.46141 0.31366L11.1002 3.34406Z" fill="#4D53FD"/>
</svg>
