<svg width="120" height="96" viewBox="0 0 120 96" fill="none" xmlns="http://www.w3.org/2000/svg">
<path d="M117.626 23.6479C112.387 10.3148 96.2454 2.31912 82.5743 7.61036C66.9692 13.6502 72.1432 38.4712 57.9689 43.4903C50.3121 46.2016 38.9935 36.0738 31.2575 34.5206C17.0026 31.6589 4.0979 41.717 0.920249 55.6457C-2.32162 69.8558 2.87798 88.8355 18.4906 92.6924C37.0883 97.2866 46.7757 80.5684 62.3771 75.7679C78.3872 70.8416 96.1887 82.4762 109.443 68.3204C119.235 57.8626 122.815 36.8507 117.626 23.6479Z" fill="url(#paint0_linear_19_5114)"/>
<path opacity="0.1" d="M111.761 29.5096C111.761 20.2525 104.257 12.7478 94.9992 12.7478C87.8274 12.7478 81.7104 17.2537 79.3172 23.5877H18.706C16.1171 23.5877 14.0186 25.6862 14.0186 28.2751V80.1681C14.0186 82.757 16.1171 84.8556 18.706 84.8556H101.294C103.883 84.8556 105.981 82.757 105.981 80.1681V42.1665C109.52 39.0932 111.761 34.5646 111.761 29.5096Z" fill="#2626BC"/>
<path d="M101.294 78.9962H18.706C16.1171 78.9962 14.0186 76.8976 14.0186 74.3087V22.4158C14.0186 19.8269 16.1171 17.7283 18.706 17.7283H101.294C103.883 17.7283 105.981 19.8269 105.981 22.4158V74.3087C105.981 76.8976 103.883 78.9962 101.294 78.9962Z" fill="white"/>
<path d="M61.4279 40.0841L105.982 74.3087C105.982 76.8976 103.883 78.9962 101.294 78.9962H18.706C16.1171 78.9962 14.0186 76.8976 14.0186 74.3087L58.5723 40.0841C59.4144 39.4372 60.5858 39.4372 61.4279 40.0841Z" fill="white"/>
<path d="M58.5723 56.6406L14.0186 22.4158C14.0186 19.8269 16.1171 17.7283 18.706 17.7283H101.294C103.883 17.7283 105.981 19.8269 105.981 22.4158L61.4279 56.6406C60.5858 57.2872 59.4144 57.2872 58.5723 56.6406Z" fill="white"/>
<path d="M86.9406 72.7592H79.4092C78.7618 72.7592 78.2373 72.2347 78.2373 71.5874V66.395C78.2373 65.7479 78.7618 65.2231 79.4092 65.2231H86.9406C87.5879 65.2231 88.1124 65.7479 88.1124 66.395V71.5874C88.1124 72.2347 87.5879 72.7592 86.9406 72.7592Z" fill="#6583FE"/>
<path d="M73.0946 67.9822H66.5713C65.9239 67.9822 65.3994 67.4574 65.3994 66.8103C65.3994 66.1632 65.9239 65.6385 66.5713 65.6385H73.0946C73.742 65.6385 74.2665 66.1632 74.2665 66.8103C74.2665 67.4574 73.742 67.9822 73.0946 67.9822Z" fill="#2626BC"/>
<path d="M73.0949 72.7592H50.1653C49.5179 72.7592 48.9934 72.2345 48.9934 71.5874C48.9934 70.9402 49.5179 70.4155 50.1653 70.4155H73.0949C73.7422 70.4155 74.2668 70.9402 74.2668 71.5874C74.2668 72.2347 73.7422 72.7592 73.0949 72.7592Z" fill="#2626BC"/>
<path d="M111.747 23.7596C111.747 14.5082 104.24 6.96038 94.9785 6.90105C85.7175 6.84172 78.21 14.2934 78.21 23.5448C78.21 32.7962 85.7175 40.344 94.9785 40.4033C104.24 40.4627 111.747 33.011 111.747 23.7596Z" fill="#6583FE"/>
<path d="M94.9992 41.5839C104.888 41.5839 112.933 33.539 112.933 23.6502C112.933 13.7615 104.888 5.71657 94.9992 5.71657C85.1105 5.71657 77.0656 13.7615 77.0656 23.6502C77.0656 29.4027 79.7911 34.5276 84.0155 37.8114L60.714 55.711C60.2942 56.034 59.7069 56.0342 59.2862 55.711L15.2326 21.8706C15.4953 20.1901 16.9532 18.9001 18.706 18.9001H72.4636C73.111 18.9001 73.6355 18.3754 73.6355 17.7283C73.6355 17.0812 73.111 16.5564 72.4636 16.5564H18.706C15.4752 16.5564 12.8467 19.1849 12.8467 22.4158V74.3087C12.8467 77.5395 15.4752 80.1681 18.706 80.1681H101.294C104.525 80.1681 107.153 77.5395 107.153 74.3087V43.3384C107.153 42.6913 106.629 42.1665 105.981 42.1665C105.334 42.1665 104.809 42.6913 104.809 43.3384V71.9307L74.1282 48.3622L86.0672 39.1911C88.6992 40.7099 91.7482 41.5839 94.9992 41.5839ZM45.872 48.3622L15.1904 71.9307V24.7937L45.872 48.3622ZM104.763 74.8508C104.501 76.5322 103.048 77.8243 101.294 77.8243H18.706C16.9522 77.8243 15.4986 76.5322 15.2366 74.8508L47.7957 49.84L57.8583 57.5696C58.4888 58.0539 59.2444 58.2962 60.0001 58.2962C60.7557 58.2962 61.5111 58.0541 62.1418 57.5696L72.2044 49.8397L104.763 74.8508ZM79.4093 23.6502C79.4093 15.0541 86.4028 8.06032 94.9992 8.06032C103.596 8.06032 110.589 15.0538 110.589 23.6502C110.589 32.2464 103.596 39.2401 94.9992 39.2401C86.4028 39.2401 79.4093 32.2464 79.4093 23.6502Z" fill="#2626BC"/>
<path d="M87.6831 17.934L90.0751 23.6502L87.6831 29.3664C87.2769 30.3372 88.2569 31.3098 89.2246 30.8964L103.667 24.7279C104.615 24.3226 104.615 22.9778 103.667 22.5726L89.2246 16.4041C88.2569 15.9906 87.2769 16.9633 87.6831 17.934Z" fill="white"/>
<path d="M77.538 6.79353C76.6676 6.79353 75.7973 6.46236 75.135 5.79978C73.8098 4.47462 73.8098 2.31861 75.135 0.99369C76.4594 -0.330996 78.6159 -0.331464 79.9408 0.99369C81.266 2.31885 81.266 4.47486 79.9408 5.79978C79.2785 6.46236 78.4083 6.79353 77.538 6.79353ZM77.538 2.34252C77.268 2.34252 76.9978 2.44517 76.792 2.65095C76.3809 3.06205 76.3809 3.73119 76.792 4.14252C77.2036 4.55361 77.872 4.55384 78.2836 4.14252C78.6947 3.73142 78.6947 3.06228 78.2836 2.65095C78.078 2.44541 77.8078 2.34252 77.538 2.34252Z" fill="#6583FE"/>
<path d="M51.2199 95.3038C50.3497 95.3038 49.4792 94.9724 48.8169 94.31C47.4917 92.9849 47.4917 90.8288 48.8169 89.5039C50.1416 88.179 52.2983 88.179 53.623 89.5039C54.9481 90.8291 54.9481 92.9851 53.623 94.31C52.9606 94.9726 52.0901 95.3038 51.2199 95.3038ZM51.2199 90.8527C50.9499 90.8527 50.6797 90.9554 50.4739 91.1612C50.0628 91.5723 50.0628 92.2414 50.4739 92.6527C50.8855 93.0641 51.5541 93.0641 51.9657 92.6527C52.3768 92.2416 52.3768 91.5725 51.9657 91.1612C51.7601 90.9556 51.4899 90.8527 51.2199 90.8527Z" fill="#6583FE"/>
<path d="M69.0893 9.81134C68.7895 9.81134 68.4893 9.69697 68.2608 9.46822L66.8627 8.07041L65.4647 9.46822C65.0074 9.92572 64.2649 9.92572 63.8077 9.46822C63.3499 9.01049 63.3499 8.26846 63.8077 7.81096L66.0342 5.5844C66.4915 5.1269 67.234 5.1269 67.6912 5.5844L69.9178 7.81096C70.3755 8.26869 70.3755 9.01072 69.9178 9.46822C69.6893 9.69674 69.3893 9.81134 69.0893 9.81134Z" fill="#6583FE"/>
<path d="M103.065 90.8523C102.766 90.8523 102.465 90.7379 102.237 90.5091L100.839 89.1113L99.4408 90.5091C98.9835 90.9666 98.241 90.9666 97.7837 90.5091C97.326 90.0514 97.326 89.3094 97.7837 88.8519L100.01 86.6253C100.468 86.1678 101.21 86.1678 101.667 86.6253L103.894 88.8519C104.352 89.3096 104.352 90.0516 103.894 90.5091C103.665 90.7377 103.365 90.8523 103.065 90.8523Z" fill="#6583FE"/>
<path d="M41.926 91.9656C41.6262 91.9656 41.326 91.8512 41.0974 91.6224L39.6994 90.2246L38.3014 91.6224C37.8441 92.0799 37.1016 92.0799 36.6443 91.6224C36.1866 91.1647 36.1866 90.4227 36.6443 89.9652L38.8709 87.7386C39.3282 87.2811 40.0707 87.2811 40.5279 87.7386L42.7545 89.9652C43.2122 90.4229 43.2122 91.1649 42.7545 91.6224C42.5257 91.8509 42.2257 91.9656 41.926 91.9656Z" fill="#6583FE"/>
<defs>
<linearGradient id="paint0_linear_19_5114" x1="101.328" y1="105.459" x2="46.4846" y2="32.8033" gradientUnits="userSpaceOnUse">
<stop stop-color="#D2DEFF" stop-opacity="0"/>
<stop offset="1" stop-color="#B7C5FF"/>
</linearGradient>
</defs>
</svg>
