<svg width="25" height="26" viewBox="0 0 25 26" fill="none" xmlns="http://www.w3.org/2000/svg">
<path d="M-0.00012207 13C-0.00012207 6.09644 5.59632 0.5 12.4999 0.5C19.4034 0.5 24.9999 6.09644 24.9999 13C24.9999 19.9036 19.4034 25.5 12.4999 25.5C5.59632 25.5 -0.00012207 19.9036 -0.00012207 13Z" fill="white"/>
<path d="M4.99988 19.8182C4.99988 20.1947 5.30483 20.5 5.6817 20.5C6.05856 20.5 6.36351 20.1947 6.36351 19.8182C6.36351 17.4122 7.74862 15.2821 9.90765 14.2748C10.6548 14.7604 11.5437 15.0455 12.4992 15.0455C13.4583 15.0455 14.3506 14.7585 15.0996 14.2695C15.7441 14.5738 16.3414 14.9831 16.8385 15.4799C17.9977 16.6395 18.6362 18.1802 18.6362 19.8182C18.6362 20.1947 18.9412 20.5 19.3181 20.5C19.6949 20.5 19.9999 20.1947 19.9999 19.8182C19.9999 17.816 19.2195 15.933 17.8026 14.5158C17.3285 14.0414 16.7775 13.6347 16.1863 13.2993C16.8642 12.4751 17.2719 11.4207 17.2719 10.2727C17.2719 7.641 15.1306 5.5 12.4992 5.5C9.86782 5.5 7.72649 7.641 7.72649 10.2727C7.72649 11.4179 8.1326 12.4697 8.80747 13.2931C6.46693 14.6109 4.99988 17.0731 4.99988 19.8182ZM12.4992 6.86364C14.3789 6.86364 15.9083 8.39307 15.9083 10.2727C15.9083 12.1524 14.3789 13.6818 12.4992 13.6818C10.6196 13.6818 9.09012 12.1524 9.09012 10.2727C9.09012 8.39307 10.6196 6.86364 12.4992 6.86364Z" fill="#4B5563"/>
</svg>
