<svg width="15" height="16" viewBox="0 0 15 16" fill="none" xmlns="http://www.w3.org/2000/svg">
<g clip-path="url(#clip0_2031_3073)">
<path d="M7.5 15.5C3.36437 15.5 0 12.1356 0 8C0 3.86437 3.36437 0.5 7.5 0.5C11.6356 0.5 15 3.86437 15 8C15 12.1356 11.6356 15.5 7.5 15.5ZM7.5 1.75C4.05375 1.75 1.25 4.55375 1.25 8C1.25 11.4462 4.05375 14.25 7.5 14.25C10.9462 14.25 13.75 11.4462 13.75 8C13.75 4.55375 10.9462 1.75 7.5 1.75ZM9.21687 9.23187L8.54875 9.76375C7.25438 9.26937 6.29938 8.35375 5.73625 6.95125L6.26813 6.28313C6.54688 6.00438 6.54688 5.55188 6.26813 5.27313L5.64313 4.45938C5.36438 4.18063 4.91188 4.18063 4.63313 4.45938L4.25813 4.78562C3.91313 5.13 3.75 5.58375 3.75 6.03563C3.75 8.53563 7.14312 11.75 9.46437 11.75C9.91625 11.75 10.37 11.5869 10.7144 11.2419L11.0406 10.8669C11.3194 10.5881 11.3194 10.1356 11.0406 9.85687L10.2269 9.23187C9.94813 8.95312 9.49562 8.95312 9.21687 9.23187Z" fill="#1F2937"/>
</g>
<defs>
<clipPath id="clip0_2031_3073">
<rect width="15" height="15" fill="white" transform="translate(0 0.5)"/>
</clipPath>
</defs>
</svg>
