<svg width="15" height="15" viewBox="0 0 15 15" fill="none" xmlns="http://www.w3.org/2000/svg">
<g clip-path="url(#clip0_1063_2295)">
<path d="M7.5 15C3.36437 15 0 11.6356 0 7.5C0 3.36437 3.36437 0 7.5 0C11.6356 0 15 3.36437 15 7.5C15 11.6356 11.6356 15 7.5 15ZM7.5 1.25C4.05375 1.25 1.25 4.05375 1.25 7.5C1.25 10.9462 4.05375 13.75 7.5 13.75C10.9462 13.75 13.75 10.9462 13.75 7.5C13.75 4.05375 10.9462 1.25 7.5 1.25ZM9.21688 8.73187L8.54875 9.26375C7.25438 8.76937 6.29938 7.85375 5.73625 6.45125L6.26813 5.78312C6.54688 5.50437 6.54688 5.05188 6.26813 4.77313L5.64313 3.95937C5.36438 3.68062 4.91188 3.68062 4.63313 3.95937L4.25813 4.28562C3.91313 4.63 3.75 5.08375 3.75 5.53563C3.75 8.03563 7.14312 11.25 9.46437 11.25C9.91625 11.25 10.37 11.0869 10.7144 10.7419L11.0406 10.3669C11.3194 10.0881 11.3194 9.63562 11.0406 9.35687L10.2269 8.73187C9.94813 8.45312 9.49562 8.45312 9.21688 8.73187Z" fill="white"/>
</g>
<defs>
<clipPath id="clip0_1063_2295">
<rect width="15" height="15" fill="white"/>
</clipPath>
</defs>
</svg>
