<svg width="15" height="15" viewBox="0 0 15 15" fill="none" xmlns="http://www.w3.org/2000/svg">
<path d="M11.4844 13.418H3.51562C1.57711 13.418 0 11.8409 0 9.90234V5.09766C0 3.15914 1.57711 1.58203 3.51562 1.58203H11.4844C13.4229 1.58203 15 3.15914 15 5.09766V9.90234C15 11.8409 13.4229 13.418 11.4844 13.418ZM3.51562 2.75391C2.22328 2.75391 1.17188 3.80531 1.17188 5.09766V9.90234C1.17188 11.1947 2.22328 12.2461 3.51562 12.2461H11.4844C12.7767 12.2461 13.8281 11.1947 13.8281 9.90234V5.09766C13.8281 3.80531 12.7767 2.75391 11.4844 2.75391H3.51562ZM9.64705 8.53729L12.5432 6.32502C12.8004 6.12858 12.8496 5.76088 12.6531 5.50371C12.4567 5.24654 12.089 5.19732 11.8318 5.39376L8.93604 7.60576C8.09988 8.24353 6.93214 8.24399 6.09542 7.60737L3.28934 5.42607C3.03384 5.22744 2.66569 5.27358 2.46712 5.52908C2.26852 5.78458 2.31463 6.1527 2.57013 6.3513L5.37838 8.53427C5.37979 8.53538 5.38122 8.53647 5.38266 8.53755C6.01031 9.01626 6.76236 9.25559 7.51459 9.25559C8.26682 9.25559 9.01919 9.01611 9.64705 8.53729Z" fill="white"/>
</svg>
