<svg width="50" height="50" viewBox="0 0 50 50" fill="none" xmlns="http://www.w3.org/2000/svg">
<g clip-path="url(#clip0_2031_3016)">
<path d="M43.75 0H13.5396C9.52083 0 6.25 3.27292 6.25 7.29167V14.5833C6.25 15.7333 7.18333 16.6667 8.33333 16.6667C9.48333 16.6667 10.4167 15.7333 10.4167 14.5833V7.29167C10.4167 5.56875 11.8187 4.16667 13.5417 4.16667C15.2646 4.16667 16.6667 5.56875 16.6667 7.29167C16.6667 10.1625 19.0042 12.5 21.875 12.5H39.5833V39.5833C39.5833 43.0292 36.7792 45.8333 33.3333 45.8333H29.1667C28.0167 45.8333 27.0833 46.7667 27.0833 47.9167C27.0833 49.0667 28.0167 50 29.1667 50H33.3333C39.0771 50 43.75 45.3271 43.75 39.5833V12.5H44.7917C47.6625 12.5 50 10.1625 50 7.29167V6.25C50 2.80417 47.1958 0 43.75 0ZM45.8333 7.29167C45.8333 7.86667 45.3667 8.33333 44.7917 8.33333H21.875C21.3 8.33333 20.8333 7.86667 20.8333 7.29167C20.8333 6.17292 20.5792 5.11458 20.1292 4.16667H43.75C44.8979 4.16667 45.8333 5.10208 45.8333 6.25V7.29167ZM17.7083 20.8333H7.29167C3.27083 20.8333 0 24.1042 0 28.125V42.7083C0 46.7292 3.27083 50 7.29167 50H17.7083C21.7292 50 25 46.7292 25 42.7083V28.125C25 24.1042 21.7292 20.8333 17.7083 20.8333ZM20.8333 42.7083C20.8333 44.4312 19.4312 45.8333 17.7083 45.8333H7.29167C5.56875 45.8333 4.16667 44.4312 4.16667 42.7083V28.125C4.16667 26.4021 5.56875 25 7.29167 25H17.7083C19.4312 25 20.8333 26.4021 20.8333 28.125V42.7083ZM18.75 29.1667C18.75 30.3167 17.8167 31.25 16.6667 31.25H8.33333C7.18333 31.25 6.25 30.3167 6.25 29.1667C6.25 28.0167 7.18333 27.0833 8.33333 27.0833H16.6667C17.8167 27.0833 18.75 28.0167 18.75 29.1667ZM18.75 35.4167C18.75 36.5667 17.8167 37.5 16.6667 37.5H15.625C14.475 37.5 13.5417 36.5667 13.5417 35.4167C13.5417 34.2667 14.475 33.3333 15.625 33.3333H16.6667C17.8167 33.3333 18.75 34.2667 18.75 35.4167ZM11.4583 35.4167C11.4583 36.5667 10.525 37.5 9.375 37.5H8.33333C7.18333 37.5 6.25 36.5667 6.25 35.4167C6.25 34.2667 7.18333 33.3333 8.33333 33.3333H9.375C10.525 33.3333 11.4583 34.2667 11.4583 35.4167ZM18.75 41.6667C18.75 42.8167 17.8167 43.75 16.6667 43.75H15.625C14.475 43.75 13.5417 42.8167 13.5417 41.6667C13.5417 40.5167 14.475 39.5833 15.625 39.5833H16.6667C17.8167 39.5833 18.75 40.5167 18.75 41.6667ZM11.4583 41.6667C11.4583 42.8167 10.525 43.75 9.375 43.75H8.33333C7.18333 43.75 6.25 42.8167 6.25 41.6667C6.25 40.5167 7.18333 39.5833 8.33333 39.5833H9.375C10.525 39.5833 11.4583 40.5167 11.4583 41.6667Z" fill="#2D64D6"/>
</g>
<defs>
<clipPath id="clip0_2031_3016">
<rect width="50" height="50" fill="white"/>
</clipPath>
</defs>
</svg>
