<svg width="561" height="500" viewBox="0 0 561 500" fill="none" xmlns="http://www.w3.org/2000/svg">
<path d="M281.648 378.567C281.587 378.567 281.519 378.567 281.457 378.555C280.529 378.448 279.865 377.616 279.972 376.688L298.641 212.713C298.748 211.785 299.575 211.116 300.508 211.228C301.437 211.335 302.1 212.167 301.993 213.096L283.325 377.07C283.229 377.931 282.498 378.567 281.648 378.567Z" fill="url(#paint0_linear_3073_1364)"/>
<path d="M308.801 140.112C308.739 140.112 308.672 140.112 308.61 140.101C307.682 139.994 307.018 139.161 307.125 138.233L315.759 62.3939C316.102 59.4015 315.146 56.3922 313.138 54.1479C311.13 51.9036 308.25 50.6099 305.241 50.6099H62.2929C57.1743 50.6099 52.7982 54.266 51.8758 59.3002L19.6534 449.336C19.4847 450.253 18.6072 450.861 17.6904 450.692C16.7735 450.523 16.166 449.646 16.3348 448.729L48.5571 58.6927C49.7665 52.0555 55.5431 47.235 62.2929 47.235H305.241C309.212 47.235 313.008 48.9337 315.658 51.898C318.301 54.8622 319.561 58.8277 319.111 62.7764L310.477 138.616C310.382 139.476 309.65 140.112 308.801 140.112Z" fill="url(#paint1_linear_3073_1364)"/>
<path d="M247.536 452.765H42.464C41.1006 452.765 40 452.095 40 451.265C40 450.435 41.1006 449.765 42.464 449.765H247.536C248.899 449.765 250 450.435 250 451.265C250 452.095 248.899 452.765 247.536 452.765Z" fill="url(#paint2_linear_3073_1364)"/>
<path d="M159.633 167.242H164.223L163.092 159.839L159.633 167.242Z" fill="#2D64D6"/>
<path d="M146.482 157.836H143.056L142.083 163.99H145.452C146.448 163.99 147.247 163.742 147.848 163.242C148.45 162.741 148.822 162.038 148.968 161.132C149.125 160.137 148.985 159.338 148.54 158.747C148.096 158.151 147.415 157.847 146.487 157.842L146.482 157.836Z" fill="#2D64D6"/>
<path d="M227.616 140.202H106.215C103.256 140.202 100.483 142.604 100.011 145.563L94.0036 183.497C93.5368 186.455 95.5561 188.851 98.5147 188.851H145.122C146.354 186.635 147.372 184.953 147.878 184.447C149.813 182.512 153.829 179.239 155.764 182.074C156.36 182.945 155.877 185.6 154.926 188.851H219.91C222.868 188.851 225.647 186.455 226.114 183.497L232.121 145.563C232.588 142.604 230.574 140.202 227.616 140.202ZM144.723 167.955H141.443L140.296 175.189H135.155L138.535 153.865H147.046C148.677 153.865 150.072 154.163 151.231 154.765C152.389 155.367 153.227 156.222 153.739 157.33C154.251 158.438 154.397 159.692 154.172 161.099C153.84 163.18 152.834 164.845 151.152 166.088C149.464 167.331 147.321 167.955 144.723 167.955ZM165.433 175.189L164.82 171.206H157.772L155.91 175.189H150.421L161.62 153.865H166.451L170.951 175.189H165.433ZM181.936 167.533L180.722 175.189H175.507L176.722 167.533L172.031 153.865H177.555L180.03 163.124L185.418 153.865H190.97L181.936 167.533Z" fill="#2D64D6"/>
<path d="M109.67 109.091C110.784 102.071 107.944 97.3744 98.0777 93.5045L97.6952 93.3583L100.434 76.0676C101.408 76.1069 102.369 76.2138 103.376 76.4219L103.539 80.4212C103.697 85.0729 105.789 86.1529 107.966 86.1529C109.625 86.1529 111.42 85.2416 112.297 83.0592C112.983 77.0125 108.309 72.822 101.053 72.1921L102.173 65.1442H98.2183L97.1046 72.1921C88.0767 72.957 81.5576 78.8012 80.3932 86.1416C79.1502 93.9826 83.3182 98.1675 91.2379 101.357L92.1547 101.722L89.3367 119.531C87.5818 119.486 85.9956 119.3 84.4375 118.923L84.3756 114.637C84.2912 110.587 82.7894 109.383 80.4045 109.383C78.5989 109.383 77.0071 110.317 75.8484 112.365C74.9934 118.979 79.9939 123.209 88.7236 123.417L87.4918 131.208H91.446L92.706 123.237C102.128 122.157 108.512 116.516 109.687 109.097L109.67 109.091ZM88.7911 83.9873C89.4886 79.5887 92.4922 77.1082 96.4352 76.3207L93.9659 91.8958C90.0398 90.169 88.1555 87.9809 88.7855 83.9873H88.7911ZM93.3247 119.227L95.8559 103.258C100.091 105.238 101.689 107.302 101.019 111.515C100.378 115.565 97.5152 118.327 93.3247 119.227Z" fill="#2D64D6"/>
<path d="M160.31 121.713H124.137C121.679 121.713 120.003 119.722 120.391 117.264L121.741 108.742C122.129 106.284 124.441 104.293 126.899 104.293H163.072C165.53 104.293 167.206 106.284 166.818 108.742L165.468 117.264C165.08 119.722 162.768 121.713 160.31 121.713Z" fill="#D1D5DB"/>
<path d="M212.356 121.713H176.183C173.725 121.713 172.049 119.722 172.437 117.264L173.787 108.742C174.175 106.284 176.487 104.293 178.945 104.293H215.118C217.576 104.293 219.252 106.284 218.864 108.742L217.514 117.264C217.126 119.722 214.814 121.713 212.356 121.713Z" fill="#D1D5DB"/>
<path d="M264.372 121.713H228.198C225.74 121.713 224.064 119.722 224.452 117.264L225.802 108.742C226.19 106.284 228.502 104.293 230.96 104.293H267.133C269.592 104.293 271.268 106.284 270.88 108.742L269.53 117.264C269.142 119.722 266.83 121.713 264.372 121.713Z" fill="#D1D5DB"/>
<path d="M259.221 243.417H188.826C182.88 243.417 177.295 248.238 176.35 254.195L169.527 297.286C168.582 303.237 172.643 308.063 178.589 308.063H248.983C254.934 308.063 260.52 303.243 261.465 297.286L268.288 254.195C269.233 248.243 265.172 243.417 259.221 243.417ZM186.469 258.931C183.904 258.931 182.149 256.849 182.56 254.285C182.965 251.725 185.378 249.644 187.943 249.644C190.508 249.644 192.257 251.725 191.852 254.285C191.447 256.844 189.034 258.931 186.475 258.931H186.469ZM199.586 258.931C197.021 258.931 195.272 256.849 195.683 254.285C196.088 251.725 198.495 249.644 201.06 249.644C203.625 249.644 205.38 251.725 204.975 254.285C204.57 256.849 202.157 258.931 199.592 258.931H199.586Z" fill="#D1D5DB"/>
<path d="M264.52 277.987H172.576L174.489 265.922H266.432L264.52 277.987Z" fill="#0E172A"/>
<path d="M251.646 296.533H223.488C222.555 296.533 221.801 295.779 221.801 294.846C221.801 293.912 222.555 293.158 223.488 293.158H251.646C252.58 293.158 253.334 293.912 253.334 294.846C253.334 295.779 252.58 296.533 251.646 296.533Z" fill="#0E172A"/>
<path d="M286.536 335.58H125.283C124.349 335.58 123.596 334.826 123.596 333.893C123.596 332.959 124.349 332.205 125.283 332.205H286.536C287.469 332.205 288.223 332.959 288.223 333.893C288.223 334.826 287.469 335.58 286.536 335.58Z" fill="#0E172A"/>
<path d="M216.197 426.252H171.525C168.864 426.252 166.502 425.206 164.882 423.304C163.234 421.375 162.565 418.833 162.992 416.138L170.068 371.466C170.906 366.179 175.895 361.881 181.188 361.881H225.861C228.521 361.881 230.884 362.928 232.504 364.829C234.152 366.752 234.821 369.301 234.394 371.995L227.318 416.667C226.479 421.954 221.49 426.252 216.197 426.252ZM181.183 365.256C177.476 365.256 173.983 368.277 173.398 371.995L166.322 416.667C166.052 418.371 166.451 419.952 167.447 421.116C168.42 422.253 169.866 422.877 171.525 422.877H216.197C219.904 422.877 223.397 419.856 223.982 416.138L231.058 371.466C231.328 369.762 230.929 368.181 229.933 367.017C228.96 365.881 227.514 365.256 225.855 365.256H181.183Z" fill="#0E172A"/>
<path d="M133.216 424.563H88.5432C84.0377 424.563 80.9609 420.907 81.6753 416.401L88.7513 371.729C89.4656 367.223 93.6955 363.567 98.2066 363.567H142.879C147.384 363.567 150.461 367.223 149.747 371.729L142.671 416.401C141.957 420.907 137.727 424.563 133.216 424.563Z" fill="#0E172A"/>
<path d="M107.29 221.251H59.7265C58.7928 221.251 58.0391 220.498 58.0391 219.564C58.0391 218.63 58.7928 217.876 59.7265 217.876H107.29C108.224 217.876 108.977 218.63 108.977 219.564C108.977 220.498 108.224 221.251 107.29 221.251Z" fill="#0E172A"/>
<path d="M105.137 234.879H57.5732C56.6395 234.879 55.8857 234.125 55.8857 233.191C55.8857 232.257 56.6395 231.504 57.5732 231.504H105.137C106.07 231.504 106.824 232.257 106.824 233.191C106.824 234.125 106.07 234.879 105.137 234.879Z" fill="#0E172A"/>
<path d="M102.532 251.328H54.9687C54.035 251.328 53.2812 250.574 53.2812 249.64C53.2812 248.707 54.035 247.953 54.9687 247.953H102.532C103.466 247.953 104.22 248.707 104.22 249.64C104.22 250.574 103.466 251.328 102.532 251.328Z" fill="#0E172A"/>
<path d="M45.8063 268.391C44.9401 268.329 44.057 268.295 43.1627 268.295C22.8064 268.295 3.68765 284.798 0.464629 305.154C-2.75839 325.511 11.1293 342.014 31.4855 342.014C51.8418 342.014 70.9605 325.511 74.1835 305.154C77.266 285.693 64.7057 269.752 45.8007 268.391M59.8628 294.242L31.8793 318.401C30.3662 319.706 28.5494 320.358 26.8338 320.358C25.1182 320.358 23.5039 319.706 22.4071 318.401L15.6798 310.402C14.583 309.103 14.9204 306.994 16.4279 305.689C17.9353 304.39 20.0446 304.39 21.1415 305.689L27.8688 313.687L55.9029 289.529C57.4103 288.229 59.5196 288.229 60.6165 289.529C61.7133 290.828 61.3759 292.937 59.8684 294.242H59.8628Z" fill="#22C55E"/>
<g filter="url(#filter0_d_3073_1364)">
<g clip-path="url(#clip0_3073_1364)">
<rect x="280" y="150.5" width="250" height="313" rx="10" fill="white"/>
<mask id="path-24-inside-1_3073_1364" fill="white">
<path d="M280 150.5H530V206.5H280V150.5Z"/>
</mask>
<path d="M530 205.5H280V207.5H530V205.5Z" fill="#F3F4F6" mask="url(#path-24-inside-1_3073_1364)"/>
<path d="M296.81 170.5H295.74V163.5H297.44L299.43 169.26L301.43 163.5H303.15V170.5H302.01V164.84H301.95L299.99 170.5H298.84L296.87 164.84H296.81V170.5ZM308.847 167.11V167.8C308.847 168.7 308.847 169.59 308.897 170.5H307.917L307.817 169.61H307.737C307.417 170.25 306.847 170.6 306.037 170.6C305.037 170.6 304.377 170 304.377 169.09C304.377 168.12 305.077 167.53 306.497 167.45L307.757 167.38V167.15C307.757 166.48 307.257 166.18 306.657 166.18C306.017 166.18 305.597 166.49 305.417 167.07L304.437 166.78C304.647 165.82 305.517 165.3 306.657 165.3C308.047 165.3 308.847 165.97 308.847 167.11ZM306.317 169.71C307.107 169.71 307.727 169.06 307.757 168.15L306.727 168.22C305.927 168.27 305.467 168.48 305.467 169.02C305.467 169.44 305.787 169.71 306.317 169.71ZM312.053 172.5H310.863L311.593 170.64L309.623 165.4H310.813L312.163 169.36H312.223L313.563 165.4H314.723L312.053 172.5ZM320.267 170.5H319.127V164.85H319.057L317.547 165.73V164.53L319.407 163.5H320.267V170.5ZM324.074 163.4C325.624 163.4 326.744 164.4 326.744 165.84C326.744 166.6 326.464 167.14 325.924 167.89L324.054 170.5H322.664V170.42L324.344 168.19C324.224 168.2 324.084 168.21 323.954 168.21C322.504 168.21 321.404 167.26 321.404 165.84C321.404 164.4 322.514 163.4 324.074 163.4ZM324.074 167.29C324.964 167.29 325.594 166.69 325.594 165.84C325.594 164.98 324.964 164.39 324.074 164.39C323.194 164.39 322.544 164.98 322.544 165.84C322.544 166.7 323.194 167.29 324.074 167.29ZM329.051 169.59L327.931 171.86L327.151 171.61L327.901 169.21L329.051 169.59ZM337.197 170.5H332.297V169.56L334.357 167.76C335.407 166.83 336.007 166.29 336.007 165.48C336.007 164.77 335.427 164.36 334.717 164.36C334.027 164.36 333.447 164.75 333.177 165.47L332.127 165.16C332.457 164.04 333.457 163.4 334.717 163.4C336.117 163.4 337.147 164.17 337.147 165.48C337.147 166.57 336.447 167.3 335.097 168.45L334.017 169.39V169.45H337.197V170.5ZM341.096 170.6C339.316 170.6 338.136 169.15 338.136 167C338.136 164.85 339.316 163.4 341.096 163.4C342.876 163.4 344.056 164.84 344.056 167C344.056 169.16 342.876 170.6 341.096 170.6ZM341.096 169.57C342.206 169.57 342.916 168.63 342.916 167C342.916 165.37 342.206 164.43 341.096 164.43C339.996 164.43 339.276 165.37 339.276 167C339.276 168.63 339.996 169.57 341.096 169.57ZM349.863 170.5H344.963V169.56L347.023 167.76C348.073 166.83 348.673 166.29 348.673 165.48C348.673 164.77 348.093 164.36 347.383 164.36C346.693 164.36 346.113 164.75 345.843 165.47L344.793 165.16C345.123 164.04 346.123 163.4 347.383 163.4C348.783 163.4 349.813 164.17 349.813 165.48C349.813 166.57 349.113 167.3 347.763 168.45L346.683 169.39V169.45H349.863V170.5ZM355.114 170.5H353.964V169.13H350.564V168L353.854 163.5H355.114V168.1H356.074V169.13H355.114V170.5ZM353.964 164.98L351.694 168.1H353.964V164.98Z" fill="#EFEEFF"/>
<path d="M296.81 170.5H295.74V163.5H297.44L299.43 169.26L301.43 163.5H303.15V170.5H302.01V164.84H301.95L299.99 170.5H298.84L296.87 164.84H296.81V170.5ZM308.847 167.11V167.8C308.847 168.7 308.847 169.59 308.897 170.5H307.917L307.817 169.61H307.737C307.417 170.25 306.847 170.6 306.037 170.6C305.037 170.6 304.377 170 304.377 169.09C304.377 168.12 305.077 167.53 306.497 167.45L307.757 167.38V167.15C307.757 166.48 307.257 166.18 306.657 166.18C306.017 166.18 305.597 166.49 305.417 167.07L304.437 166.78C304.647 165.82 305.517 165.3 306.657 165.3C308.047 165.3 308.847 165.97 308.847 167.11ZM306.317 169.71C307.107 169.71 307.727 169.06 307.757 168.15L306.727 168.22C305.927 168.27 305.467 168.48 305.467 169.02C305.467 169.44 305.787 169.71 306.317 169.71ZM312.053 172.5H310.863L311.593 170.64L309.623 165.4H310.813L312.163 169.36H312.223L313.563 165.4H314.723L312.053 172.5ZM320.267 170.5H319.127V164.85H319.057L317.547 165.73V164.53L319.407 163.5H320.267V170.5ZM324.074 163.4C325.624 163.4 326.744 164.4 326.744 165.84C326.744 166.6 326.464 167.14 325.924 167.89L324.054 170.5H322.664V170.42L324.344 168.19C324.224 168.2 324.084 168.21 323.954 168.21C322.504 168.21 321.404 167.26 321.404 165.84C321.404 164.4 322.514 163.4 324.074 163.4ZM324.074 167.29C324.964 167.29 325.594 166.69 325.594 165.84C325.594 164.98 324.964 164.39 324.074 164.39C323.194 164.39 322.544 164.98 322.544 165.84C322.544 166.7 323.194 167.29 324.074 167.29ZM329.051 169.59L327.931 171.86L327.151 171.61L327.901 169.21L329.051 169.59ZM337.197 170.5H332.297V169.56L334.357 167.76C335.407 166.83 336.007 166.29 336.007 165.48C336.007 164.77 335.427 164.36 334.717 164.36C334.027 164.36 333.447 164.75 333.177 165.47L332.127 165.16C332.457 164.04 333.457 163.4 334.717 163.4C336.117 163.4 337.147 164.17 337.147 165.48C337.147 166.57 336.447 167.3 335.097 168.45L334.017 169.39V169.45H337.197V170.5ZM341.096 170.6C339.316 170.6 338.136 169.15 338.136 167C338.136 164.85 339.316 163.4 341.096 163.4C342.876 163.4 344.056 164.84 344.056 167C344.056 169.16 342.876 170.6 341.096 170.6ZM341.096 169.57C342.206 169.57 342.916 168.63 342.916 167C342.916 165.37 342.206 164.43 341.096 164.43C339.996 164.43 339.276 165.37 339.276 167C339.276 168.63 339.996 169.57 341.096 169.57ZM349.863 170.5H344.963V169.56L347.023 167.76C348.073 166.83 348.673 166.29 348.673 165.48C348.673 164.77 348.093 164.36 347.383 164.36C346.693 164.36 346.113 164.75 345.843 165.47L344.793 165.16C345.123 164.04 346.123 163.4 347.383 163.4C348.783 163.4 349.813 164.17 349.813 165.48C349.813 166.57 349.113 167.3 347.763 168.45L346.683 169.39V169.45H349.863V170.5ZM355.114 170.5H353.964V169.13H350.564V168L353.854 163.5H355.114V168.1H356.074V169.13H355.114V170.5ZM353.964 164.98L351.694 168.1H353.964V164.98Z" fill="black" fill-opacity="0.2"/>
<path d="M296.81 170.5H295.74V163.5H297.44L299.43 169.26L301.43 163.5H303.15V170.5H302.01V164.84H301.95L299.99 170.5H298.84L296.87 164.84H296.81V170.5ZM308.847 167.11V167.8C308.847 168.7 308.847 169.59 308.897 170.5H307.917L307.817 169.61H307.737C307.417 170.25 306.847 170.6 306.037 170.6C305.037 170.6 304.377 170 304.377 169.09C304.377 168.12 305.077 167.53 306.497 167.45L307.757 167.38V167.15C307.757 166.48 307.257 166.18 306.657 166.18C306.017 166.18 305.597 166.49 305.417 167.07L304.437 166.78C304.647 165.82 305.517 165.3 306.657 165.3C308.047 165.3 308.847 165.97 308.847 167.11ZM306.317 169.71C307.107 169.71 307.727 169.06 307.757 168.15L306.727 168.22C305.927 168.27 305.467 168.48 305.467 169.02C305.467 169.44 305.787 169.71 306.317 169.71ZM312.053 172.5H310.863L311.593 170.64L309.623 165.4H310.813L312.163 169.36H312.223L313.563 165.4H314.723L312.053 172.5ZM320.267 170.5H319.127V164.85H319.057L317.547 165.73V164.53L319.407 163.5H320.267V170.5ZM324.074 163.4C325.624 163.4 326.744 164.4 326.744 165.84C326.744 166.6 326.464 167.14 325.924 167.89L324.054 170.5H322.664V170.42L324.344 168.19C324.224 168.2 324.084 168.21 323.954 168.21C322.504 168.21 321.404 167.26 321.404 165.84C321.404 164.4 322.514 163.4 324.074 163.4ZM324.074 167.29C324.964 167.29 325.594 166.69 325.594 165.84C325.594 164.98 324.964 164.39 324.074 164.39C323.194 164.39 322.544 164.98 322.544 165.84C322.544 166.7 323.194 167.29 324.074 167.29ZM329.051 169.59L327.931 171.86L327.151 171.61L327.901 169.21L329.051 169.59ZM337.197 170.5H332.297V169.56L334.357 167.76C335.407 166.83 336.007 166.29 336.007 165.48C336.007 164.77 335.427 164.36 334.717 164.36C334.027 164.36 333.447 164.75 333.177 165.47L332.127 165.16C332.457 164.04 333.457 163.4 334.717 163.4C336.117 163.4 337.147 164.17 337.147 165.48C337.147 166.57 336.447 167.3 335.097 168.45L334.017 169.39V169.45H337.197V170.5ZM341.096 170.6C339.316 170.6 338.136 169.15 338.136 167C338.136 164.85 339.316 163.4 341.096 163.4C342.876 163.4 344.056 164.84 344.056 167C344.056 169.16 342.876 170.6 341.096 170.6ZM341.096 169.57C342.206 169.57 342.916 168.63 342.916 167C342.916 165.37 342.206 164.43 341.096 164.43C339.996 164.43 339.276 165.37 339.276 167C339.276 168.63 339.996 169.57 341.096 169.57ZM349.863 170.5H344.963V169.56L347.023 167.76C348.073 166.83 348.673 166.29 348.673 165.48C348.673 164.77 348.093 164.36 347.383 164.36C346.693 164.36 346.113 164.75 345.843 165.47L344.793 165.16C345.123 164.04 346.123 163.4 347.383 163.4C348.783 163.4 349.813 164.17 349.813 165.48C349.813 166.57 349.113 167.3 347.763 168.45L346.683 169.39V169.45H349.863V170.5ZM355.114 170.5H353.964V169.13H350.564V168L353.854 163.5H355.114V168.1H356.074V169.13H355.114V170.5ZM353.964 164.98L351.694 168.1H353.964V164.98Z" fill="black" fill-opacity="0.2"/>
<path d="M298.328 191.5H296.136V180.3H298.328V191.5ZM302.653 191.5H300.493V187.692C300.493 186.236 300.493 184.796 300.413 183.34H302.477L302.637 184.668H302.781C303.421 183.692 304.381 183.18 305.501 183.18C307.325 183.18 308.429 184.3 308.429 186.572V191.5H306.253V186.988C306.253 185.708 305.661 185.052 304.637 185.052C303.421 185.052 302.653 185.996 302.653 187.276V191.5ZM315.009 191.5H312.385L309.553 183.34H311.793L313.681 189.564H313.793L315.665 183.34H317.857L315.009 191.5ZM322.736 191.66C320.096 191.66 318.624 189.804 318.624 187.42C318.624 185.036 320.096 183.18 322.736 183.18C325.376 183.18 326.864 185.036 326.864 187.42C326.864 189.804 325.376 191.66 322.736 191.66ZM322.736 189.868C323.92 189.868 324.688 188.908 324.688 187.42C324.688 185.932 323.92 184.972 322.736 184.972C321.552 184.972 320.784 185.932 320.784 187.42C320.784 188.908 321.552 189.868 322.736 189.868ZM329.565 182.364C328.781 182.364 328.173 181.788 328.173 181.036C328.173 180.284 328.781 179.724 329.565 179.724C330.349 179.724 330.957 180.284 330.957 181.036C330.957 181.788 330.349 182.364 329.565 182.364ZM330.653 191.5H328.493V183.34H330.653V191.5ZM336.392 191.66C333.736 191.66 332.28 189.804 332.28 187.42C332.28 185.036 333.736 183.18 336.392 183.18C338.232 183.18 339.576 184.06 340.088 185.836L338.024 186.38C337.736 185.42 337.144 184.972 336.376 184.972C335.208 184.972 334.44 185.932 334.44 187.42C334.44 188.908 335.208 189.868 336.376 189.868C337.16 189.868 337.784 189.436 338.104 188.46L340.184 189.004C339.64 190.764 338.216 191.66 336.392 191.66ZM349.264 187.18C349.264 187.468 349.248 187.788 349.216 188.044H343.408C343.584 189.388 344.336 190.092 345.44 190.092C346.24 190.092 346.8 189.74 347.152 188.908L349.088 189.42C348.48 190.892 347.28 191.66 345.408 191.66C342.768 191.66 341.296 189.804 341.296 187.42C341.296 185.036 342.752 183.18 345.376 183.18C347.792 183.18 349.264 184.812 349.264 187.18ZM345.376 184.748C344.352 184.748 343.648 185.42 343.44 186.636H347.2C347.056 185.356 346.368 184.748 345.376 184.748ZM357.223 191.5H355.671L356.423 188.476H354.359L354.695 187.116H356.759L357.351 184.684H355.287L355.623 183.324H357.687L358.423 180.3H359.975L359.223 183.324H361.271L362.023 180.3H363.559L362.807 183.324H364.871L364.535 184.684H362.471L361.895 187.116H363.959L363.607 188.476H361.543L360.807 191.5H359.271L360.007 188.476H357.959L357.223 191.5ZM358.887 184.684L358.295 187.116H360.343L360.935 184.684H358.887ZM370.653 183.9C372.989 183.9 374.765 185.42 374.765 187.708C374.765 190.044 372.973 191.66 370.349 191.66C367.789 191.66 365.949 190.028 365.949 187.708C365.949 186.428 366.397 185.548 367.293 184.316L370.205 180.3H372.861V180.428L370.205 183.916C370.349 183.9 370.509 183.9 370.653 183.9ZM370.349 189.788C371.629 189.788 372.573 188.956 372.573 187.708C372.573 186.444 371.629 185.612 370.349 185.612C369.069 185.612 368.141 186.46 368.141 187.708C368.141 188.956 369.069 189.788 370.349 189.788ZM383.424 191.5H381.216V189.42H375.84V187.356L381.024 180.3H383.424V187.516H384.912V189.42H383.424V191.5ZM381.216 183.052L377.968 187.516H381.216V183.052ZM390.225 180.14C392.785 180.14 394.625 181.772 394.625 184.092C394.625 185.372 394.177 186.252 393.281 187.484L390.369 191.5H387.713V191.372L390.369 187.884C390.225 187.9 390.065 187.9 389.921 187.9C387.585 187.9 385.809 186.38 385.809 184.092C385.809 181.756 387.601 180.14 390.225 180.14ZM390.225 186.188C391.505 186.188 392.433 185.34 392.433 184.092C392.433 182.844 391.505 182.012 390.225 182.012C388.961 182.012 388.001 182.844 388.001 184.092C388.001 185.356 388.961 186.188 390.225 186.188ZM403.049 191.5H400.841V189.42H395.465V187.356L400.649 180.3H403.049V187.516H404.537V189.42H403.049V191.5ZM400.841 183.052L397.593 187.516H400.841V183.052Z" fill="#111827"/>
<path d="M297.004 232.5H295.924V224.1H297.004V227.76H301.384V224.1H302.464V232.5H301.384V228.72H297.004V232.5ZM309.571 229.284C309.571 229.464 309.559 229.656 309.535 229.812H305.035C305.143 230.976 305.839 231.72 306.871 231.72C307.567 231.72 308.083 231.42 308.443 230.7L309.403 231.048C308.971 232.092 308.071 232.62 306.871 232.62C305.047 232.62 303.931 231.228 303.931 229.44C303.931 227.652 305.035 226.26 306.859 226.26C308.467 226.26 309.571 227.376 309.571 229.284ZM306.859 227.16C305.863 227.16 305.191 227.844 305.047 228.948H308.539C308.443 227.808 307.783 227.16 306.859 227.16ZM312.025 232.5H310.945V224.1H312.025V232.5ZM314.791 232.5H313.711V224.1H314.791V232.5ZM319.117 232.62C317.293 232.62 316.177 231.228 316.177 229.44C316.177 227.652 317.293 226.26 319.117 226.26C320.941 226.26 322.057 227.652 322.057 229.44C322.057 231.228 320.941 232.62 319.117 232.62ZM319.117 231.66C320.233 231.66 320.977 230.784 320.977 229.44C320.977 228.096 320.233 227.22 319.117 227.22C318.001 227.22 317.257 228.096 317.257 229.44C317.257 230.784 318.001 231.66 319.117 231.66ZM328.612 232.62C327.232 232.62 326.2 231.936 325.756 230.76L326.74 230.4C327.064 231.24 327.652 231.66 328.612 231.66C329.692 231.66 330.316 231.024 330.316 229.824V224.1H331.396V229.86C331.396 231.576 330.364 232.62 328.612 232.62ZM335.804 232.62C333.98 232.62 332.864 231.228 332.864 229.44C332.864 227.652 333.98 226.26 335.804 226.26C337.628 226.26 338.744 227.652 338.744 229.44C338.744 231.228 337.628 232.62 335.804 232.62ZM335.804 231.66C336.92 231.66 337.664 230.784 337.664 229.44C337.664 228.096 336.92 227.22 335.804 227.22C334.688 227.22 333.944 228.096 333.944 229.44C333.944 230.784 334.688 231.66 335.804 231.66ZM343.317 226.26C344.721 226.26 345.585 227.1 345.585 228.9V232.5H344.505V228.96C344.505 227.796 343.965 227.22 343.029 227.22C341.937 227.22 341.205 228.072 341.205 229.14V232.5H340.125V224.1H341.205V225.996L341.157 227.4H341.289C341.733 226.656 342.477 226.26 343.317 226.26ZM348.283 232.5H347.203V229.644C347.203 228.552 347.203 227.472 347.143 226.38H348.163L348.283 227.4H348.367C348.799 226.668 349.555 226.26 350.395 226.26C351.799 226.26 352.663 227.1 352.663 228.9V232.5H351.583V228.96C351.583 227.796 351.043 227.22 350.107 227.22C349.015 227.22 348.283 228.072 348.283 229.14V232.5ZM355.613 231.504L354.389 234.12L353.561 233.856L354.437 231.12L355.613 231.504ZM298.9 252.5H297.472L295.24 244.1H296.368L298.192 251.42H298.252L300.016 244.1H301.396L303.148 251.42H303.208L305.032 244.1H306.112L303.88 252.5H302.452L300.712 245.24H300.652L298.9 252.5ZM312.301 249.284C312.301 249.464 312.289 249.656 312.265 249.812H307.765C307.873 250.976 308.569 251.72 309.601 251.72C310.297 251.72 310.813 251.42 311.173 250.7L312.133 251.048C311.701 252.092 310.801 252.62 309.601 252.62C307.777 252.62 306.661 251.228 306.661 249.44C306.661 247.652 307.765 246.26 309.589 246.26C311.197 246.26 312.301 247.376 312.301 249.284ZM309.589 247.16C308.593 247.16 307.921 247.844 307.777 248.948H311.269C311.173 247.808 310.513 247.16 309.589 247.16ZM321.489 248.408V249.236C321.489 250.328 321.489 251.408 321.549 252.5H320.649L320.529 251.396H320.445C320.061 252.164 319.341 252.62 318.357 252.62C317.157 252.62 316.365 251.9 316.365 250.82C316.365 249.644 317.205 248.936 318.933 248.84L320.445 248.756V248.444C320.445 247.556 319.809 247.16 319.005 247.16C318.153 247.16 317.613 247.568 317.361 248.336L316.425 248C316.701 246.86 317.745 246.26 319.005 246.26C320.553 246.26 321.489 247.04 321.489 248.408ZM318.537 251.696C319.593 251.696 320.409 250.82 320.445 249.62L319.101 249.704C318.057 249.776 317.409 250.064 317.409 250.784C317.409 251.348 317.841 251.696 318.537 251.696ZM326.193 246.26C326.361 246.26 326.469 246.26 326.673 246.272V247.292C326.481 247.28 326.385 247.28 326.217 247.28C325.257 247.28 324.213 247.868 324.213 249.692V252.5H323.133V249.644C323.133 248.552 323.133 247.472 323.073 246.38H324.093L324.237 247.58H324.309C324.669 246.716 325.341 246.26 326.193 246.26ZM333.09 249.284C333.09 249.464 333.078 249.656 333.054 249.812H328.554C328.662 250.976 329.358 251.72 330.39 251.72C331.086 251.72 331.602 251.42 331.962 250.7L332.922 251.048C332.49 252.092 331.59 252.62 330.39 252.62C328.566 252.62 327.45 251.228 327.45 249.44C327.45 247.652 328.554 246.26 330.378 246.26C331.986 246.26 333.09 247.376 333.09 249.284ZM330.378 247.16C329.382 247.16 328.71 247.844 328.566 248.948H332.058C331.962 247.808 331.302 247.16 330.378 247.16ZM338.486 254.9H337.406V249.644C337.406 248.552 337.406 247.472 337.346 246.38H338.366L338.486 247.4H338.57C338.99 246.68 339.65 246.26 340.574 246.26C342.146 246.26 343.166 247.532 343.166 249.44C343.166 251.348 342.146 252.62 340.574 252.62C339.65 252.62 338.99 252.2 338.57 251.48H338.486V254.9ZM340.286 251.66C341.378 251.66 342.086 250.796 342.086 249.452C342.086 248.108 341.378 247.22 340.286 247.22C339.194 247.22 338.486 248.108 338.486 249.452C338.486 250.796 339.194 251.66 340.286 251.66ZM345.623 252.5H344.543V244.1H345.623V252.5ZM352.649 249.284C352.649 249.464 352.637 249.656 352.613 249.812H348.113C348.221 250.976 348.917 251.72 349.949 251.72C350.645 251.72 351.161 251.42 351.521 250.7L352.481 251.048C352.049 252.092 351.149 252.62 349.949 252.62C348.125 252.62 347.009 251.228 347.009 249.44C347.009 247.652 348.113 246.26 349.937 246.26C351.545 246.26 352.649 247.376 352.649 249.284ZM349.937 247.16C348.941 247.16 348.269 247.844 348.125 248.948H351.617C351.521 247.808 350.861 247.16 349.937 247.16ZM358.849 248.408V249.236C358.849 250.328 358.849 251.408 358.909 252.5H358.009L357.889 251.396H357.805C357.421 252.164 356.701 252.62 355.717 252.62C354.517 252.62 353.725 251.9 353.725 250.82C353.725 249.644 354.565 248.936 356.293 248.84L357.805 248.756V248.444C357.805 247.556 357.169 247.16 356.365 247.16C355.513 247.16 354.973 247.568 354.721 248.336L353.785 248C354.061 246.86 355.105 246.26 356.365 246.26C357.913 246.26 358.849 247.04 358.849 248.408ZM355.897 251.696C356.953 251.696 357.769 250.82 357.805 249.62L356.461 249.704C355.417 249.776 354.769 250.064 354.769 250.784C354.769 251.348 355.201 251.696 355.897 251.696ZM362.725 252.62C361.633 252.62 360.529 252.188 360.181 251.048L361.093 250.724C361.333 251.48 362.065 251.78 362.725 251.78C363.517 251.78 363.937 251.408 363.937 250.892C363.937 249.452 360.325 250.448 360.325 247.928C360.325 246.956 361.165 246.26 362.521 246.26C363.613 246.26 364.537 246.728 364.837 247.712L363.925 248.036C363.697 247.364 363.133 247.1 362.521 247.1C361.753 247.1 361.369 247.472 361.369 247.928C361.369 249.392 364.981 248.396 364.981 250.892C364.981 251.936 364.081 252.62 362.725 252.62ZM371.68 249.284C371.68 249.464 371.668 249.656 371.644 249.812H367.144C367.252 250.976 367.948 251.72 368.98 251.72C369.676 251.72 370.192 251.42 370.552 250.7L371.512 251.048C371.08 252.092 370.18 252.62 368.98 252.62C367.156 252.62 366.04 251.228 366.04 249.44C366.04 247.652 367.144 246.26 368.968 246.26C370.576 246.26 371.68 247.376 371.68 249.284ZM368.968 247.16C367.972 247.16 367.3 247.844 367.156 248.948H370.648C370.552 247.808 369.892 247.16 368.968 247.16ZM375.347 252.62C373.775 252.62 372.755 251.348 372.755 249.452C372.755 247.544 373.775 246.26 375.347 246.26C376.259 246.26 376.931 246.68 377.351 247.4H377.435V244.1H378.515V249.236C378.515 250.328 378.515 251.408 378.575 252.5H377.555L377.435 251.48H377.351C376.931 252.2 376.259 252.62 375.347 252.62ZM375.635 251.66C376.727 251.66 377.435 250.796 377.435 249.452C377.435 248.108 376.727 247.22 375.635 247.22C374.543 247.22 373.835 248.108 373.835 249.452C373.835 250.796 374.543 251.66 375.635 251.66ZM385.486 252.62C384.49 252.62 383.794 252.02 383.794 250.88V247.28H382.594V246.38H383.878L384.142 244.7H384.874V246.38H386.65V247.28H384.874V250.844C384.874 251.444 385.21 251.72 385.654 251.72C385.942 251.72 386.194 251.66 386.506 251.468L386.854 252.212C386.386 252.524 385.978 252.62 385.486 252.62ZM390.601 252.62C388.777 252.62 387.661 251.228 387.661 249.44C387.661 247.652 388.777 246.26 390.601 246.26C392.425 246.26 393.541 247.652 393.541 249.44C393.541 251.228 392.425 252.62 390.601 252.62ZM390.601 251.66C391.717 251.66 392.461 250.784 392.461 249.44C392.461 248.096 391.717 247.22 390.601 247.22C389.485 247.22 388.741 248.096 388.741 249.44C388.741 250.784 389.485 251.66 390.601 251.66ZM400.503 252.62C398.679 252.62 397.563 251.228 397.563 249.44C397.563 247.652 398.679 246.26 400.503 246.26C401.715 246.26 402.699 246.848 403.095 248.108L402.063 248.48C401.751 247.604 401.211 247.22 400.503 247.22C399.387 247.22 398.643 248.096 398.643 249.44C398.643 250.784 399.387 251.66 400.503 251.66C401.211 251.66 401.787 251.276 402.123 250.4L403.155 250.772C402.747 252.02 401.679 252.62 400.503 252.62ZM407.066 252.62C405.242 252.62 404.126 251.228 404.126 249.44C404.126 247.652 405.242 246.26 407.066 246.26C408.89 246.26 410.006 247.652 410.006 249.44C410.006 251.228 408.89 252.62 407.066 252.62ZM407.066 251.66C408.182 251.66 408.926 250.784 408.926 249.44C408.926 248.096 408.182 247.22 407.066 247.22C405.95 247.22 405.206 248.096 405.206 249.44C405.206 250.784 405.95 251.66 407.066 251.66ZM412.467 252.5H411.387V249.644C411.387 248.552 411.387 247.472 411.327 246.38H412.347L412.467 247.4H412.551C412.983 246.668 413.739 246.26 414.579 246.26C415.983 246.26 416.847 247.1 416.847 248.9V252.5H415.767V248.96C415.767 247.796 415.227 247.22 414.291 247.22C413.199 247.22 412.467 248.072 412.467 249.14V252.5ZM420.206 252.5H419.126V247.28H417.926V246.38H419.126V245.768C419.126 244.652 419.846 243.98 420.914 243.98C421.478 243.98 421.91 244.1 422.33 244.388L421.982 245.132C421.634 244.928 421.37 244.88 421.082 244.88C420.626 244.88 420.206 245.156 420.206 245.84V246.38H424.466V252.5H423.386V247.28H420.206V252.5ZM423.926 245.54C423.47 245.54 423.11 245.204 423.11 244.76C423.11 244.316 423.47 243.98 423.926 243.98C424.382 243.98 424.73 244.316 424.73 244.76C424.73 245.204 424.382 245.54 423.926 245.54ZM429.201 246.26C429.369 246.26 429.477 246.26 429.681 246.272V247.292C429.489 247.28 429.393 247.28 429.225 247.28C428.265 247.28 427.221 247.868 427.221 249.692V252.5H426.141V249.644C426.141 248.552 426.141 247.472 426.081 246.38H427.101L427.245 247.58H427.317C427.677 246.716 428.349 246.26 429.201 246.26ZM431.897 252.5H430.817V249.644C430.817 248.552 430.817 247.472 430.757 246.38H431.777L431.885 247.34H431.969C432.353 246.632 433.061 246.26 433.805 246.26C434.741 246.26 435.341 246.656 435.677 247.46H435.761C436.157 246.692 436.877 246.26 437.765 246.26C439.061 246.26 439.817 247.04 439.817 248.72V252.5H438.737V248.864C438.737 247.784 438.269 247.22 437.453 247.22C436.517 247.22 435.857 247.976 435.857 249.008V252.5H434.777V248.864C434.777 247.784 434.309 247.22 433.493 247.22C432.557 247.22 431.897 247.976 431.897 249.008V252.5ZM446.285 254.9H445.157L446.081 252.608L443.681 246.38H444.833L446.609 251.336H446.669L448.433 246.38H449.561L446.285 254.9ZM453.191 252.62C451.367 252.62 450.251 251.228 450.251 249.44C450.251 247.652 451.367 246.26 453.191 246.26C455.015 246.26 456.131 247.652 456.131 249.44C456.131 251.228 455.015 252.62 453.191 252.62ZM453.191 251.66C454.307 251.66 455.051 250.784 455.051 249.44C455.051 248.096 454.307 247.22 453.191 247.22C452.075 247.22 451.331 248.096 451.331 249.44C451.331 250.784 452.075 251.66 453.191 251.66ZM459.72 252.62C458.316 252.62 457.452 251.78 457.452 249.98V246.38H458.532V249.92C458.532 251.084 459.072 251.66 460.008 251.66C461.1 251.66 461.832 250.808 461.832 249.74V246.38H462.912V249.236C462.912 250.328 462.912 251.408 462.972 252.5H461.952L461.832 251.48H461.748C461.316 252.212 460.56 252.62 459.72 252.62ZM467.65 246.26C467.818 246.26 467.926 246.26 468.13 246.272V247.292C467.938 247.28 467.842 247.28 467.674 247.28C466.714 247.28 465.67 247.868 465.67 249.692V252.5H464.59V249.644C464.59 248.552 464.59 247.472 464.53 246.38H465.55L465.694 247.58H465.766C466.126 246.716 466.798 246.26 467.65 246.26ZM299.008 272.62C298.096 272.62 297.424 272.2 297.004 271.48H296.92L296.8 272.5H295.78C295.84 271.408 295.84 270.328 295.84 269.236V264.1H296.92V267.4H297.004C297.424 266.68 298.096 266.26 299.008 266.26C300.58 266.26 301.6 267.544 301.6 269.452C301.6 271.348 300.58 272.62 299.008 272.62ZM298.72 271.66C299.812 271.66 300.52 270.796 300.52 269.452C300.52 268.108 299.812 267.22 298.72 267.22C297.628 267.22 296.92 268.108 296.92 269.452C296.92 270.796 297.628 271.66 298.72 271.66ZM305.617 272.62C303.793 272.62 302.677 271.228 302.677 269.44C302.677 267.652 303.793 266.26 305.617 266.26C307.441 266.26 308.557 267.652 308.557 269.44C308.557 271.228 307.441 272.62 305.617 272.62ZM305.617 271.66C306.733 271.66 307.477 270.784 307.477 269.44C307.477 268.096 306.733 267.22 305.617 267.22C304.501 267.22 303.757 268.096 303.757 269.44C303.757 270.784 304.501 271.66 305.617 271.66ZM312.578 272.62C310.754 272.62 309.638 271.228 309.638 269.44C309.638 267.652 310.754 266.26 312.578 266.26C314.402 266.26 315.518 267.652 315.518 269.44C315.518 271.228 314.402 272.62 312.578 272.62ZM312.578 271.66C313.694 271.66 314.438 270.784 314.438 269.44C314.438 268.096 313.694 267.22 312.578 267.22C311.462 267.22 310.718 268.096 310.718 269.44C310.718 270.784 311.462 271.66 312.578 271.66ZM317.979 272.5H316.899V264.1H317.979V269.296L320.715 266.38H322.119L319.251 269.284L322.179 272.5H320.739L317.979 269.428V272.5ZM323.802 265.54C323.346 265.54 322.986 265.204 322.986 264.76C322.986 264.316 323.346 263.98 323.802 263.98C324.258 263.98 324.606 264.316 324.606 264.76C324.606 265.204 324.258 265.54 323.802 265.54ZM324.342 272.5H323.262V266.38H324.342V272.5ZM327.108 272.5H326.028V269.644C326.028 268.552 326.028 267.472 325.968 266.38H326.988L327.108 267.4H327.192C327.624 266.668 328.38 266.26 329.22 266.26C330.624 266.26 331.488 267.1 331.488 268.9V272.5H330.408V268.96C330.408 267.796 329.868 267.22 328.932 267.22C327.84 267.22 327.108 268.072 327.108 269.14V272.5ZM335.842 275.02C334.462 275.02 333.418 274.42 333.046 273.364L334.03 273.004C334.282 273.748 334.906 274.12 335.842 274.12C336.85 274.12 337.486 273.568 337.486 272.512V271.24H337.402C336.982 271.96 336.322 272.38 335.386 272.38C333.826 272.38 332.806 271.156 332.806 269.32C332.806 267.484 333.826 266.26 335.386 266.26C336.31 266.26 336.982 266.68 337.402 267.4H337.486L337.606 266.38H338.626C338.566 267.472 338.566 268.468 338.566 269.524V272.548C338.566 274.036 337.582 275.02 335.842 275.02ZM335.686 271.42C336.79 271.42 337.486 270.544 337.486 269.308C337.486 268.072 336.79 267.22 335.686 267.22C334.582 267.22 333.886 268.084 333.886 269.32C333.886 270.556 334.582 271.42 335.686 271.42ZM344.925 272.5H343.845V267.28H342.645V266.38H343.845V265.768C343.845 264.652 344.565 263.98 345.633 263.98C346.197 263.98 346.629 264.1 347.049 264.388L346.701 265.132C346.353 264.928 346.089 264.88 345.801 264.88C345.345 264.88 344.925 265.156 344.925 265.84V266.38H346.665V267.28H344.925V272.5ZM350.359 272.62C348.535 272.62 347.419 271.228 347.419 269.44C347.419 267.652 348.535 266.26 350.359 266.26C352.183 266.26 353.299 267.652 353.299 269.44C353.299 271.228 352.183 272.62 350.359 272.62ZM350.359 271.66C351.475 271.66 352.219 270.784 352.219 269.44C352.219 268.096 351.475 267.22 350.359 267.22C349.243 267.22 348.499 268.096 348.499 269.44C348.499 270.784 349.243 271.66 350.359 271.66ZM357.74 266.26C357.908 266.26 358.016 266.26 358.22 266.272V267.292C358.028 267.28 357.932 267.28 357.764 267.28C356.804 267.28 355.76 267.868 355.76 269.692V272.5H354.68V269.644C354.68 268.552 354.68 267.472 354.62 266.38H355.64L355.784 267.58H355.856C356.216 266.716 356.888 266.26 357.74 266.26ZM364.038 272.5H362.874L363.438 270.232H361.89L362.142 269.212H363.69L364.134 267.388H362.586L362.838 266.368H364.386L364.938 264.1H366.102L365.538 266.368H367.074L367.638 264.1H368.79L368.226 266.368H369.774L369.522 267.388H367.974L367.542 269.212H369.09L368.826 270.232H367.278L366.726 272.5H365.574L366.126 270.232H364.59L364.038 272.5ZM365.286 267.388L364.842 269.212H366.378L366.822 267.388H365.286ZM376.154 272.5H374.498V270.94H370.466V269.392L374.354 264.1H376.154V269.512H377.27V270.94H376.154V272.5ZM374.498 266.164L372.062 269.512H374.498V266.164ZM380.641 272.5H378.769L382.009 265.72V265.636H378.013V264.1H383.953V265.552L380.641 272.5ZM388.159 272.62C386.515 272.62 385.183 271.9 384.811 270.58L386.419 270.172C386.683 270.892 387.391 271.216 388.159 271.216C389.095 271.216 389.743 270.64 389.743 269.776C389.743 268.888 389.095 268.336 388.195 268.336C387.571 268.336 387.031 268.54 386.575 268.972L385.171 268.72L385.483 264.1H390.643V265.528H386.899L386.755 267.484H386.851C387.367 267.148 387.931 267.016 388.519 267.016C390.199 267.016 391.387 268.072 391.387 269.776C391.387 271.48 390.139 272.62 388.159 272.62ZM394.879 272.5H393.007L396.247 265.72V265.636H392.251V264.1H398.191V265.552L394.879 272.5ZM402.301 263.98C404.221 263.98 405.601 265.204 405.601 266.944C405.601 267.904 405.265 268.564 404.593 269.488L402.409 272.5H400.417V272.404L402.409 269.788C402.301 269.8 402.181 269.8 402.073 269.8C400.321 269.8 398.989 268.66 398.989 266.944C398.989 265.192 400.333 263.98 402.301 263.98ZM402.301 268.516C403.261 268.516 403.957 267.88 403.957 266.944C403.957 266.008 403.261 265.384 402.301 265.384C401.353 265.384 400.633 266.008 400.633 266.944C400.633 267.892 401.353 268.516 402.301 268.516ZM412.398 272.62C410.574 272.62 409.458 271.228 409.458 269.44C409.458 267.652 410.574 266.26 412.398 266.26C414.222 266.26 415.338 267.652 415.338 269.44C415.338 271.228 414.222 272.62 412.398 272.62ZM412.398 271.66C413.514 271.66 414.258 270.784 414.258 269.44C414.258 268.096 413.514 267.22 412.398 267.22C411.282 267.22 410.538 268.096 410.538 269.44C410.538 270.784 411.282 271.66 412.398 271.66ZM417.799 272.5H416.719V269.644C416.719 268.552 416.719 267.472 416.659 266.38H417.679L417.799 267.4H417.883C418.315 266.668 419.071 266.26 419.911 266.26C421.315 266.26 422.179 267.1 422.179 268.9V272.5H421.099V268.96C421.099 267.796 420.559 267.22 419.623 267.22C418.531 267.22 417.799 268.072 417.799 269.14V272.5ZM428.286 272.5H426.75V264.1H429.126L431.358 270.76L433.59 264.1H435.99V272.5H434.37V266.068H434.274L432.102 272.5H430.542L428.37 266.068H428.286V272.5ZM443.024 268.456V269.284C443.024 270.364 443.024 271.42 443.084 272.5H441.656L441.524 271.456H441.416C441.032 272.224 440.372 272.62 439.412 272.62C438.224 272.62 437.444 271.9 437.444 270.796C437.444 269.632 438.284 268.924 439.952 268.828L441.464 268.744V268.516C441.464 267.784 440.912 267.472 440.264 267.472C439.568 267.472 439.112 267.808 438.908 268.432L437.516 268.06C437.732 266.908 438.776 266.26 440.264 266.26C442.04 266.26 443.024 267.088 443.024 268.456ZM439.904 271.408C440.744 271.408 441.416 270.748 441.464 269.74L440.324 269.812C439.46 269.872 438.992 270.088 438.992 270.664C438.992 271.108 439.34 271.408 439.904 271.408ZM447.142 274.9H445.438L446.278 272.716L443.938 266.38H445.618L447.094 270.94H447.178L448.642 266.38H450.286L447.142 274.9ZM457.126 272.5H455.47V265.96H455.386L453.61 266.98V265.324L455.866 264.1H457.126V272.5ZM461.762 272.62C459.926 272.62 458.558 271.636 458.558 270.148C458.558 269.236 459.122 268.456 459.986 268.108C459.266 267.748 458.798 267.088 458.798 266.284C458.798 264.904 459.998 263.98 461.762 263.98C463.526 263.98 464.726 264.904 464.726 266.284C464.726 267.088 464.246 267.748 463.526 268.108C464.402 268.444 464.966 269.236 464.966 270.148C464.966 271.636 463.598 272.62 461.762 272.62ZM461.762 267.52C462.506 267.52 463.094 267.112 463.094 266.428C463.094 265.744 462.506 265.324 461.762 265.324C461.018 265.324 460.43 265.744 460.43 266.428C460.43 267.112 461.018 267.52 461.762 267.52ZM461.762 271.276C462.65 271.276 463.322 270.808 463.322 270.016C463.322 269.224 462.65 268.768 461.762 268.768C460.886 268.768 460.202 269.224 460.202 270.016C460.202 270.808 460.886 271.276 461.762 271.276ZM468.041 271.312L466.601 274.144L465.557 273.808L466.481 270.784L468.041 271.312ZM477.945 272.5H471.885V271.156L474.345 269.044C475.545 268 476.241 267.388 476.241 266.5C476.241 265.744 475.617 265.3 474.861 265.3C474.093 265.3 473.481 265.72 473.193 266.512L471.657 266.116C472.029 264.76 473.253 263.98 474.849 263.98C476.637 263.98 477.885 264.916 477.885 266.488C477.885 267.808 477.069 268.648 475.413 270.004L474.333 270.928V271.012H477.945V272.5ZM482.645 272.62C480.413 272.62 478.997 270.88 478.997 268.3C478.997 265.72 480.413 263.98 482.645 263.98C484.889 263.98 486.305 265.708 486.305 268.3C486.305 270.892 484.889 272.62 482.645 272.62ZM482.645 271.156C483.869 271.156 484.649 270.112 484.649 268.3C484.649 266.488 483.869 265.444 482.645 265.444C481.421 265.444 480.641 266.488 480.641 268.3C480.641 270.112 481.421 271.156 482.645 271.156ZM493.402 272.5H487.342V271.156L489.802 269.044C491.002 268 491.698 267.388 491.698 266.5C491.698 265.744 491.074 265.3 490.318 265.3C489.55 265.3 488.938 265.72 488.65 266.512L487.114 266.116C487.486 264.76 488.71 263.98 490.306 263.98C492.094 263.98 493.342 264.916 493.342 266.488C493.342 267.808 492.526 268.648 490.87 270.004L489.79 270.928V271.012H493.402V272.5ZM499.869 272.5H498.213V270.94H494.181V269.392L498.069 264.1H499.869V269.512H500.985V270.94H499.869V272.5ZM498.213 266.164L495.777 269.512H498.213V266.164ZM301.18 288.456V289.284C301.18 290.364 301.18 291.42 301.24 292.5H299.812L299.68 291.456H299.572C299.188 292.224 298.528 292.62 297.568 292.62C296.38 292.62 295.6 291.9 295.6 290.796C295.6 289.632 296.44 288.924 298.108 288.828L299.62 288.744V288.516C299.62 287.784 299.068 287.472 298.42 287.472C297.724 287.472 297.268 287.808 297.064 288.432L295.672 288.06C295.888 286.908 296.932 286.26 298.42 286.26C300.196 286.26 301.18 287.088 301.18 288.456ZM298.06 291.408C298.9 291.408 299.572 290.748 299.62 289.74L298.48 289.812C297.616 289.872 297.148 290.088 297.148 290.664C297.148 291.108 297.496 291.408 298.06 291.408ZM305.347 292.62C304.171 292.62 303.379 291.972 303.379 290.592V287.664H302.203V286.38H303.463L303.727 284.652H304.999V286.38H306.631V287.664H304.999V290.508C304.999 291.06 305.299 291.3 305.719 291.3C305.959 291.3 306.187 291.252 306.451 291.096L306.847 292.212C306.355 292.512 305.923 292.62 305.347 292.62ZM313.97 292.5H312.314V285.96H312.23L310.454 286.98V285.324L312.71 284.1H313.97V292.5ZM319.063 292.62C316.831 292.62 315.415 290.88 315.415 288.3C315.415 285.72 316.831 283.98 319.063 283.98C321.307 283.98 322.723 285.708 322.723 288.3C322.723 290.892 321.307 292.62 319.063 292.62ZM319.063 291.156C320.287 291.156 321.067 290.112 321.067 288.3C321.067 286.488 320.287 285.444 319.063 285.444C317.839 285.444 317.059 286.488 317.059 288.3C317.059 290.112 317.839 291.156 319.063 291.156ZM324.682 288.18C324.13 288.18 323.674 287.784 323.674 287.22C323.674 286.656 324.13 286.26 324.682 286.26C325.234 286.26 325.678 286.656 325.678 287.22C325.678 287.784 325.234 288.18 324.682 288.18ZM324.682 292.62C324.13 292.62 323.674 292.224 323.674 291.648C323.674 291.096 324.13 290.7 324.682 290.7C325.234 290.7 325.678 291.096 325.678 291.648C325.678 292.224 325.234 292.62 324.682 292.62ZM330.289 292.62C328.057 292.62 326.641 290.88 326.641 288.3C326.641 285.72 328.057 283.98 330.289 283.98C332.533 283.98 333.949 285.708 333.949 288.3C333.949 290.892 332.533 292.62 330.289 292.62ZM330.289 291.156C331.513 291.156 332.293 290.112 332.293 288.3C332.293 286.488 331.513 285.444 330.289 285.444C329.065 285.444 328.285 286.488 328.285 288.3C328.285 290.112 329.065 291.156 330.289 291.156ZM338.645 292.62C336.413 292.62 334.997 290.88 334.997 288.3C334.997 285.72 336.413 283.98 338.645 283.98C340.889 283.98 342.305 285.708 342.305 288.3C342.305 290.892 340.889 292.62 338.645 292.62ZM338.645 291.156C339.869 291.156 340.649 290.112 340.649 288.3C340.649 286.488 339.869 285.444 338.645 285.444C337.421 285.444 336.641 286.488 336.641 288.3C336.641 290.112 337.421 291.156 338.645 291.156ZM351.02 292.5H349.268L348.716 290.784H345.248L344.696 292.5H343.004L345.896 284.1H348.092L351.02 292.5ZM346.94 285.492L345.668 289.464H348.296L347.024 285.492H346.94ZM353.591 292.5H352.055V284.1H354.431L356.663 290.76L358.895 284.1H361.295V292.5H359.675V286.068H359.579L357.407 292.5H355.847L353.675 286.068H353.591V292.5ZM363.588 292.62C363.036 292.62 362.58 292.224 362.58 291.648C362.58 291.096 363.036 290.7 363.588 290.7C364.14 290.7 364.584 291.096 364.584 291.648C364.584 292.224 364.14 292.62 363.588 292.62ZM369.918 292.5H368.838V284.1H371.898C373.758 284.1 374.838 285.06 374.838 286.716C374.838 288.36 373.758 289.32 371.898 289.32H369.918V292.5ZM369.918 285.06V288.36H371.85C373.05 288.36 373.758 287.772 373.758 286.716C373.758 285.66 373.05 285.06 371.85 285.06H369.918ZM377.123 292.5H376.043V284.1H377.123V292.5ZM384.149 289.284C384.149 289.464 384.137 289.656 384.113 289.812H379.613C379.721 290.976 380.417 291.72 381.449 291.72C382.145 291.72 382.661 291.42 383.021 290.7L383.981 291.048C383.549 292.092 382.649 292.62 381.449 292.62C379.625 292.62 378.509 291.228 378.509 289.44C378.509 287.652 379.613 286.26 381.437 286.26C383.045 286.26 384.149 287.376 384.149 289.284ZM381.437 287.16C380.441 287.16 379.769 287.844 379.625 288.948H383.117C383.021 287.808 382.361 287.16 381.437 287.16ZM390.349 288.408V289.236C390.349 290.328 390.349 291.408 390.409 292.5H389.509L389.389 291.396H389.305C388.921 292.164 388.201 292.62 387.217 292.62C386.017 292.62 385.225 291.9 385.225 290.82C385.225 289.644 386.065 288.936 387.793 288.84L389.305 288.756V288.444C389.305 287.556 388.669 287.16 387.865 287.16C387.013 287.16 386.473 287.568 386.221 288.336L385.285 288C385.561 286.86 386.605 286.26 387.865 286.26C389.413 286.26 390.349 287.04 390.349 288.408ZM387.397 291.696C388.453 291.696 389.269 290.82 389.305 289.62L387.961 289.704C386.917 289.776 386.269 290.064 386.269 290.784C386.269 291.348 386.701 291.696 387.397 291.696ZM394.225 292.62C393.133 292.62 392.029 292.188 391.681 291.048L392.593 290.724C392.833 291.48 393.565 291.78 394.225 291.78C395.017 291.78 395.437 291.408 395.437 290.892C395.437 289.452 391.825 290.448 391.825 287.928C391.825 286.956 392.665 286.26 394.021 286.26C395.113 286.26 396.037 286.728 396.337 287.712L395.425 288.036C395.197 287.364 394.633 287.1 394.021 287.1C393.253 287.1 392.869 287.472 392.869 287.928C392.869 289.392 396.481 288.396 396.481 290.892C396.481 291.936 395.581 292.62 394.225 292.62ZM403.18 289.284C403.18 289.464 403.168 289.656 403.144 289.812H398.644C398.752 290.976 399.448 291.72 400.48 291.72C401.176 291.72 401.692 291.42 402.052 290.7L403.012 291.048C402.58 292.092 401.68 292.62 400.48 292.62C398.656 292.62 397.54 291.228 397.54 289.44C397.54 287.652 398.644 286.26 400.468 286.26C402.076 286.26 403.18 287.376 403.18 289.284ZM400.468 287.16C399.472 287.16 398.8 287.844 398.656 288.948H402.148C402.052 287.808 401.392 287.16 400.468 287.16ZM409.238 292.5H408.158V287.28H406.958V286.38H408.158V285.768C408.158 284.652 408.878 283.98 409.946 283.98C410.51 283.98 410.942 284.1 411.362 284.388L411.014 285.132C410.666 284.928 410.402 284.88 410.114 284.88C409.658 284.88 409.238 285.156 409.238 285.84V286.38H413.498V292.5H412.418V287.28H409.238V292.5ZM412.958 285.54C412.502 285.54 412.142 285.204 412.142 284.76C412.142 284.316 412.502 283.98 412.958 283.98C413.414 283.98 413.762 284.316 413.762 284.76C413.762 285.204 413.414 285.54 412.958 285.54ZM416.252 292.5H415.172V289.644C415.172 288.552 415.172 287.472 415.112 286.38H416.132L416.252 287.4H416.336C416.768 286.668 417.524 286.26 418.364 286.26C419.768 286.26 420.632 287.1 420.632 288.9V292.5H419.552V288.96C419.552 287.796 419.012 287.22 418.076 287.22C416.984 287.22 416.252 288.072 416.252 289.14V292.5ZM424.542 292.62C422.97 292.62 421.95 291.348 421.95 289.452C421.95 287.544 422.97 286.26 424.542 286.26C425.454 286.26 426.126 286.68 426.546 287.4H426.63V284.1H427.71V289.236C427.71 290.328 427.71 291.408 427.77 292.5H426.75L426.63 291.48H426.546C426.126 292.2 425.454 292.62 424.542 292.62ZM424.83 291.66C425.922 291.66 426.63 290.796 426.63 289.452C426.63 288.108 425.922 287.22 424.83 287.22C423.738 287.22 423.03 288.108 423.03 289.452C423.03 290.796 423.738 291.66 424.83 291.66ZM434.682 292.62C433.686 292.62 432.99 292.02 432.99 290.88V287.28H431.79V286.38H433.074L433.338 284.7H434.07V286.38H435.846V287.28H434.07V290.844C434.07 291.444 434.406 291.72 434.85 291.72C435.138 291.72 435.39 291.66 435.702 291.468L436.05 292.212C435.582 292.524 435.174 292.62 434.682 292.62ZM440.501 286.26C441.905 286.26 442.769 287.1 442.769 288.9V292.5H441.689V288.96C441.689 287.796 441.149 287.22 440.213 287.22C439.121 287.22 438.389 288.072 438.389 289.14V292.5H437.309V284.1H438.389V285.996L438.341 287.4H438.473C438.917 286.656 439.661 286.26 440.501 286.26ZM449.727 289.284C449.727 289.464 449.715 289.656 449.691 289.812H445.191C445.299 290.976 445.995 291.72 447.027 291.72C447.723 291.72 448.239 291.42 448.599 290.7L449.559 291.048C449.127 292.092 448.227 292.62 447.027 292.62C445.203 292.62 444.087 291.228 444.087 289.44C444.087 287.652 445.191 286.26 447.015 286.26C448.623 286.26 449.727 287.376 449.727 289.284ZM447.015 287.16C446.019 287.16 445.347 287.844 445.203 288.948H448.695C448.599 287.808 447.939 287.16 447.015 287.16ZM457.211 292.62C456.299 292.62 455.627 292.2 455.207 291.48H455.123L455.003 292.5H453.983C454.043 291.408 454.043 290.328 454.043 289.236V284.1H455.123V287.4H455.207C455.627 286.68 456.299 286.26 457.211 286.26C458.783 286.26 459.803 287.544 459.803 289.452C459.803 291.348 458.783 292.62 457.211 292.62ZM456.923 291.66C458.015 291.66 458.723 290.796 458.723 289.452C458.723 288.108 458.015 287.22 456.923 287.22C455.831 287.22 455.123 288.108 455.123 289.452C455.123 290.796 455.831 291.66 456.923 291.66ZM466.52 289.284C466.52 289.464 466.508 289.656 466.484 289.812H461.984C462.092 290.976 462.788 291.72 463.82 291.72C464.516 291.72 465.032 291.42 465.392 290.7L466.352 291.048C465.92 292.092 465.02 292.62 463.82 292.62C461.996 292.62 460.88 291.228 460.88 289.44C460.88 287.652 461.984 286.26 463.808 286.26C465.416 286.26 466.52 287.376 466.52 289.284ZM463.808 287.16C462.812 287.16 462.14 287.844 461.996 288.948H465.488C465.392 287.808 464.732 287.16 463.808 287.16ZM468.975 292.5H467.895V284.1H468.975V292.5ZM473.3 292.62C471.476 292.62 470.36 291.228 470.36 289.44C470.36 287.652 471.476 286.26 473.3 286.26C475.124 286.26 476.24 287.652 476.24 289.44C476.24 291.228 475.124 292.62 473.3 292.62ZM473.3 291.66C474.416 291.66 475.16 290.784 475.16 289.44C475.16 288.096 474.416 287.22 473.3 287.22C472.184 287.22 471.44 288.096 471.44 289.44C471.44 290.784 472.184 291.66 473.3 291.66ZM479.927 292.5H478.607L476.915 286.38H478.031L479.291 291.3H479.351L480.515 286.38H481.847L482.999 291.3H483.059L484.319 286.38H485.387L483.695 292.5H482.375L481.187 287.46H481.127L479.927 292.5ZM296.92 314.9H295.84V309.644C295.84 308.552 295.84 307.472 295.78 306.38H296.8L296.92 307.4H297.004C297.424 306.68 298.084 306.26 299.008 306.26C300.58 306.26 301.6 307.532 301.6 309.44C301.6 311.348 300.58 312.62 299.008 312.62C298.084 312.62 297.424 312.2 297.004 311.48H296.92V314.9ZM298.72 311.66C299.812 311.66 300.52 310.796 300.52 309.452C300.52 308.108 299.812 307.22 298.72 307.22C297.628 307.22 296.92 308.108 296.92 309.452C296.92 310.796 297.628 311.66 298.72 311.66ZM307.814 308.408V309.236C307.814 310.328 307.814 311.408 307.874 312.5H306.974L306.854 311.396H306.77C306.386 312.164 305.666 312.62 304.682 312.62C303.482 312.62 302.69 311.9 302.69 310.82C302.69 309.644 303.53 308.936 305.258 308.84L306.77 308.756V308.444C306.77 307.556 306.134 307.16 305.33 307.16C304.478 307.16 303.938 307.568 303.686 308.336L302.75 308C303.026 306.86 304.07 306.26 305.33 306.26C306.878 306.26 307.814 307.04 307.814 308.408ZM304.862 311.696C305.918 311.696 306.734 310.82 306.77 309.62L305.426 309.704C304.382 309.776 303.734 310.064 303.734 310.784C303.734 311.348 304.166 311.696 304.862 311.696ZM311.39 314.9H310.262L311.186 312.608L308.786 306.38H309.938L311.714 311.336H311.774L313.538 306.38H314.666L311.39 314.9ZM316.795 312.5H315.715V309.644C315.715 308.552 315.715 307.472 315.655 306.38H316.675L316.783 307.34H316.867C317.251 306.632 317.959 306.26 318.703 306.26C319.639 306.26 320.239 306.656 320.575 307.46H320.659C321.055 306.692 321.775 306.26 322.663 306.26C323.959 306.26 324.715 307.04 324.715 308.72V312.5H323.635V308.864C323.635 307.784 323.167 307.22 322.351 307.22C321.415 307.22 320.755 307.976 320.755 309.008V312.5H319.675V308.864C319.675 307.784 319.207 307.22 318.391 307.22C317.455 307.22 316.795 307.976 316.795 309.008V312.5ZM331.672 309.284C331.672 309.464 331.66 309.656 331.636 309.812H327.136C327.244 310.976 327.94 311.72 328.972 311.72C329.668 311.72 330.184 311.42 330.544 310.7L331.504 311.048C331.072 312.092 330.172 312.62 328.972 312.62C327.148 312.62 326.032 311.228 326.032 309.44C326.032 307.652 327.136 306.26 328.96 306.26C330.568 306.26 331.672 307.376 331.672 309.284ZM328.96 307.16C327.964 307.16 327.292 307.844 327.148 308.948H330.64C330.544 307.808 329.884 307.16 328.96 307.16ZM334.127 312.5H333.047V309.644C333.047 308.552 333.047 307.472 332.987 306.38H334.007L334.127 307.4H334.211C334.643 306.668 335.399 306.26 336.239 306.26C337.643 306.26 338.507 307.1 338.507 308.9V312.5H337.427V308.96C337.427 307.796 336.887 307.22 335.951 307.22C334.859 307.22 334.127 308.072 334.127 309.14V312.5ZM342.467 312.62C341.471 312.62 340.775 312.02 340.775 310.88V307.28H339.575V306.38H340.859L341.123 304.7H341.855V306.38H343.631V307.28H341.855V310.844C341.855 311.444 342.191 311.72 342.635 311.72C342.923 311.72 343.175 311.66 343.487 311.468L343.835 312.212C343.367 312.524 342.959 312.62 342.467 312.62ZM349.115 312.5H348.035V304.1H349.115V312.5ZM351.341 305.54C350.885 305.54 350.525 305.204 350.525 304.76C350.525 304.316 350.885 303.98 351.341 303.98C351.797 303.98 352.145 304.316 352.145 304.76C352.145 305.204 351.797 305.54 351.341 305.54ZM351.881 312.5H350.801V306.38H351.881V312.5ZM354.647 312.5H353.567V309.644C353.567 308.552 353.567 307.472 353.507 306.38H354.527L354.647 307.4H354.731C355.163 306.668 355.919 306.26 356.759 306.26C358.163 306.26 359.027 307.1 359.027 308.9V312.5H357.947V308.96C357.947 307.796 357.407 307.22 356.471 307.22C355.379 307.22 354.647 308.072 354.647 309.14V312.5ZM361.725 312.5H360.645V304.1H361.725V309.296L364.461 306.38H365.865L362.997 309.284L365.925 312.5H364.485L361.725 309.428V312.5ZM374.821 308.408V309.236C374.821 310.328 374.821 311.408 374.881 312.5H373.981L373.861 311.396H373.777C373.393 312.164 372.673 312.62 371.689 312.62C370.489 312.62 369.697 311.9 369.697 310.82C369.697 309.644 370.537 308.936 372.265 308.84L373.777 308.756V308.444C373.777 307.556 373.141 307.16 372.337 307.16C371.485 307.16 370.945 307.568 370.693 308.336L369.757 308C370.033 306.86 371.077 306.26 372.337 306.26C373.885 306.26 374.821 307.04 374.821 308.408ZM371.869 311.696C372.925 311.696 373.741 310.82 373.777 309.62L372.433 309.704C371.389 309.776 370.741 310.064 370.741 310.784C370.741 311.348 371.173 311.696 371.869 311.696ZM377.545 312.5H376.465V309.644C376.465 308.552 376.465 307.472 376.405 306.38H377.425L377.545 307.4H377.629C378.061 306.668 378.817 306.26 379.657 306.26C381.061 306.26 381.925 307.1 381.925 308.9V312.5H380.845V308.96C380.845 307.796 380.305 307.22 379.369 307.22C378.277 307.22 377.545 308.072 377.545 309.14V312.5ZM385.835 312.62C384.263 312.62 383.243 311.348 383.243 309.452C383.243 307.544 384.263 306.26 385.835 306.26C386.747 306.26 387.419 306.68 387.839 307.4H387.923V304.1H389.003V309.236C389.003 310.328 389.003 311.408 389.063 312.5H388.043L387.923 311.48H387.839C387.419 312.2 386.747 312.62 385.835 312.62ZM386.123 311.66C387.215 311.66 387.923 310.796 387.923 309.452C387.923 308.108 387.215 307.22 386.123 307.22C385.031 307.22 384.323 308.108 384.323 309.452C384.323 310.796 385.031 311.66 386.123 311.66ZM394.161 305.54C393.705 305.54 393.345 305.204 393.345 304.76C393.345 304.316 393.705 303.98 394.161 303.98C394.617 303.98 394.965 304.316 394.965 304.76C394.965 305.204 394.617 305.54 394.161 305.54ZM394.701 312.5H393.621V306.38H394.701V312.5ZM397.467 312.5H396.387V309.644C396.387 308.552 396.387 307.472 396.327 306.38H397.347L397.467 307.4H397.551C397.983 306.668 398.739 306.26 399.579 306.26C400.983 306.26 401.847 307.1 401.847 308.9V312.5H400.767V308.96C400.767 307.796 400.227 307.22 399.291 307.22C398.199 307.22 397.467 308.072 397.467 309.14V312.5ZM406.346 312.5H405.002L402.794 306.38H403.946L405.662 311.444H405.722L407.426 306.38H408.554L406.346 312.5ZM412.164 312.62C410.34 312.62 409.224 311.228 409.224 309.44C409.224 307.652 410.34 306.26 412.164 306.26C413.988 306.26 415.104 307.652 415.104 309.44C415.104 311.228 413.988 312.62 412.164 312.62ZM412.164 311.66C413.28 311.66 414.024 310.784 414.024 309.44C414.024 308.096 413.28 307.22 412.164 307.22C411.048 307.22 410.304 308.096 410.304 309.44C410.304 310.784 411.048 311.66 412.164 311.66ZM417.025 305.54C416.569 305.54 416.209 305.204 416.209 304.76C416.209 304.316 416.569 303.98 417.025 303.98C417.481 303.98 417.829 304.316 417.829 304.76C417.829 305.204 417.481 305.54 417.025 305.54ZM417.565 312.5H416.485V306.38H417.565V312.5ZM421.89 312.62C420.066 312.62 418.95 311.228 418.95 309.44C418.95 307.652 420.066 306.26 421.89 306.26C423.102 306.26 424.086 306.848 424.482 308.108L423.45 308.48C423.138 307.604 422.598 307.22 421.89 307.22C420.774 307.22 420.03 308.096 420.03 309.44C420.03 310.784 420.774 311.66 421.89 311.66C422.598 311.66 423.174 311.276 423.51 310.4L424.542 310.772C424.134 312.02 423.066 312.62 421.89 312.62ZM431.153 309.284C431.153 309.464 431.141 309.656 431.117 309.812H426.617C426.725 310.976 427.421 311.72 428.453 311.72C429.149 311.72 429.665 311.42 430.025 310.7L430.985 311.048C430.553 312.092 429.653 312.62 428.453 312.62C426.629 312.62 425.513 311.228 425.513 309.44C425.513 307.652 426.617 306.26 428.441 306.26C430.049 306.26 431.153 307.376 431.153 309.284ZM428.441 307.16C427.445 307.16 426.773 307.844 426.629 308.948H430.121C430.025 307.808 429.365 307.16 428.441 307.16ZM437.21 312.5H436.13V307.28H434.93V306.38H436.13V305.768C436.13 304.652 436.85 303.98 437.918 303.98C438.482 303.98 438.914 304.1 439.334 304.388L438.986 305.132C438.638 304.928 438.374 304.88 438.086 304.88C437.63 304.88 437.21 305.156 437.21 305.84V306.38H438.95V307.28H437.21V312.5ZM442.644 312.62C440.82 312.62 439.704 311.228 439.704 309.44C439.704 307.652 440.82 306.26 442.644 306.26C444.468 306.26 445.584 307.652 445.584 309.44C445.584 311.228 444.468 312.62 442.644 312.62ZM442.644 311.66C443.76 311.66 444.504 310.784 444.504 309.44C444.504 308.096 443.76 307.22 442.644 307.22C441.528 307.22 440.784 308.096 440.784 309.44C440.784 310.784 441.528 311.66 442.644 311.66ZM450.025 306.26C450.193 306.26 450.301 306.26 450.505 306.272V307.292C450.313 307.28 450.217 307.28 450.049 307.28C449.089 307.28 448.045 307.868 448.045 309.692V312.5H446.965V309.644C446.965 308.552 446.965 307.472 446.905 306.38H447.925L448.069 307.58H448.141C448.501 306.716 449.173 306.26 450.025 306.26ZM456.433 314.9H455.305L456.229 312.608L453.829 306.38H454.981L456.757 311.336H456.817L458.581 306.38H459.709L456.433 314.9ZM463.339 312.62C461.515 312.62 460.399 311.228 460.399 309.44C460.399 307.652 461.515 306.26 463.339 306.26C465.163 306.26 466.279 307.652 466.279 309.44C466.279 311.228 465.163 312.62 463.339 312.62ZM463.339 311.66C464.455 311.66 465.199 310.784 465.199 309.44C465.199 308.096 464.455 307.22 463.339 307.22C462.223 307.22 461.479 308.096 461.479 309.44C461.479 310.784 462.223 311.66 463.339 311.66ZM469.868 312.62C468.464 312.62 467.6 311.78 467.6 309.98V306.38H468.68V309.92C468.68 311.084 469.22 311.66 470.156 311.66C471.248 311.66 471.98 310.808 471.98 309.74V306.38H473.06V309.236C473.06 310.328 473.06 311.408 473.12 312.5H472.1L471.98 311.48H471.896C471.464 312.212 470.708 312.62 469.868 312.62ZM477.798 306.26C477.966 306.26 478.074 306.26 478.278 306.272V307.292C478.086 307.28 477.99 307.28 477.822 307.28C476.862 307.28 475.818 307.868 475.818 309.692V312.5H474.738V309.644C474.738 308.552 474.738 307.472 474.678 306.38H475.698L475.842 307.58H475.914C476.274 306.716 476.946 306.26 477.798 306.26ZM298.9 326.26C299.068 326.26 299.176 326.26 299.38 326.272V327.292C299.188 327.28 299.092 327.28 298.924 327.28C297.964 327.28 296.92 327.868 296.92 329.692V332.5H295.84V329.644C295.84 328.552 295.84 327.472 295.78 326.38H296.8L296.944 327.58H297.016C297.376 326.716 298.048 326.26 298.9 326.26ZM305.797 329.284C305.797 329.464 305.785 329.656 305.761 329.812H301.261C301.369 330.976 302.065 331.72 303.097 331.72C303.793 331.72 304.309 331.42 304.669 330.7L305.629 331.048C305.197 332.092 304.297 332.62 303.097 332.62C301.273 332.62 300.157 331.228 300.157 329.44C300.157 327.652 301.261 326.26 303.085 326.26C304.693 326.26 305.797 327.376 305.797 329.284ZM303.085 327.16C302.089 327.16 301.417 327.844 301.273 328.948H304.765C304.669 327.808 304.009 327.16 303.085 327.16ZM308.949 332.5H307.869V327.28H306.669V326.38H307.869V325.768C307.869 324.652 308.589 323.98 309.657 323.98C310.221 323.98 310.653 324.1 311.073 324.388L310.725 325.132C310.377 324.928 310.113 324.88 309.825 324.88C309.369 324.88 308.949 325.156 308.949 325.84V326.38H310.689V327.28H308.949V332.5ZM317.082 329.284C317.082 329.464 317.07 329.656 317.046 329.812H312.546C312.654 330.976 313.35 331.72 314.382 331.72C315.078 331.72 315.594 331.42 315.954 330.7L316.914 331.048C316.482 332.092 315.582 332.62 314.382 332.62C312.558 332.62 311.442 331.228 311.442 329.44C311.442 327.652 312.546 326.26 314.37 326.26C315.978 326.26 317.082 327.376 317.082 329.284ZM314.37 327.16C313.374 327.16 312.702 327.844 312.558 328.948H316.05C315.954 327.808 315.294 327.16 314.37 327.16ZM321.517 326.26C321.685 326.26 321.793 326.26 321.997 326.272V327.292C321.805 327.28 321.709 327.28 321.541 327.28C320.581 327.28 319.537 327.868 319.537 329.692V332.5H318.457V329.644C318.457 328.552 318.457 327.472 318.397 326.38H319.417L319.561 327.58H319.633C319.993 326.716 320.665 326.26 321.517 326.26ZM328.414 329.284C328.414 329.464 328.402 329.656 328.378 329.812H323.878C323.986 330.976 324.682 331.72 325.714 331.72C326.41 331.72 326.926 331.42 327.286 330.7L328.246 331.048C327.814 332.092 326.914 332.62 325.714 332.62C323.89 332.62 322.774 331.228 322.774 329.44C322.774 327.652 323.878 326.26 325.702 326.26C327.31 326.26 328.414 327.376 328.414 329.284ZM325.702 327.16C324.706 327.16 324.034 327.844 323.89 328.948H327.382C327.286 327.808 326.626 327.16 325.702 327.16ZM330.869 332.5H329.789V329.644C329.789 328.552 329.789 327.472 329.729 326.38H330.749L330.869 327.4H330.953C331.385 326.668 332.141 326.26 332.981 326.26C334.385 326.26 335.249 327.1 335.249 328.9V332.5H334.169V328.96C334.169 327.796 333.629 327.22 332.693 327.22C331.601 327.22 330.869 328.072 330.869 329.14V332.5ZM339.507 332.62C337.683 332.62 336.567 331.228 336.567 329.44C336.567 327.652 337.683 326.26 339.507 326.26C340.719 326.26 341.703 326.848 342.099 328.108L341.067 328.48C340.755 327.604 340.215 327.22 339.507 327.22C338.391 327.22 337.647 328.096 337.647 329.44C337.647 330.784 338.391 331.66 339.507 331.66C340.215 331.66 340.791 331.276 341.127 330.4L342.159 330.772C341.751 332.02 340.683 332.62 339.507 332.62ZM348.77 329.284C348.77 329.464 348.758 329.656 348.734 329.812H344.234C344.342 330.976 345.038 331.72 346.07 331.72C346.766 331.72 347.282 331.42 347.642 330.7L348.602 331.048C348.17 332.092 347.27 332.62 346.07 332.62C344.246 332.62 343.13 331.228 343.13 329.44C343.13 327.652 344.234 326.26 346.058 326.26C347.666 326.26 348.77 327.376 348.77 329.284ZM346.058 327.16C345.062 327.16 344.39 327.844 344.246 328.948H347.738C347.642 327.808 346.982 327.16 346.058 327.16ZM350.542 332.62C350.098 332.62 349.726 332.296 349.726 331.84C349.726 331.384 350.098 331.06 350.542 331.06C350.986 331.06 351.346 331.384 351.346 331.84C351.346 332.296 350.986 332.62 350.542 332.62Z" fill="#4B5563"/>
<path d="M302.8 370.64H300.14V368.56C298.14 368.2 296.48 367.1 295.88 365.18L298.44 364.52C298.98 365.98 300.32 366.56 301.7 366.56C303.36 366.56 304.22 365.82 304.22 364.76C304.22 361.74 296.18 363.68 296.18 358.12C296.18 356.18 297.64 354.72 300.14 354.38V352.36H302.8V354.44C304.68 354.76 306.08 355.82 306.66 357.62L304.06 358.28C303.62 356.98 302.54 356.44 301.3 356.44C299.82 356.44 298.96 357.16 298.96 358.12C298.96 361.1 307 359.14 307 364.78C307 366.86 305.46 368.34 302.8 368.64V370.64ZM318.433 356.74L314.933 360.12C317.433 360.32 319.013 361.94 319.013 364.32C319.013 366.98 317.073 368.7 313.813 368.7C310.993 368.7 308.893 367.42 308.293 365.2L310.913 364.52C311.313 365.74 312.413 366.44 313.813 366.44C315.293 366.44 316.273 365.58 316.273 364.24C316.273 362.9 315.273 362.06 313.673 362.06H311.513V360.38L314.953 357.02V356.88H308.853V354.5H318.433V356.74ZM326.422 359C329.342 359 331.562 360.9 331.562 363.76C331.562 366.68 329.322 368.7 326.042 368.7C322.842 368.7 320.542 366.66 320.542 363.76C320.542 362.16 321.102 361.06 322.222 359.52L325.862 354.5H329.182V354.66L325.862 359.02C326.042 359 326.242 359 326.422 359ZM326.042 366.36C327.642 366.36 328.822 365.32 328.822 363.76C328.822 362.18 327.642 361.14 326.042 361.14C324.442 361.14 323.282 362.2 323.282 363.76C323.282 365.32 324.442 366.36 326.042 366.36ZM342.385 368.5H339.625V365.9H332.905V363.32L339.385 354.5H342.385V363.52H344.245V365.9H342.385V368.5ZM339.625 357.94L335.565 363.52H339.625V357.94ZM349.863 368.5H346.743L352.143 357.2V357.06H345.483V354.5H355.383V356.92L349.863 368.5ZM358.103 368.7C357.183 368.7 356.423 368.04 356.423 367.08C356.423 366.16 357.183 365.5 358.103 365.5C359.023 365.5 359.763 366.16 359.763 367.08C359.763 368.04 359.023 368.7 358.103 368.7ZM367.351 368.7C363.631 368.7 361.271 365.8 361.271 361.5C361.271 357.2 363.631 354.3 367.351 354.3C371.091 354.3 373.451 357.18 373.451 361.5C373.451 365.82 371.091 368.7 367.351 368.7ZM367.351 366.26C369.391 366.26 370.691 364.52 370.691 361.5C370.691 358.48 369.391 356.74 367.351 356.74C365.311 356.74 364.011 358.48 364.011 361.5C364.011 364.52 365.311 366.26 367.351 366.26ZM380.456 354.3C383.656 354.3 385.956 356.34 385.956 359.24C385.956 360.84 385.396 361.94 384.276 363.48L380.636 368.5H377.316V368.34L380.636 363.98C380.456 364 380.256 364 380.076 364C377.156 364 374.936 362.1 374.936 359.24C374.936 356.32 377.176 354.3 380.456 354.3ZM380.456 361.86C382.056 361.86 383.216 360.8 383.216 359.24C383.216 357.68 382.056 356.64 380.456 356.64C378.876 356.64 377.676 357.68 377.676 359.24C377.676 360.82 378.876 361.86 380.456 361.86Z" fill="black"/>
<path d="M297.256 396.5H295.888V388.1H299.08C301 388.1 302.116 389.096 302.116 390.788C302.116 392.468 301 393.452 299.08 393.452H297.256V396.5ZM297.256 389.276V392.288H298.996C300.088 392.288 300.736 391.76 300.736 390.788C300.736 389.816 300.088 389.276 298.996 389.276H297.256ZM304.625 396.5H303.269V388.1H304.625V396.5ZM311.742 393.272C311.742 393.464 311.73 393.692 311.706 393.86H307.278C307.398 394.952 308.022 395.576 308.958 395.576C309.606 395.576 310.074 395.3 310.386 394.628L311.598 394.988C311.154 396.068 310.254 396.62 308.946 396.62C307.038 396.62 305.934 395.228 305.934 393.44C305.934 391.652 307.026 390.26 308.934 390.26C310.638 390.26 311.742 391.436 311.742 393.272ZM308.934 391.304C308.046 391.304 307.446 391.892 307.29 392.9H310.458C310.35 391.856 309.762 391.304 308.934 391.304ZM318.143 392.432V393.26C318.143 394.34 318.143 395.408 318.203 396.5H317.027L316.907 395.432H316.811C316.427 396.2 315.743 396.62 314.771 396.62C313.571 396.62 312.779 395.9 312.779 394.808C312.779 393.644 313.619 392.936 315.323 392.84L316.835 392.756V392.48C316.835 391.676 316.235 391.316 315.515 391.316C314.747 391.316 314.243 391.688 314.027 392.384L312.851 392.036C313.103 390.884 314.147 390.26 315.515 390.26C317.183 390.26 318.143 391.064 318.143 392.432ZM315.107 395.552C316.055 395.552 316.799 394.772 316.835 393.68L315.599 393.764C314.639 393.824 314.087 394.076 314.087 394.724C314.087 395.228 314.471 395.552 315.107 395.552ZM322.074 396.62C320.85 396.62 319.746 396.164 319.41 395.036L320.562 394.688C320.778 395.372 321.426 395.66 322.062 395.66C322.77 395.66 323.154 395.336 323.154 394.868C323.154 393.548 319.554 394.496 319.554 391.952C319.554 390.98 320.418 390.26 321.87 390.26C323.046 390.26 324.006 390.728 324.306 391.736L323.142 392.072C322.938 391.46 322.434 391.22 321.882 391.22C321.21 391.22 320.85 391.544 320.85 391.952C320.85 393.296 324.45 392.348 324.45 394.868C324.45 395.912 323.538 396.62 322.074 396.62ZM331.242 393.272C331.242 393.464 331.23 393.692 331.206 393.86H326.778C326.898 394.952 327.522 395.576 328.458 395.576C329.106 395.576 329.574 395.3 329.886 394.628L331.098 394.988C330.654 396.068 329.754 396.62 328.446 396.62C326.538 396.62 325.434 395.228 325.434 393.44C325.434 391.652 326.526 390.26 328.434 390.26C330.138 390.26 331.242 391.436 331.242 393.272ZM328.434 391.304C327.546 391.304 326.946 391.892 326.79 392.9H329.958C329.85 391.856 329.262 391.304 328.434 391.304ZM336.816 398.9H335.46V393.644C335.46 392.552 335.46 391.472 335.4 390.38H336.684L336.816 391.388H336.912C337.32 390.668 337.98 390.26 338.88 390.26C340.428 390.26 341.412 391.508 341.412 393.44C341.412 395.372 340.428 396.62 338.88 396.62C337.98 396.62 337.32 396.212 336.912 395.492H336.816V398.9ZM338.436 395.456C339.42 395.456 340.056 394.676 340.056 393.452C340.056 392.228 339.42 391.424 338.436 391.424C337.452 391.424 336.816 392.228 336.816 393.452C336.816 394.676 337.452 395.456 338.436 395.456ZM347.839 392.432V393.26C347.839 394.34 347.839 395.408 347.899 396.5H346.723L346.603 395.432H346.507C346.123 396.2 345.439 396.62 344.467 396.62C343.267 396.62 342.475 395.9 342.475 394.808C342.475 393.644 343.315 392.936 345.019 392.84L346.531 392.756V392.48C346.531 391.676 345.931 391.316 345.211 391.316C344.443 391.316 343.939 391.688 343.723 392.384L342.547 392.036C342.799 390.884 343.843 390.26 345.211 390.26C346.879 390.26 347.839 391.064 347.839 392.432ZM344.803 395.552C345.751 395.552 346.495 394.772 346.531 393.68L345.295 393.764C344.335 393.824 343.783 394.076 343.783 394.724C343.783 395.228 344.167 395.552 344.803 395.552ZM351.686 398.9H350.258L351.134 396.668L348.77 390.38H350.198L351.818 395.132H351.89L353.498 390.38H354.89L351.686 398.9ZM362.165 396.62C361.277 396.62 360.605 396.212 360.197 395.492H360.101L359.969 396.5H358.685C358.745 395.408 358.745 394.328 358.745 393.236V388.1H360.101V391.388H360.197C360.605 390.668 361.277 390.26 362.165 390.26C363.713 390.26 364.697 391.52 364.697 393.452C364.697 395.372 363.713 396.62 362.165 396.62ZM361.721 395.456C362.705 395.456 363.341 394.676 363.341 393.452C363.341 392.228 362.705 391.424 361.721 391.424C360.737 391.424 360.101 392.228 360.101 393.452C360.101 394.676 360.737 395.456 361.721 395.456ZM368.256 398.9H366.828L367.704 396.668L365.34 390.38H366.768L368.388 395.132H368.46L370.068 390.38H371.46L368.256 398.9Z" fill="#4B5563"/>
<path d="M376.684 396.5H375.4V388.1H377.44L379.828 395.012L382.228 388.1H384.292V396.5H382.924V389.708H382.852L380.5 396.5H379.12L376.756 389.708H376.684V396.5ZM391.128 392.432V393.26C391.128 394.34 391.128 395.408 391.188 396.5H390.012L389.892 395.432H389.796C389.412 396.2 388.728 396.62 387.756 396.62C386.556 396.62 385.764 395.9 385.764 394.808C385.764 393.644 386.604 392.936 388.308 392.84L389.82 392.756V392.48C389.82 391.676 389.22 391.316 388.5 391.316C387.732 391.316 387.228 391.688 387.012 392.384L385.836 392.036C386.088 390.884 387.132 390.26 388.5 390.26C390.168 390.26 391.128 391.064 391.128 392.432ZM388.092 395.552C389.04 395.552 389.784 394.772 389.82 393.68L388.584 393.764C387.624 393.824 387.072 394.076 387.072 394.724C387.072 395.228 387.456 395.552 388.092 395.552ZM394.975 398.9H393.547L394.423 396.668L392.059 390.38H393.487L395.107 395.132H395.179L396.787 390.38H398.179L394.975 398.9ZM407.698 396.5H401.818V395.372L404.29 393.212C405.55 392.096 406.27 391.448 406.27 390.476C406.27 389.624 405.574 389.132 404.722 389.132C403.894 389.132 403.198 389.6 402.874 390.464L401.614 390.092C402.01 388.748 403.21 387.98 404.722 387.98C406.402 387.98 407.638 388.904 407.638 390.476C407.638 391.784 406.798 392.66 405.178 394.04L403.882 395.168V395.24H407.698V396.5ZM412.016 396.62C410.444 396.62 409.172 395.912 408.776 394.64L410.084 394.268C410.396 395.048 411.164 395.432 412.028 395.432C413.072 395.432 413.792 394.772 413.792 393.8C413.792 392.804 413.072 392.168 412.076 392.168C411.38 392.168 410.816 392.396 410.288 392.864L409.124 392.66L409.424 388.1H414.428V389.3H410.612L410.456 391.532H410.54C411.068 391.184 411.656 391.028 412.28 391.028C413.972 391.028 415.16 392.096 415.16 393.8C415.16 395.468 413.936 396.62 412.016 396.62ZM418.009 395.408L416.665 398.132L415.729 397.832L416.629 394.952L418.009 395.408ZM427.784 396.5H421.904V395.372L424.376 393.212C425.636 392.096 426.356 391.448 426.356 390.476C426.356 389.624 425.66 389.132 424.808 389.132C423.98 389.132 423.284 389.6 422.96 390.464L421.7 390.092C422.096 388.748 423.296 387.98 424.808 387.98C426.488 387.98 427.724 388.904 427.724 390.476C427.724 391.784 426.884 392.66 425.264 394.04L423.968 395.168V395.24H427.784V396.5ZM432.464 396.62C430.328 396.62 428.912 394.88 428.912 392.3C428.912 389.72 430.328 387.98 432.464 387.98C434.6 387.98 436.016 389.708 436.016 392.3C436.016 394.892 434.6 396.62 432.464 396.62ZM432.464 395.384C433.796 395.384 434.648 394.256 434.648 392.3C434.648 390.344 433.796 389.216 432.464 389.216C431.144 389.216 430.28 390.344 430.28 392.3C430.28 394.256 431.144 395.384 432.464 395.384ZM442.984 396.5H437.104V395.372L439.576 393.212C440.836 392.096 441.556 391.448 441.556 390.476C441.556 389.624 440.86 389.132 440.008 389.132C439.18 389.132 438.484 389.6 438.16 390.464L436.9 390.092C437.296 388.748 438.496 387.98 440.008 387.98C441.688 387.98 442.924 388.904 442.924 390.476C442.924 391.784 442.084 392.66 440.464 394.04L439.168 395.168V395.24H442.984V396.5ZM449.286 396.5H447.906V394.856H443.826V393.5L447.774 388.1H449.286V393.62H450.438V394.856H449.286V396.5ZM447.906 389.876L445.182 393.62H447.906V389.876Z" fill="#407CEE"/>
<path d="M295 419.5C295 417.291 296.791 415.5 299 415.5H511C513.209 415.5 515 417.291 515 419.5V447.5C515 449.709 513.209 451.5 511 451.5H299C296.791 451.5 295 449.709 295 447.5V419.5Z" fill="#F7CD4B"/>
<path d="M377.12 438.5H375.065V428H379.205C381.68 428 383.12 429.29 383.12 431.45C383.12 433.58 381.68 434.855 379.205 434.855H377.12V438.5ZM377.12 429.725V433.16H379.055C380.285 433.16 381.05 432.56 381.05 431.45C381.05 430.325 380.285 429.725 379.055 429.725H377.12ZM391.173 433.445V434.48C391.173 435.83 391.173 437.15 391.248 438.5H389.463L389.298 437.195H389.163C388.683 438.155 387.858 438.65 386.658 438.65C385.173 438.65 384.198 437.75 384.198 436.37C384.198 434.915 385.248 434.03 387.333 433.91L389.223 433.805V433.52C389.223 432.605 388.533 432.215 387.723 432.215C386.853 432.215 386.283 432.635 386.028 433.415L384.288 432.95C384.558 431.51 385.863 430.7 387.723 430.7C389.943 430.7 391.173 431.735 391.173 433.445ZM387.273 437.135C388.323 437.135 389.163 436.31 389.223 435.05L387.798 435.14C386.718 435.215 386.133 435.485 386.133 436.205C386.133 436.76 386.568 437.135 387.273 437.135ZM396.321 441.5H394.191L395.241 438.77L392.316 430.85H394.416L396.261 436.55H396.366L398.196 430.85H400.251L396.321 441.5ZM407.105 438.5H405.08V428H407.285L412.01 435.425H412.13C412.085 434.39 412.07 433.49 412.07 432.53V428H414.095V438.5H411.875L407.15 431.075H407.045C407.09 432.125 407.105 432.995 407.105 433.97V438.5ZM419.602 438.65C417.127 438.65 415.747 436.91 415.747 434.675C415.747 432.44 417.127 430.7 419.602 430.7C422.077 430.7 423.472 432.44 423.472 434.675C423.472 436.91 422.077 438.65 419.602 438.65ZM419.602 436.97C420.712 436.97 421.432 436.07 421.432 434.675C421.432 433.28 420.712 432.38 419.602 432.38C418.492 432.38 417.772 433.28 417.772 434.675C417.772 436.07 418.492 436.97 419.602 436.97ZM428.601 438.5H426.186L424.176 430.85H426.186L427.431 436.475H427.566L428.706 430.85H431.091L432.216 436.475H432.336L433.581 430.85H435.546L433.536 438.5H431.106L429.921 432.725H429.801L428.601 438.5Z" fill="#7C641E"/>
</g>
<rect x="279.5" y="150" width="251" height="314" rx="10.5" stroke="#E5E7EB"/>
</g>
<defs>
<filter id="filter0_d_3073_1364" x="269" y="139.5" width="292" height="355" filterUnits="userSpaceOnUse" color-interpolation-filters="sRGB">
<feFlood flood-opacity="0" result="BackgroundImageFix"/>
<feColorMatrix in="SourceAlpha" type="matrix" values="0 0 0 0 0 0 0 0 0 0 0 0 0 0 0 0 0 0 127 0" result="hardAlpha"/>
<feOffset dx="10" dy="10"/>
<feGaussianBlur stdDeviation="10"/>
<feComposite in2="hardAlpha" operator="out"/>
<feColorMatrix type="matrix" values="0 0 0 0 0.176471 0 0 0 0 0.392157 0 0 0 0 0.839216 0 0 0 0.1 0"/>
<feBlend mode="normal" in2="BackgroundImageFix" result="effect1_dropShadow_3073_1364"/>
<feBlend mode="normal" in="SourceGraphic" in2="effect1_dropShadow_3073_1364" result="shape"/>
</filter>
<linearGradient id="paint0_linear_3073_1364" x1="282.206" y1="211.034" x2="352.331" y2="239.182" gradientUnits="userSpaceOnUse">
<stop stop-color="#DEDFE2"/>
<stop offset="1" stop-color="white"/>
</linearGradient>
<linearGradient id="paint1_linear_3073_1364" x1="47.1484" y1="46.7972" x2="226.643" y2="457.409" gradientUnits="userSpaceOnUse">
<stop stop-color="#DEDFE2"/>
<stop offset="1" stop-color="white"/>
</linearGradient>
<linearGradient id="paint2_linear_3073_1364" x1="61.383" y1="449.762" x2="61.4" y2="453.398" gradientUnits="userSpaceOnUse">
<stop stop-color="#DEDFE2"/>
<stop offset="1" stop-color="white"/>
</linearGradient>
<clipPath id="clip0_3073_1364">
<rect x="280" y="150.5" width="250" height="313" rx="10" fill="white"/>
</clipPath>
</defs>
</svg>
