<svg width="50" height="50" viewBox="0 0 50 50" fill="none" xmlns="http://www.w3.org/2000/svg">
<path d="M8.05586 39.4693C7.66838 40.1353 6.9705 40.5099 6.2497 40.5099C5.89555 40.5099 5.53723 40.4204 5.20808 40.231C1.99574 38.3746 0 34.922 0 31.2175V14.5682C0.00208323 8.83039 4.67477 4.16233 10.4182 4.16233V2.08117C10.4182 0.932362 11.3515 0 12.5015 0C13.6514 0 14.5847 0.932362 14.5847 2.08117V4.16233H29.1673V2.08117C29.1673 0.932362 30.0985 0 31.2506 0C32.4026 0 33.3338 0.932362 33.3338 2.08117V4.16233C39.0773 4.16233 43.75 8.83039 43.75 14.5682V31.2175C43.75 32.3663 42.8188 33.2986 41.6667 33.2986C40.5147 33.2986 39.5835 32.3663 39.5835 31.2175V18.7305H37.5003C36.3482 18.7305 35.417 17.7981 35.417 16.6493C35.417 15.5005 36.3482 14.5682 37.5003 14.5682H39.5835C39.5835 11.1259 36.7795 8.32466 33.3338 8.32466H10.4182C6.97258 8.32466 4.16855 11.1259 4.16855 14.5682H20.8344C21.9844 14.5682 22.9176 15.5005 22.9176 16.6493C22.9176 17.7981 21.9844 18.7305 20.8344 18.7305H4.16855V31.2175C4.16855 33.4402 5.36641 35.513 7.2934 36.6264C8.28918 37.2008 8.63292 38.4745 8.05586 39.4693ZM43.2458 38.6681L35.4358 35.7523V25.2529C35.4358 22.0978 33.1942 19.3548 30.2215 18.872C28.3861 18.5744 26.5383 19.0843 25.1405 20.2726C23.7405 21.461 22.9364 23.1967 22.9364 25.0302V40.77L20.8219 39.0885C20.8073 39.076 20.7886 39.076 20.774 39.0635C18.2512 36.872 14.4222 37.0343 12.1223 39.4943C9.76828 42.0083 9.9016 45.9667 12.3932 48.2976L13.5556 49.4173C13.9431 49.7919 14.4618 50 15.0014 50C16.8763 50 17.7971 47.7211 16.4471 46.4204L15.2638 45.2799C14.4243 44.4932 14.3806 43.1717 15.168 42.333C15.9492 41.4964 17.2679 41.4568 18.1054 42.2331C18.1262 42.2518 23.7239 46.7097 23.7239 46.7097C24.3509 47.2092 25.2092 47.3028 25.9258 46.9573C26.6466 46.6098 27.1049 45.8814 27.1049 45.0822V25.0239C27.1049 24.4121 27.3737 23.8335 27.8403 23.436C28.3153 23.0343 28.9194 22.8678 29.5527 22.9719C30.5173 23.1301 31.2714 24.129 31.2714 25.2466V37.1904C31.2714 38.0583 31.811 38.8366 32.6255 39.1405L41.7896 42.5619C44.0895 43.4194 45.677 45.5546 45.8374 47.9979C45.9103 49.0989 46.8269 49.9438 47.9144 49.9438C47.9602 49.9438 48.006 49.9438 48.0518 49.9396C49.1997 49.8626 50.0705 48.872 49.9955 47.7274C49.7268 43.6524 47.079 40.0957 43.2458 38.6681Z" fill="#2D64D6"/>
</svg>
