<svg width="552" height="453" viewBox="0 0 552 453" fill="none" xmlns="http://www.w3.org/2000/svg">
<path d="M17 0.5C7.8873 0.5 0.5 7.8873 0.5 17V325C0.5 334.113 7.8873 341.5 17 341.5H435C444.113 341.5 451.5 334.113 451.5 325V17C451.5 7.8873 444.113 0.5 435 0.5H17Z" fill="white"/>
<path d="M17 0.5C7.8873 0.5 0.5 7.8873 0.5 17V325C0.5 334.113 7.8873 341.5 17 341.5H435C444.113 341.5 451.5 334.113 451.5 325V17C451.5 7.8873 444.113 0.5 435 0.5H17Z" stroke="url(#paint0_linear_3549_2119)"/>
<mask id="path-2-inside-1_3549_2119" fill="white">
<path d="M1 1H451V41H1V1Z"/>
</mask>
<path d="M451 40H1V42H451V40Z" fill="#E5E7EB" mask="url(#path-2-inside-1_3549_2119)"/>
<path d="M20.375 17.321L16.625 20.9999L20.375 24.6788" stroke="black" stroke-linecap="round" stroke-linejoin="round"/>
<path d="M182.715 26H181.11V15.5H183.66L186.645 24.14L189.645 15.5H192.225V26H190.515V17.51H190.425L187.485 26H185.76L182.805 17.51H182.715V26ZM201.22 20.915V21.95C201.22 23.3 201.22 24.635 201.295 26H199.825L199.675 24.665H199.555C199.075 25.625 198.22 26.15 197.005 26.15C195.505 26.15 194.515 25.25 194.515 23.885C194.515 22.43 195.565 21.545 197.695 21.425L199.585 21.32V20.975C199.585 19.97 198.835 19.52 197.935 19.52C196.975 19.52 196.345 19.985 196.075 20.855L194.605 20.42C194.92 18.98 196.225 18.2 197.935 18.2C200.02 18.2 201.22 19.205 201.22 20.915ZM197.425 24.815C198.61 24.815 199.54 23.84 199.585 22.475L198.04 22.58C196.84 22.655 196.15 22.97 196.15 23.78C196.15 24.41 196.63 24.815 197.425 24.815ZM207.768 18.2C207.963 18.2 208.098 18.2 208.323 18.215V19.865C208.083 19.835 207.963 19.835 207.753 19.835C206.568 19.835 205.338 20.54 205.338 22.7V26H203.643V22.43C203.643 21.065 203.643 19.715 203.568 18.35H205.173L205.383 19.88H205.488C205.923 18.77 206.733 18.2 207.768 18.2ZM213.445 26.15C211.06 26.15 209.68 24.41 209.68 22.175C209.68 19.94 211.06 18.2 213.445 18.2C215.065 18.2 216.325 18.98 216.805 20.6L215.185 21.095C214.855 20.09 214.24 19.64 213.43 19.64C212.2 19.64 211.375 20.645 211.375 22.175C211.375 23.705 212.2 24.71 213.43 24.71C214.24 24.71 214.9 24.26 215.26 23.255L216.88 23.75C216.37 25.355 215.035 26.15 213.445 26.15ZM223.234 18.2C224.959 18.2 226.024 19.25 226.024 21.44V26H224.314V21.68C224.314 20.345 223.714 19.685 222.649 19.685C221.404 19.685 220.579 20.66 220.579 21.92V26H218.884V15.5H220.579V17.84L220.519 19.61H220.699C221.269 18.68 222.184 18.2 223.234 18.2Z" fill="black"/>
<path d="M241.085 26H233.735V24.59L236.825 21.89C238.4 20.495 239.3 19.685 239.3 18.47C239.3 17.405 238.43 16.79 237.365 16.79C236.33 16.79 235.46 17.375 235.055 18.455L233.48 17.99C233.975 16.31 235.475 15.35 237.365 15.35C239.465 15.35 241.01 16.505 241.01 18.47C241.01 20.105 239.96 21.2 237.935 22.925L236.315 24.335V24.425H241.085V26ZM247.384 26.15C244.714 26.15 242.944 23.975 242.944 20.75C242.944 17.525 244.714 15.35 247.384 15.35C250.054 15.35 251.824 17.51 251.824 20.75C251.824 23.99 250.054 26.15 247.384 26.15ZM247.384 24.605C249.049 24.605 250.114 23.195 250.114 20.75C250.114 18.305 249.049 16.895 247.384 16.895C245.734 16.895 244.654 18.305 244.654 20.75C244.654 23.195 245.734 24.605 247.384 24.605ZM260.984 26H253.634V24.59L256.724 21.89C258.299 20.495 259.199 19.685 259.199 18.47C259.199 17.405 258.329 16.79 257.264 16.79C256.229 16.79 255.359 17.375 254.954 18.455L253.379 17.99C253.874 16.31 255.374 15.35 257.264 15.35C259.364 15.35 260.909 16.505 260.909 18.47C260.909 20.105 259.859 21.2 257.834 22.925L256.214 24.335V24.425H260.984V26ZM269.312 26H267.587V23.945H262.487V22.25L267.422 15.5H269.312V22.4H270.752V23.945H269.312V26ZM267.587 17.72L264.182 22.4H267.587V17.72Z" fill="black"/>
<path d="M431.625 24.679L435.375 21.0001L431.625 17.3212" stroke="black" stroke-linecap="round" stroke-linejoin="round"/>
<mask id="path-9-inside-2_3549_2119" fill="white">
<path d="M1 41H451V81H1V41Z"/>
</mask>
<path d="M1 41H451V81H1V41Z" fill="#F9FAFB"/>
<path d="M451 80H1V82H451V80Z" fill="#E5E7EB" mask="url(#path-9-inside-2_3549_2119)"/>
<path d="M24.3581 66H22.7531V55.5H25.3031L28.2881 64.14L31.2881 55.5H33.8681V66H32.1581V57.51H32.0681L29.1281 66H27.4031L24.4481 57.51H24.3581V66ZM39.8181 66.15C37.4331 66.15 36.0531 64.41 36.0531 62.175C36.0531 59.94 37.4331 58.2 39.8181 58.2C42.2031 58.2 43.5981 59.94 43.5981 62.175C43.5981 64.41 42.2031 66.15 39.8181 66.15ZM39.8181 64.695C41.0631 64.695 41.8881 63.705 41.8881 62.175C41.8881 60.645 41.0631 59.655 39.8181 59.655C38.5731 59.655 37.7481 60.645 37.7481 62.175C37.7481 63.705 38.5731 64.695 39.8181 64.695Z" fill="#EFEEFF"/>
<path d="M24.3581 66H22.7531V55.5H25.3031L28.2881 64.14L31.2881 55.5H33.8681V66H32.1581V57.51H32.0681L29.1281 66H27.4031L24.4481 57.51H24.3581V66ZM39.8181 66.15C37.4331 66.15 36.0531 64.41 36.0531 62.175C36.0531 59.94 37.4331 58.2 39.8181 58.2C42.2031 58.2 43.5981 59.94 43.5981 62.175C43.5981 64.41 42.2031 66.15 39.8181 66.15ZM39.8181 64.695C41.0631 64.695 41.8881 63.705 41.8881 62.175C41.8881 60.645 41.0631 59.655 39.8181 59.655C38.5731 59.655 37.7481 60.645 37.7481 62.175C37.7481 63.705 38.5731 64.695 39.8181 64.695Z" fill="black" fill-opacity="0.2"/>
<path d="M24.3581 66H22.7531V55.5H25.3031L28.2881 64.14L31.2881 55.5H33.8681V66H32.1581V57.51H32.0681L29.1281 66H27.4031L24.4481 57.51H24.3581V66ZM39.8181 66.15C37.4331 66.15 36.0531 64.41 36.0531 62.175C36.0531 59.94 37.4331 58.2 39.8181 58.2C42.2031 58.2 43.5981 59.94 43.5981 62.175C43.5981 64.41 42.2031 66.15 39.8181 66.15ZM39.8181 64.695C41.0631 64.695 41.8881 63.705 41.8881 62.175C41.8881 60.645 41.0631 59.655 39.8181 59.655C38.5731 59.655 37.7481 60.645 37.7481 62.175C37.7481 63.705 38.5731 64.695 39.8181 64.695Z" fill="black" fill-opacity="0.2"/>
<path d="M93.8737 66H92.1487V57.015H88.7587V55.5H97.2637V57.015H93.8737V66ZM101.021 66.15C99.2962 66.15 98.2462 65.1 98.2462 62.91V58.35H99.9412V62.67C99.9412 64.005 100.556 64.665 101.621 64.665C102.866 64.665 103.676 63.69 103.676 62.43V58.35H105.386V61.92C105.386 63.285 105.386 64.635 105.461 66H103.841L103.691 64.74H103.571C103.001 65.655 102.086 66.15 101.021 66.15Z" fill="#EFEEFF"/>
<path d="M93.8737 66H92.1487V57.015H88.7587V55.5H97.2637V57.015H93.8737V66ZM101.021 66.15C99.2962 66.15 98.2462 65.1 98.2462 62.91V58.35H99.9412V62.67C99.9412 64.005 100.556 64.665 101.621 64.665C102.866 64.665 103.676 63.69 103.676 62.43V58.35H105.386V61.92C105.386 63.285 105.386 64.635 105.461 66H103.841L103.691 64.74H103.571C103.001 65.655 102.086 66.15 101.021 66.15Z" fill="black" fill-opacity="0.2"/>
<path d="M93.8737 66H92.1487V57.015H88.7587V55.5H97.2637V57.015H93.8737V66ZM101.021 66.15C99.2962 66.15 98.2462 65.1 98.2462 62.91V58.35H99.9412V62.67C99.9412 64.005 100.556 64.665 101.621 64.665C102.866 64.665 103.676 63.69 103.676 62.43V58.35H105.386V61.92C105.386 63.285 105.386 64.635 105.461 66H103.841L103.691 64.74H103.571C103.001 65.655 102.086 66.15 101.021 66.15Z" fill="black" fill-opacity="0.2"/>
<path d="M154.919 66H152.714L149.999 55.5H151.754L153.839 64.305H153.929L155.954 55.5H158.099L160.109 64.305H160.199L162.284 55.5H163.964L161.234 66H159.029L157.034 57.24H156.944L154.919 66ZM172.293 61.965C172.293 62.205 172.278 62.49 172.248 62.7H166.713C166.863 64.065 167.643 64.845 168.813 64.845C169.623 64.845 170.208 64.5 170.598 63.66L172.113 64.11C171.558 65.46 170.433 66.15 168.798 66.15C166.413 66.15 165.033 64.41 165.033 62.175C165.033 59.94 166.398 58.2 168.783 58.2C170.913 58.2 172.293 59.67 172.293 61.965ZM168.783 59.505C167.673 59.505 166.923 60.24 166.728 61.5H170.688C170.553 60.195 169.818 59.505 168.783 59.505Z" fill="#EFEEFF"/>
<path d="M154.919 66H152.714L149.999 55.5H151.754L153.839 64.305H153.929L155.954 55.5H158.099L160.109 64.305H160.199L162.284 55.5H163.964L161.234 66H159.029L157.034 57.24H156.944L154.919 66ZM172.293 61.965C172.293 62.205 172.278 62.49 172.248 62.7H166.713C166.863 64.065 167.643 64.845 168.813 64.845C169.623 64.845 170.208 64.5 170.598 63.66L172.113 64.11C171.558 65.46 170.433 66.15 168.798 66.15C166.413 66.15 165.033 64.41 165.033 62.175C165.033 59.94 166.398 58.2 168.783 58.2C170.913 58.2 172.293 59.67 172.293 61.965ZM168.783 59.505C167.673 59.505 166.923 60.24 166.728 61.5H170.688C170.553 60.195 169.818 59.505 168.783 59.505Z" fill="black" fill-opacity="0.2"/>
<path d="M154.919 66H152.714L149.999 55.5H151.754L153.839 64.305H153.929L155.954 55.5H158.099L160.109 64.305H160.199L162.284 55.5H163.964L161.234 66H159.029L157.034 57.24H156.944L154.919 66ZM172.293 61.965C172.293 62.205 172.278 62.49 172.248 62.7H166.713C166.863 64.065 167.643 64.845 168.813 64.845C169.623 64.845 170.208 64.5 170.598 63.66L172.113 64.11C171.558 65.46 170.433 66.15 168.798 66.15C166.413 66.15 165.033 64.41 165.033 62.175C165.033 59.94 166.398 58.2 168.783 58.2C170.913 58.2 172.293 59.67 172.293 61.965ZM168.783 59.505C167.673 59.505 166.923 60.24 166.728 61.5H170.688C170.553 60.195 169.818 59.505 168.783 59.505Z" fill="black" fill-opacity="0.2"/>
<path d="M221.945 66H220.22V57.015H216.83V55.5H225.335V57.015H221.945V66ZM231.475 58.2C233.2 58.2 234.265 59.25 234.265 61.44V66H232.555V61.68C232.555 60.345 231.955 59.685 230.89 59.685C229.645 59.685 228.82 60.66 228.82 61.92V66H227.125V55.5H228.82V57.84L228.76 59.61H228.94C229.51 58.68 230.425 58.2 231.475 58.2Z" fill="#EFEEFF"/>
<path d="M221.945 66H220.22V57.015H216.83V55.5H225.335V57.015H221.945V66ZM231.475 58.2C233.2 58.2 234.265 59.25 234.265 61.44V66H232.555V61.68C232.555 60.345 231.955 59.685 230.89 59.685C229.645 59.685 228.82 60.66 228.82 61.92V66H227.125V55.5H228.82V57.84L228.76 59.61H228.94C229.51 58.68 230.425 58.2 231.475 58.2Z" fill="black" fill-opacity="0.2"/>
<path d="M221.945 66H220.22V57.015H216.83V55.5H225.335V57.015H221.945V66ZM231.475 58.2C233.2 58.2 234.265 59.25 234.265 61.44V66H232.555V61.68C232.555 60.345 231.955 59.685 230.89 59.685C229.645 59.685 228.82 60.66 228.82 61.92V66H227.125V55.5H228.82V57.84L228.76 59.61H228.94C229.51 58.68 230.425 58.2 231.475 58.2Z" fill="black" fill-opacity="0.2"/>
<path d="M285.106 66H283.396V55.5H290.536V56.97H285.106V60.12H290.041V61.575H285.106V66ZM296.684 58.2C296.879 58.2 297.014 58.2 297.239 58.215V59.865C296.999 59.835 296.879 59.835 296.669 59.835C295.484 59.835 294.254 60.54 294.254 62.7V66H292.559V62.43C292.559 61.065 292.559 59.715 292.484 58.35H294.089L294.299 59.88H294.404C294.839 58.77 295.649 58.2 296.684 58.2Z" fill="#EFEEFF"/>
<path d="M285.106 66H283.396V55.5H290.536V56.97H285.106V60.12H290.041V61.575H285.106V66ZM296.684 58.2C296.879 58.2 297.014 58.2 297.239 58.215V59.865C296.999 59.835 296.879 59.835 296.669 59.835C295.484 59.835 294.254 60.54 294.254 62.7V66H292.559V62.43C292.559 61.065 292.559 59.715 292.484 58.35H294.089L294.299 59.88H294.404C294.839 58.77 295.649 58.2 296.684 58.2Z" fill="black" fill-opacity="0.2"/>
<path d="M285.106 66H283.396V55.5H290.536V56.97H285.106V60.12H290.041V61.575H285.106V66ZM296.684 58.2C296.879 58.2 297.014 58.2 297.239 58.215V59.865C296.999 59.835 296.879 59.835 296.669 59.835C295.484 59.835 294.254 60.54 294.254 62.7V66H292.559V62.43C292.559 61.065 292.559 59.715 292.484 58.35H294.089L294.299 59.88H294.404C294.839 58.77 295.649 58.2 296.684 58.2Z" fill="black" fill-opacity="0.2"/>
<path d="M349.992 66.15C348.042 66.15 346.347 65.325 345.777 63.585L347.352 63.12C347.802 64.29 348.912 64.77 349.992 64.77C351.387 64.77 352.092 64.125 352.092 63.24C352.092 60.795 346.002 62.265 346.002 58.14C346.002 56.505 347.397 55.35 349.692 55.35C351.567 55.35 353.037 56.13 353.577 57.765L351.987 58.23C351.597 57.165 350.682 56.73 349.707 56.73C348.432 56.73 347.712 57.345 347.712 58.14C347.712 60.57 353.817 59.085 353.817 63.255C353.817 64.995 352.377 66.15 349.992 66.15ZM362.307 60.915V61.95C362.307 63.3 362.307 64.635 362.382 66H360.912L360.762 64.665H360.642C360.162 65.625 359.307 66.15 358.092 66.15C356.592 66.15 355.602 65.25 355.602 63.885C355.602 62.43 356.652 61.545 358.782 61.425L360.672 61.32V60.975C360.672 59.97 359.922 59.52 359.022 59.52C358.062 59.52 357.432 59.985 357.162 60.855L355.692 60.42C356.007 58.98 357.312 58.2 359.022 58.2C361.107 58.2 362.307 59.205 362.307 60.915ZM358.512 64.815C359.697 64.815 360.627 63.84 360.672 62.475L359.127 62.58C357.927 62.655 357.237 62.97 357.237 63.78C357.237 64.41 357.717 64.815 358.512 64.815Z" fill="#EFEEFF"/>
<path d="M349.992 66.15C348.042 66.15 346.347 65.325 345.777 63.585L347.352 63.12C347.802 64.29 348.912 64.77 349.992 64.77C351.387 64.77 352.092 64.125 352.092 63.24C352.092 60.795 346.002 62.265 346.002 58.14C346.002 56.505 347.397 55.35 349.692 55.35C351.567 55.35 353.037 56.13 353.577 57.765L351.987 58.23C351.597 57.165 350.682 56.73 349.707 56.73C348.432 56.73 347.712 57.345 347.712 58.14C347.712 60.57 353.817 59.085 353.817 63.255C353.817 64.995 352.377 66.15 349.992 66.15ZM362.307 60.915V61.95C362.307 63.3 362.307 64.635 362.382 66H360.912L360.762 64.665H360.642C360.162 65.625 359.307 66.15 358.092 66.15C356.592 66.15 355.602 65.25 355.602 63.885C355.602 62.43 356.652 61.545 358.782 61.425L360.672 61.32V60.975C360.672 59.97 359.922 59.52 359.022 59.52C358.062 59.52 357.432 59.985 357.162 60.855L355.692 60.42C356.007 58.98 357.312 58.2 359.022 58.2C361.107 58.2 362.307 59.205 362.307 60.915ZM358.512 64.815C359.697 64.815 360.627 63.84 360.672 62.475L359.127 62.58C357.927 62.655 357.237 62.97 357.237 63.78C357.237 64.41 357.717 64.815 358.512 64.815Z" fill="black" fill-opacity="0.2"/>
<path d="M349.992 66.15C348.042 66.15 346.347 65.325 345.777 63.585L347.352 63.12C347.802 64.29 348.912 64.77 349.992 64.77C351.387 64.77 352.092 64.125 352.092 63.24C352.092 60.795 346.002 62.265 346.002 58.14C346.002 56.505 347.397 55.35 349.692 55.35C351.567 55.35 353.037 56.13 353.577 57.765L351.987 58.23C351.597 57.165 350.682 56.73 349.707 56.73C348.432 56.73 347.712 57.345 347.712 58.14C347.712 60.57 353.817 59.085 353.817 63.255C353.817 64.995 352.377 66.15 349.992 66.15ZM362.307 60.915V61.95C362.307 63.3 362.307 64.635 362.382 66H360.912L360.762 64.665H360.642C360.162 65.625 359.307 66.15 358.092 66.15C356.592 66.15 355.602 65.25 355.602 63.885C355.602 62.43 356.652 61.545 358.782 61.425L360.672 61.32V60.975C360.672 59.97 359.922 59.52 359.022 59.52C358.062 59.52 357.432 59.985 357.162 60.855L355.692 60.42C356.007 58.98 357.312 58.2 359.022 58.2C361.107 58.2 362.307 59.205 362.307 60.915ZM358.512 64.815C359.697 64.815 360.627 63.84 360.672 62.475L359.127 62.58C357.927 62.655 357.237 62.97 357.237 63.78C357.237 64.41 357.717 64.815 358.512 64.815Z" fill="black" fill-opacity="0.2"/>
<path d="M414.277 66.15C412.327 66.15 410.632 65.325 410.062 63.585L411.637 63.12C412.087 64.29 413.197 64.77 414.277 64.77C415.672 64.77 416.377 64.125 416.377 63.24C416.377 60.795 410.287 62.265 410.287 58.14C410.287 56.505 411.682 55.35 413.977 55.35C415.852 55.35 417.322 56.13 417.862 57.765L416.272 58.23C415.882 57.165 414.967 56.73 413.992 56.73C412.717 56.73 411.997 57.345 411.997 58.14C411.997 60.57 418.102 59.085 418.102 63.255C418.102 64.995 416.662 66.15 414.277 66.15ZM422.887 66.15C421.162 66.15 420.112 65.1 420.112 62.91V58.35H421.807V62.67C421.807 64.005 422.422 64.665 423.487 64.665C424.732 64.665 425.542 63.69 425.542 62.43V58.35H427.252V61.92C427.252 63.285 427.252 64.635 427.327 66H425.707L425.557 64.74H425.437C424.867 65.655 423.952 66.15 422.887 66.15Z" fill="#EFEEFF"/>
<path d="M414.277 66.15C412.327 66.15 410.632 65.325 410.062 63.585L411.637 63.12C412.087 64.29 413.197 64.77 414.277 64.77C415.672 64.77 416.377 64.125 416.377 63.24C416.377 60.795 410.287 62.265 410.287 58.14C410.287 56.505 411.682 55.35 413.977 55.35C415.852 55.35 417.322 56.13 417.862 57.765L416.272 58.23C415.882 57.165 414.967 56.73 413.992 56.73C412.717 56.73 411.997 57.345 411.997 58.14C411.997 60.57 418.102 59.085 418.102 63.255C418.102 64.995 416.662 66.15 414.277 66.15ZM422.887 66.15C421.162 66.15 420.112 65.1 420.112 62.91V58.35H421.807V62.67C421.807 64.005 422.422 64.665 423.487 64.665C424.732 64.665 425.542 63.69 425.542 62.43V58.35H427.252V61.92C427.252 63.285 427.252 64.635 427.327 66H425.707L425.557 64.74H425.437C424.867 65.655 423.952 66.15 422.887 66.15Z" fill="black" fill-opacity="0.2"/>
<path d="M414.277 66.15C412.327 66.15 410.632 65.325 410.062 63.585L411.637 63.12C412.087 64.29 413.197 64.77 414.277 64.77C415.672 64.77 416.377 64.125 416.377 63.24C416.377 60.795 410.287 62.265 410.287 58.14C410.287 56.505 411.682 55.35 413.977 55.35C415.852 55.35 417.322 56.13 417.862 57.765L416.272 58.23C415.882 57.165 414.967 56.73 413.992 56.73C412.717 56.73 411.997 57.345 411.997 58.14C411.997 60.57 418.102 59.085 418.102 63.255C418.102 64.995 416.662 66.15 414.277 66.15ZM422.887 66.15C421.162 66.15 420.112 65.1 420.112 62.91V58.35H421.807V62.67C421.807 64.005 422.422 64.665 423.487 64.665C424.732 64.665 425.542 63.69 425.542 62.43V58.35H427.252V61.92C427.252 63.285 427.252 64.635 427.327 66H425.707L425.557 64.74H425.437C424.867 65.655 423.952 66.15 422.887 66.15Z" fill="black" fill-opacity="0.2"/>
<path d="M32.2281 121H24.8781V119.59L27.9681 116.89C29.5431 115.495 30.4431 114.685 30.4431 113.47C30.4431 112.405 29.5731 111.79 28.5081 111.79C27.4731 111.79 26.6031 112.375 26.1981 113.455L24.6231 112.99C25.1181 111.31 26.6181 110.35 28.5081 110.35C30.6081 110.35 32.1531 111.505 32.1531 113.47C32.1531 115.105 31.1031 116.2 29.0781 117.925L27.4581 119.335V119.425H32.2281V121ZM36.8904 121H34.9404L39.1404 112.195V112.105H33.9504V110.5H41.1504V112.015L36.8904 121Z" fill="#9CA3AF"/>
<path d="M96.0137 121H88.6637V119.59L91.7537 116.89C93.3287 115.495 94.2287 114.685 94.2287 113.47C94.2287 112.405 93.3587 111.79 92.2937 111.79C91.2587 111.79 90.3887 112.375 89.9837 113.455L88.4087 112.99C88.9037 111.31 90.4037 110.35 92.2937 110.35C94.3937 110.35 95.9387 111.505 95.9387 113.47C95.9387 115.105 94.8887 116.2 92.8637 117.925L91.2437 119.335V119.425H96.0137V121ZM101.771 121.15C99.551 121.15 97.886 119.935 97.886 118.09C97.886 116.935 98.591 115.945 99.686 115.51C98.786 115.045 98.186 114.235 98.186 113.215C98.186 111.505 99.641 110.35 101.771 110.35C103.901 110.35 105.356 111.505 105.356 113.215C105.356 114.235 104.756 115.045 103.841 115.51C104.936 115.945 105.656 116.935 105.656 118.09C105.656 119.935 103.976 121.15 101.771 121.15ZM101.771 114.88C102.836 114.88 103.646 114.28 103.646 113.35C103.646 112.39 102.836 111.805 101.771 111.805C100.691 111.805 99.896 112.39 99.896 113.35C99.896 114.28 100.691 114.88 101.771 114.88ZM101.771 119.695C103.031 119.695 103.931 119.05 103.931 117.955C103.931 116.875 103.031 116.215 101.771 116.215C100.511 116.215 99.596 116.875 99.596 117.955C99.596 119.05 100.511 119.695 101.771 119.695Z" fill="#9CA3AF"/>
<path d="M129.571 99C129.571 94.5817 133.153 91 137.571 91H185.857C190.275 91 193.857 94.5817 193.857 99V133C193.857 137.418 190.275 141 185.857 141H137.571C133.153 141 129.571 137.418 129.571 133V99Z" fill="#407CEE"/>
<path d="M163.289 121H161.579V112.525H161.474L159.209 113.845V112.045L161.999 110.5H163.289V121Z" fill="white"/>
<path d="M229.585 121H222.235V119.59L225.325 116.89C226.9 115.495 227.8 114.685 227.8 113.47C227.8 112.405 226.93 111.79 225.865 111.79C224.83 111.79 223.96 112.375 223.555 113.455L221.98 112.99C222.475 111.31 223.975 110.35 225.865 110.35C227.965 110.35 229.51 111.505 229.51 113.47C229.51 115.105 228.46 116.2 226.435 117.925L224.815 119.335V119.425H229.585V121Z" fill="#111827"/>
<path d="M293.571 111.91L290.781 114.7C292.731 114.805 293.991 116.05 293.991 117.895C293.991 119.86 292.551 121.15 290.226 121.15C288.216 121.15 286.686 120.19 286.206 118.585L287.826 118.105C288.171 119.11 289.071 119.695 290.211 119.695C291.471 119.695 292.266 118.975 292.266 117.85C292.266 116.695 291.456 116.005 290.121 116.005H288.546V114.925L291.336 112.09V112H286.581V110.5H293.571V111.91Z" fill="#111827"/>
<path d="M356.892 121H355.167V118.945H350.067V117.25L355.002 110.5H356.892V117.4H358.332V118.945H356.892V121ZM355.167 112.72L351.762 117.4H355.167V112.72Z" fill="#111827"/>
<path d="M418.477 121.15C416.512 121.15 414.922 120.265 414.427 118.675L416.062 118.21C416.452 119.185 417.412 119.665 418.492 119.665C419.797 119.665 420.697 118.84 420.697 117.625C420.697 116.38 419.797 115.585 418.552 115.585C417.682 115.585 416.977 115.87 416.317 116.455L414.862 116.2L415.237 110.5H421.492V112H416.722L416.527 114.79H416.632C417.292 114.355 418.027 114.16 418.807 114.16C420.922 114.16 422.407 115.495 422.407 117.625C422.407 119.71 420.877 121.15 418.477 121.15Z" fill="#111827"/>
<path d="M33.3081 163.935C35.4981 163.935 37.1481 165.36 37.1481 167.49C37.1481 169.65 35.4831 171.15 33.1281 171.15C30.8031 171.15 29.1381 169.65 29.1381 167.49C29.1381 166.35 29.5431 165.54 30.3531 164.415L33.1731 160.5H35.2581V160.62L32.7381 163.965C32.9181 163.95 33.1131 163.935 33.3081 163.935ZM33.1281 169.665C34.4481 169.665 35.4231 168.78 35.4231 167.49C35.4231 166.2 34.4481 165.315 33.1281 165.315C31.8081 165.315 30.8481 166.215 30.8481 167.49C30.8481 168.78 31.7931 169.665 33.1281 169.665Z" fill="#1F2937"/>
<path d="M96.3637 171H94.4137L98.6137 162.195V162.105H93.4237V160.5H100.624V162.015L96.3637 171Z" fill="#1F2937"/>
<path d="M161.244 171.15C159.024 171.15 157.359 169.935 157.359 168.09C157.359 166.935 158.064 165.945 159.159 165.51C158.259 165.045 157.659 164.235 157.659 163.215C157.659 161.505 159.114 160.35 161.244 160.35C163.374 160.35 164.829 161.505 164.829 163.215C164.829 164.235 164.229 165.045 163.314 165.51C164.409 165.945 165.129 166.935 165.129 168.09C165.129 169.935 163.449 171.15 161.244 171.15ZM161.244 164.88C162.309 164.88 163.119 164.28 163.119 163.35C163.119 162.39 162.309 161.805 161.244 161.805C160.164 161.805 159.369 162.39 159.369 163.35C159.369 164.28 160.164 164.88 161.244 164.88ZM161.244 169.695C162.504 169.695 163.404 169.05 163.404 167.955C163.404 166.875 162.504 166.215 161.244 166.215C159.984 166.215 159.069 166.875 159.069 167.955C159.069 169.05 159.984 169.695 161.244 169.695Z" fill="#1F2937"/>
<path d="M226 160.35C228.325 160.35 230.005 161.85 230.005 164.01C230.005 165.15 229.585 165.96 228.775 167.085L225.97 171H223.885V170.88L226.405 167.535C226.225 167.55 226.015 167.565 225.82 167.565C223.645 167.565 221.995 166.14 221.995 164.01C221.995 161.85 223.66 160.35 226 160.35ZM226 166.185C227.335 166.185 228.28 165.285 228.28 164.01C228.28 162.72 227.335 161.835 226 161.835C224.68 161.835 223.705 162.72 223.705 164.01C223.705 165.3 224.68 166.185 226 166.185Z" fill="#1F2937"/>
<path d="M286.361 171H284.651V162.525H284.546L282.281 163.845V162.045L285.071 160.5H286.361V171ZM293.138 171.15C290.468 171.15 288.698 168.975 288.698 165.75C288.698 162.525 290.468 160.35 293.138 160.35C295.808 160.35 297.578 162.51 297.578 165.75C297.578 168.99 295.808 171.15 293.138 171.15ZM293.138 169.605C294.803 169.605 295.868 168.195 295.868 165.75C295.868 163.305 294.803 161.895 293.138 161.895C291.488 161.895 290.408 163.305 290.408 165.75C290.408 168.195 291.488 169.605 293.138 169.605Z" fill="#1F2937"/>
<path d="M353.147 171H351.437V162.525H351.332L349.067 163.845V162.045L351.857 160.5H353.147V171ZM359.354 171H357.644V162.525H357.539L355.274 163.845V162.045L358.064 160.5H359.354V171Z" fill="#1F2937"/>
<path d="M415.932 171H414.222V162.525H414.117L411.852 163.845V162.045L414.642 160.5H415.932V171ZM425.649 171H418.299V169.59L421.389 166.89C422.964 165.495 423.864 164.685 423.864 163.47C423.864 162.405 422.994 161.79 421.929 161.79C420.894 161.79 420.024 162.375 419.619 163.455L418.044 162.99C418.539 161.31 420.039 160.35 421.929 160.35C424.029 160.35 425.574 161.505 425.574 163.47C425.574 165.105 424.524 166.2 422.499 167.925L420.879 169.335V169.425H425.649V171Z" fill="#1F2937"/>
<path d="M29.7181 221H28.0081V212.525H27.9031L25.6381 213.845V212.045L28.4281 210.5H29.7181V221ZM39.1349 211.91L36.3449 214.7C38.2949 214.805 39.5549 216.05 39.5549 217.895C39.5549 219.86 38.1149 221.15 35.7899 221.15C33.7799 221.15 32.2499 220.19 31.7699 218.585L33.3899 218.105C33.7349 219.11 34.6349 219.695 35.7749 219.695C37.0349 219.695 37.8299 218.975 37.8299 217.85C37.8299 216.695 37.0199 216.005 35.6849 216.005H34.1099V214.925L36.8999 212.09V212H32.1449V210.5H39.1349V211.91Z" fill="#1F2937"/>
<path d="M94.0037 221H92.2937V212.525H92.1887L89.9237 213.845V212.045L92.7137 210.5H94.0037V221ZM102.956 221H101.231V218.945H96.1305V217.25L101.066 210.5H102.956V217.4H104.396V218.945H102.956V221ZM101.231 212.72L97.8255 217.4H101.231V212.72Z" fill="#1F2937"/>
<path d="M158.289 221H156.579V212.525H156.474L154.209 213.845V212.045L156.999 210.5H158.289V221ZM164.541 221.15C162.576 221.15 160.986 220.265 160.491 218.675L162.126 218.21C162.516 219.185 163.476 219.665 164.556 219.665C165.861 219.665 166.761 218.84 166.761 217.625C166.761 216.38 165.861 215.585 164.616 215.585C163.746 215.585 163.041 215.87 162.381 216.455L160.926 216.2L161.301 210.5H167.556V212H162.786L162.591 214.79H162.696C163.356 214.355 164.091 214.16 164.871 214.16C166.986 214.16 168.471 215.495 168.471 217.625C168.471 219.71 166.941 221.15 164.541 221.15Z" fill="#1F2937"/>
<path d="M222.575 221H220.865V212.525H220.76L218.495 213.845V212.045L221.285 210.5H222.575V221ZM228.901 213.935C231.091 213.935 232.741 215.36 232.741 217.49C232.741 219.65 231.076 221.15 228.721 221.15C226.396 221.15 224.731 219.65 224.731 217.49C224.731 216.35 225.136 215.54 225.946 214.415L228.766 210.5H230.851V210.62L228.331 213.965C228.511 213.95 228.706 213.935 228.901 213.935ZM228.721 219.665C230.041 219.665 231.016 218.78 231.016 217.49C231.016 216.2 230.041 215.315 228.721 215.315C227.401 215.315 226.441 216.215 226.441 217.49C226.441 218.78 227.386 219.665 228.721 219.665Z" fill="#1F2937"/>
<path d="M287.361 221H285.651V212.525H285.546L283.281 213.845V212.045L286.071 210.5H287.361V221ZM292.428 221H290.478L294.678 212.195V212.105H289.488V210.5H296.688V212.015L292.428 221Z" fill="#1F2937"/>
<path d="M351.147 221H349.437V212.525H349.332L347.067 213.845V212.045L349.857 210.5H351.147V221ZM357.338 221.15C355.118 221.15 353.453 219.935 353.453 218.09C353.453 216.935 354.158 215.945 355.253 215.51C354.353 215.045 353.753 214.235 353.753 213.215C353.753 211.505 355.208 210.35 357.338 210.35C359.468 210.35 360.923 211.505 360.923 213.215C360.923 214.235 360.323 215.045 359.408 215.51C360.503 215.945 361.223 216.935 361.223 218.09C361.223 219.935 359.543 221.15 357.338 221.15ZM357.338 214.88C358.403 214.88 359.213 214.28 359.213 213.35C359.213 212.39 358.403 211.805 357.338 211.805C356.258 211.805 355.463 212.39 355.463 213.35C355.463 214.28 356.258 214.88 357.338 214.88ZM357.338 219.695C358.598 219.695 359.498 219.05 359.498 217.955C359.498 216.875 358.598 216.215 357.338 216.215C356.078 216.215 355.163 216.875 355.163 217.955C355.163 219.05 356.078 219.695 357.338 219.695Z" fill="#1F2937"/>
<path d="M415.432 221H413.722V212.525H413.617L411.352 213.845V212.045L414.142 210.5H415.432V221ZM421.594 210.35C423.919 210.35 425.599 211.85 425.599 214.01C425.599 215.15 425.179 215.96 424.369 217.085L421.564 221H419.479V220.88L421.999 217.535C421.819 217.55 421.609 217.565 421.414 217.565C419.239 217.565 417.589 216.14 417.589 214.01C417.589 211.85 419.254 210.35 421.594 210.35ZM421.594 216.185C422.929 216.185 423.874 215.285 423.874 214.01C423.874 212.72 422.929 211.835 421.594 211.835C420.274 211.835 419.299 212.72 419.299 214.01C419.299 215.3 420.274 216.185 421.594 216.185Z" fill="#1F2937"/>
<path d="M31.2281 271H23.8781V269.59L26.9681 266.89C28.5431 265.495 29.4431 264.685 29.4431 263.47C29.4431 262.405 28.5731 261.79 27.5081 261.79C26.4731 261.79 25.6031 262.375 25.1981 263.455L23.6231 262.99C24.1181 261.31 25.6181 260.35 27.5081 260.35C29.6081 260.35 31.1531 261.505 31.1531 263.47C31.1531 265.105 30.1031 266.2 28.0781 267.925L26.4581 269.335V269.425H31.2281V271ZM37.5271 271.15C34.8571 271.15 33.0871 268.975 33.0871 265.75C33.0871 262.525 34.8571 260.35 37.5271 260.35C40.1971 260.35 41.9671 262.51 41.9671 265.75C41.9671 268.99 40.1971 271.15 37.5271 271.15ZM37.5271 269.605C39.1921 269.605 40.2571 268.195 40.2571 265.75C40.2571 263.305 39.1921 261.895 37.5271 261.895C35.8771 261.895 34.7971 263.305 34.7971 265.75C34.7971 268.195 35.8771 269.605 37.5271 269.605Z" fill="#1F2937"/>
<path d="M97.5137 271H90.1637V269.59L93.2537 266.89C94.8287 265.495 95.7287 264.685 95.7287 263.47C95.7287 262.405 94.8587 261.79 93.7937 261.79C92.7587 261.79 91.8887 262.375 91.4837 263.455L89.9087 262.99C90.4037 261.31 91.9037 260.35 93.7937 260.35C95.8937 260.35 97.4387 261.505 97.4387 263.47C97.4387 265.105 96.3887 266.2 94.3637 267.925L92.7437 269.335V269.425H97.5137V271ZM103.316 271H101.606V262.525H101.501L99.236 263.845V262.045L102.026 260.5H103.316V271Z" fill="#1F2937"/>
<path d="M160.299 271H152.949V269.59L156.039 266.89C157.614 265.495 158.514 264.685 158.514 263.47C158.514 262.405 157.644 261.79 156.579 261.79C155.544 261.79 154.674 262.375 154.269 263.455L152.694 262.99C153.189 261.31 154.689 260.35 156.579 260.35C158.679 260.35 160.224 261.505 160.224 263.47C160.224 265.105 159.174 266.2 157.149 267.925L155.529 269.335V269.425H160.299V271ZM169.582 271H162.232V269.59L165.322 266.89C166.897 265.495 167.797 264.685 167.797 263.47C167.797 262.405 166.927 261.79 165.862 261.79C164.827 261.79 163.957 262.375 163.552 263.455L161.977 262.99C162.472 261.31 163.972 260.35 165.862 260.35C167.962 260.35 169.507 261.505 169.507 263.47C169.507 265.105 168.457 266.2 166.432 267.925L164.812 269.335V269.425H169.582V271Z" fill="#1F2937"/>
<path d="M224.585 271H217.235V269.59L220.325 266.89C221.9 265.495 222.8 264.685 222.8 263.47C222.8 262.405 221.93 261.79 220.865 261.79C219.83 261.79 218.96 262.375 218.555 263.455L216.98 262.99C217.475 261.31 218.975 260.35 220.865 260.35C222.965 260.35 224.51 261.505 224.51 263.47C224.51 265.105 223.46 266.2 221.435 267.925L219.815 269.335V269.425H224.585V271ZM233.509 261.91L230.719 264.7C232.669 264.805 233.929 266.05 233.929 267.895C233.929 269.86 232.489 271.15 230.164 271.15C228.154 271.15 226.624 270.19 226.144 268.585L227.764 268.105C228.109 269.11 229.009 269.695 230.149 269.695C231.409 269.695 232.204 268.975 232.204 267.85C232.204 266.695 231.394 266.005 230.059 266.005H228.484V264.925L231.274 262.09V262H226.519V260.5H233.509V261.91Z" fill="#1F2937"/>
<path d="M288.871 271H281.521V269.59L284.611 266.89C286.186 265.495 287.086 264.685 287.086 263.47C287.086 262.405 286.216 261.79 285.151 261.79C284.116 261.79 283.246 262.375 282.841 263.455L281.266 262.99C281.761 261.31 283.261 260.35 285.151 260.35C287.251 260.35 288.796 261.505 288.796 263.47C288.796 265.105 287.746 266.2 285.721 267.925L284.101 269.335V269.425H288.871V271ZM297.199 271H295.474V268.945H290.374V267.25L295.309 260.5H297.199V267.4H298.639V268.945H297.199V271ZM295.474 262.72L292.069 267.4H295.474V262.72Z" fill="#1F2937"/>
<path d="M353.157 271H345.807V269.59L348.897 266.89C350.472 265.495 351.372 264.685 351.372 263.47C351.372 262.405 350.502 261.79 349.437 261.79C348.402 261.79 347.532 262.375 347.127 263.455L345.552 262.99C346.047 261.31 347.547 260.35 349.437 260.35C351.537 260.35 353.082 261.505 353.082 263.47C353.082 265.105 352.032 266.2 350.007 267.925L348.387 269.335V269.425H353.157V271ZM359.004 271.15C357.039 271.15 355.449 270.265 354.954 268.675L356.589 268.21C356.979 269.185 357.939 269.665 359.019 269.665C360.324 269.665 361.224 268.84 361.224 267.625C361.224 266.38 360.324 265.585 359.079 265.585C358.209 265.585 357.504 265.87 356.844 266.455L355.389 266.2L355.764 260.5H362.019V262H357.249L357.054 264.79H357.159C357.819 264.355 358.554 264.16 359.334 264.16C361.449 264.16 362.934 265.495 362.934 267.625C362.934 269.71 361.404 271.15 359.004 271.15Z" fill="#1F2937"/>
<path d="M417.442 271H410.092V269.59L413.182 266.89C414.757 265.495 415.657 264.685 415.657 263.47C415.657 262.405 414.787 261.79 413.722 261.79C412.687 261.79 411.817 262.375 411.412 263.455L409.837 262.99C410.332 261.31 411.832 260.35 413.722 260.35C415.822 260.35 417.367 261.505 417.367 263.47C417.367 265.105 416.317 266.2 414.292 267.925L412.672 269.335V269.425H417.442V271ZM423.291 263.935C425.481 263.935 427.131 265.36 427.131 267.49C427.131 269.65 425.466 271.15 423.111 271.15C420.786 271.15 419.121 269.65 419.121 267.49C419.121 266.35 419.526 265.54 420.336 264.415L423.156 260.5H425.241V260.62L422.721 263.965C422.901 263.95 423.096 263.935 423.291 263.935ZM423.111 269.665C424.431 269.665 425.406 268.78 425.406 267.49C425.406 266.2 424.431 265.315 423.111 265.315C421.791 265.315 420.831 266.215 420.831 267.49C420.831 268.78 421.776 269.665 423.111 269.665Z" fill="#1F2937"/>
<path d="M32.2281 321H24.8781V319.59L27.9681 316.89C29.5431 315.495 30.4431 314.685 30.4431 313.47C30.4431 312.405 29.5731 311.79 28.5081 311.79C27.4731 311.79 26.6031 312.375 26.1981 313.455L24.6231 312.99C25.1181 311.31 26.6181 310.35 28.5081 310.35C30.6081 310.35 32.1531 311.505 32.1531 313.47C32.1531 315.105 31.1031 316.2 29.0781 317.925L27.4581 319.335V319.425H32.2281V321ZM36.8904 321H34.9404L39.1404 312.195V312.105H33.9504V310.5H41.1504V312.015L36.8904 321Z" fill="#1F2937"/>
<path d="M96.0137 321H88.6637V319.59L91.7537 316.89C93.3287 315.495 94.2287 314.685 94.2287 313.47C94.2287 312.405 93.3587 311.79 92.2937 311.79C91.2587 311.79 90.3887 312.375 89.9837 313.455L88.4087 312.99C88.9037 311.31 90.4037 310.35 92.2937 310.35C94.3937 310.35 95.9387 311.505 95.9387 313.47C95.9387 315.105 94.8887 316.2 92.8637 317.925L91.2437 319.335V319.425H96.0137V321ZM101.771 321.15C99.551 321.15 97.886 319.935 97.886 318.09C97.886 316.935 98.591 315.945 99.686 315.51C98.786 315.045 98.186 314.235 98.186 313.215C98.186 311.505 99.641 310.35 101.771 310.35C103.901 310.35 105.356 311.505 105.356 313.215C105.356 314.235 104.756 315.045 103.841 315.51C104.936 315.945 105.656 316.935 105.656 318.09C105.656 319.935 103.976 321.15 101.771 321.15ZM101.771 314.88C102.836 314.88 103.646 314.28 103.646 313.35C103.646 312.39 102.836 311.805 101.771 311.805C100.691 311.805 99.896 312.39 99.896 313.35C99.896 314.28 100.691 314.88 101.771 314.88ZM101.771 319.695C103.031 319.695 103.931 319.05 103.931 317.955C103.931 316.875 103.031 316.215 101.771 316.215C100.511 316.215 99.596 316.875 99.596 317.955C99.596 319.05 100.511 319.695 101.771 319.695Z" fill="#1F2937"/>
<path d="M160.299 321H152.949V319.59L156.039 316.89C157.614 315.495 158.514 314.685 158.514 313.47C158.514 312.405 157.644 311.79 156.579 311.79C155.544 311.79 154.674 312.375 154.269 313.455L152.694 312.99C153.189 311.31 154.689 310.35 156.579 310.35C158.679 310.35 160.224 311.505 160.224 313.47C160.224 315.105 159.174 316.2 157.149 317.925L155.529 319.335V319.425H160.299V321ZM166.027 310.35C168.352 310.35 170.032 311.85 170.032 314.01C170.032 315.15 169.612 315.96 168.802 317.085L165.997 321H163.912V320.88L166.432 317.535C166.252 317.55 166.042 317.565 165.847 317.565C163.672 317.565 162.022 316.14 162.022 314.01C162.022 311.85 163.687 310.35 166.027 310.35ZM166.027 316.185C167.362 316.185 168.307 315.285 168.307 314.01C168.307 312.72 167.362 311.835 166.027 311.835C164.707 311.835 163.732 312.72 163.732 314.01C163.732 315.3 164.707 316.185 166.027 316.185Z" fill="#1F2937"/>
<path d="M223.785 311.91L220.995 314.7C222.945 314.805 224.205 316.05 224.205 317.895C224.205 319.86 222.765 321.15 220.44 321.15C218.43 321.15 216.9 320.19 216.42 318.585L218.04 318.105C218.385 319.11 219.285 319.695 220.425 319.695C221.685 319.695 222.48 318.975 222.48 317.85C222.48 316.695 221.67 316.005 220.335 316.005H218.76V314.925L221.55 312.09V312H216.795V310.5H223.785V311.91ZM230.428 321.15C227.758 321.15 225.988 318.975 225.988 315.75C225.988 312.525 227.758 310.35 230.428 310.35C233.098 310.35 234.868 312.51 234.868 315.75C234.868 318.99 233.098 321.15 230.428 321.15ZM230.428 319.605C232.093 319.605 233.158 318.195 233.158 315.75C233.158 313.305 232.093 311.895 230.428 311.895C228.778 311.895 227.698 313.305 227.698 315.75C227.698 318.195 228.778 319.605 230.428 319.605Z" fill="#1F2937"/>
<path d="M290.071 311.91L287.281 314.7C289.231 314.805 290.491 316.05 290.491 317.895C290.491 319.86 289.051 321.15 286.726 321.15C284.716 321.15 283.186 320.19 282.706 318.585L284.326 318.105C284.671 319.11 285.571 319.695 286.711 319.695C287.971 319.695 288.766 318.975 288.766 317.85C288.766 316.695 287.956 316.005 286.621 316.005H285.046V314.925L287.836 312.09V312H283.081V310.5H290.071V311.91ZM296.144 321H294.434V312.525H294.329L292.064 313.845V312.045L294.854 310.5H296.144V321Z" fill="#1F2937"/>
<path d="M356.147 321H354.437V312.525H354.332L352.067 313.845V312.045L354.857 310.5H356.147V321Z" fill="#EFEEFF"/>
<path d="M356.147 321H354.437V312.525H354.332L352.067 313.845V312.045L354.857 310.5H356.147V321Z" fill="black" fill-opacity="0.2"/>
<path d="M356.147 321H354.437V312.525H354.332L352.067 313.845V312.045L354.857 310.5H356.147V321Z" fill="black" fill-opacity="0.2"/>
<path d="M422.442 321H415.092V319.59L418.182 316.89C419.757 315.495 420.657 314.685 420.657 313.47C420.657 312.405 419.787 311.79 418.722 311.79C417.687 311.79 416.817 312.375 416.412 313.455L414.837 312.99C415.332 311.31 416.832 310.35 418.722 310.35C420.822 310.35 422.367 311.505 422.367 313.47C422.367 315.105 421.317 316.2 419.292 317.925L417.672 319.335V319.425H422.442V321Z" fill="#EFEEFF"/>
<path d="M422.442 321H415.092V319.59L418.182 316.89C419.757 315.495 420.657 314.685 420.657 313.47C420.657 312.405 419.787 311.79 418.722 311.79C417.687 311.79 416.817 312.375 416.412 313.455L414.837 312.99C415.332 311.31 416.832 310.35 418.722 310.35C420.822 310.35 422.367 311.505 422.367 313.47C422.367 315.105 421.317 316.2 419.292 317.925L417.672 319.335V319.425H422.442V321Z" fill="black" fill-opacity="0.2"/>
<path d="M422.442 321H415.092V319.59L418.182 316.89C419.757 315.495 420.657 314.685 420.657 313.47C420.657 312.405 419.787 311.79 418.722 311.79C417.687 311.79 416.817 312.375 416.412 313.455L414.837 312.99C415.332 311.31 416.832 310.35 418.722 310.35C420.822 310.35 422.367 311.505 422.367 313.47C422.367 315.105 421.317 316.2 419.292 317.925L417.672 319.335V319.425H422.442V321Z" fill="black" fill-opacity="0.2"/>
<g filter="url(#filter0_d_3549_2119)">
<path d="M326 246C326 237.163 333.163 230 342 230H516C524.837 230 532 237.163 532 246V417C532 425.837 524.837 433 516 433H342C333.163 433 326 425.837 326 417V246Z" fill="white" shape-rendering="crispEdges"/>
<path d="M389.748 261.16C387.668 261.16 385.86 260.28 385.252 258.424L386.932 257.928C387.412 259.176 388.596 259.688 389.748 259.688C391.236 259.688 391.988 259 391.988 258.056C391.988 255.448 385.492 257.016 385.492 252.616C385.492 250.872 386.98 249.64 389.428 249.64C391.428 249.64 392.996 250.472 393.572 252.216L391.876 252.712C391.46 251.576 390.484 251.112 389.444 251.112C388.084 251.112 387.316 251.768 387.316 252.616C387.316 255.208 393.828 253.624 393.828 258.072C393.828 259.928 392.292 261.16 389.748 261.16ZM402.916 256.696C402.916 256.952 402.9 257.256 402.868 257.48H396.964C397.124 258.936 397.956 259.768 399.204 259.768C400.068 259.768 400.692 259.4 401.108 258.504L402.724 258.984C402.132 260.424 400.932 261.16 399.188 261.16C396.644 261.16 395.172 259.304 395.172 256.92C395.172 254.536 396.628 252.68 399.172 252.68C401.444 252.68 402.916 254.248 402.916 256.696ZM399.172 254.072C397.988 254.072 397.188 254.856 396.98 256.2H401.204C401.06 254.808 400.276 254.072 399.172 254.072ZM406.458 261H404.65V249.8H406.458V261ZM415.947 256.696C415.947 256.952 415.931 257.256 415.899 257.48H409.995C410.155 258.936 410.987 259.768 412.235 259.768C413.099 259.768 413.723 259.4 414.139 258.504L415.755 258.984C415.163 260.424 413.963 261.16 412.219 261.16C409.675 261.16 408.203 259.304 408.203 256.92C408.203 254.536 409.659 252.68 412.203 252.68C414.475 252.68 415.947 254.248 415.947 256.696ZM412.203 254.072C411.019 254.072 410.219 254.856 410.011 256.2H414.235C414.091 254.808 413.307 254.072 412.203 254.072ZM421.297 261.16C418.753 261.16 417.281 259.304 417.281 256.92C417.281 254.536 418.753 252.68 421.297 252.68C423.025 252.68 424.369 253.512 424.881 255.24L423.153 255.768C422.801 254.696 422.145 254.216 421.281 254.216C419.969 254.216 419.089 255.288 419.089 256.92C419.089 258.552 419.969 259.624 421.281 259.624C422.145 259.624 422.849 259.144 423.233 258.072L424.961 258.6C424.417 260.312 422.993 261.16 421.297 261.16ZM429.98 261.16C428.524 261.16 427.532 260.328 427.532 258.648V254.312H425.948V252.84H427.644L427.996 250.568H429.34V252.84H431.612V254.312H429.34V258.568C429.34 259.336 429.772 259.672 430.332 259.672C430.7 259.672 431.02 259.592 431.388 259.368L431.884 260.616C431.26 261.016 430.684 261.16 429.98 261.16ZM442.042 261H440.202V251.416H436.586V249.8H445.658V251.416H442.042V261ZM448 251.784C447.296 251.784 446.752 251.288 446.752 250.616C446.752 249.928 447.296 249.432 448 249.432C448.688 249.432 449.232 249.928 449.232 250.616C449.232 251.288 448.688 251.784 448 251.784ZM448.896 261H447.088V252.84H448.896V261ZM452.849 261H451.041V257.192C451.041 255.736 451.041 254.296 450.961 252.84H452.673L452.833 254.104H452.945C453.489 253.16 454.417 252.68 455.441 252.68C456.657 252.68 457.457 253.224 457.905 254.28H458.033C458.577 253.224 459.553 252.68 460.721 252.68C462.433 252.68 463.409 253.72 463.409 255.896V261H461.601V256.232C461.601 254.936 461.025 254.264 460.049 254.264C458.913 254.264 458.129 255.176 458.129 256.44V261H456.321V256.232C456.321 254.936 455.745 254.264 454.769 254.264C453.633 254.264 452.849 255.176 452.849 256.44V261ZM472.822 256.696C472.822 256.952 472.806 257.256 472.774 257.48H466.87C467.03 258.936 467.862 259.768 469.11 259.768C469.974 259.768 470.598 259.4 471.014 258.504L472.63 258.984C472.038 260.424 470.838 261.16 469.094 261.16C466.55 261.16 465.078 259.304 465.078 256.92C465.078 254.536 466.534 252.68 469.078 252.68C471.35 252.68 472.822 254.248 472.822 256.696ZM469.078 254.072C467.894 254.072 467.094 254.856 466.886 256.2H471.11C470.966 254.808 470.182 254.072 469.078 254.072Z" fill="black"/>
<path d="M351.5 284C351.5 279.858 354.858 276.5 359 276.5H499C503.142 276.5 506.5 279.858 506.5 284V302C506.5 306.142 503.142 309.5 499 309.5H359C354.858 309.5 351.5 306.142 351.5 302V284Z" fill="#E8F0FD"/>
<path d="M351.5 284C351.5 279.858 354.858 276.5 359 276.5H499C503.142 276.5 506.5 279.858 506.5 284V302C506.5 306.142 503.142 309.5 499 309.5H359C354.858 309.5 351.5 306.142 351.5 302V284Z" stroke="#8FB6F5"/>
<path d="M363.802 298.14C361.31 298.14 359.658 296.11 359.658 293.1C359.658 290.09 361.31 288.06 363.802 288.06C366.294 288.06 367.946 290.076 367.946 293.1C367.946 296.124 366.294 298.14 363.802 298.14ZM363.802 296.698C365.356 296.698 366.35 295.382 366.35 293.1C366.35 290.818 365.356 289.502 363.802 289.502C362.262 289.502 361.254 290.818 361.254 293.1C361.254 295.382 362.262 296.698 363.802 296.698ZM372.798 288.06C374.968 288.06 376.536 289.46 376.536 291.476C376.536 292.54 376.144 293.296 375.388 294.346L372.77 298H370.824V297.888L373.176 294.766C373.008 294.78 372.812 294.794 372.63 294.794C370.6 294.794 369.06 293.464 369.06 291.476C369.06 289.46 370.614 288.06 372.798 288.06ZM372.798 293.506C374.044 293.506 374.926 292.666 374.926 291.476C374.926 290.272 374.044 289.446 372.798 289.446C371.566 289.446 370.656 290.272 370.656 291.476C370.656 292.68 371.566 293.506 372.798 293.506ZM378.575 292.764C377.987 292.764 377.511 292.33 377.511 291.742C377.511 291.14 377.987 290.72 378.575 290.72C379.163 290.72 379.625 291.14 379.625 291.742C379.625 292.33 379.163 292.764 378.575 292.764ZM378.575 298.14C377.987 298.14 377.511 297.72 377.511 297.118C377.511 296.53 377.987 296.096 378.575 296.096C379.163 296.096 379.625 296.53 379.625 297.118C379.625 297.72 379.163 298.14 378.575 298.14ZM384.952 298.14C382.46 298.14 380.808 296.11 380.808 293.1C380.808 290.09 382.46 288.06 384.952 288.06C387.444 288.06 389.096 290.076 389.096 293.1C389.096 296.124 387.444 298.14 384.952 298.14ZM384.952 296.698C386.506 296.698 387.5 295.382 387.5 293.1C387.5 290.818 386.506 289.502 384.952 289.502C383.412 289.502 382.404 290.818 382.404 293.1C382.404 295.382 383.412 296.698 384.952 296.698ZM394.55 298.14C392.058 298.14 390.406 296.11 390.406 293.1C390.406 290.09 392.058 288.06 394.55 288.06C397.042 288.06 398.694 290.076 398.694 293.1C398.694 296.124 397.042 298.14 394.55 298.14ZM394.55 296.698C396.104 296.698 397.098 295.382 397.098 293.1C397.098 290.818 396.104 289.502 394.55 289.502C393.01 289.502 392.002 290.818 392.002 293.1C392.002 295.382 393.01 296.698 394.55 296.698ZM412.046 298H410.338L409.638 295.886H405.326L404.612 298H402.974L406.418 288.2H408.574L412.046 298ZM407.44 289.558L405.76 294.584H409.204L407.524 289.558H407.44ZM414.8 298H413.302V288.2H415.682L418.468 296.264L421.268 288.2H423.676V298H422.08V290.076H421.996L419.252 298H417.642L414.884 290.076H414.8V298ZM433.319 294.738H428.629V293.422H433.319V294.738ZM441.446 298H439.85V290.09H439.752L437.638 291.322V289.642L440.242 288.2H441.446V298ZM446.819 298H445.223V290.09H445.125L443.011 291.322V289.642L445.615 288.2H446.819V298ZM449.518 292.764C448.93 292.764 448.454 292.33 448.454 291.742C448.454 291.14 448.93 290.72 449.518 290.72C450.106 290.72 450.568 291.14 450.568 291.742C450.568 292.33 450.106 292.764 449.518 292.764ZM449.518 298.14C448.93 298.14 448.454 297.72 448.454 297.118C448.454 296.53 448.93 296.096 449.518 296.096C450.106 296.096 450.568 296.53 450.568 297.118C450.568 297.72 450.106 298.14 449.518 298.14ZM455.896 298.14C453.404 298.14 451.752 296.11 451.752 293.1C451.752 290.09 453.404 288.06 455.896 288.06C458.388 288.06 460.04 290.076 460.04 293.1C460.04 296.124 458.388 298.14 455.896 298.14ZM455.896 296.698C457.45 296.698 458.444 295.382 458.444 293.1C458.444 290.818 457.45 289.502 455.896 289.502C454.356 289.502 453.348 290.818 453.348 293.1C453.348 295.382 454.356 296.698 455.896 296.698ZM465.493 298.14C463.001 298.14 461.349 296.11 461.349 293.1C461.349 290.09 463.001 288.06 465.493 288.06C467.985 288.06 469.637 290.076 469.637 293.1C469.637 296.124 467.985 298.14 465.493 298.14ZM465.493 296.698C467.047 296.698 468.041 295.382 468.041 293.1C468.041 290.818 467.047 289.502 465.493 289.502C463.953 289.502 462.945 290.818 462.945 293.1C462.945 295.382 463.953 296.698 465.493 296.698ZM482.989 298H481.281L480.581 295.886H476.269L475.555 298H473.917L477.361 288.2H479.517L482.989 298ZM478.383 289.558L476.703 294.584H480.147L478.467 289.558H478.383ZM485.743 298H484.245V288.2H486.625L489.411 296.264L492.211 288.2H494.619V298H493.023V290.076H492.939L490.195 298H488.585L485.827 290.076H485.743V298Z" fill="#2D64D6"/>
<path d="M351.5 338C351.5 333.858 354.858 330.5 359 330.5H499C503.142 330.5 506.5 333.858 506.5 338V356C506.5 360.142 503.142 363.5 499 363.5H359C354.858 363.5 351.5 360.142 351.5 356V338Z" fill="#E8F0FD"/>
<path d="M351.5 338C351.5 333.858 354.858 330.5 359 330.5H499C503.142 330.5 506.5 333.858 506.5 338V356C506.5 360.142 503.142 363.5 499 363.5H359C354.858 363.5 351.5 360.142 351.5 356V338Z" stroke="#8FB6F5"/>
<path d="M363.27 352H361.674V344.09H361.576L359.462 345.322V343.642L362.066 342.2H363.27V352ZM368.643 352H367.047V344.09H366.949L364.835 345.322V343.642L367.439 342.2H368.643V352ZM371.342 346.764C370.754 346.764 370.278 346.33 370.278 345.742C370.278 345.14 370.754 344.72 371.342 344.72C371.93 344.72 372.392 345.14 372.392 345.742C372.392 346.33 371.93 346.764 371.342 346.764ZM371.342 352.14C370.754 352.14 370.278 351.72 370.278 351.118C370.278 350.53 370.754 350.096 371.342 350.096C371.93 350.096 372.392 350.53 372.392 351.118C372.392 351.72 371.93 352.14 371.342 352.14ZM377.72 352.14C375.228 352.14 373.576 350.11 373.576 347.1C373.576 344.09 375.228 342.06 377.72 342.06C380.212 342.06 381.864 344.076 381.864 347.1C381.864 350.124 380.212 352.14 377.72 352.14ZM377.72 350.698C379.274 350.698 380.268 349.382 380.268 347.1C380.268 344.818 379.274 343.502 377.72 343.502C376.18 343.502 375.172 344.818 375.172 347.1C375.172 349.382 376.18 350.698 377.72 350.698ZM387.318 352.14C384.826 352.14 383.174 350.11 383.174 347.1C383.174 344.09 384.826 342.06 387.318 342.06C389.81 342.06 391.462 344.076 391.462 347.1C391.462 350.124 389.81 352.14 387.318 352.14ZM387.318 350.698C388.872 350.698 389.866 349.382 389.866 347.1C389.866 344.818 388.872 343.502 387.318 343.502C385.778 343.502 384.77 344.818 384.77 347.1C384.77 349.382 385.778 350.698 387.318 350.698ZM404.814 352H403.106L402.406 349.886H398.094L397.38 352H395.742L399.186 342.2H401.342L404.814 352ZM400.208 343.558L398.528 348.584H401.972L400.292 343.558H400.208ZM407.567 352H406.069V342.2H408.449L411.235 350.264L414.035 342.2H416.443V352H414.847V344.076H414.763L412.019 352H410.409L407.651 344.076H407.567V352ZM426.087 348.738H421.397V347.422H426.087V348.738ZM434.814 352.14C432.322 352.14 430.67 350.11 430.67 347.1C430.67 344.09 432.322 342.06 434.814 342.06C437.306 342.06 438.958 344.076 438.958 347.1C438.958 350.124 437.306 352.14 434.814 352.14ZM434.814 350.698C436.368 350.698 437.362 349.382 437.362 347.1C437.362 344.818 436.368 343.502 434.814 343.502C433.274 343.502 432.266 344.818 432.266 347.1C432.266 349.382 433.274 350.698 434.814 350.698ZM443.743 352H442.147V344.09H442.049L439.935 345.322V343.642L442.539 342.2H443.743V352ZM446.442 346.764C445.854 346.764 445.378 346.33 445.378 345.742C445.378 345.14 445.854 344.72 446.442 344.72C447.03 344.72 447.492 345.14 447.492 345.742C447.492 346.33 447.03 346.764 446.442 346.764ZM446.442 352.14C445.854 352.14 445.378 351.72 445.378 351.118C445.378 350.53 445.854 350.096 446.442 350.096C447.03 350.096 447.492 350.53 447.492 351.118C447.492 351.72 447.03 352.14 446.442 352.14ZM452.82 352.14C450.328 352.14 448.676 350.11 448.676 347.1C448.676 344.09 450.328 342.06 452.82 342.06C455.312 342.06 456.964 344.076 456.964 347.1C456.964 350.124 455.312 352.14 452.82 352.14ZM452.82 350.698C454.374 350.698 455.368 349.382 455.368 347.1C455.368 344.818 454.374 343.502 452.82 343.502C451.28 343.502 450.272 344.818 450.272 347.1C450.272 349.382 451.28 350.698 452.82 350.698ZM462.417 352.14C459.925 352.14 458.273 350.11 458.273 347.1C458.273 344.09 459.925 342.06 462.417 342.06C464.909 342.06 466.561 344.076 466.561 347.1C466.561 350.124 464.909 352.14 462.417 352.14ZM462.417 350.698C463.971 350.698 464.965 349.382 464.965 347.1C464.965 344.818 463.971 343.502 462.417 343.502C460.877 343.502 459.869 344.818 459.869 347.1C459.869 349.382 460.877 350.698 462.417 350.698ZM473.249 352H471.653V342.2H475.377C477.617 342.2 478.919 343.362 478.919 345.336C478.919 347.296 477.617 348.444 475.377 348.444H473.249V352ZM473.249 343.572V347.086H475.279C476.553 347.086 477.309 346.47 477.309 345.336C477.309 344.202 476.553 343.572 475.279 343.572H473.249ZM481.86 352H480.362V342.2H482.742L485.528 350.264L488.328 342.2H490.736V352H489.14V344.076H489.056L486.312 352H484.702L481.944 344.076H481.86V352Z" fill="#2D64D6"/>
<path d="M351.5 392C351.5 387.858 354.858 384.5 359 384.5H499C503.142 384.5 506.5 387.858 506.5 392V410C506.5 414.142 503.142 417.5 499 417.5H359C354.858 417.5 351.5 414.142 351.5 410V392Z" fill="#E8F0FD"/>
<path d="M351.5 392C351.5 387.858 354.858 384.5 359 384.5H499C503.142 384.5 506.5 387.858 506.5 392V410C506.5 414.142 503.142 417.5 499 417.5H359C354.858 417.5 351.5 414.142 351.5 410V392Z" stroke="#8FB6F5"/>
<path d="M363.802 406.14C361.31 406.14 359.658 404.11 359.658 401.1C359.658 398.09 361.31 396.06 363.802 396.06C366.294 396.06 367.946 398.076 367.946 401.1C367.946 404.124 366.294 406.14 363.802 406.14ZM363.802 404.698C365.356 404.698 366.35 403.382 366.35 401.1C366.35 398.818 365.356 397.502 363.802 397.502C362.262 397.502 361.254 398.818 361.254 401.1C361.254 403.382 362.262 404.698 363.802 404.698ZM372.731 406H371.135V398.09H371.037L368.923 399.322V397.642L371.527 396.2H372.731V406ZM375.43 400.764C374.842 400.764 374.366 400.33 374.366 399.742C374.366 399.14 374.842 398.72 375.43 398.72C376.018 398.72 376.48 399.14 376.48 399.742C376.48 400.33 376.018 400.764 375.43 400.764ZM375.43 406.14C374.842 406.14 374.366 405.72 374.366 405.118C374.366 404.53 374.842 404.096 375.43 404.096C376.018 404.096 376.48 404.53 376.48 405.118C376.48 405.72 376.018 406.14 375.43 406.14ZM381.808 406.14C379.316 406.14 377.664 404.11 377.664 401.1C377.664 398.09 379.316 396.06 381.808 396.06C384.3 396.06 385.952 398.076 385.952 401.1C385.952 404.124 384.3 406.14 381.808 406.14ZM381.808 404.698C383.362 404.698 384.356 403.382 384.356 401.1C384.356 398.818 383.362 397.502 381.808 397.502C380.268 397.502 379.26 398.818 379.26 401.1C379.26 403.382 380.268 404.698 381.808 404.698ZM391.406 406.14C388.914 406.14 387.262 404.11 387.262 401.1C387.262 398.09 388.914 396.06 391.406 396.06C393.898 396.06 395.55 398.076 395.55 401.1C395.55 404.124 393.898 406.14 391.406 406.14ZM391.406 404.698C392.96 404.698 393.954 403.382 393.954 401.1C393.954 398.818 392.96 397.502 391.406 397.502C389.866 397.502 388.858 398.818 388.858 401.1C388.858 403.382 389.866 404.698 391.406 404.698ZM402.237 406H400.641V396.2H404.365C406.605 396.2 407.907 397.362 407.907 399.336C407.907 401.296 406.605 402.444 404.365 402.444H402.237V406ZM402.237 397.572V401.086H404.267C405.541 401.086 406.297 400.47 406.297 399.336C406.297 398.202 405.541 397.572 404.267 397.572H402.237ZM410.848 406H409.35V396.2H411.73L414.516 404.264L417.316 396.2H419.724V406H418.128V398.076H418.044L415.3 406H413.69L410.932 398.076H410.848V406ZM429.368 402.738H424.678V401.422H429.368V402.738ZM438.095 406.14C435.603 406.14 433.951 404.11 433.951 401.1C433.951 398.09 435.603 396.06 438.095 396.06C440.587 396.06 442.239 398.076 442.239 401.1C442.239 404.124 440.587 406.14 438.095 406.14ZM438.095 404.698C439.649 404.698 440.643 403.382 440.643 401.1C440.643 398.818 439.649 397.502 438.095 397.502C436.555 397.502 435.547 398.818 435.547 401.1C435.547 403.382 436.555 404.698 438.095 404.698ZM449.723 406H448.113V404.082H443.353V402.5L447.959 396.2H449.723V402.64H451.067V404.082H449.723V406ZM448.113 398.272L444.935 402.64H448.113V398.272ZM452.991 400.764C452.403 400.764 451.927 400.33 451.927 399.742C451.927 399.14 452.403 398.72 452.991 398.72C453.579 398.72 454.041 399.14 454.041 399.742C454.041 400.33 453.579 400.764 452.991 400.764ZM452.991 406.14C452.403 406.14 451.927 405.72 451.927 405.118C451.927 404.53 452.403 404.096 452.991 404.096C453.579 404.096 454.041 404.53 454.041 405.118C454.041 405.72 453.579 406.14 452.991 406.14ZM459.368 406.14C456.876 406.14 455.224 404.11 455.224 401.1C455.224 398.09 456.876 396.06 459.368 396.06C461.86 396.06 463.512 398.076 463.512 401.1C463.512 404.124 461.86 406.14 459.368 406.14ZM459.368 404.698C460.922 404.698 461.916 403.382 461.916 401.1C461.916 398.818 460.922 397.502 459.368 397.502C457.828 397.502 456.82 398.818 456.82 401.1C456.82 403.382 457.828 404.698 459.368 404.698ZM468.966 406.14C466.474 406.14 464.822 404.11 464.822 401.1C464.822 398.09 466.474 396.06 468.966 396.06C471.458 396.06 473.11 398.076 473.11 401.1C473.11 404.124 471.458 406.14 468.966 406.14ZM468.966 404.698C470.52 404.698 471.514 403.382 471.514 401.1C471.514 398.818 470.52 397.502 468.966 397.502C467.426 397.502 466.418 398.818 466.418 401.1C466.418 403.382 467.426 404.698 468.966 404.698ZM479.798 406H478.202V396.2H481.926C484.166 396.2 485.468 397.362 485.468 399.336C485.468 401.296 484.166 402.444 481.926 402.444H479.798V406ZM479.798 397.572V401.086H481.828C483.102 401.086 483.858 400.47 483.858 399.336C483.858 398.202 483.102 397.572 481.828 397.572H479.798ZM488.409 406H486.911V396.2H489.291L492.077 404.264L494.877 396.2H497.285V406H495.689V398.076H495.605L492.861 406H491.251L488.493 398.076H488.409V406Z" fill="#2D64D6"/>
</g>
<defs>
<filter id="filter0_d_3549_2119" x="246" y="150" width="306" height="303" filterUnits="userSpaceOnUse" color-interpolation-filters="sRGB">
<feFlood flood-opacity="0" result="BackgroundImageFix"/>
<feColorMatrix in="SourceAlpha" type="matrix" values="0 0 0 0 0 0 0 0 0 0 0 0 0 0 0 0 0 0 127 0" result="hardAlpha"/>
<feOffset dx="-30" dy="-30"/>
<feGaussianBlur stdDeviation="25"/>
<feComposite in2="hardAlpha" operator="out"/>
<feColorMatrix type="matrix" values="0 0 0 0 0 0 0 0 0 0 0 0 0 0 0 0 0 0 0.05 0"/>
<feBlend mode="normal" in2="BackgroundImageFix" result="effect1_dropShadow_3549_2119"/>
<feBlend mode="normal" in="SourceGraphic" in2="effect1_dropShadow_3549_2119" result="shape"/>
</filter>
<linearGradient id="paint0_linear_3549_2119" x1="140" y1="1.00001" x2="324.5" y2="284" gradientUnits="userSpaceOnUse">
<stop stop-color="#E5E7EB"/>
<stop offset="1" stop-color="white"/>
</linearGradient>
</defs>
</svg>
