<svg width="50" height="50" viewBox="0 0 50 50" fill="none" xmlns="http://www.w3.org/2000/svg">
<path d="M37.6295 17.7083C37.0524 16.7104 35.7816 16.3687 34.7837 16.9458L32.7566 18.1167C31.2878 16.4625 29.3316 15.2521 27.0837 14.7958V12.5021C27.0837 11.3521 26.1503 10.4187 25.0003 10.4187C23.8503 10.4187 22.917 11.3521 22.917 12.5021V14.7958C20.6691 15.2542 18.7128 16.4646 17.2441 18.1167L15.217 16.9458C14.2191 16.3708 12.9462 16.7125 12.3712 17.7083C11.7962 18.7042 12.1378 19.9792 13.1337 20.5542L15.1628 21.725C14.817 22.7604 14.5837 23.8479 14.5837 25C14.5837 26.1521 14.8149 27.2396 15.1628 28.275L13.1337 29.4458C12.1378 30.0208 11.7962 31.2958 12.3712 32.2917C12.7587 32.9604 13.4566 33.3333 14.1774 33.3333C14.5295 33.3333 14.8878 33.2437 15.217 33.0542L17.2441 31.8833C18.7128 33.5375 20.6691 34.7479 22.917 35.2042V37.4979C22.917 38.6479 23.8503 39.5812 25.0003 39.5812C26.1503 39.5812 27.0837 38.6479 27.0837 37.4979V35.2042C29.3316 34.7458 31.2878 33.5354 32.7566 31.8833L34.7837 33.0542C35.1128 33.2437 35.4712 33.3333 35.8233 33.3333C36.5441 33.3333 37.2441 32.9604 37.6295 32.2917C38.2045 31.2937 37.8628 30.0208 36.867 29.4458L34.8378 28.275C35.1837 27.2396 35.417 26.1521 35.417 25C35.417 23.8479 35.1858 22.7604 34.8378 21.725L36.867 20.5542C37.8628 19.9792 38.2045 18.7042 37.6295 17.7083ZM25.0003 31.25C21.5545 31.25 18.7503 28.4458 18.7503 25C18.7503 21.5542 21.5545 18.75 25.0003 18.75C28.4462 18.75 31.2503 21.5542 31.2503 25C31.2503 28.4458 28.4462 31.25 25.0003 31.25ZM4.15868 23.1042C4.06076 24.1875 3.15243 25 2.08576 25C2.02326 25 1.96076 24.9979 1.89618 24.9917C0.750343 24.8875 -0.0954901 23.875 0.00867658 22.7292C1.15868 9.98333 12.1358 0 25.0003 0C31.1899 0 37.1191 2.35208 41.667 6.41667V2.08333C41.667 0.933333 42.6003 0 43.7503 0C44.9003 0 45.8337 0.933333 45.8337 2.08333V10.4167C45.8337 12.7146 43.9649 14.5833 41.667 14.5833H33.3337C32.1837 14.5833 31.2503 13.65 31.2503 12.5C31.2503 11.35 32.1837 10.4167 33.3337 10.4167H39.8399C35.9503 6.47292 30.6003 4.16667 25.0003 4.16667C14.2712 4.16667 5.11701 12.4854 4.15868 23.1042ZM49.992 27.2708C48.842 40.0167 37.8649 50 25.0003 50C18.8108 50 12.8816 47.6479 8.33368 43.5833V47.9167C8.33368 49.0667 7.40034 50 6.25034 50C5.10034 50 4.16701 49.0667 4.16701 47.9167V39.5833C4.16701 37.2854 6.03576 35.4167 8.33368 35.4167H16.667C17.817 35.4167 18.7503 36.35 18.7503 37.5C18.7503 38.65 17.817 39.5833 16.667 39.5833H10.1608C14.0503 43.5271 19.4003 45.8333 25.0003 45.8333C35.7295 45.8333 44.8837 37.5146 45.842 26.8958C45.9462 25.75 46.9358 24.925 48.1045 25.0083C49.2503 25.1125 50.0962 26.125 49.992 27.2708Z" fill="#2D64D6"/>
</svg>
