<svg width="606" height="524" viewBox="0 0 606 524" fill="none" xmlns="http://www.w3.org/2000/svg">
<g filter="url(#filter0_d_1271_3346)">
<g clip-path="url(#clip0_1271_3346)">
<path d="M53 46.5C53 42.0817 56.5817 38.5 61 38.5H545C549.418 38.5 553 42.0817 553 46.5V356.5C553 360.918 549.418 364.5 545 364.5H61C56.5817 364.5 53 360.918 53 356.5V46.5Z" fill="white" shape-rendering="crispEdges"/>
<mask id="path-3-inside-1_1271_3346" fill="white">
<path d="M53 38.5H553V86.5H53V38.5Z"/>
</mask>
<path d="M553 85.5H53V87.5H553V85.5Z" fill="#E5E7EB" mask="url(#path-3-inside-1_1271_3346)"/>
<path d="M74.552 57.15H71.852V61.038H74.48C75.668 61.038 76.226 60.03 76.226 59.112C76.226 58.212 75.704 57.15 74.552 57.15ZM69.548 67.5V55.098H74.588C77.342 55.098 78.53 57.096 78.53 59.112C78.53 61.128 77.342 63.09 74.588 63.09H71.852V67.5H69.548ZM82.354 64.53V67.5H80.158V59.094H82.354V61.074C82.786 59.544 83.776 58.914 84.73 58.914C85.324 58.914 85.774 59.022 86.116 59.22L85.738 61.2C85.216 60.966 84.676 60.966 84.46 60.966C82.966 60.966 82.354 62.298 82.354 64.53ZM89.7364 59.094V67.5H87.5584V59.094H89.7364ZM87.2344 55.836C87.2344 55.098 87.8824 54.522 88.6564 54.522C89.4304 54.522 90.0424 55.098 90.0424 55.836C90.0424 56.61 89.4304 57.168 88.6564 57.168C87.8824 57.168 87.2344 56.61 87.2344 55.836ZM91.6766 63.27C91.6766 60.606 93.8006 58.914 96.2126 58.914C97.6346 58.914 98.9126 59.49 99.7046 60.552L97.9586 61.866C97.5446 61.308 96.9146 61.038 96.2126 61.038C94.9886 61.038 93.8546 61.902 93.8546 63.27C93.8546 64.638 94.9886 65.574 96.2126 65.574C96.9146 65.574 97.5446 65.286 97.9586 64.728L99.7226 66.024C98.9306 67.086 97.6526 67.68 96.2126 67.68C93.8006 67.68 91.6766 65.916 91.6766 63.27ZM109.545 63.27C109.545 63.486 109.527 63.828 109.509 64.026H103.101C103.245 65.16 104.181 65.826 105.423 65.826C106.269 65.826 107.115 65.466 107.529 64.746C108.051 65.034 108.645 65.358 109.203 65.646C108.429 67.086 106.827 67.68 105.279 67.68C102.885 67.68 100.923 65.916 100.923 63.27C100.923 60.606 102.885 58.914 105.279 58.914C107.655 58.914 109.545 60.606 109.545 63.27ZM103.083 62.532H107.403C107.241 61.38 106.377 60.75 105.297 60.75C104.145 60.75 103.245 61.38 103.083 62.532ZM124.589 58.464C124.589 59.382 124.193 60.39 122.951 60.876C124.481 61.254 125.255 62.676 125.255 63.774C125.255 65.79 123.815 67.5 121.403 67.5H116.165V55.098H121.025C123.203 55.098 124.589 56.376 124.589 58.464ZM118.469 60.084H120.863C121.709 60.084 122.195 59.436 122.195 58.59C122.195 57.708 121.709 57.15 120.791 57.15H118.469V60.084ZM121.223 62.01H118.469V65.448H121.277C122.285 65.448 122.843 64.602 122.843 63.738C122.843 62.928 122.285 62.01 121.223 62.01ZM131.119 65.52C132.343 65.52 133.315 64.638 133.315 63.27C133.315 61.92 132.343 61.074 131.119 61.074C129.895 61.074 128.923 61.92 128.923 63.27C128.923 64.638 129.895 65.52 131.119 65.52ZM131.119 67.662C128.743 67.662 126.745 65.916 126.745 63.27C126.745 60.606 128.743 58.914 131.119 58.914C133.495 58.914 135.493 60.606 135.493 63.27C135.493 65.916 133.495 67.662 131.119 67.662ZM141.315 65.52C142.539 65.52 143.511 64.638 143.511 63.27C143.511 61.92 142.539 61.074 141.315 61.074C140.091 61.074 139.119 61.92 139.119 63.27C139.119 64.638 140.091 65.52 141.315 65.52ZM141.315 67.662C138.939 67.662 136.941 65.916 136.941 63.27C136.941 60.606 138.939 58.914 141.315 58.914C143.691 58.914 145.689 60.606 145.689 63.27C145.689 65.916 143.691 67.662 141.315 67.662ZM153.004 67.5L149.836 63.9V67.5H147.658V54.522H149.836V61.614L152.158 59.094H155.002L151.474 62.784L155.758 67.5H153.004Z" fill="black"/>
<path d="M73.81 102.68L74.63 103.33C74.03 104.12 73.08 104.6 71.95 104.6C70 104.6 68.47 103.03 68.47 101.07C68.47 99.12 70 97.53 71.95 97.53C73.06 97.53 74 98.01 74.61 98.77L73.79 99.41C73.34 98.9 72.71 98.55 71.95 98.55C70.58 98.55 69.53 99.68 69.53 101.07C69.53 102.47 70.58 103.58 71.95 103.58C72.71 103.58 73.38 103.24 73.81 102.68ZM79.1959 104.5V103.83C78.8759 104.34 78.2259 104.6 77.6259 104.6C76.3759 104.6 75.2559 103.65 75.2559 102.16C75.2559 100.67 76.3759 99.73 77.6259 99.73C78.1859 99.73 78.8759 99.96 79.1959 100.49V99.83H80.2159V104.5H79.1959ZM76.3159 102.15C76.3159 103.01 76.9759 103.6 77.7459 103.6C78.5059 103.6 79.1859 103.07 79.1859 102.15C79.1859 101.24 78.4459 100.73 77.7459 100.73C76.9759 100.73 76.3159 101.29 76.3159 102.15ZM85.2895 102.17C85.2895 101.24 84.6195 100.73 83.8495 100.73C83.0695 100.73 82.4295 101.32 82.4295 102.17C82.4295 103.05 83.0695 103.61 83.8495 103.61C84.5495 103.61 85.2895 103.09 85.2895 102.17ZM82.4395 105.09C82.6895 105.58 83.2395 105.87 83.7495 105.87C84.6995 105.87 85.3095 105.34 85.3095 104.03V103.79C85.0495 104.32 84.3595 104.6 83.7295 104.6C82.4695 104.6 81.3695 103.66 81.3695 102.18C81.3695 100.7 82.4695 99.73 83.7295 99.73C84.3695 99.73 85.0195 100.01 85.3095 100.52V99.83H86.3195V103.81C86.3195 105.96 85.3195 106.83 83.7495 106.83C82.8395 106.83 82.0295 106.36 81.5895 105.52C81.7795 105.44 82.2495 105.17 82.4395 105.09ZM92.203 102.15C92.203 102.26 92.203 102.42 92.193 102.53H88.483C88.593 103.25 89.153 103.7 89.913 103.7C90.433 103.7 90.943 103.46 91.183 103.03L92.023 103.4C91.623 104.23 90.733 104.6 89.863 104.6C88.543 104.6 87.463 103.63 87.463 102.15C87.463 100.67 88.543 99.73 89.863 99.73C91.183 99.73 92.203 100.67 92.203 102.15ZM88.483 101.78H91.193C91.083 101.05 90.573 100.63 89.863 100.63C89.143 100.63 88.593 101.06 88.483 101.78ZM96.9203 102.17C96.9203 101.24 96.2503 100.73 95.4803 100.73C94.7003 100.73 94.0603 101.32 94.0603 102.17C94.0603 103.05 94.7003 103.61 95.4803 103.61C96.1803 103.61 96.9203 103.09 96.9203 102.17ZM94.0703 105.09C94.3203 105.58 94.8703 105.87 95.3803 105.87C96.3303 105.87 96.9403 105.34 96.9403 104.03V103.79C96.6803 104.32 95.9903 104.6 95.3603 104.6C94.1003 104.6 93.0003 103.66 93.0003 102.18C93.0003 100.7 94.1003 99.73 95.3603 99.73C96.0003 99.73 96.6503 100.01 96.9403 100.52V99.83H97.9503V103.81C97.9503 105.96 96.9503 106.83 95.3803 106.83C94.4703 106.83 93.6603 106.36 93.2203 105.52C93.4103 105.44 93.8803 105.17 94.0703 105.09ZM101.524 103.6C102.304 103.6 102.944 103.03 102.944 102.15C102.944 101.3 102.304 100.74 101.524 100.74C100.754 100.74 100.114 101.3 100.114 102.15C100.114 103.03 100.754 103.6 101.524 103.6ZM101.524 104.6C100.204 104.6 99.0938 103.63 99.0938 102.15C99.0938 100.67 100.204 99.73 101.524 99.73C102.854 99.73 103.974 100.67 103.974 102.15C103.974 103.63 102.854 104.6 101.524 104.6ZM106.146 102.82V104.5H105.116V99.83H106.146V100.9C106.386 100.06 106.836 99.73 107.426 99.73C107.756 99.73 108.106 99.8 108.256 99.91L108.086 100.86C107.816 100.73 107.596 100.7 107.396 100.7C106.516 100.7 106.146 101.58 106.146 102.82ZM113.331 99.83L110.441 106.78H109.361L110.371 104.28L108.521 99.83H109.621L110.921 103.03L112.231 99.83H113.331Z" fill="black"/>
<rect x="68" y="118.5" width="40" height="4" rx="2" fill="#F0F0F0"/>
<rect x="68" y="125.5" width="25" height="4" rx="2" fill="#F0F0F0"/>
<rect x="68" y="141.5" width="40" height="4" rx="2" fill="#F0F0F0"/>
<rect x="68" y="148.5" width="25" height="4" rx="2" fill="#F0F0F0"/>
<rect x="68" y="164.5" width="40" height="4" rx="2" fill="#F0F0F0"/>
<rect x="68" y="171.5" width="25" height="4" rx="2" fill="#F0F0F0"/>
<rect x="68" y="187.5" width="40" height="4" rx="2" fill="#F0F0F0"/>
<rect x="68" y="194.5" width="25" height="4" rx="2" fill="#F0F0F0"/>
<rect x="68" y="210.5" width="40" height="4" rx="2" fill="#F0F0F0"/>
<rect x="68" y="217.5" width="25" height="4" rx="2" fill="#F0F0F0"/>
<rect x="68" y="233.5" width="40" height="4" rx="2" fill="#F0F0F0"/>
<rect x="68" y="240.5" width="25" height="4" rx="2" fill="#F0F0F0"/>
<rect x="68" y="256.5" width="40" height="4" rx="2" fill="#F0F0F0"/>
<rect x="68" y="263.5" width="25" height="4" rx="2" fill="#F0F0F0"/>
<rect x="138.5" y="97" width="119" height="14" rx="3.5" stroke="#E5E7EB"/>
<path d="M143.4 104.4H144.248C144.272 104.848 144.68 105.304 145.344 105.304C145.992 105.304 146.328 104.96 146.384 104.552C146.416 104.04 146.024 103.776 145.512 103.656L144.816 103.48C143.632 103.16 143.448 102.488 143.448 102C143.448 101.056 144.296 100.424 145.264 100.424C146.288 100.424 147.056 101.048 147.056 102.056H146.208C146.208 101.544 145.824 101.224 145.248 101.224C144.736 101.224 144.296 101.536 144.296 101.984C144.296 102.2 144.376 102.536 145.032 102.704L145.736 102.888C146.856 103.184 147.312 103.8 147.224 104.6C147.136 105.464 146.392 106.08 145.344 106.08C144.2 106.08 143.4 105.296 143.4 104.4ZM151.722 104.12C151.722 104.208 151.722 104.336 151.714 104.424H148.746C148.834 105 149.282 105.36 149.89 105.36C150.306 105.36 150.714 105.168 150.906 104.824L151.578 105.12C151.258 105.784 150.546 106.08 149.85 106.08C148.794 106.08 147.93 105.304 147.93 104.12C147.93 102.936 148.794 102.184 149.85 102.184C150.906 102.184 151.722 102.936 151.722 104.12ZM148.746 103.824H150.914C150.826 103.24 150.418 102.904 149.85 102.904C149.274 102.904 148.834 103.248 148.746 103.824ZM155.504 106V105.464C155.248 105.872 154.728 106.08 154.248 106.08C153.248 106.08 152.352 105.32 152.352 104.128C152.352 102.936 153.248 102.184 154.248 102.184C154.696 102.184 155.248 102.368 155.504 102.792V102.264H156.32V106H155.504ZM153.2 104.12C153.2 104.808 153.728 105.28 154.344 105.28C154.952 105.28 155.496 104.856 155.496 104.12C155.496 103.392 154.904 102.984 154.344 102.984C153.728 102.984 153.2 103.432 153.2 104.12ZM158.298 104.656V106H157.474V102.264H158.298V103.12C158.49 102.448 158.85 102.184 159.322 102.184C159.586 102.184 159.866 102.24 159.986 102.328L159.85 103.088C159.634 102.984 159.458 102.96 159.298 102.96C158.594 102.96 158.298 103.664 158.298 104.656ZM160.352 104.12C160.352 102.936 161.272 102.184 162.344 102.184C162.944 102.184 163.472 102.416 163.824 102.832L163.184 103.344C162.984 103.112 162.672 102.984 162.344 102.984C161.72 102.984 161.168 103.424 161.168 104.12C161.168 104.816 161.72 105.288 162.344 105.288C162.672 105.288 162.984 105.152 163.184 104.92L163.832 105.424C163.48 105.84 162.952 106.08 162.344 106.08C161.272 106.08 160.352 105.304 160.352 104.12ZM165.525 103.992V106H164.701V100.232H165.525V102.832C165.741 102.376 166.317 102.184 166.709 102.184C167.669 102.184 168.221 102.808 168.221 103.872V106H167.397V103.92C167.397 103.336 167.037 102.992 166.565 102.992C166.093 102.992 165.525 103.256 165.525 103.992Z" fill="#9CA3AF"/>
<rect x="138" y="119.5" width="35" height="25" rx="4" fill="#F0F0F0"/>
<rect x="183" y="124.5" width="355" height="5" rx="2.5" fill="#F0F0F0"/>
<rect x="183" y="134.5" width="100" height="5" rx="2.5" fill="#F0F0F0"/>
<rect x="138" y="154.5" width="35" height="25" rx="4" fill="#F0F0F0"/>
<rect x="183" y="159.5" width="355" height="5" rx="2.5" fill="#F0F0F0"/>
<rect x="183" y="169.5" width="100" height="5" rx="2.5" fill="#F0F0F0"/>
<rect x="138" y="189.5" width="35" height="25" rx="4" fill="#F0F0F0"/>
<rect x="183" y="194.5" width="355" height="5" rx="2.5" fill="#F0F0F0"/>
<rect x="183" y="204.5" width="100" height="5" rx="2.5" fill="#F0F0F0"/>
<rect x="138" y="224.5" width="35" height="25" rx="4" fill="#F0F0F0"/>
<rect x="183" y="229.5" width="355" height="5" rx="2.5" fill="#F0F0F0"/>
<rect x="183" y="239.5" width="100" height="5" rx="2.5" fill="#F0F0F0"/>
<rect x="138" y="259.5" width="35" height="25" rx="4" fill="#F0F0F0"/>
<rect x="183" y="264.5" width="355" height="5" rx="2.5" fill="#F0F0F0"/>
<rect x="183" y="274.5" width="100" height="5" rx="2.5" fill="#F0F0F0"/>
<rect x="138" y="294.5" width="35" height="25" rx="4" fill="#F0F0F0"/>
<rect x="183" y="299.5" width="355" height="5" rx="2.5" fill="#F0F0F0"/>
<rect x="183" y="309.5" width="100" height="5" rx="2.5" fill="#F0F0F0"/>
<rect x="138" y="329.5" width="35" height="25" rx="4" fill="#F0F0F0"/>
<rect x="183" y="334.5" width="355" height="5" rx="2.5" fill="#F0F0F0"/>
<rect x="183" y="344.5" width="100" height="5" rx="2.5" fill="#F0F0F0"/>
</g>
<path d="M61 37C55.7533 37 51.5 41.2533 51.5 46.5V356.5C51.5 361.747 55.7533 366 61 366H545C550.247 366 554.5 361.747 554.5 356.5V46.5C554.5 41.2533 550.247 37 545 37H61Z" stroke="#E5E7EB" stroke-opacity="0.3" stroke-width="3" shape-rendering="crispEdges"/>
</g>
<g filter="url(#filter1_d_1271_3346)">
<g clip-path="url(#clip1_1271_3346)">
<path d="M333 111.5C333 107.082 336.582 103.5 341 103.5H575C579.418 103.5 583 107.082 583 111.5V483.5C583 487.918 579.418 491.5 575 491.5H341C336.582 491.5 333 487.918 333 483.5V111.5Z" fill="white"/>
<mask id="path-46-inside-2_1271_3346" fill="white">
<path d="M333 103.5H583V135.5H333V103.5Z"/>
</mask>
<path d="M583 134.5H333V136.5H583V134.5Z" fill="#F3F4F6" mask="url(#path-46-inside-2_1271_3346)"/>
<path d="M349.228 122.5L348.472 120.496H345.388L344.632 122.5H343L346.096 114.232H347.752L350.848 122.5H349.228ZM346.924 115.996L345.904 119.152H347.968L346.924 115.996ZM355.773 122.5V121.744C355.449 122.308 354.741 122.62 354.009 122.62C352.533 122.62 351.261 121.48 351.261 119.704C351.261 117.916 352.533 116.776 354.009 116.776C354.765 116.776 355.449 117.076 355.773 117.64V113.848H357.225V122.5H355.773ZM355.749 119.68C355.749 118.72 355.017 118.168 354.249 118.168C353.433 118.168 352.773 118.768 352.773 119.68C352.773 120.604 353.433 121.216 354.249 121.216C355.053 121.216 355.749 120.616 355.749 119.68ZM363.051 122.5V121.744C362.727 122.308 362.019 122.62 361.287 122.62C359.811 122.62 358.539 121.48 358.539 119.704C358.539 117.916 359.811 116.776 361.287 116.776C362.043 116.776 362.727 117.076 363.051 117.64V113.848H364.503V122.5H363.051ZM363.027 119.68C363.027 118.72 362.295 118.168 361.527 118.168C360.711 118.168 360.051 118.768 360.051 119.68C360.051 120.604 360.711 121.216 361.527 121.216C362.331 121.216 363.027 120.616 363.027 119.68ZM368.865 120.088H370.401C370.437 120.7 370.941 121.252 371.829 121.252C372.657 121.252 373.161 120.82 373.197 120.256C373.233 119.716 372.849 119.344 372.057 119.128L371.037 118.864C369.237 118.348 368.949 117.28 368.949 116.56C368.949 115.108 370.209 114.136 371.733 114.136C373.293 114.136 374.48 115.096 374.48 116.632H372.945C372.945 115.972 372.477 115.552 371.709 115.552C371.025 115.552 370.473 115.936 370.473 116.524C370.473 116.764 370.569 117.256 371.457 117.472L372.477 117.772C374.337 118.288 374.793 119.32 374.733 120.292C374.673 121.78 373.329 122.632 371.829 122.632C370.065 122.632 368.865 121.504 368.865 120.088ZM381.466 119.68C381.466 119.824 381.454 120.052 381.442 120.184H377.17C377.266 120.94 377.89 121.384 378.718 121.384C379.282 121.384 379.846 121.144 380.122 120.664C380.47 120.856 380.866 121.072 381.238 121.264C380.722 122.224 379.654 122.62 378.622 122.62C377.026 122.62 375.718 121.444 375.718 119.68C375.718 117.904 377.026 116.776 378.622 116.776C380.206 116.776 381.466 117.904 381.466 119.68ZM377.158 119.188H380.038C379.93 118.42 379.354 118 378.634 118C377.866 118 377.266 118.42 377.158 119.188ZM384.163 120.52V122.5H382.699V116.896H384.163V118.216C384.451 117.196 385.111 116.776 385.747 116.776C386.143 116.776 386.443 116.848 386.671 116.98L386.419 118.3C386.071 118.144 385.711 118.144 385.567 118.144C384.571 118.144 384.163 119.032 384.163 120.52ZM389.265 122.5L386.913 116.896H388.473L389.913 120.628L391.353 116.896H392.925L390.561 122.5H389.265ZM395.296 116.896V122.5H393.844V116.896H395.296ZM393.628 114.724C393.628 114.232 394.06 113.848 394.576 113.848C395.092 113.848 395.5 114.232 395.5 114.724C395.5 115.24 395.092 115.612 394.576 115.612C394.06 115.612 393.628 115.24 393.628 114.724ZM396.589 119.68C396.589 117.904 398.005 116.776 399.613 116.776C400.561 116.776 401.413 117.16 401.941 117.868L400.777 118.744C400.501 118.372 400.081 118.192 399.613 118.192C398.797 118.192 398.041 118.768 398.041 119.68C398.041 120.592 398.797 121.216 399.613 121.216C400.081 121.216 400.501 121.024 400.777 120.652L401.953 121.516C401.425 122.224 400.573 122.62 399.613 122.62C398.005 122.62 396.589 121.444 396.589 119.68ZM408.501 119.68C408.501 119.824 408.489 120.052 408.477 120.184H404.205C404.301 120.94 404.925 121.384 405.753 121.384C406.317 121.384 406.881 121.144 407.157 120.664C407.505 120.856 407.901 121.072 408.273 121.264C407.757 122.224 406.689 122.62 405.657 122.62C404.061 122.62 402.753 121.444 402.753 119.68C402.753 117.904 404.061 116.776 405.657 116.776C407.241 116.776 408.501 117.904 408.501 119.68ZM404.193 119.188H407.073C406.965 118.42 406.389 118 405.669 118C404.901 118 404.301 118.42 404.193 119.188Z" fill="black"/>
<path d="M348.81 151.68L349.63 152.33C349.03 153.12 348.08 153.6 346.95 153.6C345 153.6 343.47 152.03 343.47 150.07C343.47 148.12 345 146.53 346.95 146.53C348.06 146.53 349 147.01 349.61 147.77L348.79 148.41C348.34 147.9 347.71 147.55 346.95 147.55C345.58 147.55 344.53 148.68 344.53 150.07C344.53 151.47 345.58 152.58 346.95 152.58C347.71 152.58 348.38 152.24 348.81 151.68ZM354.196 153.5V152.83C353.876 153.34 353.226 153.6 352.626 153.6C351.376 153.6 350.256 152.65 350.256 151.16C350.256 149.67 351.376 148.73 352.626 148.73C353.186 148.73 353.876 148.96 354.196 149.49V148.83H355.216V153.5H354.196ZM351.316 151.15C351.316 152.01 351.976 152.6 352.746 152.6C353.506 152.6 354.186 152.07 354.186 151.15C354.186 150.24 353.446 149.73 352.746 149.73C351.976 149.73 351.316 150.29 351.316 151.15ZM360.289 151.17C360.289 150.24 359.619 149.73 358.849 149.73C358.069 149.73 357.429 150.32 357.429 151.17C357.429 152.05 358.069 152.61 358.849 152.61C359.549 152.61 360.289 152.09 360.289 151.17ZM357.439 154.09C357.689 154.58 358.239 154.87 358.749 154.87C359.699 154.87 360.309 154.34 360.309 153.03V152.79C360.049 153.32 359.359 153.6 358.729 153.6C357.469 153.6 356.369 152.66 356.369 151.18C356.369 149.7 357.469 148.73 358.729 148.73C359.369 148.73 360.019 149.01 360.309 149.52V148.83H361.319V152.81C361.319 154.96 360.319 155.83 358.749 155.83C357.839 155.83 357.029 155.36 356.589 154.52C356.779 154.44 357.249 154.17 357.439 154.09ZM367.203 151.15C367.203 151.26 367.203 151.42 367.193 151.53H363.483C363.593 152.25 364.153 152.7 364.913 152.7C365.433 152.7 365.943 152.46 366.183 152.03L367.023 152.4C366.623 153.23 365.733 153.6 364.863 153.6C363.543 153.6 362.463 152.63 362.463 151.15C362.463 149.67 363.543 148.73 364.863 148.73C366.183 148.73 367.203 149.67 367.203 151.15ZM363.483 150.78H366.193C366.083 150.05 365.573 149.63 364.863 149.63C364.143 149.63 363.593 150.06 363.483 150.78ZM371.92 151.17C371.92 150.24 371.25 149.73 370.48 149.73C369.7 149.73 369.06 150.32 369.06 151.17C369.06 152.05 369.7 152.61 370.48 152.61C371.18 152.61 371.92 152.09 371.92 151.17ZM369.07 154.09C369.32 154.58 369.87 154.87 370.38 154.87C371.33 154.87 371.94 154.34 371.94 153.03V152.79C371.68 153.32 370.99 153.6 370.36 153.6C369.1 153.6 368 152.66 368 151.18C368 149.7 369.1 148.73 370.36 148.73C371 148.73 371.65 149.01 371.94 149.52V148.83H372.95V152.81C372.95 154.96 371.95 155.83 370.38 155.83C369.47 155.83 368.66 155.36 368.22 154.52C368.41 154.44 368.88 154.17 369.07 154.09ZM376.524 152.6C377.304 152.6 377.944 152.03 377.944 151.15C377.944 150.3 377.304 149.74 376.524 149.74C375.754 149.74 375.114 150.3 375.114 151.15C375.114 152.03 375.754 152.6 376.524 152.6ZM376.524 153.6C375.204 153.6 374.094 152.63 374.094 151.15C374.094 149.67 375.204 148.73 376.524 148.73C377.854 148.73 378.974 149.67 378.974 151.15C378.974 152.63 377.854 153.6 376.524 153.6ZM381.146 151.82V153.5H380.116V148.83H381.146V149.9C381.386 149.06 381.836 148.73 382.426 148.73C382.756 148.73 383.106 148.8 383.256 148.91L383.086 149.86C382.816 149.73 382.596 149.7 382.396 149.7C381.516 149.7 381.146 150.58 381.146 151.82ZM388.331 148.83L385.441 155.78H384.361L385.371 153.28L383.521 148.83H384.621L385.921 152.03L387.231 148.83H388.331Z" fill="black"/>
<path d="M343.5 164.5C343.5 162.567 345.067 161 347 161H569C570.933 161 572.5 162.567 572.5 164.5V176.5C572.5 178.433 570.933 180 569 180H347C345.067 180 343.5 178.433 343.5 176.5V164.5Z" stroke="#E5E7EB"/>
<path d="M343.5 196.5H344.56C344.59 197.06 345.1 197.63 345.93 197.63C346.74 197.63 347.16 197.2 347.23 196.69C347.27 196.05 346.78 195.72 346.14 195.57L345.27 195.35C343.79 194.95 343.56 194.11 343.56 193.5C343.56 192.32 344.62 191.53 345.83 191.53C347.11 191.53 348.07 192.31 348.07 193.57H347.01C347.01 192.93 346.53 192.53 345.81 192.53C345.17 192.53 344.62 192.92 344.62 193.48C344.62 193.75 344.72 194.17 345.54 194.38L346.42 194.61C347.82 194.98 348.39 195.75 348.28 196.75C348.17 197.83 347.24 198.6 345.93 198.6C344.5 198.6 343.5 197.62 343.5 196.5ZM353.902 196.15C353.902 196.26 353.902 196.42 353.892 196.53H350.182C350.292 197.25 350.852 197.7 351.612 197.7C352.132 197.7 352.642 197.46 352.882 197.03L353.722 197.4C353.322 198.23 352.432 198.6 351.562 198.6C350.242 198.6 349.162 197.63 349.162 196.15C349.162 194.67 350.242 193.73 351.562 193.73C352.882 193.73 353.902 194.67 353.902 196.15ZM350.182 195.78H352.892C352.782 195.05 352.272 194.63 351.562 194.63C350.842 194.63 350.292 195.06 350.182 195.78ZM356.02 196.82V198.5H354.99V193.83H356.02V194.9C356.26 194.06 356.71 193.73 357.3 193.73C357.63 193.73 357.98 193.8 358.13 193.91L357.96 194.86C357.69 194.73 357.47 194.7 357.27 194.7C356.39 194.7 356.02 195.58 356.02 196.82ZM360.344 198.5L358.394 193.83H359.484L360.824 197.19L362.144 193.83H363.244L361.294 198.5H360.344ZM365.111 193.83V198.5H364.091V193.83H365.111ZM363.911 191.94C363.911 191.57 364.231 191.29 364.601 191.29C364.991 191.29 365.281 191.57 365.281 191.94C365.281 192.31 364.991 192.59 364.601 192.59C364.231 192.59 363.911 192.31 363.911 191.94ZM366.252 196.15C366.252 194.67 367.402 193.73 368.742 193.73C369.492 193.73 370.152 194.02 370.592 194.54L369.792 195.18C369.542 194.89 369.152 194.73 368.742 194.73C367.962 194.73 367.272 195.28 367.272 196.15C367.272 197.02 367.962 197.61 368.742 197.61C369.152 197.61 369.542 197.44 369.792 197.15L370.602 197.78C370.162 198.3 369.502 198.6 368.742 198.6C367.402 198.6 366.252 197.63 366.252 196.15ZM376.031 196.15C376.031 196.26 376.031 196.42 376.021 196.53H372.311C372.421 197.25 372.981 197.7 373.741 197.7C374.261 197.7 374.771 197.46 375.011 197.03L375.851 197.4C375.451 198.23 374.561 198.6 373.691 198.6C372.371 198.6 371.291 197.63 371.291 196.15C371.291 194.67 372.371 193.73 373.691 193.73C375.011 193.73 376.031 194.67 376.031 196.15ZM372.311 195.78H375.021C374.911 195.05 374.401 194.63 373.691 194.63C372.971 194.63 372.421 195.06 372.311 195.78ZM384.848 191.61V198.5H383.858L380.898 193.57V198.5H379.838V191.61H380.858L383.788 196.5V191.61H384.848ZM389.997 198.5V197.83C389.677 198.34 389.027 198.6 388.427 198.6C387.177 198.6 386.057 197.65 386.057 196.16C386.057 194.67 387.177 193.73 388.427 193.73C388.987 193.73 389.677 193.96 389.997 194.49V193.83H391.017V198.5H389.997ZM387.117 196.15C387.117 197.01 387.777 197.6 388.547 197.6C389.307 197.6 389.987 197.07 389.987 196.15C389.987 195.24 389.247 194.73 388.547 194.73C387.777 194.73 387.117 195.29 387.117 196.15ZM397.78 194.74C397.1 194.74 396.65 195.23 396.65 195.99V198.5H395.62V195.88C395.61 195.16 395.23 194.74 394.67 194.74C394.07 194.74 393.49 195.07 393.49 195.99V198.5H392.46V193.83H393.49V194.53C393.81 193.89 394.58 193.73 394.96 193.73C395.71 193.73 396.16 194.06 396.43 194.66C396.86 193.85 397.58 193.73 398 193.73C399.16 193.73 399.8 194.48 399.8 195.81V198.5H398.77V195.9C398.77 195.17 398.38 194.74 397.78 194.74ZM405.631 196.15C405.631 196.26 405.631 196.42 405.621 196.53H401.911C402.021 197.25 402.581 197.7 403.341 197.7C403.861 197.7 404.371 197.46 404.611 197.03L405.451 197.4C405.051 198.23 404.161 198.6 403.291 198.6C401.971 198.6 400.891 197.63 400.891 196.15C400.891 194.67 401.971 193.73 403.291 193.73C404.611 193.73 405.631 194.67 405.631 196.15ZM401.911 195.78H404.621C404.511 195.05 404.001 194.63 403.291 194.63C402.571 194.63 402.021 195.06 401.911 195.78Z" fill="black"/>
<path d="M343.5 209.5C343.5 207.567 345.067 206 347 206H569C570.933 206 572.5 207.567 572.5 209.5V221.5C572.5 223.433 570.933 225 569 225H347C345.067 225 343.5 223.433 343.5 221.5V209.5Z" stroke="#E5E7EB"/>
<path d="M344.96 237.6V242.52H346.58C347.93 242.52 348.62 241.44 348.62 240.07C348.62 238.71 347.93 237.6 346.58 237.6H344.96ZM346.58 243.5H343.9V236.61H346.58C348.54 236.61 349.68 238.11 349.68 240.07C349.68 242.03 348.54 243.5 346.58 243.5ZM355.299 241.15C355.299 241.26 355.299 241.42 355.289 241.53H351.579C351.689 242.25 352.249 242.7 353.009 242.7C353.529 242.7 354.039 242.46 354.279 242.03L355.119 242.4C354.719 243.23 353.829 243.6 352.959 243.6C351.639 243.6 350.559 242.63 350.559 241.15C350.559 239.67 351.639 238.73 352.959 238.73C354.279 238.73 355.299 239.67 355.299 241.15ZM351.579 240.78H354.289C354.179 240.05 353.669 239.63 352.959 239.63C352.239 239.63 351.689 240.06 351.579 240.78ZM358.106 241.63L357.476 241.48C356.476 241.21 356.116 240.72 356.186 239.96C356.236 239.27 357.006 238.73 357.856 238.73C358.676 238.73 359.506 239.11 359.556 240.11H358.576C358.536 239.76 358.216 239.61 357.896 239.61C357.626 239.61 357.346 239.71 357.236 239.87C357.156 240 357.146 240.14 357.196 240.29C357.266 240.48 357.516 240.58 357.766 240.65L358.486 240.83C359.486 241.07 359.706 241.73 359.706 242.19C359.706 243.09 358.916 243.6 357.846 243.6C356.966 243.6 356.086 243.06 356.056 242.07H357.006C357.056 242.47 357.376 242.74 357.926 242.74C358.396 242.74 358.756 242.53 358.756 242.18C358.756 241.87 358.456 241.71 358.106 241.63ZM361.859 241.82V243.5H360.829V238.83H361.859V239.9C362.099 239.06 362.549 238.73 363.139 238.73C363.469 238.73 363.819 238.8 363.969 238.91L363.799 239.86C363.529 239.73 363.309 239.7 363.109 239.7C362.229 239.7 361.859 240.58 361.859 241.82ZM365.844 238.83V243.5H364.824V238.83H365.844ZM364.644 236.94C364.644 236.57 364.964 236.29 365.334 236.29C365.724 236.29 366.014 236.57 366.014 236.94C366.014 237.31 365.724 237.59 365.334 237.59C364.964 237.59 364.644 237.31 364.644 236.94ZM368.314 238.83V239.52C368.604 239.01 369.234 238.73 369.874 238.73C371.134 238.73 372.194 239.7 372.194 241.17C372.194 242.66 371.134 243.6 369.874 243.6C369.234 243.6 368.604 243.35 368.314 242.83V245.77H367.284V238.83H368.314ZM368.324 241.19C368.324 242.12 369.024 242.61 369.744 242.61C370.514 242.61 371.144 242.05 371.144 241.19C371.144 240.32 370.514 239.73 369.744 239.73C368.984 239.73 368.324 240.28 368.324 241.19ZM374.749 237.06V238.83H375.739V239.68H374.749V243.5H373.719V239.68H372.879V238.83H373.719V237.06H374.749ZM377.728 238.83V243.5H376.708V238.83H377.728ZM376.528 236.94C376.528 236.57 376.848 236.29 377.218 236.29C377.608 236.29 377.898 236.57 377.898 236.94C377.898 237.31 377.608 237.59 377.218 237.59C376.848 237.59 376.528 237.31 376.528 236.94ZM381.299 242.6C382.079 242.6 382.719 242.03 382.719 241.15C382.719 240.3 382.079 239.74 381.299 239.74C380.529 239.74 379.889 240.3 379.889 241.15C379.889 242.03 380.529 242.6 381.299 242.6ZM381.299 243.6C379.979 243.6 378.869 242.63 378.869 241.15C378.869 239.67 379.979 238.73 381.299 238.73C382.629 238.73 383.749 239.67 383.749 241.15C383.749 242.63 382.629 243.6 381.299 243.6ZM385.922 240.99V243.5H384.892V238.83H385.922V239.53C386.192 239 386.842 238.73 387.352 238.73C388.482 238.73 389.132 239.45 389.132 240.78V243.5H388.102V240.9C388.102 240.15 387.722 239.74 387.122 239.74C386.512 239.74 385.922 240.07 385.922 240.99Z" fill="black"/>
<path d="M343.5 254.5C343.5 252.567 345.067 251 347 251H569C570.933 251 572.5 252.567 572.5 254.5V296.5C572.5 298.433 570.933 300 569 300H347C345.067 300 343.5 298.433 343.5 296.5V254.5Z" stroke="#E5E7EB"/>
<path d="M346.39 317.58C347.18 317.58 347.87 317 347.87 316.11V311.61H348.94V316.11C348.94 317.63 347.76 318.6 346.39 318.6C345 318.6 343.83 317.63 343.83 316.11V311.61H344.91V316.11C344.91 317 345.6 317.58 346.39 317.58ZM351.449 313.83V314.52C351.739 314.01 352.369 313.73 353.009 313.73C354.269 313.73 355.329 314.7 355.329 316.17C355.329 317.66 354.269 318.6 353.009 318.6C352.369 318.6 351.739 318.35 351.449 317.83V320.77H350.419V313.83H351.449ZM351.459 316.19C351.459 317.12 352.159 317.61 352.879 317.61C353.649 317.61 354.279 317.05 354.279 316.19C354.279 315.32 353.649 314.73 352.879 314.73C352.119 314.73 351.459 315.28 351.459 316.19ZM356.484 318.5V311.29H357.514V318.5H356.484ZM361.084 317.6C361.864 317.6 362.504 317.03 362.504 316.15C362.504 315.3 361.864 314.74 361.084 314.74C360.314 314.74 359.674 315.3 359.674 316.15C359.674 317.03 360.314 317.6 361.084 317.6ZM361.084 318.6C359.764 318.6 358.654 317.63 358.654 316.15C358.654 314.67 359.764 313.73 361.084 313.73C362.414 313.73 363.534 314.67 363.534 316.15C363.534 317.63 362.414 318.6 361.084 318.6ZM368.317 318.5V317.83C367.997 318.34 367.347 318.6 366.747 318.6C365.497 318.6 364.377 317.65 364.377 316.16C364.377 314.67 365.497 313.73 366.747 313.73C367.307 313.73 367.997 313.96 368.317 314.49V313.83H369.337V318.5H368.317ZM365.437 316.15C365.437 317.01 366.097 317.6 366.867 317.6C367.627 317.6 368.307 317.07 368.307 316.15C368.307 315.24 367.567 314.73 366.867 314.73C366.097 314.73 365.437 315.29 365.437 316.15ZM374.401 318.5V317.82C374.111 318.33 373.461 318.6 372.821 318.6C371.561 318.6 370.491 317.64 370.491 316.17C370.491 314.67 371.561 313.73 372.821 313.73C373.491 313.73 374.111 313.99 374.401 314.5V311.29H375.421V318.5H374.401ZM374.381 316.15C374.381 315.24 373.641 314.73 372.951 314.73C372.181 314.73 371.551 315.29 371.551 316.15C371.551 317.01 372.181 317.6 372.951 317.6C373.711 317.6 374.381 317.06 374.381 316.15ZM382.334 312.59H380.654V315H382.294C383.054 315 383.394 314.39 383.394 313.8C383.394 313.22 383.084 312.59 382.334 312.59ZM379.584 318.5V311.61H382.354C383.834 311.61 384.454 312.71 384.454 313.8C384.454 314.89 383.834 315.97 382.354 315.97H380.654V318.5H379.584ZM386.508 315.99V318.5H385.478V311.29H386.508V314.54C386.778 313.97 387.498 313.73 387.988 313.73C389.188 313.73 389.878 314.51 389.878 315.84V318.5H388.848V315.9C388.848 315.17 388.398 314.74 387.808 314.74C387.218 314.74 386.508 315.07 386.508 315.99ZM393.389 317.6C394.169 317.6 394.809 317.03 394.809 316.15C394.809 315.3 394.169 314.74 393.389 314.74C392.619 314.74 391.979 315.3 391.979 316.15C391.979 317.03 392.619 317.6 393.389 317.6ZM393.389 318.6C392.069 318.6 390.959 317.63 390.959 316.15C390.959 314.67 392.069 313.73 393.389 313.73C394.719 313.73 395.839 314.67 395.839 316.15C395.839 317.63 394.719 318.6 393.389 318.6ZM398.382 312.06V313.83H399.372V314.68H398.382V318.5H397.352V314.68H396.512V313.83H397.352V312.06H398.382ZM402.403 317.6C403.183 317.6 403.823 317.03 403.823 316.15C403.823 315.3 403.183 314.74 402.403 314.74C401.633 314.74 400.993 315.3 400.993 316.15C400.993 317.03 401.633 317.6 402.403 317.6ZM402.403 318.6C401.083 318.6 399.973 317.63 399.973 316.15C399.973 314.67 401.083 313.73 402.403 313.73C403.733 313.73 404.853 314.67 404.853 316.15C404.853 317.63 403.733 318.6 402.403 318.6Z" fill="black"/>
<path d="M343.5 329.5C343.5 327.567 345.067 326 347 326H569C570.933 326 572.5 327.567 572.5 329.5V351.5C572.5 353.433 570.933 355 569 355H347C345.067 355 343.5 353.433 343.5 351.5V329.5Z" stroke="#E5E7EB"/>
<g clip-path="url(#clip2_1271_3346)">
<path d="M413.56 344.5C412.751 344.501 411.974 344.185 411.396 343.619C410.185 342.362 410.209 340.365 411.449 339.137L413.394 337.192C414.188 336.375 415.464 336.268 416.383 336.943C417.362 337.695 417.546 339.098 416.795 340.077C416.736 340.153 416.672 340.226 416.604 340.294L414.569 342.329C414.34 342.569 414.036 342.723 413.708 342.766C413.262 342.815 412.821 342.641 412.528 342.303C412.079 341.727 412.127 340.907 412.64 340.388L414.192 338.838C414.389 338.641 414.708 338.641 414.904 338.838C415.101 339.035 415.101 339.354 414.904 339.55L413.305 341.15C413.164 341.291 413.165 341.519 413.305 341.66C413.446 341.8 413.674 341.8 413.815 341.659L415.869 339.606C416.29 339.196 416.368 338.547 416.056 338.049C415.687 337.481 414.927 337.319 414.359 337.688C414.287 337.734 414.221 337.788 414.161 337.848L412.134 339.876C411.368 340.62 411.269 341.815 411.901 342.675C412.605 343.592 413.918 343.764 414.834 343.061C414.906 343.006 414.973 342.946 415.037 342.882L416.637 341.283C416.834 341.087 417.153 341.087 417.349 341.283C417.546 341.48 417.546 341.799 417.349 341.996L415.75 343.595C415.169 344.176 414.381 344.502 413.56 344.5Z" fill="#4B5563"/>
</g>
<path d="M426.056 343.58C425.667 343.58 425.309 343.511 424.984 343.372C424.659 343.233 424.376 343.036 424.136 342.78C423.896 342.519 423.709 342.212 423.576 341.86C423.448 341.508 423.384 341.121 423.384 340.7C423.384 340.3 423.453 339.929 423.592 339.588C423.736 339.241 423.933 338.937 424.184 338.676C424.435 338.415 424.725 338.212 425.056 338.068C425.387 337.924 425.744 337.852 426.128 337.852C426.4 337.852 426.664 337.895 426.92 337.98C427.181 338.06 427.416 338.175 427.624 338.324C427.837 338.468 428.011 338.633 428.144 338.82L427.568 339.42C427.413 339.265 427.256 339.137 427.096 339.036C426.941 338.929 426.781 338.849 426.616 338.796C426.456 338.743 426.293 338.716 426.128 338.716C425.867 338.716 425.621 338.767 425.392 338.868C425.168 338.964 424.971 339.1 424.8 339.276C424.635 339.452 424.504 339.663 424.408 339.908C424.312 340.148 424.264 340.412 424.264 340.7C424.264 341.004 424.309 341.281 424.4 341.532C424.496 341.777 424.629 341.988 424.8 342.164C424.971 342.34 425.173 342.476 425.408 342.572C425.648 342.663 425.912 342.708 426.2 342.708C426.376 342.708 426.549 342.684 426.72 342.636C426.891 342.588 427.051 342.519 427.2 342.428C427.349 342.337 427.485 342.231 427.608 342.108L428.04 342.812C427.917 342.956 427.749 343.087 427.536 343.204C427.328 343.321 427.093 343.415 426.832 343.484C426.576 343.548 426.317 343.58 426.056 343.58ZM429.006 343.5V337.58H429.83V340.164L429.686 340.26C429.739 340.073 429.843 339.903 429.998 339.748C430.152 339.588 430.336 339.46 430.55 339.364C430.763 339.263 430.982 339.212 431.206 339.212C431.526 339.212 431.792 339.276 432.006 339.404C432.219 339.527 432.379 339.716 432.486 339.972C432.592 340.228 432.646 340.551 432.646 340.94V343.5H431.822V340.996C431.822 340.756 431.79 340.559 431.726 340.404C431.662 340.244 431.563 340.129 431.43 340.06C431.296 339.985 431.131 339.953 430.934 339.964C430.774 339.964 430.627 339.991 430.494 340.044C430.36 340.092 430.243 340.161 430.142 340.252C430.046 340.343 429.968 340.449 429.91 340.572C429.856 340.689 429.83 340.817 429.83 340.956V343.5H429.422C429.352 343.5 429.283 343.5 429.214 343.5C429.144 343.5 429.075 343.5 429.006 343.5ZM435.652 343.58C435.241 343.58 434.873 343.487 434.548 343.3C434.228 343.108 433.974 342.849 433.788 342.524C433.601 342.193 433.508 341.817 433.508 341.396C433.508 340.975 433.601 340.601 433.788 340.276C433.974 339.945 434.228 339.687 434.548 339.5C434.873 339.308 435.241 339.212 435.652 339.212C436.057 339.212 436.42 339.308 436.74 339.5C437.065 339.687 437.321 339.945 437.508 340.276C437.694 340.601 437.788 340.975 437.788 341.396C437.788 341.817 437.694 342.193 437.508 342.524C437.321 342.849 437.065 343.108 436.74 343.3C436.42 343.487 436.057 343.58 435.652 343.58ZM435.652 342.828C435.902 342.828 436.126 342.767 436.324 342.644C436.521 342.516 436.676 342.345 436.788 342.132C436.9 341.913 436.953 341.668 436.948 341.396C436.953 341.119 436.9 340.873 436.788 340.66C436.676 340.441 436.521 340.271 436.324 340.148C436.126 340.025 435.902 339.964 435.652 339.964C435.401 339.964 435.174 340.028 434.972 340.156C434.774 340.279 434.62 340.449 434.508 340.668C434.396 340.881 434.342 341.124 434.348 341.396C434.342 341.668 434.396 341.913 434.508 342.132C434.62 342.345 434.774 342.516 434.972 342.644C435.174 342.767 435.401 342.828 435.652 342.828ZM440.573 343.58C440.163 343.58 439.795 343.487 439.469 343.3C439.149 343.108 438.896 342.849 438.709 342.524C438.523 342.193 438.429 341.817 438.429 341.396C438.429 340.975 438.523 340.601 438.709 340.276C438.896 339.945 439.149 339.687 439.469 339.5C439.795 339.308 440.163 339.212 440.573 339.212C440.979 339.212 441.341 339.308 441.661 339.5C441.987 339.687 442.243 339.945 442.429 340.276C442.616 340.601 442.709 340.975 442.709 341.396C442.709 341.817 442.616 342.193 442.429 342.524C442.243 342.849 441.987 343.108 441.661 343.3C441.341 343.487 440.979 343.58 440.573 343.58ZM440.573 342.828C440.824 342.828 441.048 342.767 441.245 342.644C441.443 342.516 441.597 342.345 441.709 342.132C441.821 341.913 441.875 341.668 441.869 341.396C441.875 341.119 441.821 340.873 441.709 340.66C441.597 340.441 441.443 340.271 441.245 340.148C441.048 340.025 440.824 339.964 440.573 339.964C440.323 339.964 440.096 340.028 439.893 340.156C439.696 340.279 439.541 340.449 439.429 340.668C439.317 340.881 439.264 341.124 439.269 341.396C439.264 341.668 439.317 341.913 439.429 342.132C439.541 342.345 439.696 342.516 439.893 342.644C440.096 342.767 440.323 342.828 440.573 342.828ZM445.007 343.58C444.655 343.58 444.338 343.519 444.055 343.396C443.773 343.273 443.538 343.092 443.351 342.852L443.911 342.372C444.071 342.559 444.245 342.695 444.431 342.78C444.623 342.86 444.839 342.9 445.079 342.9C445.175 342.9 445.263 342.889 445.343 342.868C445.429 342.841 445.501 342.804 445.559 342.756C445.623 342.708 445.671 342.652 445.703 342.588C445.735 342.519 445.751 342.444 445.751 342.364C445.751 342.225 445.701 342.113 445.599 342.028C445.546 341.991 445.461 341.951 445.343 341.908C445.231 341.86 445.085 341.812 444.903 341.764C444.594 341.684 444.341 341.593 444.143 341.492C443.946 341.391 443.794 341.276 443.687 341.148C443.607 341.047 443.549 340.937 443.511 340.82C443.474 340.697 443.455 340.564 443.455 340.42C443.455 340.244 443.493 340.084 443.567 339.94C443.647 339.791 443.754 339.663 443.887 339.556C444.026 339.444 444.186 339.359 444.367 339.3C444.554 339.241 444.751 339.212 444.959 339.212C445.157 339.212 445.351 339.239 445.543 339.292C445.741 339.345 445.922 339.423 446.087 339.524C446.253 339.625 446.391 339.745 446.503 339.884L446.031 340.404C445.93 340.303 445.818 340.215 445.695 340.14C445.578 340.06 445.458 339.999 445.335 339.956C445.213 339.913 445.101 339.892 444.999 339.892C444.887 339.892 444.786 339.903 444.695 339.924C444.605 339.945 444.527 339.977 444.463 340.02C444.405 340.063 444.359 340.116 444.327 340.18C444.295 340.244 444.279 340.316 444.279 340.396C444.285 340.465 444.301 340.532 444.327 340.596C444.359 340.655 444.402 340.705 444.455 340.748C444.514 340.791 444.602 340.836 444.719 340.884C444.837 340.932 444.986 340.977 445.167 341.02C445.434 341.089 445.653 341.167 445.823 341.252C445.999 341.332 446.138 341.425 446.239 341.532C446.346 341.633 446.421 341.751 446.463 341.884C446.506 342.017 446.527 342.167 446.527 342.332C446.527 342.572 446.458 342.788 446.319 342.98C446.186 343.167 446.005 343.313 445.775 343.42C445.546 343.527 445.29 343.58 445.007 343.58ZM449.395 343.58C448.963 343.58 448.579 343.489 448.243 343.308C447.913 343.121 447.651 342.868 447.459 342.548C447.273 342.228 447.179 341.86 447.179 341.444C447.179 341.113 447.233 340.812 447.339 340.54C447.446 340.268 447.593 340.033 447.779 339.836C447.971 339.633 448.198 339.479 448.459 339.372C448.726 339.26 449.014 339.204 449.323 339.204C449.595 339.204 449.849 339.257 450.083 339.364C450.318 339.465 450.521 339.607 450.691 339.788C450.867 339.969 451.001 340.185 451.091 340.436C451.187 340.681 451.233 340.951 451.227 341.244L451.219 341.596H447.787L447.603 340.94H450.507L450.387 341.076V340.884C450.371 340.708 450.313 340.551 450.211 340.412C450.11 340.273 449.982 340.164 449.827 340.084C449.673 340.004 449.505 339.964 449.323 339.964C449.035 339.964 448.793 340.02 448.595 340.132C448.398 340.239 448.249 340.399 448.147 340.612C448.046 340.82 447.995 341.079 447.995 341.388C447.995 341.681 448.057 341.937 448.179 342.156C448.302 342.369 448.475 342.535 448.699 342.652C448.923 342.769 449.182 342.828 449.475 342.828C449.683 342.828 449.875 342.793 450.051 342.724C450.233 342.655 450.427 342.529 450.635 342.348L451.051 342.932C450.923 343.06 450.766 343.172 450.579 343.268C450.398 343.364 450.203 343.441 449.995 343.5C449.793 343.553 449.593 343.58 449.395 343.58ZM454.821 343.5V338.828C454.821 338.588 454.874 338.375 454.981 338.188C455.088 338.001 455.234 337.855 455.421 337.748C455.608 337.641 455.824 337.588 456.069 337.588C456.24 337.588 456.4 337.62 456.549 337.684C456.698 337.748 456.818 337.833 456.909 337.94L456.629 338.572C456.56 338.508 456.482 338.457 456.397 338.42C456.317 338.377 456.24 338.356 456.165 338.356C456.053 338.356 455.957 338.375 455.877 338.412C455.802 338.444 455.746 338.497 455.709 338.572C455.672 338.641 455.653 338.727 455.653 338.828V343.5H455.237C455.168 343.5 455.098 343.5 455.029 343.5C454.96 343.5 454.89 343.5 454.821 343.5ZM454.149 340.132V339.372H456.645V340.132H454.149ZM457.645 343.5V339.3H458.469V343.5H457.645ZM458.045 338.372C457.869 338.372 457.733 338.327 457.637 338.236C457.541 338.145 457.493 338.017 457.493 337.852C457.493 337.697 457.541 337.572 457.637 337.476C457.738 337.38 457.874 337.332 458.045 337.332C458.221 337.332 458.357 337.377 458.453 337.468C458.549 337.559 458.597 337.687 458.597 337.852C458.597 338.007 458.546 338.132 458.445 338.228C458.349 338.324 458.216 338.372 458.045 338.372ZM459.748 343.5V337.58H460.572V343.5H459.748ZM463.622 343.58C463.19 343.58 462.806 343.489 462.47 343.308C462.139 343.121 461.878 342.868 461.686 342.548C461.499 342.228 461.406 341.86 461.406 341.444C461.406 341.113 461.459 340.812 461.566 340.54C461.673 340.268 461.819 340.033 462.006 339.836C462.198 339.633 462.425 339.479 462.686 339.372C462.953 339.26 463.241 339.204 463.55 339.204C463.822 339.204 464.075 339.257 464.31 339.364C464.545 339.465 464.747 339.607 464.918 339.788C465.094 339.969 465.227 340.185 465.318 340.436C465.414 340.681 465.459 340.951 465.454 341.244L465.446 341.596H462.014L461.83 340.94H464.734L464.614 341.076V340.884C464.598 340.708 464.539 340.551 464.438 340.412C464.337 340.273 464.209 340.164 464.054 340.084C463.899 340.004 463.731 339.964 463.55 339.964C463.262 339.964 463.019 340.02 462.822 340.132C462.625 340.239 462.475 340.399 462.374 340.612C462.273 340.82 462.222 341.079 462.222 341.388C462.222 341.681 462.283 341.937 462.406 342.156C462.529 342.369 462.702 342.535 462.926 342.652C463.15 342.769 463.409 342.828 463.702 342.828C463.91 342.828 464.102 342.793 464.278 342.724C464.459 342.655 464.654 342.529 464.862 342.348L465.278 342.932C465.15 343.06 464.993 343.172 464.806 343.268C464.625 343.364 464.43 343.441 464.222 343.5C464.019 343.553 463.819 343.58 463.622 343.58ZM469.112 343.5V338.228H469.936V343.5H469.112ZM468.24 340.1V339.3H470.912V340.1H468.24ZM473.511 343.58C473.1 343.58 472.732 343.487 472.407 343.3C472.087 343.108 471.834 342.849 471.647 342.524C471.46 342.193 471.367 341.817 471.367 341.396C471.367 340.975 471.46 340.601 471.647 340.276C471.834 339.945 472.087 339.687 472.407 339.5C472.732 339.308 473.1 339.212 473.511 339.212C473.916 339.212 474.279 339.308 474.599 339.5C474.924 339.687 475.18 339.945 475.367 340.276C475.554 340.601 475.647 340.975 475.647 341.396C475.647 341.817 475.554 342.193 475.367 342.524C475.18 342.849 474.924 343.108 474.599 343.3C474.279 343.487 473.916 343.58 473.511 343.58ZM473.511 342.828C473.762 342.828 473.986 342.767 474.183 342.644C474.38 342.516 474.535 342.345 474.647 342.132C474.759 341.913 474.812 341.668 474.807 341.396C474.812 341.119 474.759 340.873 474.647 340.66C474.535 340.441 474.38 340.271 474.183 340.148C473.986 340.025 473.762 339.964 473.511 339.964C473.26 339.964 473.034 340.028 472.831 340.156C472.634 340.279 472.479 340.449 472.367 340.668C472.255 340.881 472.202 341.124 472.207 341.396C472.202 341.668 472.255 341.913 472.367 342.132C472.479 342.345 472.634 342.516 472.831 342.644C473.034 342.767 473.26 342.828 473.511 342.828ZM480.259 343.58C479.96 343.58 479.699 343.511 479.475 343.372C479.256 343.233 479.086 343.039 478.963 342.788C478.846 342.537 478.787 342.239 478.787 341.892V339.3H479.611V341.668C479.611 341.913 479.648 342.127 479.723 342.308C479.803 342.484 479.915 342.62 480.059 342.716C480.208 342.812 480.387 342.86 480.595 342.86C480.75 342.86 480.891 342.836 481.019 342.788C481.147 342.735 481.256 342.663 481.347 342.572C481.443 342.481 481.518 342.372 481.571 342.244C481.624 342.116 481.651 341.977 481.651 341.828V339.3H482.475V343.5H481.651V342.62L481.795 342.524C481.731 342.721 481.622 342.9 481.467 343.06C481.318 343.22 481.139 343.348 480.931 343.444C480.723 343.535 480.499 343.58 480.259 343.58ZM483.631 345.26V339.3H484.463V340.26L484.335 340.188C484.367 340.028 484.457 339.876 484.607 339.732C484.756 339.583 484.937 339.463 485.151 339.372C485.369 339.276 485.593 339.228 485.823 339.228C486.201 339.228 486.537 339.321 486.831 339.508C487.124 339.695 487.356 339.951 487.527 340.276C487.697 340.601 487.783 340.975 487.783 341.396C487.783 341.812 487.697 342.185 487.527 342.516C487.361 342.841 487.132 343.1 486.839 343.292C486.545 343.479 486.215 343.572 485.847 343.572C485.601 343.572 485.364 343.524 485.135 343.428C484.905 343.327 484.711 343.199 484.551 343.044C484.391 342.889 484.292 342.729 484.255 342.564L484.463 342.452V345.26H483.631ZM485.711 342.812C485.956 342.812 486.175 342.751 486.367 342.628C486.559 342.505 486.711 342.337 486.823 342.124C486.935 341.911 486.991 341.668 486.991 341.396C486.991 341.124 486.935 340.884 486.823 340.676C486.716 340.463 486.567 340.295 486.375 340.172C486.183 340.049 485.961 339.988 485.711 339.988C485.46 339.988 485.239 340.049 485.047 340.172C484.855 340.289 484.703 340.455 484.591 340.668C484.479 340.881 484.423 341.124 484.423 341.396C484.423 341.668 484.479 341.911 484.591 342.124C484.703 342.337 484.855 342.505 485.047 342.628C485.239 342.751 485.46 342.812 485.711 342.812ZM488.694 343.5V337.58H489.518V343.5H488.694ZM492.495 343.58C492.085 343.58 491.717 343.487 491.391 343.3C491.071 343.108 490.818 342.849 490.631 342.524C490.445 342.193 490.351 341.817 490.351 341.396C490.351 340.975 490.445 340.601 490.631 340.276C490.818 339.945 491.071 339.687 491.391 339.5C491.717 339.308 492.085 339.212 492.495 339.212C492.901 339.212 493.263 339.308 493.583 339.5C493.909 339.687 494.165 339.945 494.351 340.276C494.538 340.601 494.631 340.975 494.631 341.396C494.631 341.817 494.538 342.193 494.351 342.524C494.165 342.849 493.909 343.108 493.583 343.3C493.263 343.487 492.901 343.58 492.495 343.58ZM492.495 342.828C492.746 342.828 492.97 342.767 493.167 342.644C493.365 342.516 493.519 342.345 493.631 342.132C493.743 341.913 493.797 341.668 493.791 341.396C493.797 341.119 493.743 340.873 493.631 340.66C493.519 340.441 493.365 340.271 493.167 340.148C492.97 340.025 492.746 339.964 492.495 339.964C492.245 339.964 492.018 340.028 491.815 340.156C491.618 340.279 491.463 340.449 491.351 340.668C491.239 340.881 491.186 341.124 491.191 341.396C491.186 341.668 491.239 341.913 491.351 342.132C491.463 342.345 491.618 342.516 491.815 342.644C492.018 342.767 492.245 342.828 492.495 342.828ZM497.145 343.58C496.798 343.58 496.481 343.484 496.193 343.292C495.91 343.1 495.684 342.839 495.513 342.508C495.342 342.177 495.257 341.804 495.257 341.388C495.257 340.967 495.342 340.593 495.513 340.268C495.689 339.937 495.924 339.679 496.217 339.492C496.516 339.305 496.849 339.212 497.217 339.212C497.436 339.212 497.636 339.244 497.817 339.308C497.998 339.372 498.156 339.463 498.289 339.58C498.428 339.692 498.54 339.823 498.625 339.972C498.716 340.121 498.772 340.281 498.793 340.452L498.609 340.388V339.3H499.441V343.5H498.609V342.5L498.801 342.444C498.769 342.588 498.702 342.729 498.601 342.868C498.505 343.001 498.38 343.121 498.225 343.228C498.076 343.335 497.908 343.42 497.721 343.484C497.54 343.548 497.348 343.58 497.145 343.58ZM497.361 342.82C497.612 342.82 497.833 342.759 498.025 342.636C498.217 342.513 498.366 342.345 498.473 342.132C498.585 341.913 498.641 341.665 498.641 341.388C498.641 341.116 498.585 340.873 498.473 340.66C498.366 340.447 498.217 340.279 498.025 340.156C497.833 340.033 497.612 339.972 497.361 339.972C497.116 339.972 496.897 340.033 496.705 340.156C496.518 340.279 496.369 340.447 496.257 340.66C496.15 340.873 496.097 341.116 496.097 341.388C496.097 341.665 496.15 341.913 496.257 342.132C496.369 342.345 496.518 342.513 496.705 342.636C496.897 342.759 497.116 342.82 497.361 342.82ZM502.344 343.58C501.96 343.58 501.616 343.487 501.312 343.3C501.013 343.108 500.776 342.849 500.6 342.524C500.424 342.193 500.336 341.817 500.336 341.396C500.336 340.975 500.421 340.601 500.592 340.276C500.768 339.945 501.005 339.687 501.304 339.5C501.602 339.308 501.941 339.212 502.32 339.212C502.528 339.212 502.728 339.247 502.92 339.316C503.117 339.38 503.293 339.471 503.448 339.588C503.602 339.7 503.722 339.825 503.808 339.964C503.898 340.097 503.944 340.233 503.944 340.372L503.704 340.388V337.58H504.528V343.5H503.704V342.5H503.864C503.864 342.628 503.821 342.756 503.736 342.884C503.65 343.007 503.536 343.121 503.392 343.228C503.253 343.335 503.09 343.42 502.904 343.484C502.722 343.548 502.536 343.58 502.344 343.58ZM502.456 342.868C502.706 342.868 502.928 342.804 503.12 342.676C503.312 342.548 503.461 342.375 503.568 342.156C503.68 341.932 503.736 341.679 503.736 341.396C503.736 341.113 503.68 340.863 503.568 340.644C503.461 340.42 503.312 340.244 503.12 340.116C502.928 339.988 502.706 339.924 502.456 339.924C502.205 339.924 501.984 339.988 501.792 340.116C501.6 340.244 501.448 340.42 501.336 340.644C501.229 340.863 501.176 341.113 501.176 341.396C501.176 341.679 501.229 341.932 501.336 342.156C501.448 342.375 501.6 342.548 501.792 342.676C501.984 342.804 502.205 342.868 502.456 342.868Z" fill="#6B7280"/>
<path d="M346.65 367.59H344.97V370H346.61C347.37 370 347.71 369.39 347.71 368.8C347.71 368.22 347.4 367.59 346.65 367.59ZM343.9 373.5V366.61H346.67C348.15 366.61 348.77 367.71 348.77 368.8C348.77 369.89 348.15 370.97 346.67 370.97H344.97V373.5H343.9ZM350.766 371.82V373.5H349.736V368.83H350.766V369.9C351.006 369.06 351.456 368.73 352.046 368.73C352.376 368.73 352.726 368.8 352.876 368.91L352.706 369.86C352.436 369.73 352.216 369.7 352.016 369.7C351.136 369.7 350.766 370.58 350.766 371.82ZM354.75 368.83V373.5H353.73V368.83H354.75ZM353.55 366.94C353.55 366.57 353.87 366.29 354.24 366.29C354.63 366.29 354.92 366.57 354.92 366.94C354.92 367.31 354.63 367.59 354.24 367.59C353.87 367.59 353.55 367.31 353.55 366.94ZM355.891 371.15C355.891 369.67 357.041 368.73 358.381 368.73C359.131 368.73 359.791 369.02 360.231 369.54L359.431 370.18C359.181 369.89 358.791 369.73 358.381 369.73C357.601 369.73 356.911 370.28 356.911 371.15C356.911 372.02 357.601 372.61 358.381 372.61C358.791 372.61 359.181 372.44 359.431 372.15L360.241 372.78C359.801 373.3 359.141 373.6 358.381 373.6C357.041 373.6 355.891 372.63 355.891 371.15ZM365.67 371.15C365.67 371.26 365.67 371.42 365.66 371.53H361.95C362.06 372.25 362.62 372.7 363.38 372.7C363.9 372.7 364.41 372.46 364.65 372.03L365.49 372.4C365.09 373.23 364.2 373.6 363.33 373.6C362.01 373.6 360.93 372.63 360.93 371.15C360.93 369.67 362.01 368.73 363.33 368.73C364.65 368.73 365.67 369.67 365.67 371.15ZM361.95 370.78H364.66C364.55 370.05 364.04 369.63 363.33 369.63C362.61 369.63 362.06 370.06 361.95 370.78Z" fill="black"/>
<path d="M343.5 384.5C343.5 382.567 345.067 381 347 381H439C440.933 381 442.5 382.567 442.5 384.5V396.5C442.5 398.433 440.933 400 439 400H347C345.067 400 343.5 398.433 343.5 396.5V384.5Z" stroke="#E5E7EB"/>
<path d="M478.81 371.68L479.63 372.33C479.03 373.12 478.08 373.6 476.95 373.6C475 373.6 473.47 372.03 473.47 370.07C473.47 368.12 475 366.53 476.95 366.53C478.06 366.53 479 367.01 479.61 367.77L478.79 368.41C478.34 367.9 477.71 367.55 476.95 367.55C475.58 367.55 474.53 368.68 474.53 370.07C474.53 371.47 475.58 372.58 476.95 372.58C477.71 372.58 478.38 372.24 478.81 371.68ZM482.686 372.6C483.466 372.6 484.106 372.03 484.106 371.15C484.106 370.3 483.466 369.74 482.686 369.74C481.916 369.74 481.276 370.3 481.276 371.15C481.276 372.03 481.916 372.6 482.686 372.6ZM482.686 373.6C481.366 373.6 480.256 372.63 480.256 371.15C480.256 369.67 481.366 368.73 482.686 368.73C484.016 368.73 485.136 369.67 485.136 371.15C485.136 372.63 484.016 373.6 482.686 373.6ZM487.999 371.63L487.369 371.48C486.369 371.21 486.009 370.72 486.079 369.96C486.129 369.27 486.899 368.73 487.749 368.73C488.569 368.73 489.399 369.11 489.449 370.11H488.469C488.429 369.76 488.109 369.61 487.789 369.61C487.519 369.61 487.239 369.71 487.129 369.87C487.049 370 487.039 370.14 487.089 370.29C487.159 370.48 487.409 370.58 487.659 370.65L488.379 370.83C489.379 371.07 489.599 371.73 489.599 372.19C489.599 373.09 488.809 373.6 487.739 373.6C486.859 373.6 485.979 373.06 485.949 372.07H486.899C486.949 372.47 487.269 372.74 487.819 372.74C488.289 372.74 488.649 372.53 488.649 372.18C488.649 371.87 488.349 371.71 487.999 371.63ZM492.122 367.06V368.83H493.112V369.68H492.122V373.5H491.092V369.68H490.252V368.83H491.092V367.06H492.122Z" fill="black"/>
<path d="M473.5 384.5C473.5 382.567 475.067 381 477 381H569C570.933 381 572.5 382.567 572.5 384.5V396.5C572.5 398.433 570.933 400 569 400H477C475.067 400 473.5 398.433 473.5 396.5V384.5Z" stroke="#E5E7EB"/>
<path d="M344.53 415.07C344.53 416.46 345.59 417.56 346.95 417.56C348.32 417.56 349.38 416.46 349.38 415.07C349.38 413.68 348.32 412.57 346.95 412.57C345.59 412.57 344.53 413.68 344.53 415.07ZM343.47 415.07C343.47 413.12 344.99 411.53 346.95 411.53C348.92 411.53 350.45 413.12 350.45 415.07C350.45 417.03 348.92 418.6 346.95 418.6C344.99 418.6 343.47 417.03 343.47 415.07ZM352.611 415.99V418.5H351.581V413.83H352.611V414.53C352.881 414 353.531 413.73 354.041 413.73C355.171 413.73 355.821 414.45 355.821 415.78V418.5H354.791V415.9C354.791 415.15 354.411 414.74 353.811 414.74C353.201 414.74 352.611 415.07 352.611 415.99ZM357.216 418.5V411.29H358.246V418.5H357.216ZM360.707 413.83V418.5H359.687V413.83H360.707ZM359.507 411.94C359.507 411.57 359.827 411.29 360.197 411.29C360.587 411.29 360.877 411.57 360.877 411.94C360.877 412.31 360.587 412.59 360.197 412.59C359.827 412.59 359.507 412.31 359.507 411.94ZM363.178 415.99V418.5H362.148V413.83H363.178V414.53C363.448 414 364.098 413.73 364.608 413.73C365.738 413.73 366.388 414.45 366.388 415.78V418.5H365.358V415.9C365.358 415.15 364.978 414.74 364.378 414.74C363.768 414.74 363.178 415.07 363.178 415.99ZM372.223 416.15C372.223 416.26 372.223 416.42 372.213 416.53H368.503C368.613 417.25 369.173 417.7 369.933 417.7C370.453 417.7 370.963 417.46 371.203 417.03L372.043 417.4C371.643 418.23 370.753 418.6 369.883 418.6C368.563 418.6 367.483 417.63 367.483 416.15C367.483 414.67 368.563 413.73 369.883 413.73C371.203 413.73 372.223 414.67 372.223 416.15ZM368.503 415.78H371.213C371.103 415.05 370.593 414.63 369.883 414.63C369.163 414.63 368.613 415.06 368.503 415.78ZM380.579 413.43C380.579 413.97 380.359 414.56 379.689 414.83C380.489 415.02 380.949 415.82 380.949 416.48C380.949 417.57 380.189 418.5 378.879 418.5H376.029V411.61H378.669C379.839 411.61 380.579 412.3 380.579 413.43ZM377.099 414.44H378.629C379.189 414.44 379.479 413.99 379.479 413.47C379.479 412.91 379.129 412.58 378.559 412.58H377.099V414.44ZM378.799 415.35H377.099V417.53H378.829C379.469 417.53 379.839 417 379.839 416.47C379.839 415.96 379.459 415.35 378.799 415.35ZM384.268 417.6C385.048 417.6 385.688 417.03 385.688 416.15C385.688 415.3 385.048 414.74 384.268 414.74C383.498 414.74 382.858 415.3 382.858 416.15C382.858 417.03 383.498 417.6 384.268 417.6ZM384.268 418.6C382.948 418.6 381.838 417.63 381.838 416.15C381.838 414.67 382.948 413.73 384.268 413.73C385.598 413.73 386.718 414.67 386.718 416.15C386.718 417.63 385.598 418.6 384.268 418.6ZM389.991 417.6C390.771 417.6 391.411 417.03 391.411 416.15C391.411 415.3 390.771 414.74 389.991 414.74C389.221 414.74 388.581 415.3 388.581 416.15C388.581 417.03 389.221 417.6 389.991 417.6ZM389.991 418.6C388.671 418.6 387.561 417.63 387.561 416.15C387.561 414.67 388.671 413.73 389.991 413.73C391.321 413.73 392.441 414.67 392.441 416.15C392.441 417.63 391.321 418.6 389.991 418.6ZM396.593 418.5L394.603 416.33V418.5H393.583V411.29H394.603V415.37L396.083 413.83H397.463L395.473 415.86L397.913 418.5H396.593ZM399.662 413.83V418.5H398.642V413.83H399.662ZM398.462 411.94C398.462 411.57 398.782 411.29 399.152 411.29C399.542 411.29 399.832 411.57 399.832 411.94C399.832 412.31 399.542 412.59 399.152 412.59C398.782 412.59 398.462 412.31 398.462 411.94ZM402.133 415.99V418.5H401.103V413.83H402.133V414.53C402.403 414 403.053 413.73 403.563 413.73C404.693 413.73 405.343 414.45 405.343 415.78V418.5H404.313V415.9C404.313 415.15 403.933 414.74 403.333 414.74C402.723 414.74 402.133 415.07 402.133 415.99ZM410.368 416.17C410.368 415.24 409.698 414.73 408.928 414.73C408.148 414.73 407.508 415.32 407.508 416.17C407.508 417.05 408.148 417.61 408.928 417.61C409.628 417.61 410.368 417.09 410.368 416.17ZM407.518 419.09C407.768 419.58 408.318 419.87 408.828 419.87C409.778 419.87 410.388 419.34 410.388 418.03V417.79C410.128 418.32 409.438 418.6 408.808 418.6C407.548 418.6 406.448 417.66 406.448 416.18C406.448 414.7 407.548 413.73 408.808 413.73C409.448 413.73 410.098 414.01 410.388 414.52V413.83H411.398V417.81C411.398 419.96 410.398 420.83 408.828 420.83C407.918 420.83 407.108 420.36 406.668 419.52C406.858 419.44 407.328 419.17 407.518 419.09Z" fill="black"/>
<path d="M343.5 429.5C343.5 427.567 345.067 426 347 426H569C570.933 426 572.5 427.567 572.5 429.5V441.5C572.5 443.433 570.933 445 569 445H347C345.067 445 343.5 443.433 343.5 441.5V429.5Z" stroke="#E5E7EB"/>
<path d="M343 459.5C343 457.291 344.791 455.5 347 455.5H569C571.209 455.5 573 457.291 573 459.5V477.5C573 479.709 571.209 481.5 569 481.5H347C344.791 481.5 343 479.709 343 477.5V459.5Z" fill="#407CEE"/>
<path d="M447 469.5H448.06C448.09 470.06 448.6 470.63 449.43 470.63C450.24 470.63 450.66 470.2 450.73 469.69C450.77 469.05 450.28 468.72 449.64 468.57L448.77 468.35C447.29 467.95 447.06 467.11 447.06 466.5C447.06 465.32 448.12 464.53 449.33 464.53C450.61 464.53 451.57 465.31 451.57 466.57H450.51C450.51 465.93 450.03 465.53 449.31 465.53C448.67 465.53 448.12 465.92 448.12 466.48C448.12 466.75 448.22 467.17 449.04 467.38L449.92 467.61C451.32 467.98 451.89 468.75 451.78 469.75C451.67 470.83 450.74 471.6 449.43 471.6C448 471.6 447 470.62 447 469.5ZM456.602 471.5V470.83C456.282 471.34 455.632 471.6 455.032 471.6C453.782 471.6 452.662 470.65 452.662 469.16C452.662 467.67 453.782 466.73 455.032 466.73C455.592 466.73 456.282 466.96 456.602 467.49V466.83H457.622V471.5H456.602ZM453.722 469.15C453.722 470.01 454.382 470.6 455.152 470.6C455.912 470.6 456.592 470.07 456.592 469.15C456.592 468.24 455.852 467.73 455.152 467.73C454.382 467.73 453.722 468.29 453.722 469.15ZM460.426 471.5L458.476 466.83H459.566L460.906 470.19L462.226 466.83H463.326L461.376 471.5H460.426ZM468.515 469.15C468.515 469.26 468.515 469.42 468.505 469.53H464.795C464.905 470.25 465.465 470.7 466.225 470.7C466.745 470.7 467.255 470.46 467.495 470.03L468.335 470.4C467.935 471.23 467.045 471.6 466.175 471.6C464.855 471.6 463.775 470.63 463.775 469.15C463.775 467.67 464.855 466.73 466.175 466.73C467.495 466.73 468.515 467.67 468.515 469.15ZM464.795 468.78H467.505C467.395 468.05 466.885 467.63 466.175 467.63C465.455 467.63 464.905 468.06 464.795 468.78Z" fill="white"/>
</g>
<path d="M341 102.5C336.029 102.5 332 106.529 332 111.5V483.5C332 488.471 336.029 492.5 341 492.5H575C579.971 492.5 584 488.471 584 483.5V111.5C584 106.529 579.971 102.5 575 102.5H341Z" stroke="#F9FAFB" stroke-width="2"/>
</g>
<g filter="url(#filter2_d_1271_3346)">
<g clip-path="url(#clip3_1271_3346)">
<path d="M19 312.5C19 310.291 20.7909 308.5 23 308.5H215C217.209 308.5 219 310.291 219 312.5V402.5C219 404.709 217.209 406.5 215 406.5H23C20.7909 406.5 19 404.709 19 402.5V312.5Z" fill="white"/>
<mask id="path-69-inside-3_1271_3346" fill="white">
<path d="M19 308.5H219V336.5H19V308.5Z"/>
</mask>
<path d="M219 335.5H19V337.5H219V335.5Z" fill="#F3F4F6" mask="url(#path-69-inside-3_1271_3346)"/>
<path d="M35.228 325.5L34.472 323.496H31.388L30.632 325.5H29L32.096 317.232H33.752L36.848 325.5H35.228ZM32.924 318.996L31.904 322.152H33.968L32.924 318.996ZM39.0186 325.5L36.6666 319.896H38.2266L39.6666 323.628L41.1066 319.896H42.6786L40.3146 325.5H39.0186ZM48.8803 322.68C48.8803 322.824 48.8683 323.052 48.8563 323.184H44.5843C44.6803 323.94 45.3043 324.384 46.1323 324.384C46.6963 324.384 47.2603 324.144 47.5363 323.664C47.8843 323.856 48.2803 324.072 48.6523 324.264C48.1363 325.224 47.0683 325.62 46.0363 325.62C44.4403 325.62 43.1323 324.444 43.1323 322.68C43.1323 320.904 44.4403 319.776 46.0363 319.776C47.6203 319.776 48.8803 320.904 48.8803 322.68ZM44.5723 322.188H47.4523C47.3443 321.42 46.7683 321 46.0483 321C45.2803 321 44.6803 321.42 44.5723 322.188ZM51.5772 323.52V325.5H50.1132V319.896H51.5772V321.216C51.8652 320.196 52.5252 319.776 53.1612 319.776C53.5572 319.776 53.8572 319.848 54.0852 319.98L53.8332 321.3C53.4852 321.144 53.1252 321.144 52.9812 321.144C51.9852 321.144 51.5772 322.032 51.5772 323.52ZM59.1776 325.5V324.78C58.8296 325.356 57.9776 325.608 57.4376 325.608C55.9616 325.608 54.5816 324.48 54.5816 322.692C54.5816 320.904 55.9616 319.776 57.4376 319.776C57.9536 319.776 58.7576 319.98 59.1776 320.592V319.896H60.6416V325.5H59.1776ZM56.0936 322.692C56.0936 323.604 56.8256 324.204 57.6416 324.204C58.4456 324.204 59.1776 323.652 59.1776 322.692C59.1776 321.732 58.4096 321.18 57.6416 321.18C56.8256 321.18 56.0936 321.78 56.0936 322.692ZM66.5127 322.692C66.5127 321.732 65.7927 321.18 64.9887 321.18C64.1727 321.18 63.4767 321.78 63.4767 322.692C63.4767 323.628 64.1727 324.228 64.9887 324.228C65.7447 324.228 66.5127 323.64 66.5127 322.692ZM63.3567 326.04C63.5967 326.604 64.2567 326.964 64.8447 326.964C66.2607 326.964 66.6447 325.908 66.5487 324.732C66.2607 325.296 65.4807 325.62 64.7607 325.62C63.2967 325.62 61.9527 324.492 61.9527 322.716C61.9527 320.916 63.2967 319.776 64.7607 319.776C65.4927 319.776 66.2247 320.088 66.5487 320.652V319.896H67.9767V324.696C67.9767 327.192 66.7887 328.296 64.8447 328.296C63.6807 328.296 62.6607 327.66 62.1687 326.64C62.4927 326.484 63.0327 326.196 63.3567 326.04ZM75.0366 322.68C75.0366 322.824 75.0246 323.052 75.0126 323.184H70.7406C70.8366 323.94 71.4606 324.384 72.2886 324.384C72.8526 324.384 73.4166 324.144 73.6926 323.664C74.0406 323.856 74.4366 324.072 74.8086 324.264C74.2926 325.224 73.2246 325.62 72.1926 325.62C70.5966 325.62 69.2886 324.444 69.2886 322.68C69.2886 320.904 70.5966 319.776 72.1926 319.776C73.7766 319.776 75.0366 320.904 75.0366 322.68ZM70.7286 322.188H73.6086C73.5006 321.42 72.9246 321 72.2046 321C71.4366 321 70.8366 321.42 70.7286 322.188ZM82.786 318.6H80.986V321.192H82.738C83.53 321.192 83.902 320.52 83.902 319.908C83.902 319.308 83.554 318.6 82.786 318.6ZM79.45 325.5V317.232H82.81C84.646 317.232 85.438 318.564 85.438 319.908C85.438 321.252 84.646 322.56 82.81 322.56H80.986V325.5H79.45ZM87.9873 323.52V325.5H86.5233V319.896H87.9873V321.216C88.2753 320.196 88.9353 319.776 89.5713 319.776C89.9673 319.776 90.2673 319.848 90.4953 319.98L90.2433 321.3C89.8953 321.144 89.5353 321.144 89.3913 321.144C88.3953 321.144 87.9873 322.032 87.9873 323.52ZM92.9089 319.896V325.5H91.4569V319.896H92.9089ZM91.2409 317.724C91.2409 317.232 91.6729 316.848 92.1889 316.848C92.7049 316.848 93.1129 317.232 93.1129 317.724C93.1129 318.24 92.7049 318.612 92.1889 318.612C91.6729 318.612 91.2409 318.24 91.2409 317.724ZM94.2024 322.68C94.2024 320.904 95.6184 319.776 97.2264 319.776C98.1744 319.776 99.0264 320.16 99.5544 320.868L98.3904 321.744C98.1144 321.372 97.6944 321.192 97.2264 321.192C96.4104 321.192 95.6544 321.768 95.6544 322.68C95.6544 323.592 96.4104 324.216 97.2264 324.216C97.6944 324.216 98.1144 324.024 98.3904 323.652L99.5664 324.516C99.0384 325.224 98.1864 325.62 97.2264 325.62C95.6184 325.62 94.2024 324.444 94.2024 322.68ZM106.115 322.68C106.115 322.824 106.103 323.052 106.091 323.184H101.819C101.915 323.94 102.539 324.384 103.367 324.384C103.931 324.384 104.495 324.144 104.771 323.664C105.119 323.856 105.515 324.072 105.887 324.264C105.371 325.224 104.303 325.62 103.271 325.62C101.675 325.62 100.367 324.444 100.367 322.68C100.367 320.904 101.675 319.776 103.271 319.776C104.855 319.776 106.115 320.904 106.115 322.68ZM101.807 322.188H104.687C104.579 321.42 104.003 321 103.283 321C102.515 321 101.915 321.42 101.807 322.188Z" fill="#6B7280"/>
<path d="M120.024 315.9H120.852V317.172C122.172 317.328 123.12 318.252 123.12 319.632H121.584C121.584 318.972 121.116 318.552 120.348 318.552C119.664 318.552 119.112 318.936 119.112 319.524C119.112 319.764 119.208 320.256 120.096 320.472L121.116 320.772C122.976 321.288 123.432 322.32 123.372 323.292C123.312 324.672 122.184 325.476 120.852 325.608V326.964H120.024V325.608C118.5 325.452 117.504 324.372 117.504 323.088H119.04C119.076 323.7 119.58 324.252 120.468 324.252C121.296 324.252 121.8 323.82 121.836 323.256C121.872 322.716 121.488 322.344 120.696 322.128L119.676 321.864C117.876 321.348 117.588 320.28 117.588 319.56C117.588 318.228 118.644 317.292 120.024 317.16V315.9ZM128.764 322.812C128.764 321.9 128.08 321.456 127.252 321.456C126.712 321.456 126.028 321.624 125.452 322.248L124.612 321.744L125.272 317.652H129.736V319.008H126.448L126.172 320.616C126.496 320.328 127.12 320.196 127.624 320.196C129.064 320.196 130.228 321.108 130.228 322.812C130.228 324.48 128.992 325.62 127.096 325.62C125.992 325.62 124.936 324.972 124.372 323.964C124.468 323.892 125.512 323.268 125.608 323.196C125.932 323.772 126.508 324.168 127.096 324.168C128.14 324.168 128.764 323.532 128.764 322.812ZM135.532 323.016C135.532 322.368 135.052 321.804 134.38 321.804C133.732 321.804 133.156 322.308 133.156 322.98C133.156 323.652 133.684 324.192 134.332 324.192C135.004 324.204 135.52 323.688 135.532 323.016ZM134.62 320.436C135.868 320.436 137.044 321.42 137.044 323.1C137.008 324.588 135.892 325.62 134.26 325.62C132.832 325.584 131.692 324.564 131.56 322.896C131.368 320.46 131.776 317.412 134.608 317.508C135.508 317.544 136.42 317.832 136.972 319.032L135.616 319.608C135.364 319.092 134.98 318.888 134.56 318.888C133.432 318.888 132.976 320.076 133.036 321.324C133.168 320.928 133.792 320.436 134.62 320.436ZM139.867 320.112C139.831 320.76 140.371 321.324 141.019 321.324C141.667 321.324 142.243 320.832 142.243 320.16C142.243 319.488 141.715 318.936 141.067 318.936C140.407 318.936 139.867 319.44 139.867 320.112ZM140.767 322.692C139.543 322.692 138.355 321.708 138.355 320.028C138.391 318.552 139.519 317.484 141.127 317.52C142.591 317.556 143.683 318.564 143.839 320.232C144.031 322.68 143.623 325.716 140.791 325.62C139.891 325.584 138.967 325.308 138.427 324.096L139.783 323.52C140.035 324.036 140.419 324.24 140.839 324.24C141.967 324.24 142.423 323.064 142.363 321.804C142.207 322.212 141.607 322.692 140.767 322.692ZM148.042 321.336L151.93 325.5H149.926L147.166 322.44V325.5H145.618V317.232H147.166V320.244L149.386 317.232H151.186L148.042 321.336Z" fill="#22C55E"/>
<path d="M19 376.493C25.4431 373.361 51.0865 372.477 63.3776 371.507C78.7416 370.294 81.0887 372.174 94.4545 366.859L95.6154 366.379C101.449 363.876 107.388 360.083 114 358.77C132.636 355.881 150.366 356.589 167.952 352.715C171.88 351.849 203.14 343.723 219 341.5V406.5H19V376.493Z" fill="url(#paint0_linear_1271_3346)"/>
<path d="M67.8778 371.598L67.8918 371.099L67.8778 371.598ZM112.766 359.408L112.826 359.904L112.766 359.408ZM179.599 349.375L179.464 348.894L179.599 349.375ZM219.084 341.993C219.356 341.946 219.539 341.688 219.493 341.416C219.446 341.144 219.188 340.961 218.916 341.007L219.084 341.993ZM19.255 377.43C20.9318 376.436 23.9467 375.565 27.8053 374.834C31.6437 374.107 36.2536 373.528 41.0728 373.091C50.7119 372.216 61.152 371.91 67.8638 372.098L67.8918 371.099C61.1358 370.909 50.6558 371.217 40.9824 372.095C36.1453 372.534 31.5007 373.116 27.6191 373.852C23.7577 374.583 20.587 375.478 18.745 376.57L19.255 377.43ZM67.8638 372.098C83.9914 372.551 91.143 370 96.365 367.037C101.57 364.084 104.624 360.903 112.826 359.904L112.705 358.911C104.242 359.942 100.913 363.307 95.8716 366.168C90.8464 369.018 83.8864 371.548 67.8918 371.099L67.8638 372.098ZM112.826 359.904C146.703 355.778 160.732 355.182 179.733 349.856L179.464 348.894C160.559 354.191 146.659 354.776 112.705 358.911L112.826 359.904ZM179.733 349.856C192.597 346.251 201.748 344.956 219.084 341.993L218.916 341.007C201.606 343.965 192.391 345.271 179.464 348.894L179.733 349.856Z" fill="#344BFD"/>
</g>
<path d="M23 308C20.5147 308 18.5 310.015 18.5 312.5V402.5C18.5 404.985 20.5147 407 23 407H215C217.485 407 219.5 404.985 219.5 402.5V312.5C219.5 310.015 217.485 308 215 308H23Z" stroke="#F9FAFB"/>
</g>
<defs>
<filter id="filter0_d_1271_3346" x="0" y="0.5" width="606" height="432" filterUnits="userSpaceOnUse" color-interpolation-filters="sRGB">
<feFlood flood-opacity="0" result="BackgroundImageFix"/>
<feColorMatrix in="SourceAlpha" type="matrix" values="0 0 0 0 0 0 0 0 0 0 0 0 0 0 0 0 0 0 127 0" result="hardAlpha"/>
<feOffset dy="15"/>
<feGaussianBlur stdDeviation="25"/>
<feComposite in2="hardAlpha" operator="out"/>
<feColorMatrix type="matrix" values="0 0 0 0 0 0 0 0 0 0 0 0 0 0 0 0 0 0 0.1 0"/>
<feBlend mode="normal" in2="BackgroundImageFix" result="effect1_dropShadow_1271_3346"/>
<feBlend mode="normal" in="SourceGraphic" in2="effect1_dropShadow_1271_3346" result="shape"/>
</filter>
<filter id="filter1_d_1271_3346" x="286" y="71.5" width="314" height="452" filterUnits="userSpaceOnUse" color-interpolation-filters="sRGB">
<feFlood flood-opacity="0" result="BackgroundImageFix"/>
<feColorMatrix in="SourceAlpha" type="matrix" values="0 0 0 0 0 0 0 0 0 0 0 0 0 0 0 0 0 0 127 0" result="hardAlpha"/>
<feOffset dx="-15"/>
<feGaussianBlur stdDeviation="15"/>
<feComposite in2="hardAlpha" operator="out"/>
<feColorMatrix type="matrix" values="0 0 0 0 0.176471 0 0 0 0 0.392157 0 0 0 0 0.839216 0 0 0 0.1 0"/>
<feBlend mode="normal" in2="BackgroundImageFix" result="effect1_dropShadow_1271_3346"/>
<feBlend mode="normal" in="SourceGraphic" in2="effect1_dropShadow_1271_3346" result="shape"/>
</filter>
<filter id="filter2_d_1271_3346" x="8" y="297.5" width="232" height="130" filterUnits="userSpaceOnUse" color-interpolation-filters="sRGB">
<feFlood flood-opacity="0" result="BackgroundImageFix"/>
<feColorMatrix in="SourceAlpha" type="matrix" values="0 0 0 0 0 0 0 0 0 0 0 0 0 0 0 0 0 0 127 0" result="hardAlpha"/>
<feOffset dx="5" dy="5"/>
<feGaussianBlur stdDeviation="7.5"/>
<feComposite in2="hardAlpha" operator="out"/>
<feColorMatrix type="matrix" values="0 0 0 0 0 0 0 0 0 0 0 0 0 0 0 0 0 0 0.05 0"/>
<feBlend mode="normal" in2="BackgroundImageFix" result="effect1_dropShadow_1271_3346"/>
<feBlend mode="normal" in="SourceGraphic" in2="effect1_dropShadow_1271_3346" result="shape"/>
</filter>
<linearGradient id="paint0_linear_1271_3346" x1="119" y1="341.5" x2="119" y2="406.5" gradientUnits="userSpaceOnUse">
<stop stop-color="#ADB7F9"/>
<stop offset="1" stop-color="#B1B9F8" stop-opacity="0"/>
</linearGradient>
<clipPath id="clip0_1271_3346">
<path d="M53 46.5C53 42.0817 56.5817 38.5 61 38.5H545C549.418 38.5 553 42.0817 553 46.5V356.5C553 360.918 549.418 364.5 545 364.5H61C56.5817 364.5 53 360.918 53 356.5V46.5Z" fill="white"/>
</clipPath>
<clipPath id="clip1_1271_3346">
<path d="M333 111.5C333 107.082 336.582 103.5 341 103.5H575C579.418 103.5 583 107.082 583 111.5V483.5C583 487.918 579.418 491.5 575 491.5H341C336.582 491.5 333 487.918 333 483.5V111.5Z" fill="white"/>
</clipPath>
<clipPath id="clip2_1271_3346">
<rect width="8" height="8" fill="white" transform="translate(410 336.5)"/>
</clipPath>
<clipPath id="clip3_1271_3346">
<path d="M19 312.5C19 310.291 20.7909 308.5 23 308.5H215C217.209 308.5 219 310.291 219 312.5V402.5C219 404.709 217.209 406.5 215 406.5H23C20.7909 406.5 19 404.709 19 402.5V312.5Z" fill="white"/>
</clipPath>
</defs>
</svg>
