<svg width="21" height="20" viewBox="0 0 21 20" fill="none" xmlns="http://www.w3.org/2000/svg">
<path d="M11.6167 15C11.6167 15.4602 11.2437 15.8333 10.7834 15.8333C10.3232 15.8333 9.95016 15.4602 9.95016 15C9.95016 14.5398 10.3232 14.1667 10.7834 14.1667C11.2437 14.1667 11.6167 14.5398 11.6167 15Z" fill="white"/>
<path d="M10.7834 20C5.26923 20 0.783447 15.5142 0.783447 10C0.783447 4.48578 5.26923 0 10.7834 0C16.2977 0 20.7834 4.48578 20.7834 10C20.7834 15.5142 16.2977 20 10.7834 20ZM10.7834 1.25C5.95847 1.25 2.03345 5.17502 2.03345 10C2.03345 14.825 5.95847 18.75 10.7834 18.75C15.6084 18.75 19.5334 14.825 19.5334 10C19.5334 5.17502 15.6084 1.25 10.7834 1.25Z" fill="white"/>
<path d="M10.7834 12.2917C10.4384 12.2917 10.1584 12.0117 10.1584 11.6667V10.825C10.1584 10.0317 10.6618 9.32083 11.4101 9.0567C12.4059 8.7059 13.0752 7.64496 13.0752 6.875C13.0752 5.61081 12.0476 4.58328 10.7834 4.58328C9.51926 4.58328 8.49173 5.61081 8.49173 6.875C8.49173 7.22 8.21173 7.5 7.86673 7.5C7.52173 7.5 7.24173 7.22 7.24173 6.875C7.24173 4.92248 8.83017 3.33328 10.7834 3.33328C12.7367 3.33328 14.3252 4.92248 14.3252 6.875C14.3252 8.26508 13.2276 9.74091 11.8259 10.2359C11.576 10.3233 11.4084 10.5608 11.4084 10.8258V11.6667C11.4084 12.0117 11.1284 12.2917 10.7834 12.2917Z" fill="white"/>
</svg>
