<svg width="51" height="41" viewBox="0 0 51 41" fill="none" xmlns="http://www.w3.org/2000/svg">
<path d="M27.8722 29.1913C29.1383 26.35 30.3951 23.5237 31.6555 20.6974C34.4707 14.3782 37.2877 8.059 40.1047 1.7398C40.775 0.237266 42.0913 0.058526 43.1563 1.32646C45.3124 3.89585 47.4573 6.47268 49.6208 9.03276C50.1142 9.61553 50.2315 10.2188 50.0211 10.9524C47.3456 20.2952 44.6812 29.6418 42.0131 38.9847C41.5589 40.5748 40.4417 40.9546 39.1049 39.979C36.4294 38.024 33.752 36.0709 31.0877 34.1029C30.8866 33.9539 30.6985 33.7026 30.639 33.4643C30.1605 31.5261 29.5107 30.4909 27.8704 29.1894L27.8722 29.1913Z" fill="#173777"/>
<path d="M23.1168 29.208C21.5398 30.2618 20.7094 31.7811 20.3073 33.5815C20.2663 33.7677 20.1099 33.9651 19.9516 34.0805C17.2035 36.1044 14.4498 38.1245 11.6868 40.1297C10.6162 40.9061 9.41343 40.4742 9.04664 39.1914C6.35809 29.787 3.67699 20.379 0.984723 10.9765C0.776193 10.2504 0.86929 9.63784 1.36641 9.04948C3.55784 6.45589 5.72692 3.84554 7.91462 1.25009C8.90327 0.077112 10.2401 0.268883 10.8657 1.67274C14.8911 10.6972 18.9108 19.7236 22.9325 28.7481C22.9958 28.8896 23.0479 29.0367 23.1168 29.2061V29.208Z" fill="#173777"/>
<path d="M12.3478 0.510941H38.643C38.5872 0.680371 38.5518 0.825598 38.4922 0.959653C36.9748 4.36316 35.4481 7.76294 33.9455 11.172C33.7947 11.5146 33.6215 11.6338 33.2529 11.6338C28.0639 11.6226 22.8748 11.6319 17.6839 11.6133C17.4903 11.6133 17.198 11.4383 17.1216 11.267C15.5465 7.78156 13.9974 4.28496 12.4427 0.792085C12.4129 0.723196 12.3943 0.650581 12.3496 0.510941H12.3478Z" fill="#407CEE"/>
<path d="M21.9514 35.1306C21.9775 33.9036 22.281 32.7158 23.0499 31.6806C24.3625 29.9118 26.4851 29.8764 27.8666 31.5912C29.4138 33.5127 29.412 36.9069 27.861 38.832C26.4963 40.5282 24.4054 40.5114 23.0816 38.7818C22.2717 37.7223 21.9644 36.4935 21.9514 35.1325V35.1306Z" fill="#407CEE"/>
</svg>
