<svg width="36" height="35" viewBox="0 0 36 35" fill="none" xmlns="http://www.w3.org/2000/svg">
<path d="M21.7148 15.1993L17.9999 18.9142L14.285 15.1993C14.1818 15.1002 14.0438 15.0455 13.9007 15.047C13.7576 15.0484 13.6208 15.1059 13.5196 15.2071C13.4184 15.3083 13.3609 15.4451 13.3594 15.5882C13.3579 15.7314 13.4126 15.8693 13.5117 15.9726L17.2266 19.6875C15.3125 21.6016 13.5117 23.4024 13.5117 23.4024C13.437 23.4796 13.3865 23.5769 13.3664 23.6824C13.3463 23.7878 13.3575 23.8969 13.3986 23.9961C13.4397 24.0953 13.5089 24.1803 13.5977 24.2407C13.6865 24.3011 13.791 24.3342 13.8984 24.336C13.9702 24.336 14.0413 24.3219 14.1077 24.2944C14.174 24.2669 14.2343 24.2266 14.285 24.1757L17.9999 20.4608L21.7148 24.1758C21.7655 24.2271 21.8258 24.2678 21.8923 24.2957C21.9588 24.3236 22.0301 24.3381 22.1022 24.3383C22.1743 24.3386 22.2457 24.3245 22.3124 24.297C22.379 24.2696 22.4396 24.2292 22.4906 24.1782C22.5416 24.1272 22.582 24.0666 22.6094 24C22.6369 23.9333 22.651 23.8619 22.6507 23.7898C22.6505 23.7177 22.636 23.6464 22.6081 23.5799C22.5802 23.5134 22.5394 23.4531 22.4881 23.4024L18.7732 19.6875L22.4881 15.9726C22.5872 15.8694 22.6419 15.7314 22.6405 15.5883C22.639 15.4452 22.5815 15.3084 22.4803 15.2072C22.3791 15.106 22.2423 15.0485 22.0992 15.047C21.9561 15.0455 21.8181 15.1002 21.7148 15.1993Z" fill="#4B5563"/>
<path d="M28.4296 9.10917L23.1093 3.78943C22.6028 3.28001 22.0002 2.87613 21.3365 2.60116C20.6728 2.3262 19.9612 2.1856 19.2428 2.18752H11.4375C9.98761 2.18918 8.59757 2.76588 7.57234 3.79111C6.54711 4.81634 5.97041 6.20638 5.96875 7.65627V27.3438C5.97041 28.7937 6.54711 30.1837 7.57234 31.2089C8.59757 32.2342 9.98761 32.8109 11.4375 32.8125H24.5625C26.0124 32.8109 27.4024 32.2342 28.4277 31.2089C29.4529 30.1837 30.0296 28.7937 30.0312 27.3438V12.9763C30.0332 12.2578 29.8926 11.5461 29.6177 10.8823C29.3428 10.2185 28.939 9.61587 28.4296 9.10917ZM21.8281 4.13246C21.7499 3.90271 27.5481 9.80208 27.6563 9.88249C27.8123 10.0408 27.9561 10.2107 28.0866 10.3906H23.7422C23.2347 10.39 22.7482 10.1882 22.3894 9.82935C22.0306 9.47053 21.8287 8.98403 21.8281 8.47658V4.13246ZM28.9375 27.3438C28.9362 28.5037 28.4748 29.6157 27.6546 30.4359C26.8344 31.2561 25.7224 31.7174 24.5625 31.7188H11.4375C10.2776 31.7174 9.16556 31.2561 8.34537 30.4359C7.52519 29.6157 7.06383 28.5037 7.0625 27.3438V7.65627C7.06383 6.49635 7.52519 5.38433 8.34537 4.56414C9.16556 3.74396 10.2776 3.2826 11.4375 3.28127H19.2428C19.7516 3.28216 20.2564 3.37192 20.7344 3.5465V8.47658C20.7353 9.27401 21.0525 10.0385 21.6164 10.6024C22.1803 11.1663 22.9448 11.4834 23.7422 11.4844H28.6723C29.178 11.3301 28.8516 26.8015 28.9375 27.3438Z" fill="#4B5563"/>
</svg>
