<svg width="16" height="16" viewBox="0 0 16 16" fill="none" xmlns="http://www.w3.org/2000/svg">
<path d="M14.3522 13.1812L12.5834 11.4187C13.5423 10.2342 14.0101 8.7268 13.8903 7.20749C13.7705 5.68818 13.0722 4.27277 11.9396 3.25311C10.8069 2.23345 9.32612 1.6873 7.80262 1.72727C6.27912 1.76724 4.82903 2.39029 3.75138 3.46794C2.67373 4.54559 2.05069 5.99567 2.01072 7.51917C1.97074 9.04267 2.5169 10.5234 3.53656 11.6561C4.55621 12.7888 5.97163 13.487 7.49094 13.6068C9.01025 13.7266 10.5176 13.2589 11.7022 12.3L13.4647 14.0687C13.5228 14.1273 13.5919 14.1738 13.6681 14.2056C13.7442 14.2373 13.8259 14.2536 13.9084 14.2536C13.991 14.2536 14.0726 14.2373 14.1488 14.2056C14.225 14.1738 14.2941 14.1273 14.3522 14.0687C14.4108 14.0106 14.4573 13.9415 14.489 13.8654C14.5207 13.7892 14.5371 13.7075 14.5371 13.625C14.5371 13.5425 14.5207 13.4608 14.489 13.3846C14.4573 13.3085 14.4108 13.2393 14.3522 13.1812ZM3.28344 7.6875C3.28344 6.7604 3.55836 5.85412 4.07343 5.08326C4.5885 4.3124 5.32059 3.7116 6.17711 3.35681C7.03364 3.00202 7.97614 2.9092 8.88543 3.09006C9.79472 3.27093 10.6299 3.71737 11.2855 4.37293C11.9411 5.02849 12.3875 5.86372 12.5684 6.77301C12.7492 7.6823 12.6564 8.6248 12.3016 9.48133C11.9468 10.3379 11.346 11.0699 10.5752 11.585C9.80432 12.1001 8.89804 12.375 7.97094 12.375C6.72774 12.375 5.53546 11.8811 4.65638 11.0021C3.7773 10.123 3.28344 8.9307 3.28344 7.6875Z" fill="#4B5563"/>
</svg>
