<svg width="28" height="30" viewBox="0 0 28 30" fill="none" xmlns="http://www.w3.org/2000/svg">
<path d="M9.35591 1.91784C9.35591 1.46348 9.72454 1.09515 10.1792 1.09515C10.634 1.09515 11.0026 1.46348 11.0026 1.91784V5.54532C11.0026 5.84775 11.2479 6.09291 11.5506 6.09291C11.8533 6.09291 12.0986 5.84775 12.0986 5.54532V2.61929L17.07 1.74256C17.7203 1.6279 18.3165 2.1277 18.3165 2.78751C18.3165 3.41827 17.7691 3.90975 17.1415 3.84254L12.8997 3.3884C12.5987 3.35617 12.3286 3.57381 12.2964 3.87451C12.2641 4.17522 12.482 4.44509 12.7829 4.47732L17.0247 4.93148C18.3002 5.06805 19.4126 4.06929 19.4126 2.78751C19.4126 1.44673 18.201 0.431018 16.8795 0.664069L12.0562 1.51471C11.8708 0.649065 11.1009 0 10.1792 0C9.25436 0 8.48225 0.653665 8.30038 1.52385L3.4252 0.664069C2.10374 0.431018 0.892113 1.44673 0.892113 2.78751C0.892113 4.06929 2.00452 5.06805 3.28003 4.93148L7.5218 4.47732C7.82272 4.44509 8.04056 4.17522 8.00831 3.87451C7.97606 3.57381 7.70597 3.35617 7.40502 3.3884L3.16324 3.84254C2.53556 3.90975 1.98816 3.41827 1.98816 2.78751C1.98816 2.1277 2.58442 1.6279 3.23468 1.74256L8.25986 2.62879V5.54532C8.25986 5.84775 8.50521 6.09291 8.80788 6.09291C9.11056 6.09291 9.35591 5.84775 9.35591 5.54532V1.91784Z" fill="#2D64D6"/>
<path d="M13.4439 12.0035C13.4439 11.7011 13.1985 11.4559 12.8958 11.4559C12.5932 11.4559 12.3478 11.7011 12.3478 12.0035C12.3478 12.4646 12.2043 12.8905 11.9594 13.2413C11.5666 13.804 10.9157 14.1703 10.1792 14.1703C9.87659 14.1703 9.63121 14.4154 9.63121 14.7179C9.63121 15.0203 9.87659 15.2655 10.1792 15.2655C11.2891 15.2655 12.2694 14.7116 12.8584 13.8678C13.2274 13.3392 13.4439 12.6958 13.4439 12.0035Z" fill="#2D64D6"/>
<path fill-rule="evenodd" clip-rule="evenodd" d="M0.730774 8.24208C0.730774 7.93965 0.976152 7.6945 1.2788 7.6945H3.16108C3.46375 7.6945 3.7091 7.93965 3.7091 8.24208V8.90742H6.24038C6.38972 8.71796 6.55245 8.53956 6.72716 8.37361V6.9528C6.72716 6.65037 6.97252 6.40522 7.27519 6.40522H13.0833C13.386 6.40522 13.6313 6.65037 13.6313 6.9528V8.37358C13.8061 8.53953 13.9688 8.71793 14.1182 8.90742H18.2577C22.1924 8.90742 25.3821 12.0945 25.3821 16.026V18.0748C25.9238 18.3434 26.2962 18.9018 26.2962 19.5472V21.6761C26.2962 21.9785 26.051 22.2237 25.7482 22.2237H19.1335C18.8308 22.2237 18.5854 21.9785 18.5854 21.6761V19.5472C18.5854 18.9455 18.9092 18.4194 19.3921 18.1332V17.2897C19.3921 16.08 18.4107 15.0994 17.2 15.0994H14.1182C13.2013 16.2624 11.7778 17.0107 10.1793 17.0107C8.58078 17.0107 7.15725 16.2624 6.24038 15.0994H3.7091V15.7652C3.7091 16.0676 3.46375 16.3128 3.16108 16.3128H1.2788C0.976152 16.3128 0.730774 16.0676 0.730774 15.7652C0.730774 15.4628 0.976152 15.2176 1.2788 15.2176H2.61305V8.78966H1.2788C0.976152 8.78966 0.730774 8.54449 0.730774 8.24208ZM3.7091 14.0042V10.0026H6.51596C6.6951 10.0026 6.86294 9.91508 6.96545 9.76828C7.15575 9.49566 7.37995 9.24832 7.63196 9.03235C7.75334 8.92834 7.82322 8.77649 7.82322 8.61671V7.50038H12.5353V8.61668C12.5353 8.77647 12.6052 8.92831 12.7266 9.03233C12.9786 9.24829 13.2028 9.49566 13.3931 9.76828C13.4956 9.91508 13.6634 10.0026 13.8426 10.0026H18.2577C21.5871 10.0026 24.2861 12.6993 24.2861 16.026V17.9044H23.9737C23.6709 17.9044 23.4255 18.1496 23.4255 18.452C23.4255 18.7544 23.6709 18.9996 23.9737 18.9996H24.6521C24.9549 18.9996 25.2002 19.2448 25.2002 19.5472V21.1285H19.6815V19.5472C19.6815 19.2448 19.9269 18.9996 20.2295 18.9996H22.0913C22.394 18.9996 22.6393 18.7544 22.6393 18.452C22.6393 18.1496 22.394 17.9044 22.0913 17.9044H20.4882V17.2897C20.4882 15.4752 19.016 14.0042 17.2 14.0042H13.8426C13.6634 14.0042 13.4956 14.0917 13.3931 14.2385C12.6847 15.2534 11.5093 15.9155 10.1793 15.9155C8.84923 15.9155 7.67388 15.2534 6.96545 14.2385C6.86294 14.0917 6.6951 14.0042 6.51596 14.0042H3.7091Z" fill="#2D64D6"/>
<path d="M21.2411 24.2556C21.2411 23.9532 20.9957 23.708 20.6931 23.708C20.3904 23.708 20.145 23.9532 20.145 24.2556V24.5241C20.145 24.8265 20.3904 25.0718 20.6931 25.0718C20.9957 25.0718 21.2411 24.8265 21.2411 24.5241V24.2556Z" fill="#2D64D6"/>
<path d="M24.2551 24.2556C24.2551 23.9532 24.0098 23.708 23.7072 23.708C23.4045 23.708 23.1592 23.9532 23.1592 24.2556V24.5241C23.1592 24.8265 23.4045 25.0718 23.7072 25.0718C24.0098 25.0718 24.2551 24.8265 24.2551 24.5241V24.2556Z" fill="#2D64D6"/>
<path d="M20.419 26.7197C20.419 26.4174 20.1737 26.1721 19.871 26.1721C19.5683 26.1721 19.323 26.4174 19.323 26.7197V26.9883C19.323 27.2906 19.5683 27.5359 19.871 27.5359C20.1737 27.5359 20.419 27.2906 20.419 26.9883V26.7197Z" fill="#2D64D6"/>
<path d="M22.8852 26.7197C22.8852 26.4174 22.6398 26.1721 22.3371 26.1721C22.0345 26.1721 21.7891 26.4174 21.7891 26.7197V26.9883C21.7891 27.2906 22.0345 27.5359 22.3371 27.5359C22.6398 27.5359 22.8852 27.2906 22.8852 26.9883V26.7197Z" fill="#2D64D6"/>
<path d="M25.0771 26.7197C25.0771 26.4174 24.8319 26.1721 24.5291 26.1721C24.2266 26.1721 23.9811 26.4174 23.9811 26.7197V26.9883C23.9811 27.2906 24.2266 27.5359 24.5291 27.5359C24.8319 27.5359 25.0771 27.2906 25.0771 26.9883V26.7197Z" fill="#2D64D6"/>
<path d="M18.2269 29.1838C18.2269 28.8816 17.9816 28.6362 17.6789 28.6362C17.3762 28.6362 17.1309 28.8816 17.1309 29.1838V29.4524C17.1309 29.7547 17.3762 30 17.6789 30C17.9816 30 18.2269 29.7547 18.2269 29.4524V29.1838Z" fill="#2D64D6"/>
<path d="M21.2411 29.1838C21.2411 28.8816 20.9957 28.6362 20.6931 28.6362C20.3904 28.6362 20.145 28.8816 20.145 29.1838V29.4524C20.145 29.7547 20.3904 30 20.6931 30C20.9957 30 21.2411 29.7547 21.2411 29.4524V29.1838Z" fill="#2D64D6"/>
<path d="M24.2551 29.1838C24.2551 28.8816 24.0098 28.6362 23.7072 28.6362C23.4045 28.6362 23.1592 28.8816 23.1592 29.1838V29.4524C23.1592 29.7547 23.4045 30 23.7072 30C24.0098 30 24.2551 29.7547 24.2551 29.4524V29.1838Z" fill="#2D64D6"/>
<path d="M27.2692 29.1838C27.2692 28.8816 27.024 28.6362 26.7212 28.6362C26.4187 28.6362 26.1732 28.8816 26.1732 29.1838V29.4524C26.1732 29.7547 26.4187 30 26.7212 30C27.024 30 27.2692 29.7547 27.2692 29.4524V29.1838Z" fill="#2D64D6"/>
</svg>
