<svg width="50" height="30" viewBox="0 0 50 30" fill="none" xmlns="http://www.w3.org/2000/svg">
<path d="M46.2506 0H12.0319C11.631 0 11.306 0.324936 11.306 0.725952C11.306 1.12697 11.631 1.4519 12.0319 1.4519H46.2506C47.3666 1.4519 48.2745 2.35983 48.2745 3.47586V18.9329C48.2745 20.0489 47.3666 20.9569 46.2506 20.9569H44.5122V16.2269C44.5122 15.8258 44.1872 15.5009 43.7863 15.5009H6.21365C5.81273 15.5009 5.4877 15.8258 5.4877 16.2269V20.9569H3.74948C2.63345 20.9569 1.72552 20.0489 1.72552 18.9329V3.47586C1.72552 2.35983 2.63345 1.4519 3.74948 1.4519H9.1281C9.52902 1.4519 9.85405 1.12697 9.85405 0.725952C9.85405 0.324936 9.52902 0 9.1281 0H3.74948C1.83287 0 0.273621 1.55925 0.273621 3.47586V18.9329C0.273621 20.8495 1.83287 22.4088 3.74948 22.4088H11.3062C11.7072 22.4088 12.0322 22.0838 12.0322 21.6828C12.0322 21.2819 11.7072 20.9569 11.3062 20.9569H6.9396V19.6807H35.79C36.1909 19.6807 36.5159 19.3558 36.5159 18.9548C36.5159 18.5538 36.1909 18.2288 35.79 18.2288H6.9396V16.9527H43.0603V18.2288H38.6938C38.2929 18.2288 37.9678 18.5538 37.9678 18.9548C37.9678 19.3558 38.2929 19.6807 38.6938 19.6807H43.0603V20.9569H14.21C13.809 20.9569 13.484 21.2819 13.484 21.6828C13.484 22.0838 13.809 22.4088 14.21 22.4088H46.2506C48.1672 22.4088 49.7264 20.8495 49.7264 18.9329V3.47586C49.7263 1.55934 48.1671 0 46.2506 0Z" fill="#2D64D6"/>
<path d="M43.7863 5.90257C44.1872 5.90257 44.5122 5.57763 44.5122 5.17662C44.5122 4.7756 44.1872 4.45066 43.7863 4.45066H41.6393C41.2384 4.45066 40.9134 4.7756 40.9134 5.17662C40.9134 5.57763 41.2384 5.90257 41.6393 5.90257H43.7863Z" fill="#2D64D6"/>
<path d="M38.3269 5.90257C38.7279 5.90257 39.0529 5.57763 39.0529 5.17662C39.0529 4.7756 38.7279 4.45066 38.3269 4.45066H24.5865C24.1856 4.45066 23.8606 4.7756 23.8606 5.17662C23.8606 5.57763 24.1856 5.90257 24.5865 5.90257H38.3269Z" fill="#2D64D6"/>
<path d="M13.9294 24.3511C13.5285 24.3511 13.2035 24.6761 13.2035 25.0771C13.2035 25.0987 13.1802 27.2508 11.1663 28.6822C10.8395 28.9144 10.7628 29.3676 10.9952 29.6944C11.1368 29.8937 11.3604 29.9999 11.5875 29.9999C11.733 29.9999 11.8799 29.9562 12.0075 29.8655C14.6254 28.0048 14.6555 25.1956 14.6555 25.077C14.6554 24.6761 14.3304 24.3511 13.9294 24.3511Z" fill="#2D64D6"/>
<path d="M19.1274 24.3511C18.7264 24.3511 18.4014 24.6761 18.4014 25.0771V29.2739C18.4014 29.6749 18.7264 29.9998 19.1274 29.9998C19.5283 29.9998 19.8533 29.6749 19.8533 29.2739V25.0771C19.8533 24.6761 19.5283 24.3511 19.1274 24.3511Z" fill="#2D64D6"/>
<path d="M25.2042 24.3511C24.8032 24.3511 24.4782 24.6761 24.4782 25.0771V29.2739C24.4782 29.6749 24.8032 29.9998 25.2042 29.9998C25.6051 29.9998 25.9301 29.6749 25.9301 29.2739V25.0771C25.9301 24.6761 25.6051 24.3511 25.2042 24.3511Z" fill="#2D64D6"/>
<path d="M38.8337 28.6822C36.847 27.27 36.7976 25.1704 36.7965 25.0738C36.7948 24.6743 36.4704 24.3511 36.0706 24.3511C35.6697 24.3511 35.3446 24.6761 35.3446 25.0771C35.3446 25.1957 35.3747 28.0049 37.9926 29.8656C38.1202 29.9563 38.2671 30 38.4126 30C38.6397 29.9999 38.8634 29.8936 39.005 29.6945C39.2372 29.3676 39.1605 28.9144 38.8337 28.6822Z" fill="#2D64D6"/>
<path d="M30.8726 24.3511C30.4717 24.3511 30.1466 24.6761 30.1466 25.0771V29.2739C30.1466 29.6749 30.4717 29.9998 30.8726 29.9998C31.2735 29.9998 31.5985 29.6749 31.5985 29.2739V25.0771C31.5985 24.6761 31.2735 24.3511 30.8726 24.3511Z" fill="#2D64D6"/>
</svg>
