<svg width="34" height="30" viewBox="0 0 34 30" fill="none" xmlns="http://www.w3.org/2000/svg">
<path d="M33.033 9.22097L28.4518 6.57125V0.508475C28.4518 0.227675 28.2239 0 27.9428 0H23.8711C23.59 0 23.3621 0.227675 23.3621 0.508475V3.6839L17.2594 0.0710443C17.1009 -0.0228404 16.9038 -0.0237051 16.7444 0.0687763L0.966408 9.22132C0.809533 9.3123 0.713013 9.47981 0.713013 9.66102V12.2034C0.713013 12.4842 0.940878 12.7119 1.22198 12.7119H3.51234V29.4915C3.51234 29.7724 3.7402 30 4.02131 30H29.9787C30.2598 30 30.4877 29.7724 30.4877 29.4915V12.7119H32.778C33.0591 12.7119 33.287 12.4842 33.287 12.2034V9.66102C33.287 9.47958 33.1902 9.31188 33.033 9.22097ZM32.269 11.6949H29.9787C29.6976 11.6949 29.4697 11.9226 29.4697 12.2034V28.983H4.53027V12.2034C4.53027 11.9226 4.30238 11.6949 4.02131 11.6949H1.73095V9.95377L16.9974 1.09798L23.6116 5.0137C23.7689 5.10683 23.9641 5.10851 24.123 5.01807C24.2819 4.92761 24.38 4.75897 24.38 4.57626V1.01695H27.4338V6.86441C27.4338 7.04584 27.5306 7.21355 27.6878 7.30448L32.269 9.95417V11.6949Z" fill="#2D64D6"/>
<path d="M23.1076 17.0339H10.8924C9.76979 17.0339 8.8565 17.9463 8.8565 19.0678V24.661C8.8565 25.7825 9.76979 26.6949 10.8924 26.6949H23.1076C24.2302 26.6949 25.1435 25.7825 25.1435 24.661V19.0678C25.1435 17.9463 24.2302 17.0339 23.1076 17.0339ZM24.1255 24.661C24.1255 25.2218 23.6689 25.678 23.1076 25.678H10.8924C10.3311 25.678 9.87444 25.2218 9.87444 24.661V19.0678C9.87444 18.5071 10.3311 18.0508 10.8924 18.0508H23.1076C23.6689 18.0508 24.1255 18.5071 24.1255 19.0678V24.661Z" fill="#2D64D6"/>
<path d="M13.1827 19.0678C12.9016 19.0678 12.6738 19.2955 12.6738 19.5763V24.1525C12.6738 24.4334 12.9016 24.661 13.1827 24.661C13.4638 24.661 13.6917 24.4334 13.6917 24.1525V19.5763C13.6917 19.2955 13.4638 19.0678 13.1827 19.0678Z" fill="#2D64D6"/>
<path d="M17 19.0678C16.7189 19.0678 16.491 19.2955 16.491 19.5763V24.1525C16.491 24.4334 16.7189 24.661 17 24.661C17.2811 24.661 17.509 24.4334 17.509 24.1525V19.5763C17.509 19.2955 17.2811 19.0678 17 19.0678Z" fill="#2D64D6"/>
<path d="M20.8173 19.0678C20.5362 19.0678 20.3083 19.2955 20.3083 19.5763V24.1525C20.3083 24.4334 20.5362 24.661 20.8173 24.661C21.0983 24.661 21.3262 24.4334 21.3262 24.1525V19.5763C21.3262 19.2955 21.0983 19.0678 20.8173 19.0678Z" fill="#2D64D6"/>
<path d="M12.3892 15C12.3892 15.2808 12.6171 15.5085 12.8982 15.5085C13.1793 15.5085 13.4072 15.2808 13.4072 15C13.4072 14.598 13.5012 14.423 13.6312 14.1808C13.7849 13.8946 13.9762 13.5385 13.9762 12.8809C13.9762 12.2233 13.7849 11.8671 13.6312 11.5809C13.5011 11.3387 13.4072 11.1637 13.4072 10.7618C13.4072 10.3602 13.5011 10.1854 13.6312 9.94343C13.7849 9.65739 13.9762 9.30138 13.9762 8.64407C13.9762 8.36327 13.7483 8.13559 13.4672 8.13559C13.1862 8.13559 12.9583 8.36327 12.9583 8.64407C12.9583 9.04563 12.8643 9.22044 12.7343 9.4624C12.5806 9.74847 12.3892 10.1045 12.3892 10.7618C12.3892 11.4193 12.5805 11.7755 12.7342 12.0617C12.8643 12.3039 12.9583 12.4789 12.9583 12.8809C12.9583 13.2829 12.8643 13.4579 12.7342 13.7C12.5805 13.9862 12.3892 14.3424 12.3892 15Z" fill="#2D64D6"/>
<path d="M16.2065 15C16.2065 15.2808 16.4344 15.5085 16.7155 15.5085C16.9966 15.5085 17.2244 15.2808 17.2244 15C17.2244 14.598 17.3184 14.423 17.4485 14.1808C17.6022 13.8946 17.7935 13.5385 17.7935 12.8809C17.7935 12.2233 17.6022 11.8671 17.4485 11.5809C17.3184 11.3387 17.2244 11.1637 17.2244 10.7618C17.2244 10.3602 17.3184 10.1854 17.4484 9.94343C17.6021 9.65739 17.7935 9.30138 17.7935 8.64407C17.7935 8.36327 17.5656 8.13559 17.2845 8.13559C17.0034 8.13559 16.7755 8.36327 16.7755 8.64407C16.7755 9.04563 16.6816 9.22044 16.5516 9.4624C16.3978 9.74847 16.2065 10.1045 16.2065 10.7618C16.2065 11.4193 16.3978 11.7755 16.5515 12.0617C16.6816 12.3039 16.7755 12.4789 16.7755 12.8809C16.7755 13.2829 16.6815 13.4579 16.5515 13.7C16.3978 13.9862 16.2065 14.3424 16.2065 15Z" fill="#2D64D6"/>
<path d="M20.0238 15C20.0238 15.2808 20.2516 15.5085 20.5327 15.5085C20.8138 15.5085 21.0417 15.2808 21.0417 15C21.0417 14.598 21.1357 14.423 21.2657 14.1808C21.4194 13.8946 21.6107 13.5385 21.6107 12.8809C21.6107 12.2233 21.4194 11.8671 21.2657 11.5809C21.1357 11.3387 21.0417 11.1637 21.0417 10.7618C21.0417 10.3602 21.1356 10.1854 21.2657 9.94343C21.4194 9.65739 21.6107 9.30138 21.6107 8.64407C21.6107 8.36327 21.3829 8.13559 21.1017 8.13559C20.8207 8.13559 20.5928 8.36327 20.5928 8.64407C20.5928 9.04563 20.4988 9.22044 20.3688 9.4624C20.2151 9.74847 20.0238 10.1045 20.0238 10.7618C20.0238 11.4193 20.2151 11.7755 20.3687 12.0617C20.4988 12.3039 20.5928 12.4789 20.5928 12.8809C20.5928 13.2829 20.4988 13.4579 20.3687 13.7C20.2151 13.9862 20.0238 14.3424 20.0238 15Z" fill="#2D64D6"/>
</svg>
