<svg width="50" height="50" viewBox="0 0 50 50" fill="none" xmlns="http://www.w3.org/2000/svg">
<g clip-path="url(#clip0_1150_3640)">
<path d="M39.5833 8.33333H37.2896C36.3208 3.58542 32.1125 0 27.0833 0H22.9167C17.8875 0 13.6771 3.58542 12.7104 8.33333H10.4167C4.67292 8.33333 0 13.0062 0 18.75V39.5833C0 45.3271 4.67292 50 10.4167 50H39.5833C45.3271 50 50 45.3271 50 39.5833V18.75C50 13.0062 45.3271 8.33333 39.5833 8.33333ZM22.9167 4.16667H27.0833C29.8 4.16667 32.1146 5.90833 32.975 8.33333H17.025C17.8854 5.90833 20.2 4.16667 22.9167 4.16667ZM10.4167 12.5H39.5833C43.0292 12.5 45.8333 15.3042 45.8333 18.75V20.8333H39.5833V18.75C39.5833 17.6 38.6521 16.6667 37.5 16.6667C36.3479 16.6667 35.4167 17.6 35.4167 18.75V20.8333H14.5833V18.75C14.5833 17.6 13.6521 16.6667 12.5 16.6667C11.3479 16.6667 10.4167 17.6 10.4167 18.75V20.8333H4.16667V18.75C4.16667 15.3042 6.97083 12.5 10.4167 12.5ZM39.5833 45.8333H10.4167C6.97083 45.8333 4.16667 43.0292 4.16667 39.5833V25H10.4167V27.0833C10.4167 28.2333 11.3479 29.1667 12.5 29.1667C13.6521 29.1667 14.5833 28.2333 14.5833 27.0833V25H35.4167V27.0833C35.4167 28.2333 36.3479 29.1667 37.5 29.1667C38.6521 29.1667 39.5833 28.2333 39.5833 27.0833V25H45.8333V39.5833C45.8333 43.0292 43.0292 45.8333 39.5833 45.8333Z" fill="#2D64D6"/>
</g>
<defs>
<clipPath id="clip0_1150_3640">
<rect width="50" height="50" fill="white"/>
</clipPath>
</defs>
</svg>
