<svg width="168" height="26" viewBox="0 0 168 26" fill="none" xmlns="http://www.w3.org/2000/svg">
<path d="M15.7501 18.0725C16.4889 16.4146 17.2222 14.7654 17.9577 13.1161C19.6004 9.42877 21.2442 5.74141 22.888 2.05405C23.2791 1.17729 24.0472 1.073 24.6686 1.81286C25.9267 3.31214 27.1783 4.81577 28.4407 6.30963C28.7287 6.64968 28.7971 7.00168 28.6743 7.42973C27.1131 12.8815 25.5584 18.3354 24.0016 23.7871C23.7365 24.715 23.0846 24.9366 22.3046 24.3673C20.7433 23.2265 19.1811 22.0868 17.6264 20.9385C17.509 20.8516 17.3993 20.7049 17.3645 20.5658C17.0853 19.4349 16.7061 18.8308 15.749 18.0714L15.7501 18.0725Z" fill="#253D8D"/>
<path d="M12.9753 18.0818C12.0551 18.6967 11.5705 19.5833 11.3359 20.6339C11.312 20.7425 11.2207 20.8577 11.1284 20.925C9.52477 22.106 7.91793 23.2848 6.30566 24.4549C5.68096 24.9079 4.97912 24.6558 4.76509 23.9073C3.19628 18.4197 1.63181 12.9299 0.0608207 7.44343C-0.0608602 7.01972 -0.0065397 6.66228 0.283539 6.31897C1.56228 4.80556 2.82797 3.28237 4.10454 1.76788C4.68143 1.08343 5.4615 1.19533 5.82654 2.0145C8.17542 7.28046 10.521 12.5475 12.8677 17.8135C12.9047 17.896 12.9351 17.9819 12.9753 18.0807V18.0818Z" fill="#253D8D"/>
<path d="M6.69135 1.33691H22.0351C22.0025 1.43578 21.9819 1.52051 21.9471 1.59874C21.0617 3.58474 20.1708 5.56859 19.294 7.55785C19.206 7.75776 19.105 7.82729 18.8899 7.82729C15.862 7.82077 12.8341 7.8262 9.80508 7.81534C9.69209 7.81534 9.52151 7.71321 9.47697 7.61326C8.55785 5.57945 7.65393 3.53912 6.74675 1.50097C6.72937 1.46077 6.71851 1.4184 6.69243 1.33691H6.69135Z" fill="#0D79D4"/>
<path d="M12.2952 21.5381C12.3104 20.8221 12.4875 20.129 12.9362 19.5249C13.7021 18.4928 14.9407 18.4722 15.7468 19.4728C16.6496 20.594 16.6485 22.5745 15.7435 23.6979C14.9472 24.6877 13.7271 24.6779 12.9547 23.6686C12.4821 23.0504 12.3028 22.3334 12.2952 21.5392V21.5381Z" fill="#0D79D4"/>
<path d="M36.8856 0.71875H42.6458C44.1136 0.71875 45.2685 1.12181 46.0029 1.85625C46.5711 2.42445 46.8656 3.12195 46.8656 3.98459V4.02152C46.8656 5.56209 45.9855 6.38778 45.0317 6.88319C46.5353 7.39708 47.5815 8.25863 47.5815 10.0013V10.0382C47.5815 12.3317 45.6922 13.5604 42.8305 13.5604H36.8877V0.719837L36.8856 0.71875ZM44.6079 4.35071C44.6079 3.34141 43.8007 2.7178 42.3514 2.7178H39.1041V6.12921H42.1863C43.6356 6.12921 44.6079 5.561 44.6079 4.38656V4.34963V4.35071ZM42.6828 8.03807H39.1062V11.5603H42.8479C44.3885 11.5603 45.3239 10.9552 45.3239 9.7992V9.76225C45.3239 8.68016 44.4613 8.03807 42.6828 8.03807Z" fill="#064499"/>
<path d="M50.1292 0.71875H52.3857V11.5049H59.1357V13.5594H50.1292V0.71875Z" fill="#064499"/>
<path d="M60.9143 8.1138V0.72168H63.1708V8.02254C63.1708 10.4073 64.3996 11.673 66.4182 11.673C68.4368 11.673 69.6471 10.4811 69.6471 8.1138V0.72168H71.9036V8.00407C71.9036 11.8381 69.7394 13.7644 66.3823 13.7644C63.0252 13.7644 60.9165 11.8381 60.9165 8.11489L60.9143 8.1138Z" fill="#064499"/>
<path d="M75.0021 0.719837H84.5225V2.73736H77.2586V6.07598H83.6968V8.09348H77.2586V11.5418H84.6138V13.5594H75.0021V0.71875V0.719837Z" fill="#064499"/>
<path d="M90.3915 7.17725V7.1403C90.3915 3.48987 93.125 0.5 97.0133 0.5C99.3796 0.5 100.81 1.32569 102.039 2.49905L100.59 4.16781C99.5621 3.21392 98.4615 2.57184 96.9948 2.57184C94.5547 2.57184 92.7577 4.58935 92.7577 7.10228V7.13921C92.7577 9.65214 94.5373 11.6881 96.9948 11.6881C98.5724 11.6881 99.5817 11.0645 100.682 10.0367L102.132 11.5045C100.792 12.8984 99.3252 13.7795 96.9221 13.7795C93.1804 13.7795 90.3915 10.8624 90.3915 7.17616V7.17725Z" fill="#0D79D4"/>
<path d="M103.561 7.17725V7.1403C103.561 3.52681 106.349 0.5 110.293 0.5C114.237 0.5 116.989 3.48988 116.989 7.10337V7.1403C116.989 10.7538 114.201 13.7806 110.257 13.7806C106.313 13.7806 103.561 10.7907 103.561 7.17725ZM114.622 7.17725V7.1403C114.622 4.64584 112.807 2.57293 110.257 2.57293C107.707 2.57293 105.928 4.60891 105.928 7.10337V7.1403C105.928 9.63476 107.744 11.6892 110.293 11.6892C112.842 11.6892 114.622 9.67171 114.622 7.17616V7.17725Z" fill="#0D79D4"/>
<path d="M119.722 0.71875H121.979V11.5049H128.729V13.5594H119.722V0.71875Z" fill="#0D79D4"/>
<path d="M131.075 0.71875H133.332V11.5049H140.082V13.5594H131.075V0.71875Z" fill="#0D79D4"/>
<path d="M146.979 0.628906H149.07L154.719 13.5608H152.335L151.032 10.4612H144.96L143.639 13.5608H141.328L146.977 0.628906H146.979ZM150.207 8.46102L147.988 3.32435L145.787 8.46102H150.207Z" fill="#0D79D4"/>
<path d="M156.921 0.719837H162.644C164.258 0.719837 165.524 1.19679 166.35 2.00401C167.029 2.70151 167.413 3.6554 167.413 4.77334V4.81027C167.413 6.92013 166.148 8.18584 164.368 8.69864L167.835 13.5594H165.157L162.002 9.08323H159.177V13.5594H156.921V0.71875V0.719837ZM162.479 7.08527C164.093 7.08527 165.12 6.24112 165.12 4.93848V4.90153C165.12 3.5261 164.129 2.77321 162.46 2.77321H159.177V7.08419H162.479V7.08527Z" fill="#0D79D4"/>
<path d="M76.5915 19.9838H72.9574V21.6363H76.1787V22.6554H72.9574V24.3719H76.6382V25.391H71.8383V18.9658H76.5926V19.9849L76.5915 19.9838Z" fill="#152034"/>
<path d="M87.0963 18.9648H88.2165V25.39H87.2734L83.7382 20.8194V25.39H82.618V18.9648H83.6621L87.0963 23.4073V18.9648Z" fill="#152034"/>
<path d="M99.6979 24.8841C99.5056 25.0069 99.297 25.1133 99.0743 25.2057C98.8505 25.298 98.6103 25.3697 98.354 25.4219C98.0965 25.474 97.827 25.5001 97.5467 25.5001C97.0448 25.5001 96.5896 25.4165 96.1789 25.2481C95.7693 25.0797 95.4184 24.8472 95.1283 24.5506C94.8372 24.254 94.6133 23.9031 94.4536 23.5C94.295 23.0958 94.2146 22.6591 94.2146 22.1876C94.2146 21.716 94.2961 21.3065 94.458 20.9023C94.6199 20.4982 94.848 20.1451 95.1414 19.8419C95.4347 19.5388 95.7856 19.2987 96.1919 19.1216C96.5983 18.9446 97.0437 18.8555 97.5272 18.8555C97.8086 18.8555 98.0639 18.875 98.2931 18.9152C98.5224 18.9554 98.7353 19.0119 98.9309 19.0847C99.1264 19.1586 99.3122 19.2488 99.486 19.3552C99.6609 19.4628 99.8304 19.5866 99.9956 19.7268L99.2796 20.5807C99.1568 20.4764 99.0319 20.3819 98.9037 20.2961C98.7755 20.2103 98.6408 20.1386 98.4995 20.0799C98.3583 20.0223 98.204 19.9756 98.0356 19.9419C97.8672 19.9082 97.6825 19.8919 97.4805 19.8919C97.1871 19.8919 96.9133 19.9517 96.6591 20.0712C96.4049 20.1907 96.1843 20.3547 95.9986 20.5633C95.8117 20.7719 95.665 21.0142 95.5575 21.2902C95.4499 21.5661 95.3967 21.8605 95.3967 22.1734C95.3967 22.5048 95.4488 22.8112 95.5531 23.0937C95.6574 23.3761 95.8052 23.6195 95.9986 23.8248C96.1908 24.0302 96.4212 24.191 96.6874 24.3083C96.9535 24.4245 97.2523 24.4832 97.5826 24.4832C97.889 24.4832 98.1747 24.4387 98.4409 24.3496C98.707 24.2605 98.9385 24.1421 99.134 23.9943V22.7851H97.4913V21.803H100.227V24.5017C100.067 24.6364 99.8923 24.7646 99.699 24.8874L99.6979 24.8841Z" fill="#152034"/>
<path d="M107.509 18.9648V25.39H106.389V18.9648H107.509Z" fill="#152034"/>
<path d="M118.344 18.9648H119.465V25.39H118.522L114.986 20.8194V25.39H113.866V18.9648H114.91L118.344 23.4073V18.9648Z" fill="#152034"/>
<path d="M130.501 19.9838H126.866V21.6363H130.088V22.6554H126.866V24.3719H130.547V25.391H125.747V18.9658H130.502V19.9849L130.501 19.9838Z" fill="#152034"/>
<path d="M63.8922 21.5352H48.5017V22.8182H63.8922V21.5352Z" fill="#152034"/>
<path d="M156.218 21.5352H140.827V22.8182H156.218V21.5352Z" fill="#152034"/>
</svg>
