<svg width="587" height="561" viewBox="0 0 587 561" fill="none" xmlns="http://www.w3.org/2000/svg">
<g clip-path="url(#clip0_3468_5715)">
<mask id="path-1-outside-1_3468_5715" maskUnits="userSpaceOnUse" x="74.1758" y="0" width="452" height="322" fill="black">
<rect fill="white" x="74.1758" width="452" height="322"/>
<path d="M75.1758 16C75.1758 7.71573 81.8915 1 90.1758 1H510.176C518.46 1 525.176 7.71573 525.176 16V306C525.176 314.284 518.46 321 510.176 321H90.1758C81.8915 321 75.1758 314.284 75.1758 306V16Z"/>
</mask>
<path d="M75.1758 16C75.1758 7.71573 81.8915 1 90.1758 1H510.176C518.46 1 525.176 7.71573 525.176 16V306C525.176 314.284 518.46 321 510.176 321H90.1758C81.8915 321 75.1758 314.284 75.1758 306V16Z" fill="white"/>
<mask id="path-3-inside-2_3468_5715" fill="white">
<path d="M75.1758 1H525.176V52H75.1758V1Z"/>
</mask>
<path d="M75.1758 1H525.176V52H75.1758V1Z" fill="#F9FAFB"/>
<path d="M525.176 51H75.1758V53H525.176V51Z" fill="#F3F4F6" mask="url(#path-3-inside-2_3468_5715)"/>
<path d="M96.1278 32.16C92.9598 32.16 90.8798 29.84 90.8798 26.4C90.8798 22.96 92.9598 20.64 96.1278 20.64C99.3118 20.64 101.392 22.944 101.392 26.4C101.392 29.856 99.3118 32.16 96.1278 32.16ZM96.1278 30.288C97.9838 30.288 99.1838 28.848 99.1838 26.4C99.1838 23.952 97.9838 22.512 96.1278 22.512C94.2878 22.512 93.0718 23.952 93.0718 26.4C93.0718 28.848 94.2878 30.288 96.1278 30.288ZM105.266 32H103.106V28.192C103.106 26.736 103.106 25.296 103.026 23.84H105.09L105.25 25.168H105.394C106.034 24.192 106.994 23.68 108.114 23.68C109.938 23.68 111.042 24.8 111.042 27.072V32H108.866V27.488C108.866 26.208 108.274 25.552 107.25 25.552C106.034 25.552 105.266 26.496 105.266 27.776V32ZM115.157 32H112.997V20.8H115.157V32ZM118.256 22.864C117.472 22.864 116.864 22.288 116.864 21.536C116.864 20.784 117.472 20.224 118.256 20.224C119.04 20.224 119.648 20.784 119.648 21.536C119.648 22.288 119.04 22.864 118.256 22.864ZM119.344 32H117.184V23.84H119.344V32ZM123.532 32H121.372V28.192C121.372 26.736 121.372 25.296 121.292 23.84H123.356L123.516 25.168H123.66C124.3 24.192 125.26 23.68 126.38 23.68C128.204 23.68 129.308 24.8 129.308 27.072V32H127.132V27.488C127.132 26.208 126.54 25.552 125.516 25.552C124.3 25.552 123.532 26.496 123.532 27.776V32ZM138.83 27.68C138.83 27.968 138.814 28.288 138.782 28.544H132.974C133.15 29.888 133.902 30.592 135.006 30.592C135.806 30.592 136.366 30.24 136.718 29.408L138.654 29.92C138.046 31.392 136.846 32.16 134.974 32.16C132.334 32.16 130.862 30.304 130.862 27.92C130.862 25.536 132.318 23.68 134.942 23.68C137.358 23.68 138.83 25.312 138.83 27.68ZM134.942 25.248C133.918 25.248 133.214 25.92 133.006 27.136H136.766C136.622 25.856 135.934 25.248 134.942 25.248ZM149.43 32H144.406V20.8H149.11C151.35 20.8 152.806 21.712 152.806 23.76C152.806 25.024 152.198 25.84 151.318 26.208V26.32C152.566 26.72 153.286 27.568 153.286 28.96C153.286 30.864 152.07 32 149.43 32ZM146.598 22.512V25.536H148.902C150.022 25.536 150.646 24.992 150.646 24.032C150.646 23.072 150.022 22.512 148.902 22.512H146.598ZM146.598 27.104V30.288H149.238C150.406 30.288 151.078 29.712 151.078 28.704C151.078 27.68 150.406 27.104 149.238 27.104H146.598ZM158.74 32.16C156.1 32.16 154.628 30.304 154.628 27.92C154.628 25.536 156.1 23.68 158.74 23.68C161.38 23.68 162.868 25.536 162.868 27.92C162.868 30.304 161.38 32.16 158.74 32.16ZM158.74 30.368C159.924 30.368 160.692 29.408 160.692 27.92C160.692 26.432 159.924 25.472 158.74 25.472C157.556 25.472 156.788 26.432 156.788 27.92C156.788 29.408 157.556 30.368 158.74 30.368ZM168.209 32.16C165.569 32.16 164.097 30.304 164.097 27.92C164.097 25.536 165.569 23.68 168.209 23.68C170.849 23.68 172.337 25.536 172.337 27.92C172.337 30.304 170.849 32.16 168.209 32.16ZM168.209 30.368C169.393 30.368 170.161 29.408 170.161 27.92C170.161 26.432 169.393 25.472 168.209 25.472C167.025 25.472 166.257 26.432 166.257 27.92C166.257 29.408 167.025 30.368 168.209 30.368ZM176.125 32H173.965V20.8H176.125V27.712L179.133 23.84H181.677L178.429 27.728L181.805 32H179.165L176.125 27.936V32ZM184.178 22.864C183.394 22.864 182.786 22.288 182.786 21.536C182.786 20.784 183.394 20.224 184.178 20.224C184.962 20.224 185.57 20.784 185.57 21.536C185.57 22.288 184.962 22.864 184.178 22.864ZM185.266 32H183.106V23.84H185.266V32ZM189.454 32H187.294V28.192C187.294 26.736 187.294 25.296 187.214 23.84H189.278L189.438 25.168H189.582C190.222 24.192 191.182 23.68 192.302 23.68C194.126 23.68 195.23 24.8 195.23 27.072V32H193.054V27.488C193.054 26.208 192.462 25.552 191.438 25.552C190.222 25.552 189.454 26.496 189.454 27.776V32ZM201.024 35.36C199.008 35.36 197.52 34.56 197.056 33.072L199.024 32.544C199.312 33.376 200.016 33.744 201.008 33.744C202.128 33.744 202.816 33.136 202.816 31.952V30.288H202.672C202.112 31.248 201.248 31.776 200.08 31.776C198.08 31.776 196.784 30.24 196.784 27.76C196.784 25.248 198.08 23.68 200.08 23.68C201.248 23.68 202.112 24.208 202.672 25.168H202.816L202.992 23.84H205.056C204.976 25.296 204.976 26.672 204.976 28.096V32C204.976 34 203.648 35.36 201.024 35.36ZM200.864 30.048C202.048 30.048 202.816 29.104 202.816 27.744C202.816 26.4 202.048 25.472 200.864 25.472C199.696 25.472 198.944 26.4 198.944 27.76C198.944 29.12 199.696 30.048 200.864 30.048ZM213.176 32H210.984V20.8H218.856V22.64H213.176V25.616H218.344V27.44H213.176V32ZM224.006 32.16C221.366 32.16 219.894 30.304 219.894 27.92C219.894 25.536 221.366 23.68 224.006 23.68C226.646 23.68 228.134 25.536 228.134 27.92C228.134 30.304 226.646 32.16 224.006 32.16ZM224.006 30.368C225.19 30.368 225.958 29.408 225.958 27.92C225.958 26.432 225.19 25.472 224.006 25.472C222.822 25.472 222.054 26.432 222.054 27.92C222.054 29.408 222.822 30.368 224.006 30.368ZM234.466 23.68C234.658 23.68 234.802 23.68 235.026 23.696V25.824C234.77 25.792 234.642 25.792 234.418 25.792C233.154 25.792 231.922 26.496 231.922 28.688V32H229.762V28.192C229.762 26.736 229.762 25.296 229.682 23.84H231.746L231.954 25.504H232.114C232.562 24.288 233.41 23.68 234.466 23.68ZM238.547 32H236.387V28.192C236.387 26.736 236.387 25.296 236.307 23.84H238.371L238.515 25.088H238.659C239.219 24.16 240.131 23.68 241.171 23.68C242.371 23.68 243.171 24.224 243.619 25.28H243.763C244.339 24.208 245.315 23.68 246.451 23.68C248.147 23.68 249.107 24.736 249.107 26.816V32H246.947V27.296C246.947 26.144 246.419 25.552 245.539 25.552C244.515 25.552 243.827 26.368 243.827 27.536V32H241.667V27.296C241.667 26.144 241.139 25.552 240.259 25.552C239.235 25.552 238.547 26.368 238.547 27.536V32Z" fill="black"/>
<path d="M97.8558 80.08C96.7758 80.08 95.8238 79.632 95.5278 78.672L96.5518 78.408C96.7678 78.992 97.3038 79.224 97.8558 79.224C98.5198 79.224 98.8638 78.928 98.8638 78.504C98.8638 77.296 95.6478 78.072 95.6478 75.848C95.6478 74.96 96.4078 74.32 97.6958 74.32C98.7518 74.32 99.5598 74.752 99.8398 75.648L98.7998 75.912C98.6238 75.392 98.1918 75.176 97.6958 75.176C97.1038 75.176 96.7598 75.464 96.7598 75.848C96.7598 77.04 99.9758 76.256 99.9758 78.512C99.9758 79.44 99.1998 80.08 97.8558 80.08ZM104.581 77.84C104.581 77.984 104.573 78.144 104.557 78.272H101.653C101.741 78.944 102.117 79.296 102.669 79.296C103.069 79.296 103.349 79.12 103.525 78.704L104.493 78.96C104.189 79.696 103.589 80.08 102.653 80.08C101.333 80.08 100.597 79.152 100.597 77.96C100.597 76.768 101.325 75.84 102.637 75.84C103.845 75.84 104.581 76.656 104.581 77.84ZM102.637 76.624C102.125 76.624 101.773 76.96 101.669 77.568H103.549C103.477 76.928 103.133 76.624 102.637 76.624ZM106.463 80H105.383V74.4H106.463V80ZM111.261 77.84C111.261 77.984 111.253 78.144 111.237 78.272H108.333C108.421 78.944 108.797 79.296 109.349 79.296C109.749 79.296 110.029 79.12 110.205 78.704L111.173 78.96C110.869 79.696 110.269 80.08 109.333 80.08C108.013 80.08 107.277 79.152 107.277 77.96C107.277 76.768 108.005 75.84 109.317 75.84C110.525 75.84 111.261 76.656 111.261 77.84ZM109.317 76.624C108.805 76.624 108.453 76.96 108.349 77.568H110.229C110.157 76.928 109.813 76.624 109.317 76.624ZM113.919 80.08C112.591 80.08 111.863 79.152 111.863 77.96C111.863 76.768 112.591 75.84 113.919 75.84C114.839 75.84 115.511 76.28 115.767 77.168L114.735 77.44C114.591 76.96 114.295 76.736 113.911 76.736C113.327 76.736 112.943 77.216 112.943 77.96C112.943 78.704 113.327 79.184 113.911 79.184C114.303 79.184 114.615 78.968 114.775 78.48L115.815 78.752C115.543 79.632 114.831 80.08 113.919 80.08ZM118.37 80.08C117.586 80.08 117.058 79.648 117.058 78.728V76.776H116.274V75.92H117.114L117.29 74.768H118.138V75.92H119.226V76.776H118.138V78.672C118.138 79.04 118.338 79.2 118.618 79.2C118.778 79.2 118.93 79.168 119.106 79.064L119.37 79.808C119.042 80.008 118.754 80.08 118.37 80.08ZM124.542 80.08C122.95 80.08 121.918 78.92 121.918 77.2C121.918 75.48 122.95 74.32 124.542 74.32C125.726 74.32 126.614 74.888 126.934 76.072L125.862 76.352C125.638 75.592 125.166 75.248 124.542 75.248C123.614 75.248 123.014 75.976 123.014 77.2C123.014 78.424 123.614 79.152 124.542 79.152C125.182 79.152 125.67 78.8 125.902 78.048L126.974 78.328C126.638 79.528 125.75 80.08 124.542 80.08ZM131.405 77.304V77.856C131.405 78.576 131.405 79.28 131.445 80H130.493L130.405 79.304H130.333C130.077 79.816 129.637 80.08 128.997 80.08C128.205 80.08 127.685 79.6 127.685 78.864C127.685 78.088 128.245 77.616 129.357 77.552L130.365 77.496V77.344C130.365 76.856 129.997 76.648 129.565 76.648C129.101 76.648 128.797 76.872 128.661 77.288L127.733 77.04C127.877 76.272 128.573 75.84 129.565 75.84C130.749 75.84 131.405 76.392 131.405 77.304ZM129.325 79.272C129.885 79.272 130.333 78.832 130.365 78.16L129.605 78.208C129.029 78.248 128.717 78.392 128.717 78.776C128.717 79.072 128.949 79.272 129.325 79.272ZM134.183 80.08C133.399 80.08 132.871 79.648 132.871 78.728V76.776H132.087V75.92H132.927L133.103 74.768H133.951V75.92H135.039V76.776H133.951V78.672C133.951 79.04 134.151 79.2 134.431 79.2C134.591 79.2 134.743 79.168 134.919 79.064L135.183 79.808C134.855 80.008 134.567 80.08 134.183 80.08ZM139.644 77.84C139.644 77.984 139.636 78.144 139.62 78.272H136.716C136.804 78.944 137.18 79.296 137.732 79.296C138.132 79.296 138.412 79.12 138.588 78.704L139.556 78.96C139.252 79.696 138.652 80.08 137.716 80.08C136.396 80.08 135.66 79.152 135.66 77.96C135.66 76.768 136.388 75.84 137.7 75.84C138.908 75.84 139.644 76.656 139.644 77.84ZM137.7 76.624C137.188 76.624 136.836 76.96 136.732 77.568H138.612C138.54 76.928 138.196 76.624 137.7 76.624ZM142.366 81.68C141.358 81.68 140.614 81.28 140.382 80.536L141.366 80.272C141.51 80.688 141.862 80.872 142.358 80.872C142.918 80.872 143.262 80.568 143.262 79.976V79.144H143.19C142.91 79.624 142.478 79.888 141.894 79.888C140.894 79.888 140.246 79.12 140.246 77.88C140.246 76.624 140.894 75.84 141.894 75.84C142.478 75.84 142.91 76.104 143.19 76.584H143.262L143.35 75.92H144.382C144.342 76.648 144.342 77.336 144.342 78.048V80C144.342 81 143.678 81.68 142.366 81.68ZM142.286 79.024C142.878 79.024 143.262 78.552 143.262 77.872C143.262 77.2 142.878 76.736 142.286 76.736C141.702 76.736 141.326 77.2 141.326 77.88C141.326 78.56 141.702 79.024 142.286 79.024ZM147.216 80.08C145.896 80.08 145.16 79.152 145.16 77.96C145.16 76.768 145.896 75.84 147.216 75.84C148.536 75.84 149.28 76.768 149.28 77.96C149.28 79.152 148.536 80.08 147.216 80.08ZM147.216 79.184C147.808 79.184 148.192 78.704 148.192 77.96C148.192 77.216 147.808 76.736 147.216 76.736C146.624 76.736 146.24 77.216 146.24 77.96C146.24 78.704 146.624 79.184 147.216 79.184ZM152.446 75.84C152.542 75.84 152.614 75.84 152.726 75.848V76.912C152.598 76.896 152.534 76.896 152.422 76.896C151.79 76.896 151.174 77.248 151.174 78.344V80H150.094V78.096C150.094 77.368 150.094 76.648 150.054 75.92H151.086L151.19 76.752H151.27C151.494 76.144 151.918 75.84 152.446 75.84ZM155.151 81.6H154.015L154.575 80.144L153.015 75.92H154.135L155.119 78.96H155.175L156.151 75.92H157.247L155.151 81.6Z" fill="black"/>
<path d="M95.1758 94.5C95.1758 93.1193 96.2951 92 97.6758 92H152.676C154.056 92 155.176 93.1193 155.176 94.5C155.176 95.8807 154.056 97 152.676 97H97.6758C96.2951 97 95.1758 95.8807 95.1758 94.5Z" fill="#E5E7EB"/>
<path d="M95.1758 103.5C95.1758 102.119 96.2951 101 97.6758 101H192.676C194.056 101 195.176 102.119 195.176 103.5C195.176 104.881 194.056 106 192.676 106H97.6758C96.2951 106 95.1758 104.881 95.1758 103.5Z" fill="#E5E7EB"/>
<path d="M95.1758 112.5C95.1758 111.119 96.2951 110 97.6758 110H172.676C174.056 110 175.176 111.119 175.176 112.5C175.176 113.881 174.056 115 172.676 115H97.6758C96.2951 115 95.1758 113.881 95.1758 112.5Z" fill="#E5E7EB"/>
<path d="M95.1758 142.5C95.1758 141.119 96.2951 140 97.6758 140H152.676C154.056 140 155.176 141.119 155.176 142.5C155.176 143.881 154.056 145 152.676 145H97.6758C96.2951 145 95.1758 143.881 95.1758 142.5Z" fill="#E5E7EB"/>
<path d="M95.1758 151.5C95.1758 150.119 96.2951 149 97.6758 149H192.676C194.056 149 195.176 150.119 195.176 151.5C195.176 152.881 194.056 154 192.676 154H97.6758C96.2951 154 95.1758 152.881 95.1758 151.5Z" fill="#E5E7EB"/>
<path d="M95.1758 160.5C95.1758 159.119 96.2951 158 97.6758 158H172.676C174.056 158 175.176 159.119 175.176 160.5C175.176 161.881 174.056 163 172.676 163H97.6758C96.2951 163 95.1758 161.881 95.1758 160.5Z" fill="#E5E7EB"/>
<path d="M95.1758 190.5C95.1758 189.119 96.2951 188 97.6758 188H152.676C154.056 188 155.176 189.119 155.176 190.5C155.176 191.881 154.056 193 152.676 193H97.6758C96.2951 193 95.1758 191.881 95.1758 190.5Z" fill="#E5E7EB"/>
<path d="M95.1758 199.5C95.1758 198.119 96.2951 197 97.6758 197H192.676C194.056 197 195.176 198.119 195.176 199.5C195.176 200.881 194.056 202 192.676 202H97.6758C96.2951 202 95.1758 200.881 95.1758 199.5Z" fill="#E5E7EB"/>
<path d="M95.1758 208.5C95.1758 207.119 96.2951 206 97.6758 206H172.676C174.056 206 175.176 207.119 175.176 208.5C175.176 209.881 174.056 211 172.676 211H97.6758C96.2951 211 95.1758 209.881 95.1758 208.5Z" fill="#E5E7EB"/>
<path d="M232.856 80.08C231.776 80.08 230.824 79.632 230.528 78.672L231.552 78.408C231.768 78.992 232.304 79.224 232.856 79.224C233.52 79.224 233.864 78.928 233.864 78.504C233.864 77.296 230.648 78.072 230.648 75.848C230.648 74.96 231.408 74.32 232.696 74.32C233.752 74.32 234.56 74.752 234.84 75.648L233.8 75.912C233.624 75.392 233.192 75.176 232.696 75.176C232.104 75.176 231.76 75.464 231.76 75.848C231.76 77.04 234.976 76.256 234.976 78.512C234.976 79.44 234.2 80.08 232.856 80.08ZM239.581 77.84C239.581 77.984 239.573 78.144 239.557 78.272H236.653C236.741 78.944 237.117 79.296 237.669 79.296C238.069 79.296 238.349 79.12 238.525 78.704L239.493 78.96C239.189 79.696 238.589 80.08 237.653 80.08C236.333 80.08 235.597 79.152 235.597 77.96C235.597 76.768 236.325 75.84 237.637 75.84C238.845 75.84 239.581 76.656 239.581 77.84ZM237.637 76.624C237.125 76.624 236.773 76.96 236.669 77.568H238.549C238.477 76.928 238.133 76.624 237.637 76.624ZM242.735 75.84C242.831 75.84 242.903 75.84 243.015 75.848V76.912C242.887 76.896 242.823 76.896 242.711 76.896C242.079 76.896 241.463 77.248 241.463 78.344V80H240.383V78.096C240.383 77.368 240.383 76.648 240.343 75.92H241.375L241.479 76.752H241.559C241.783 76.144 242.207 75.84 242.735 75.84ZM246.032 80H244.72L243.304 75.92H244.424L245.368 79.032H245.424L246.36 75.92H247.456L246.032 80ZM248.622 75.432C248.23 75.432 247.926 75.144 247.926 74.768C247.926 74.392 248.23 74.112 248.622 74.112C249.014 74.112 249.318 74.392 249.318 74.768C249.318 75.144 249.014 75.432 248.622 75.432ZM249.166 80H248.086V75.92H249.166V80ZM252.036 80.08C250.708 80.08 249.98 79.152 249.98 77.96C249.98 76.768 250.708 75.84 252.036 75.84C252.956 75.84 253.628 76.28 253.884 77.168L252.852 77.44C252.708 76.96 252.412 76.736 252.028 76.736C251.444 76.736 251.06 77.216 251.06 77.96C251.06 78.704 251.444 79.184 252.028 79.184C252.42 79.184 252.732 78.968 252.892 78.48L253.932 78.752C253.66 79.632 252.948 80.08 252.036 80.08ZM258.472 77.84C258.472 77.984 258.464 78.144 258.448 78.272H255.544C255.632 78.944 256.008 79.296 256.56 79.296C256.96 79.296 257.24 79.12 257.416 78.704L258.384 78.96C258.08 79.696 257.48 80.08 256.544 80.08C255.224 80.08 254.488 79.152 254.488 77.96C254.488 76.768 255.216 75.84 256.528 75.84C257.736 75.84 258.472 76.656 258.472 77.84ZM256.528 76.624C256.016 76.624 255.664 76.96 255.56 77.568H257.44C257.368 76.928 257.024 76.624 256.528 76.624ZM262.339 80H261.259V74.4H262.435L264.955 78.36H265.019C264.995 77.808 264.987 77.328 264.987 76.816V74.4H266.067V80H264.883L262.363 76.04H262.307C262.331 76.6 262.339 77.064 262.339 77.584V80ZM270.757 77.304V77.856C270.757 78.576 270.757 79.28 270.797 80H269.845L269.757 79.304H269.685C269.429 79.816 268.989 80.08 268.349 80.08C267.557 80.08 267.037 79.6 267.037 78.864C267.037 78.088 267.597 77.616 268.709 77.552L269.717 77.496V77.344C269.717 76.856 269.349 76.648 268.917 76.648C268.453 76.648 268.149 76.872 268.013 77.288L267.085 77.04C267.229 76.272 267.925 75.84 268.917 75.84C270.101 75.84 270.757 76.392 270.757 77.304ZM268.677 79.272C269.237 79.272 269.685 78.832 269.717 78.16L268.957 78.208C268.381 78.248 268.069 78.392 268.069 78.776C268.069 79.072 268.301 79.272 268.677 79.272ZM272.862 80H271.782V78.096C271.782 77.368 271.782 76.648 271.742 75.92H272.774L272.846 76.544H272.918C273.198 76.08 273.654 75.84 274.174 75.84C274.774 75.84 275.174 76.112 275.398 76.64H275.47C275.758 76.104 276.246 75.84 276.814 75.84C277.662 75.84 278.142 76.368 278.142 77.408V80H277.062V77.648C277.062 77.072 276.798 76.776 276.358 76.776C275.846 76.776 275.502 77.184 275.502 77.768V80H274.422V77.648C274.422 77.072 274.158 76.776 273.718 76.776C273.206 76.776 272.862 77.184 272.862 77.768V80ZM282.901 77.84C282.901 77.984 282.893 78.144 282.877 78.272H279.973C280.061 78.944 280.437 79.296 280.989 79.296C281.389 79.296 281.669 79.12 281.845 78.704L282.813 78.96C282.509 79.696 281.909 80.08 280.973 80.08C279.653 80.08 278.917 79.152 278.917 77.96C278.917 76.768 279.645 75.84 280.957 75.84C282.165 75.84 282.901 76.656 282.901 77.84ZM280.957 76.624C280.445 76.624 280.093 76.96 279.989 77.568H281.869C281.797 76.928 281.453 76.624 280.957 76.624Z" fill="black"/>
<path d="M230.176 102.5C230.176 100.843 231.519 99.5 233.176 99.5H277.176C278.833 99.5 280.176 100.843 280.176 102.5C280.176 104.157 278.833 105.5 277.176 105.5H233.176C231.519 105.5 230.176 104.157 230.176 102.5Z" fill="#E8F0FD"/>
<path d="M230.176 118.5C230.176 116.843 231.519 115.5 233.176 115.5H327.176C328.833 115.5 330.176 116.843 330.176 118.5C330.176 120.157 328.833 121.5 327.176 121.5H233.176C231.519 121.5 230.176 120.157 230.176 118.5Z" fill="#E5E7EB"/>
<path d="M230.176 130.5C230.176 128.843 231.519 127.5 233.176 127.5H359.676C361.333 127.5 362.676 128.843 362.676 130.5C362.676 132.157 361.333 133.5 359.676 133.5H233.176C231.519 133.5 230.176 132.157 230.176 130.5Z" fill="#E5E7EB"/>
<path d="M230.176 146.5C230.176 144.843 231.519 143.5 233.176 143.5H257.176C258.833 143.5 260.176 144.843 260.176 146.5C260.176 148.157 258.833 149.5 257.176 149.5H233.176C231.519 149.5 230.176 148.157 230.176 146.5Z" fill="#E5E7EB"/>
<path d="M412.676 100C412.676 95.5817 416.258 92 420.676 92H497.176C501.594 92 505.176 95.5817 505.176 100V149C505.176 153.418 501.594 157 497.176 157H420.676C416.258 157 412.676 153.418 412.676 149V100Z" fill="#F3F4F6"/>
<path d="M230.176 192.5C230.176 190.843 231.519 189.5 233.176 189.5H277.176C278.833 189.5 280.176 190.843 280.176 192.5C280.176 194.157 278.833 195.5 277.176 195.5H233.176C231.519 195.5 230.176 194.157 230.176 192.5Z" fill="#E8F0FD"/>
<path d="M230.176 208.5C230.176 206.843 231.519 205.5 233.176 205.5H327.176C328.833 205.5 330.176 206.843 330.176 208.5C330.176 210.157 328.833 211.5 327.176 211.5H233.176C231.519 211.5 230.176 210.157 230.176 208.5Z" fill="#E5E7EB"/>
<path d="M230.176 220.5C230.176 218.843 231.519 217.5 233.176 217.5H359.676C361.333 217.5 362.676 218.843 362.676 220.5C362.676 222.157 361.333 223.5 359.676 223.5H233.176C231.519 223.5 230.176 222.157 230.176 220.5Z" fill="#E5E7EB"/>
<path d="M230.176 236.5C230.176 234.843 231.519 233.5 233.176 233.5H257.176C258.833 233.5 260.176 234.843 260.176 236.5C260.176 238.157 258.833 239.5 257.176 239.5H233.176C231.519 239.5 230.176 238.157 230.176 236.5Z" fill="#E5E7EB"/>
<path d="M412.676 190C412.676 185.582 416.258 182 420.676 182H497.176C501.594 182 505.176 185.582 505.176 190V239C505.176 243.418 501.594 247 497.176 247H420.676C416.258 247 412.676 243.418 412.676 239V190Z" fill="#F3F4F6"/>
<path d="M382.676 277.5C382.676 275.291 384.467 273.5 386.676 273.5H501.176C503.385 273.5 505.176 275.291 505.176 277.5V295.5C505.176 297.709 503.385 299.5 501.176 299.5H386.676C384.467 299.5 382.676 297.709 382.676 295.5V277.5Z" fill="#2D64D6"/>
<path d="M433.986 290H432.636V283H434.106L437.256 287.95H437.336C437.306 287.26 437.296 286.66 437.296 286.02V283H438.646V290H437.166L434.016 285.05H433.946C433.976 285.75 433.986 286.33 433.986 286.98V290ZM444.727 287.3C444.727 287.48 444.717 287.68 444.697 287.84H441.067C441.177 288.68 441.647 289.12 442.337 289.12C442.837 289.12 443.187 288.9 443.407 288.38L444.617 288.7C444.237 289.62 443.487 290.1 442.317 290.1C440.667 290.1 439.747 288.94 439.747 287.45C439.747 285.96 440.657 284.8 442.297 284.8C443.807 284.8 444.727 285.82 444.727 287.3ZM442.297 285.78C441.657 285.78 441.217 286.2 441.087 286.96H443.437C443.347 286.16 442.917 285.78 442.297 285.78ZM446.701 290H445.251L446.831 287.4L445.351 284.9H446.821L447.801 286.72H447.871L448.841 284.9H450.281L448.801 287.41L450.381 290H448.901L447.851 288.12H447.781L446.701 290ZM453.468 290.1C452.488 290.1 451.828 289.56 451.828 288.41V285.97H450.848V284.9H451.898L452.118 283.46H453.178V284.9H454.538V285.97H453.178V288.34C453.178 288.8 453.428 289 453.778 289C453.978 289 454.168 288.96 454.388 288.83L454.718 289.76C454.308 290.01 453.948 290.1 453.468 290.1Z" fill="white"/>
</g>
<path d="M90.1758 2H510.176V0H90.1758V2ZM524.176 16V306H526.176V16H524.176ZM510.176 320H90.1758V322H510.176V320ZM76.1758 306V16H74.1758V306H76.1758ZM90.1758 320C82.4438 320 76.1758 313.732 76.1758 306H74.1758C74.1758 314.837 81.3392 322 90.1758 322V320ZM524.176 306C524.176 313.732 517.908 320 510.176 320V322C519.012 322 526.176 314.837 526.176 306H524.176ZM510.176 2C517.908 2 524.176 8.26801 524.176 16H526.176C526.176 7.16344 519.012 0 510.176 0V2ZM90.1758 0C81.3392 0 74.1758 7.16344 74.1758 16H76.1758C76.1758 8.26801 82.4438 2 90.1758 2V0Z" fill="#E5E7EB" mask="url(#path-1-outside-1_3468_5715)"/>
<g filter="url(#filter0_d_3468_5715)">
<g clip-path="url(#clip1_3468_5715)">
<path d="M25.1758 288.64C25.1758 284.421 28.589 281 32.7993 281H260.552C264.763 281 268.176 284.421 268.176 288.64V528.36C268.176 532.579 264.763 536 260.552 536H32.7993C28.5889 536 25.1758 532.579 25.1758 528.36V288.64Z" fill="white"/>
<path d="M41.5018 301.596C40.6965 301.596 39.9966 301.254 39.7612 300.534L40.4116 300.342C40.5974 300.826 41.0558 301.025 41.5018 301.025C42.0778 301.025 42.369 300.758 42.369 300.391C42.369 299.38 39.8541 299.988 39.8541 298.281C39.8541 297.604 40.4302 297.126 41.3779 297.126C42.1522 297.126 42.7592 297.449 42.9822 298.126L42.3256 298.318C42.1645 297.877 41.7867 297.697 41.3841 297.697C40.8576 297.697 40.5603 297.952 40.5603 298.281C40.5603 299.286 43.0813 298.672 43.0813 300.398C43.0813 301.118 42.4866 301.596 41.5018 301.596ZM46.5995 299.864C46.5995 299.963 46.5933 300.081 46.581 300.168H44.2953C44.3573 300.733 44.6794 301.056 45.1625 301.056C45.497 301.056 45.7386 300.913 45.8996 300.565L46.5252 300.751C46.296 301.31 45.8315 301.596 45.1563 301.596C44.1714 301.596 43.6016 300.876 43.6016 299.951C43.6016 299.026 44.1652 298.306 45.1501 298.306C46.0297 298.306 46.5995 298.914 46.5995 299.864ZM45.1501 298.846C44.6917 298.846 44.382 299.15 44.3015 299.671H45.9368C45.881 299.131 45.5775 298.846 45.1501 298.846ZM47.9708 301.534H47.2709V297.188H47.9708V301.534ZM51.6444 299.864C51.6444 299.963 51.6382 300.081 51.6258 300.168H49.3401C49.4021 300.733 49.7242 301.056 50.2073 301.056C50.5418 301.056 50.7834 300.913 50.9444 300.565L51.57 300.751C51.3408 301.31 50.8763 301.596 50.2011 301.596C49.2163 301.596 48.6464 300.876 48.6464 299.951C48.6464 299.026 49.2101 298.306 50.1949 298.306C51.0745 298.306 51.6444 298.914 51.6444 299.864ZM50.1949 298.846C49.7366 298.846 49.4269 299.15 49.3463 299.671H50.9816C50.9258 299.131 50.6223 298.846 50.1949 298.846ZM53.7156 301.596C52.7307 301.596 52.1609 300.876 52.1609 299.951C52.1609 299.026 52.7307 298.306 53.7156 298.306C54.3845 298.306 54.9048 298.628 55.1031 299.299L54.4341 299.504C54.2978 299.088 54.0439 298.902 53.7094 298.902C53.2015 298.902 52.8608 299.317 52.8608 299.951C52.8608 300.584 53.2015 301 53.7094 301C54.0439 301 54.3164 300.814 54.4651 300.398L55.134 300.603C54.9234 301.267 54.3722 301.596 53.7156 301.596ZM57.0769 301.596C56.5132 301.596 56.1292 301.273 56.1292 300.621V298.939H55.516V298.368H56.1725L56.3088 297.486H56.8291V298.368H57.7087V298.939H56.8291V300.59C56.8291 300.888 56.9964 301.018 57.2132 301.018C57.3556 301.018 57.4795 300.987 57.622 300.9L57.814 301.385C57.5724 301.54 57.3494 301.596 57.0769 301.596ZM61.4486 301.534H59.9868V297.188H61.4486C62.7246 297.188 63.5484 298.057 63.5484 299.361C63.5484 300.665 62.7246 301.534 61.4486 301.534ZM60.6929 297.803V300.919H61.4486C62.2972 300.919 62.8361 300.336 62.8361 299.361C62.8361 298.386 62.2972 297.803 61.4486 297.803H60.6929ZM66.9015 299.429V299.858C66.9015 300.416 66.9015 300.969 66.9324 301.534H66.3254L66.2635 300.981H66.2139C66.0157 301.378 65.6626 301.596 65.1609 301.596C64.5415 301.596 64.1327 301.223 64.1327 300.658C64.1327 300.056 64.5663 299.69 65.4459 299.64L66.2263 299.597V299.454C66.2263 299.038 65.9166 298.852 65.545 298.852C65.1485 298.852 64.8884 299.044 64.7769 299.404L64.1699 299.224C64.2999 298.628 64.8388 298.306 65.545 298.306C66.4059 298.306 66.9015 298.722 66.9015 299.429ZM65.3344 301.043C65.8237 301.043 66.2077 300.64 66.2263 300.075L65.5883 300.118C65.0928 300.149 64.8079 300.28 64.8079 300.615C64.8079 300.876 65.0061 301.043 65.3344 301.043ZM69.0054 301.596C68.4418 301.596 68.0577 301.273 68.0577 300.621V298.939H67.4445V298.368H68.1011L68.2374 297.486H68.7577V298.368H69.6372V298.939H68.7577V300.59C68.7577 300.888 68.9249 301.018 69.1417 301.018C69.2842 301.018 69.408 300.987 69.5505 300.9L69.7425 301.385C69.501 301.54 69.278 301.596 69.0054 301.596ZM73.1304 299.864C73.1304 299.963 73.1242 300.081 73.1118 300.168H70.826C70.8879 300.733 71.21 301.056 71.6931 301.056C72.0276 301.056 72.2692 300.913 72.4302 300.565L73.056 300.751C72.8269 301.31 72.3621 301.596 71.687 301.596C70.7021 301.596 70.1322 300.876 70.1322 299.951C70.1322 299.026 70.6959 298.306 71.6808 298.306C72.5603 298.306 73.1304 298.914 73.1304 299.864ZM71.6808 298.846C71.2224 298.846 70.9127 299.15 70.8322 299.671H72.4674C72.4117 299.131 72.1082 298.846 71.6808 298.846Z" fill="#111827"/>
<path d="M43.2815 310.846H250.07C252.043 310.846 253.643 312.449 253.643 314.427V483.949C253.643 485.927 252.043 487.531 250.07 487.531H43.2815C41.3079 487.531 39.708 485.927 39.708 483.949V314.427C39.708 312.449 41.3079 310.846 43.2815 310.846Z" stroke="#E5E7EB"/>
<mask id="mask0_3468_5715" style="mask-type:luminance" maskUnits="userSpaceOnUse" x="39" y="310" width="215" height="20">
<path d="M39.4697 310.607H253.881V329.708H39.4697V310.607Z" fill="white"/>
</mask>
<g mask="url(#mask0_3468_5715)">
<path d="M253.881 329.23H39.4697V330.185H253.881V329.23Z" fill="#E5E7EB"/>
</g>
<path d="M48.7013 318.401L46.9146 320.157L48.7013 321.914" stroke="black" stroke-linecap="round" stroke-linejoin="round"/>
<path d="M127.004 322.545H126.24V317.531H127.455L128.877 321.657L130.306 317.531H131.536V322.545H130.721V318.491H130.678L129.277 322.545H128.455L127.047 318.491H127.004V322.545ZM135.822 320.117V320.611C135.822 321.256 135.822 321.893 135.857 322.545H135.157L135.085 321.907H135.028C134.8 322.366 134.392 322.617 133.813 322.617C133.099 322.617 132.627 322.187 132.627 321.535C132.627 320.84 133.127 320.418 134.142 320.36L135.043 320.31V320.145C135.043 319.665 134.685 319.451 134.256 319.451C133.799 319.451 133.499 319.673 133.37 320.088L132.67 319.88C132.82 319.193 133.442 318.82 134.256 318.82C135.25 318.82 135.822 319.3 135.822 320.117ZM134.013 321.979C134.578 321.979 135.021 321.513 135.043 320.862L134.306 320.912C133.735 320.948 133.406 321.098 133.406 321.485C133.406 321.786 133.635 321.979 134.013 321.979ZM138.942 318.82C139.034 318.82 139.099 318.82 139.206 318.827V319.615C139.092 319.601 139.034 319.601 138.934 319.601C138.37 319.601 137.784 319.938 137.784 320.969V322.545H136.976V320.84C136.976 320.188 136.976 319.544 136.94 318.892H137.705L137.805 319.622H137.855C138.062 319.092 138.448 318.82 138.942 318.82ZM141.646 322.617C140.51 322.617 139.853 321.786 139.853 320.718C139.853 319.651 140.51 318.82 141.646 318.82C142.418 318.82 143.019 319.193 143.247 319.966L142.475 320.203C142.318 319.723 142.025 319.508 141.639 319.508C141.053 319.508 140.66 319.988 140.66 320.718C140.66 321.449 141.053 321.929 141.639 321.929C142.025 321.929 142.34 321.714 142.511 321.234L143.283 321.47C143.04 322.237 142.404 322.617 141.646 322.617ZM146.311 318.82C147.132 318.82 147.64 319.322 147.64 320.367V322.545H146.825V320.482C146.825 319.845 146.539 319.529 146.032 319.529C145.439 319.529 145.046 319.995 145.046 320.597V322.545H144.238V317.531H145.046V318.648L145.017 319.494H145.103C145.374 319.049 145.81 318.82 146.311 318.82Z" fill="black"/>
<path d="M154.816 322.545H151.314V321.872L152.787 320.582C153.537 319.916 153.966 319.529 153.966 318.949C153.966 318.441 153.551 318.147 153.044 318.147C152.551 318.147 152.136 318.426 151.943 318.942L151.193 318.72C151.429 317.918 152.143 317.459 153.044 317.459C154.045 317.459 154.781 318.011 154.781 318.949C154.781 319.73 154.28 320.253 153.316 321.077L152.544 321.75V321.793H154.816V322.545ZM157.818 322.617C156.546 322.617 155.702 321.578 155.702 320.038C155.702 318.498 156.546 317.459 157.818 317.459C159.09 317.459 159.933 318.491 159.933 320.038C159.933 321.585 159.09 322.617 157.818 322.617ZM157.818 321.879C158.611 321.879 159.118 321.205 159.118 320.038C159.118 318.87 158.611 318.197 157.818 318.197C157.032 318.197 156.517 318.87 156.517 320.038C156.517 321.205 157.032 321.879 157.818 321.879ZM164.298 322.545H160.796V321.872L162.268 320.582C163.018 319.916 163.447 319.529 163.447 318.949C163.447 318.441 163.033 318.147 162.525 318.147C162.032 318.147 161.618 318.426 161.425 318.942L160.674 318.72C160.91 317.918 161.625 317.459 162.525 317.459C163.526 317.459 164.262 318.011 164.262 318.949C164.262 319.73 163.762 320.253 162.797 321.077L162.025 321.75V321.793H164.298V322.545ZM167.062 322.545H166.247V318.498H166.197L165.118 319.128V318.269L166.448 317.531H167.062V322.545Z" fill="black"/>
<path d="M244.65 321.914L246.437 320.157L244.65 318.4" stroke="black" stroke-linecap="round" stroke-linejoin="round"/>
<path d="M50.5992 341.646H49.8345V336.632H51.0495L52.4717 340.758L53.9011 336.632H55.1304V341.646H54.3157V337.592H54.2728L52.872 341.646H52.0501L50.6421 337.592H50.5992V341.646ZM57.9655 341.718C56.8291 341.718 56.1716 340.887 56.1716 339.82C56.1716 338.752 56.8291 337.921 57.9655 337.921C59.1019 337.921 59.7666 338.752 59.7666 339.82C59.7666 340.887 59.1019 341.718 57.9655 341.718ZM57.9655 341.023C58.5587 341.023 58.9518 340.55 58.9518 339.82C58.9518 339.089 58.5587 338.616 57.9655 338.616C57.3723 338.616 56.9792 339.089 56.9792 339.82C56.9792 340.55 57.3723 341.023 57.9655 341.023Z" fill="#111827"/>
<path d="M83.7213 341.646H82.8994V337.355H81.2842V336.632H85.3366V337.355H83.7213V341.646ZM87.1271 341.718C86.3052 341.718 85.8049 341.216 85.8049 340.171V337.993H86.6125V340.056C86.6125 340.693 86.9056 341.009 87.413 341.009C88.0062 341.009 88.3922 340.543 88.3922 339.941V337.993H89.2069V339.698C89.2069 340.35 89.2069 340.994 89.2427 341.646H88.4708L88.3993 341.044H88.3421C88.0705 341.481 87.6346 341.718 87.1271 341.718Z" fill="#111827"/>
<path d="M112.808 341.646H111.757L110.463 336.632H111.3L112.293 340.837H112.336L113.301 336.632H114.323L115.28 340.837H115.323L116.317 336.632H117.117L115.817 341.646H114.766L113.815 337.463H113.772L112.808 341.646ZM121.086 339.719C121.086 339.834 121.079 339.97 121.064 340.07H118.427C118.499 340.722 118.87 341.095 119.428 341.095C119.814 341.095 120.092 340.93 120.278 340.529L121 340.744C120.736 341.388 120.2 341.718 119.421 341.718C118.284 341.718 117.627 340.887 117.627 339.82C117.627 338.752 118.277 337.921 119.413 337.921C120.428 337.921 121.086 338.623 121.086 339.719ZM119.413 338.545C118.885 338.545 118.527 338.896 118.434 339.497H120.321C120.257 338.874 119.907 338.545 119.413 338.545Z" fill="#111827"/>
<path d="M144.744 341.646H143.922V337.355H142.307V336.632H146.359V337.355H144.744V341.646ZM149.285 337.921C150.106 337.921 150.614 338.423 150.614 339.469V341.646H149.799V339.583C149.799 338.946 149.513 338.63 149.006 338.63C148.413 338.63 148.02 339.096 148.02 339.698V341.646H147.212V336.632H148.02V337.749L147.991 338.595H148.077C148.348 338.151 148.784 337.921 149.285 337.921Z" fill="#111827"/>
<path d="M174.838 341.646H174.023V336.632H177.425V337.334H174.838V338.838H177.19V339.533H174.838V341.646ZM180.355 337.921C180.448 337.921 180.512 337.921 180.619 337.929V338.716C180.505 338.702 180.448 338.702 180.348 338.702C179.783 338.702 179.197 339.039 179.197 340.07V341.646H178.389V339.941C178.389 339.289 178.389 338.645 178.354 337.993H179.118L179.218 338.724H179.268C179.476 338.194 179.862 337.921 180.355 337.921Z" fill="#111827"/>
<path d="M205.754 341.718C204.825 341.718 204.018 341.324 203.746 340.493L204.497 340.271C204.711 340.829 205.24 341.059 205.754 341.059C206.419 341.059 206.755 340.751 206.755 340.328C206.755 339.161 203.853 339.862 203.853 337.893C203.853 337.112 204.518 336.56 205.611 336.56C206.505 336.56 207.205 336.933 207.463 337.714L206.705 337.936C206.519 337.427 206.083 337.219 205.619 337.219C205.011 337.219 204.668 337.513 204.668 337.893C204.668 339.053 207.577 338.344 207.577 340.335C207.577 341.166 206.891 341.718 205.754 341.718ZM211.622 339.218V339.712C211.622 340.357 211.622 340.994 211.658 341.646H210.957L210.886 341.009H210.829C210.6 341.467 210.193 341.718 209.614 341.718C208.899 341.718 208.427 341.288 208.427 340.636C208.427 339.941 208.928 339.519 209.943 339.461L210.843 339.411V339.246C210.843 338.767 210.486 338.552 210.057 338.552C209.6 338.552 209.299 338.774 209.171 339.189L208.47 338.981C208.62 338.294 209.242 337.921 210.057 337.921C211.05 337.921 211.622 338.401 211.622 339.218ZM209.814 341.08C210.379 341.08 210.822 340.615 210.843 339.963L210.107 340.013C209.535 340.049 209.206 340.199 209.206 340.586C209.206 340.887 209.435 341.08 209.814 341.08Z" fill="#111827"/>
<path d="M236.384 341.718C235.455 341.718 234.648 341.324 234.376 340.493L235.126 340.271C235.341 340.829 235.87 341.059 236.384 341.059C237.049 341.059 237.385 340.751 237.385 340.328C237.385 339.161 234.483 339.862 234.483 337.893C234.483 337.112 235.148 336.56 236.241 336.56C237.135 336.56 237.835 336.933 238.092 337.714L237.335 337.936C237.149 337.427 236.713 337.219 236.249 337.219C235.641 337.219 235.298 337.513 235.298 337.893C235.298 339.053 238.207 338.344 238.207 340.335C238.207 341.166 237.521 341.718 236.384 341.718ZM240.487 341.718C239.665 341.718 239.165 341.216 239.165 340.17V337.993H239.972V340.056C239.972 340.693 240.265 341.009 240.773 341.009C241.366 341.009 241.752 340.543 241.752 339.941V337.993H242.567V339.698C242.567 340.35 242.566 340.994 242.602 341.646H241.83L241.759 341.044H241.702C241.43 341.481 240.994 341.718 240.487 341.718Z" fill="#111827"/>
<path d="M54.3491 365.093H50.8471V364.419L52.3194 363.13C53.0698 362.464 53.4986 362.077 53.4986 361.497C53.4986 360.988 53.0841 360.695 52.5767 360.695C52.0835 360.695 51.669 360.974 51.476 361.49L50.7256 361.268C50.9614 360.465 51.6761 360.007 52.5767 360.007C53.5773 360.007 54.3134 360.559 54.3134 361.497C54.3134 362.278 53.8131 362.801 52.8483 363.624L52.0764 364.298V364.341H54.3491V365.093ZM56.5706 365.093H55.6415L57.6427 360.888V360.845H55.1698V360.079H58.6004V360.802L56.5706 365.093Z" fill="#9CA3AF"/>
<path d="M84.7407 365.093H81.2387V364.419L82.711 363.13C83.4614 362.464 83.8902 362.077 83.8902 361.497C83.8902 360.988 83.4757 360.695 82.9683 360.695C82.4751 360.695 82.0606 360.974 81.8676 361.49L81.1172 361.268C81.353 360.465 82.0677 360.007 82.9683 360.007C83.9689 360.007 84.705 360.559 84.705 361.497C84.705 362.278 84.2047 362.801 83.2399 363.624L82.468 364.298V364.341H84.7407V365.093ZM87.4843 365.164C86.4265 365.164 85.6332 364.584 85.6332 363.703C85.6332 363.152 85.9691 362.679 86.4908 362.471C86.062 362.249 85.7761 361.862 85.7761 361.375C85.7761 360.559 86.4694 360.007 87.4843 360.007C88.4991 360.007 89.1924 360.559 89.1924 361.375C89.1924 361.862 88.9065 362.249 88.4706 362.471C88.9923 362.679 89.3354 363.152 89.3354 363.703C89.3354 364.584 88.5349 365.164 87.4843 365.164ZM87.4843 362.17C87.9917 362.17 88.3776 361.884 88.3776 361.44C88.3776 360.981 87.9917 360.702 87.4843 360.702C86.9697 360.702 86.5909 360.981 86.5909 361.44C86.5909 361.884 86.9697 362.17 87.4843 362.17ZM87.4843 364.47C88.0846 364.47 88.5134 364.162 88.5134 363.639C88.5134 363.123 88.0846 362.808 87.4843 362.808C86.8839 362.808 86.4479 363.123 86.4479 363.639C86.4479 364.162 86.8839 364.47 87.4843 364.47Z" fill="#9CA3AF"/>
<path d="M116.796 365.093H115.981V361.046H115.931L114.852 361.676V360.816L116.181 360.079H116.796V365.093Z" fill="#111827"/>
<path d="M148.384 365.093H144.882V364.419L146.354 363.13C147.104 362.464 147.533 362.077 147.533 361.497C147.533 360.988 147.119 360.695 146.611 360.695C146.118 360.695 145.704 360.974 145.511 361.49L144.76 361.268C144.996 360.465 145.711 360.007 146.611 360.007C147.612 360.007 148.348 360.559 148.348 361.497C148.348 362.278 147.848 362.801 146.883 363.624L146.111 364.298V364.341H148.384V365.093Z" fill="#111827"/>
<path d="M178.872 360.752L177.542 362.084C178.471 362.134 179.072 362.729 179.072 363.61C179.072 364.548 178.386 365.164 177.278 365.164C176.32 365.164 175.591 364.706 175.362 363.939L176.134 363.71C176.299 364.19 176.727 364.47 177.271 364.47C177.871 364.47 178.25 364.126 178.25 363.589C178.25 363.037 177.864 362.707 177.228 362.707H176.477V362.192L177.807 360.838V360.795H175.541V360.079H178.872V360.752Z" fill="#111827"/>
<path d="M209.042 365.093H208.22V364.111H205.79V363.302L208.141 360.079H209.042V363.374H209.728V364.111H209.042V365.093ZM208.22 361.139L206.598 363.374H208.22V361.139Z" fill="#111827"/>
<path d="M238.385 365.164C237.449 365.164 236.691 364.742 236.456 363.982L237.235 363.76C237.42 364.226 237.878 364.455 238.392 364.455C239.014 364.455 239.443 364.061 239.443 363.481C239.443 362.887 239.014 362.507 238.421 362.507C238.006 362.507 237.671 362.643 237.356 362.922L236.663 362.801L236.842 360.079H239.822V360.795H237.549L237.456 362.127H237.506C237.821 361.92 238.171 361.826 238.543 361.826C239.55 361.826 240.258 362.464 240.258 363.481C240.258 364.477 239.529 365.164 238.385 365.164Z" fill="#111827"/>
<path d="M54.8638 389.511C55.9073 389.511 56.6935 390.192 56.6935 391.209C56.6935 392.24 55.9002 392.956 54.7781 392.956C53.6703 392.956 52.877 392.24 52.877 391.209C52.877 390.664 53.0699 390.278 53.4559 389.74L54.7995 387.871H55.793V387.928L54.5922 389.525C54.678 389.518 54.7709 389.511 54.8638 389.511ZM54.7781 392.247C55.407 392.247 55.8716 391.825 55.8716 391.209C55.8716 390.593 55.407 390.17 54.7781 390.17C54.1491 390.17 53.6917 390.6 53.6917 391.209C53.6917 391.825 54.142 392.247 54.7781 392.247Z" fill="#111827"/>
<path d="M84.9077 392.885H83.9785L85.9797 388.68V388.637H83.5068V387.871H86.9374V388.594L84.9077 392.885Z" fill="#111827"/>
<path d="M115.821 392.956C114.764 392.956 113.97 392.376 113.97 391.495C113.97 390.944 114.306 390.471 114.828 390.263C114.399 390.041 114.113 389.654 114.113 389.167C114.113 388.351 114.806 387.799 115.821 387.799C116.836 387.799 117.529 388.351 117.529 389.167C117.529 389.654 117.244 390.041 116.808 390.263C117.329 390.471 117.672 390.944 117.672 391.495C117.672 392.376 116.872 392.956 115.821 392.956ZM115.821 389.962C116.329 389.962 116.715 389.676 116.715 389.232C116.715 388.773 116.329 388.494 115.821 388.494C115.307 388.494 114.928 388.773 114.928 389.232C114.928 389.676 115.307 389.962 115.821 389.962ZM115.821 392.262C116.422 392.262 116.85 391.954 116.85 391.431C116.85 390.915 116.422 390.6 115.821 390.6C115.221 390.6 114.785 390.915 114.785 391.431C114.785 391.954 115.221 392.262 115.821 392.262Z" fill="#111827"/>
<path d="M146.676 387.799C147.784 387.799 148.584 388.515 148.584 389.547C148.584 390.091 148.384 390.478 147.998 391.015L146.662 392.885H145.668V392.828L146.869 391.23C146.783 391.237 146.683 391.245 146.59 391.245C145.554 391.245 144.768 390.564 144.768 389.547C144.768 388.515 145.561 387.799 146.676 387.799ZM146.676 390.586C147.312 390.586 147.762 390.156 147.762 389.547C147.762 388.931 147.312 388.508 146.676 388.508C146.047 388.508 145.582 388.931 145.582 389.547C145.582 390.163 146.047 390.586 146.676 390.586Z" fill="#111827"/>
<path d="M175.436 392.885H174.621V388.838H174.571L173.492 389.468V388.609L174.822 387.871H175.436V392.885ZM178.665 392.956C177.393 392.956 176.549 391.918 176.549 390.378C176.549 388.838 177.393 387.799 178.665 387.799C179.937 387.799 180.78 388.831 180.78 390.378C180.78 391.925 179.937 392.956 178.665 392.956ZM178.665 392.219C179.458 392.219 179.966 391.545 179.966 390.378C179.966 389.21 179.458 388.537 178.665 388.537C177.879 388.537 177.364 389.21 177.364 390.378C177.364 391.545 177.879 392.219 178.665 392.219Z" fill="#111827"/>
<path d="M207.257 392.885H206.443V388.838H206.393L205.313 389.468V388.609L206.643 387.871H207.257V392.885ZM210.214 392.885H209.4V388.838H209.35L208.27 389.468V388.609L209.6 387.871H210.214V392.885Z" fill="#111827"/>
<path d="M237.173 392.885H236.358V388.838H236.308L235.229 389.468V388.609L236.558 387.871H237.173V392.885ZM241.803 392.885H238.301V392.211L239.773 390.922C240.524 390.256 240.952 389.869 240.952 389.289C240.952 388.78 240.538 388.487 240.03 388.487C239.537 388.487 239.123 388.766 238.93 389.282L238.179 389.06C238.415 388.258 239.13 387.799 240.03 387.799C241.031 387.799 241.767 388.351 241.767 389.289C241.767 390.07 241.267 390.593 240.302 391.416L239.53 392.09V392.133H241.803V392.885Z" fill="#111827"/>
<path d="M53.153 420.677H52.3382V416.63H52.2882L51.209 417.26V416.401L52.5383 415.663H53.153V420.677ZM57.6399 416.336L56.3105 417.669C57.2396 417.719 57.84 418.313 57.84 419.194C57.84 420.133 57.1539 420.749 56.0461 420.749C55.0884 420.749 54.3594 420.29 54.1307 419.524L54.9025 419.295C55.0669 419.774 55.4957 420.054 56.0389 420.054C56.6393 420.054 57.0181 419.71 57.0181 419.173C57.0181 418.621 56.6321 418.292 55.996 418.292H55.2456V417.776L56.5749 416.422V416.379H54.3093V415.663H57.6399V416.336Z" fill="#111827"/>
<path d="M83.7829 420.677H82.9681V416.63H82.9181L81.8389 417.26V416.401L83.1682 415.663H83.7829V420.677ZM88.0482 420.677H87.2263V419.696H84.7963V418.886L87.1477 415.663H88.0482V418.958H88.7344V419.696H88.0482V420.677ZM87.2263 416.723L85.6039 418.958H87.2263V416.723Z" fill="#111827"/>
<path d="M114.413 420.677H113.598V416.63H113.548L112.469 417.26V416.401L113.799 415.663H114.413V420.677ZM117.392 420.749C116.456 420.749 115.698 420.326 115.462 419.567L116.241 419.345C116.427 419.81 116.885 420.039 117.399 420.039C118.021 420.039 118.45 419.645 118.45 419.065C118.45 418.471 118.021 418.091 117.428 418.091C117.013 418.091 116.677 418.227 116.363 418.507L115.67 418.385L115.848 415.663H118.829V416.379H116.556L116.463 417.712H116.513C116.828 417.504 117.178 417.411 117.549 417.411C118.557 417.411 119.265 418.048 119.265 419.065C119.265 420.061 118.536 420.749 117.392 420.749Z" fill="#111827"/>
<path d="M131.36 410.171C131.36 408.062 133.067 406.351 135.172 406.351H158.179C160.284 406.351 161.991 408.062 161.991 410.171V426.407C161.991 428.517 160.284 430.228 158.179 430.228H135.172C133.067 430.228 131.36 428.517 131.36 426.407V410.171Z" fill="#407CEE"/>
<path d="M145.044 420.677H144.229V416.63H144.179L143.1 417.26V416.401L144.429 415.663H145.044V420.677ZM148.058 417.303C149.102 417.303 149.888 417.984 149.888 419.001C149.888 420.032 149.095 420.749 147.972 420.749C146.865 420.749 146.071 420.032 146.071 419.001C146.071 418.456 146.264 418.07 146.65 417.532L147.994 415.663H148.987V415.72L147.787 417.318C147.872 417.31 147.965 417.303 148.058 417.303ZM147.972 420.039C148.601 420.039 149.066 419.617 149.066 419.001C149.066 418.385 148.601 417.962 147.972 417.962C147.344 417.962 146.886 418.392 146.886 419.001C146.886 419.617 147.336 420.039 147.972 420.039Z" fill="white"/>
<path d="M175.913 420.677H175.098V416.63H175.048L173.969 417.26V416.401L175.298 415.663H175.913V420.677ZM178.327 420.677H177.397L179.399 416.472V416.429H176.926V415.663H180.356V416.386L178.327 420.677Z" fill="#111827"/>
<path d="M206.305 420.677H205.49V416.63H205.44L204.361 417.26V416.401L205.69 415.663H206.305V420.677ZM209.255 420.749C208.197 420.749 207.404 420.168 207.404 419.287C207.404 418.736 207.739 418.263 208.261 418.055C207.832 417.833 207.547 417.447 207.547 416.959C207.547 416.143 208.24 415.591 209.255 415.591C210.27 415.591 210.963 416.143 210.963 416.959C210.963 417.447 210.677 417.833 210.241 418.055C210.763 418.263 211.106 418.736 211.106 419.287C211.106 420.168 210.305 420.749 209.255 420.749ZM209.255 417.755C209.762 417.755 210.148 417.468 210.148 417.024C210.148 416.565 209.762 416.286 209.255 416.286C208.74 416.286 208.361 416.565 208.361 417.024C208.361 417.468 208.74 417.755 209.255 417.755ZM209.255 420.054C209.855 420.054 210.284 419.746 210.284 419.223C210.284 418.707 209.855 418.392 209.255 418.392C208.654 418.392 208.218 418.707 208.218 419.223C208.218 419.746 208.654 420.054 209.255 420.054Z" fill="#111827"/>
<path d="M236.935 420.677H236.12V416.63H236.07L234.991 417.26V416.401L236.32 415.663H236.935V420.677ZM239.87 415.591C240.978 415.591 241.779 416.308 241.779 417.339C241.779 417.883 241.578 418.27 241.192 418.807L239.856 420.677H238.863V420.62L240.063 419.022C239.977 419.03 239.877 419.037 239.784 419.037C238.748 419.037 237.962 418.356 237.962 417.339C237.962 416.308 238.755 415.591 239.87 415.591ZM239.87 418.378C240.506 418.378 240.957 417.948 240.957 417.339C240.957 416.723 240.506 416.3 239.87 416.3C239.241 416.3 238.777 416.723 238.777 417.339C238.777 417.955 239.241 418.378 239.87 418.378Z" fill="#111827"/>
<path d="M53.8726 448.469H50.3705V447.796L51.8428 446.506C52.5933 445.84 53.0221 445.454 53.0221 444.873C53.0221 444.365 52.6076 444.071 52.1001 444.071C51.607 444.071 51.1924 444.35 50.9995 444.866L50.249 444.644C50.4849 443.842 51.1996 443.383 52.1001 443.383C53.1007 443.383 53.8368 443.935 53.8368 444.873C53.8368 445.654 53.3366 446.177 52.3717 447.001L51.5998 447.674V447.717H53.8726V448.469ZM56.8739 448.541C55.6017 448.541 54.7584 447.502 54.7584 445.962C54.7584 444.422 55.6017 443.383 56.8739 443.383C58.1461 443.383 58.9895 444.415 58.9895 445.962C58.9895 447.509 58.1461 448.541 56.8739 448.541ZM56.8739 447.803C57.6672 447.803 58.1747 447.13 58.1747 445.962C58.1747 444.795 57.6672 444.121 56.8739 444.121C56.0877 444.121 55.5732 444.795 55.5732 445.962C55.5732 447.13 56.0877 447.803 56.8739 447.803Z" fill="#111827"/>
<path d="M85.4556 448.469H81.9535V447.796L83.4258 446.506C84.1763 445.84 84.6051 445.454 84.6051 444.873C84.6051 444.365 84.1906 444.071 83.6831 444.071C83.19 444.071 82.7754 444.35 82.5825 444.866L81.832 444.644C82.0679 443.842 82.7826 443.383 83.6831 443.383C84.6837 443.383 85.4199 443.935 85.4199 444.873C85.4199 445.654 84.9196 446.177 83.9547 447.001L83.1828 447.674V447.717H85.4556V448.469ZM88.2205 448.469H87.4058V444.422H87.3558L86.2765 445.052V444.193L87.6059 443.455H88.2205V448.469Z" fill="#111827"/>
<path d="M115.371 448.469H111.869V447.796L113.341 446.506C114.092 445.84 114.521 445.454 114.521 444.873C114.521 444.365 114.106 444.071 113.599 444.071C113.105 444.071 112.691 444.35 112.498 444.866L111.748 444.644C111.983 443.842 112.698 443.383 113.599 443.383C114.599 443.383 115.335 443.935 115.335 444.873C115.335 445.654 114.835 446.177 113.87 447.001L113.098 447.674V447.717H115.371V448.469ZM119.794 448.469H116.292V447.796L117.764 446.506C118.515 445.84 118.944 445.454 118.944 444.873C118.944 444.365 118.529 444.071 118.022 444.071C117.529 444.071 117.114 444.35 116.921 444.866L116.171 444.644C116.406 443.842 117.121 443.383 118.022 443.383C119.022 443.383 119.758 443.935 119.758 444.873C119.758 445.654 119.258 446.177 118.293 447.001L117.521 447.674V447.717H119.794V448.469Z" fill="#111827"/>
<path d="M146.001 448.469H142.499V447.796L143.972 446.506C144.722 445.84 145.151 445.454 145.151 444.873C145.151 444.365 144.736 444.071 144.229 444.071C143.736 444.071 143.321 444.35 143.128 444.866L142.378 444.644C142.614 443.842 143.328 443.383 144.229 443.383C145.23 443.383 145.966 443.935 145.966 444.873C145.966 445.654 145.465 446.177 144.501 447.001L143.729 447.674V447.717H146.001V448.469ZM150.254 444.128L148.924 445.461C149.853 445.511 150.454 446.105 150.454 446.986C150.454 447.925 149.768 448.541 148.66 448.541C147.702 448.541 146.973 448.082 146.744 447.316L147.516 447.087C147.681 447.567 148.109 447.846 148.653 447.846C149.253 447.846 149.632 447.502 149.632 446.965C149.632 446.413 149.246 446.084 148.61 446.084H147.859V445.568L149.189 444.214V444.171H146.923V443.455H150.254V444.128Z" fill="#111827"/>
<path d="M176.632 448.469H173.13V447.796L174.602 446.506C175.353 445.84 175.781 445.454 175.781 444.873C175.781 444.365 175.367 444.071 174.859 444.071C174.366 444.071 173.952 444.35 173.759 444.866L173.008 444.644C173.244 443.842 173.959 443.383 174.859 443.383C175.86 443.383 176.596 443.935 176.596 444.873C176.596 445.654 176.096 446.177 175.131 447.001L174.359 447.674V447.717H176.632V448.469ZM180.599 448.469H179.778V447.488H177.348V446.678L179.699 443.455H180.599V446.75H181.286V447.488H180.599V448.469ZM179.778 444.515L178.155 446.75H179.778V444.515Z" fill="#111827"/>
<path d="M207.262 448.469H203.76V447.796L205.232 446.506C205.983 445.84 206.412 445.454 206.412 444.873C206.412 444.365 205.997 444.071 205.49 444.071C204.997 444.071 204.582 444.35 204.389 444.866L203.639 444.644C203.875 443.842 204.589 443.383 205.49 443.383C206.49 443.383 207.226 443.935 207.226 444.873C207.226 445.654 206.726 446.177 205.761 447.001L204.989 447.674V447.717H207.262V448.469ZM210.048 448.541C209.112 448.541 208.354 448.118 208.118 447.359L208.897 447.137C209.083 447.602 209.541 447.832 210.055 447.832C210.677 447.832 211.106 447.438 211.106 446.857C211.106 446.263 210.677 445.883 210.084 445.883C209.669 445.883 209.333 446.019 209.019 446.299L208.326 446.177L208.504 443.455H211.485V444.171H209.212L209.119 445.504H209.169C209.484 445.296 209.834 445.203 210.205 445.203C211.213 445.203 211.921 445.84 211.921 446.857C211.921 447.853 211.192 448.541 210.048 448.541Z" fill="#111827"/>
<path d="M237.892 448.469H234.39V447.796L235.862 446.506C236.613 445.84 237.042 445.454 237.042 444.873C237.042 444.365 236.627 444.071 236.12 444.071C235.626 444.071 235.212 444.35 235.019 444.866L234.269 444.644C234.504 443.842 235.219 443.383 236.12 443.383C237.12 443.383 237.856 443.935 237.856 444.873C237.856 445.654 237.356 446.177 236.391 447.001L235.619 447.674V447.717H237.892V448.469ZM240.679 445.095C241.722 445.095 242.509 445.776 242.509 446.793C242.509 447.824 241.715 448.541 240.593 448.541C239.485 448.541 238.692 447.824 238.692 446.793C238.692 446.249 238.885 445.862 239.271 445.325L240.615 443.455H241.608V443.512L240.407 445.11C240.493 445.103 240.586 445.095 240.679 445.095ZM240.593 447.832C241.222 447.832 241.687 447.409 241.687 446.793C241.687 446.177 241.222 445.754 240.593 445.754C239.964 445.754 239.507 446.184 239.507 446.793C239.507 447.409 239.957 447.832 240.593 447.832Z" fill="#111827"/>
<path d="M54.3491 476.261H50.8471V475.588L52.3194 474.299C53.0698 473.632 53.4986 473.246 53.4986 472.665C53.4986 472.157 53.0841 471.863 52.5767 471.863C52.0835 471.863 51.669 472.143 51.476 472.658L50.7256 472.436C50.9614 471.634 51.6761 471.176 52.5767 471.176C53.5773 471.176 54.3134 471.727 54.3134 472.665C54.3134 473.446 53.8131 473.969 52.8483 474.793L52.0764 475.466V475.509H54.3491V476.261ZM56.5706 476.261H55.6415L57.6427 472.057V472.014H55.1698V471.247H58.6004V471.971L56.5706 476.261Z" fill="#111827"/>
<path d="M84.7407 476.261H81.2387V475.588L82.711 474.299C83.4614 473.632 83.8902 473.246 83.8902 472.665C83.8902 472.157 83.4757 471.863 82.9683 471.863C82.4751 471.863 82.0606 472.143 81.8676 472.658L81.1172 472.436C81.353 471.634 82.0677 471.176 82.9683 471.176C83.9689 471.176 84.705 471.727 84.705 472.665C84.705 473.446 84.2047 473.969 83.2399 474.793L82.468 475.466V475.509H84.7407V476.261ZM87.4843 476.333C86.4265 476.333 85.6332 475.753 85.6332 474.872C85.6332 474.32 85.9691 473.847 86.4908 473.64C86.062 473.418 85.7761 473.031 85.7761 472.544C85.7761 471.727 86.4694 471.176 87.4843 471.176C88.4991 471.176 89.1924 471.727 89.1924 472.544C89.1924 473.031 88.9065 473.418 88.4706 473.64C88.9923 473.847 89.3354 474.32 89.3354 474.872C89.3354 475.753 88.5349 476.333 87.4843 476.333ZM87.4843 473.339C87.9917 473.339 88.3776 473.052 88.3776 472.608C88.3776 472.15 87.9917 471.87 87.4843 471.87C86.9697 471.87 86.5909 472.15 86.5909 472.608C86.5909 473.052 86.9697 473.339 87.4843 473.339ZM87.4843 475.638C88.0846 475.638 88.5134 475.33 88.5134 474.807C88.5134 474.291 88.0846 473.976 87.4843 473.976C86.8839 473.976 86.4479 474.291 86.4479 474.807C86.4479 475.33 86.8839 475.638 87.4843 475.638Z" fill="#111827"/>
<path d="M115.371 476.261H111.869V475.588L113.341 474.299C114.092 473.632 114.521 473.246 114.521 472.665C114.521 472.157 114.106 471.863 113.599 471.863C113.105 471.863 112.691 472.143 112.498 472.658L111.748 472.436C111.983 471.634 112.698 471.176 113.599 471.176C114.599 471.176 115.335 471.727 115.335 472.665C115.335 473.446 114.835 473.969 113.87 474.793L113.098 475.466V475.509H115.371V476.261ZM118.1 471.176C119.208 471.176 120.009 471.892 120.009 472.923C120.009 473.468 119.808 473.854 119.423 474.392L118.086 476.261H117.093V476.204L118.293 474.607C118.208 474.614 118.107 474.621 118.015 474.621C116.978 474.621 116.192 473.94 116.192 472.923C116.192 471.892 116.985 471.176 118.1 471.176ZM118.1 473.962C118.736 473.962 119.187 473.532 119.187 472.923C119.187 472.307 118.736 471.885 118.1 471.885C117.471 471.885 117.007 472.307 117.007 472.923C117.007 473.539 117.471 473.962 118.1 473.962Z" fill="#111827"/>
<path d="M145.621 471.92L144.291 473.253C145.22 473.303 145.821 473.897 145.821 474.778C145.821 475.717 145.135 476.333 144.027 476.333C143.069 476.333 142.34 475.874 142.111 475.108L142.883 474.879C143.048 475.359 143.476 475.638 144.02 475.638C144.62 475.638 144.999 475.294 144.999 474.757C144.999 474.205 144.613 473.876 143.977 473.876H143.226V473.36L144.556 472.006V471.963H142.29V471.247H145.621V471.92ZM148.786 476.333C147.514 476.333 146.67 475.294 146.67 473.754C146.67 472.214 147.514 471.176 148.786 471.176C150.058 471.176 150.901 472.207 150.901 473.754C150.901 475.301 150.058 476.333 148.786 476.333ZM148.786 475.595C149.579 475.595 150.086 474.922 150.086 473.754C150.086 472.587 149.579 471.913 148.786 471.913C148 471.913 147.485 472.587 147.485 473.754C147.485 474.922 148 475.595 148.786 475.595Z" fill="#111827"/>
<path d="M177.204 471.921L175.874 473.253C176.803 473.303 177.404 473.897 177.404 474.779C177.404 475.717 176.718 476.333 175.61 476.333C174.652 476.333 173.923 475.874 173.694 475.108L174.466 474.879C174.631 475.359 175.059 475.638 175.603 475.638C176.203 475.638 176.582 475.294 176.582 474.757C176.582 474.205 176.196 473.876 175.56 473.876H174.809V473.36L176.139 472.006V471.963H173.873V471.247H177.204V471.921ZM180.097 476.261H179.282V472.214H179.232L178.153 472.845V471.985L179.483 471.247H180.097V476.261Z" fill="#111827"/>
<path d="M208.687 476.261H207.872V472.214H207.822L206.743 472.845V471.985L208.073 471.247H208.687V476.261Z" fill="#9CA3AF"/>
<path d="M240.274 476.261H236.772V475.588L238.245 474.299C238.995 473.632 239.424 473.246 239.424 472.665C239.424 472.157 239.009 471.863 238.502 471.863C238.009 471.863 237.594 472.143 237.401 472.658L236.651 472.436C236.887 471.634 237.601 471.176 238.502 471.176C239.503 471.176 240.239 471.727 240.239 472.665C240.239 473.446 239.738 473.969 238.774 474.793L238.002 475.466V475.509H240.274V476.261Z" fill="#9CA3AF"/>
<path d="M39.4697 504.006C39.4697 502.951 40.323 502.096 41.3756 502.096H137.623C138.675 502.096 139.529 502.951 139.529 504.006V519.764C139.529 520.819 138.675 521.674 137.623 521.674H41.3756C40.323 521.674 39.4697 520.819 39.4697 519.764V504.006Z" fill="#E5E7EB"/>
<path d="M83.1433 514.511H80.7495V509.163H82.9908C84.0581 509.163 84.7519 509.598 84.7519 510.576C84.7519 511.18 84.4622 511.57 84.0429 511.745V511.799C84.6375 511.99 84.9806 512.395 84.9806 513.06C84.9806 513.969 84.4012 514.511 83.1433 514.511ZM81.7939 509.98V511.424H82.8917C83.4254 511.424 83.7227 511.165 83.7227 510.706C83.7227 510.248 83.4254 509.98 82.8917 509.98H81.7939ZM81.7939 512.173V513.694H83.0518C83.6083 513.694 83.9285 513.419 83.9285 512.937C83.9285 512.448 83.6083 512.173 83.0518 512.173H81.7939ZM89.234 511.936V512.464C89.234 513.151 89.234 513.824 89.2721 514.511H88.3649L88.2811 513.847H88.2125C87.9685 514.335 87.5492 514.588 86.9393 514.588C86.1846 514.588 85.6891 514.129 85.6891 513.426C85.6891 512.685 86.2227 512.234 87.2824 512.173L88.243 512.12V511.975C88.243 511.509 87.8923 511.31 87.4806 511.31C87.0384 511.31 86.7488 511.524 86.6192 511.921L85.7348 511.684C85.872 510.951 86.5353 510.538 87.4806 510.538C88.6089 510.538 89.234 511.065 89.234 511.936ZM87.2519 513.816C87.7856 513.816 88.2125 513.396 88.243 512.754L87.5187 512.8C86.9698 512.838 86.6725 512.975 86.6725 513.342C86.6725 513.625 86.8936 513.816 87.2519 513.816ZM91.9794 514.588C90.7139 514.588 90.0202 513.701 90.0202 512.563C90.0202 511.424 90.7139 510.538 91.9794 510.538C92.8562 510.538 93.4965 510.958 93.7405 511.807L92.757 512.066C92.6198 511.608 92.3378 511.394 91.9718 511.394C91.4153 511.394 91.0494 511.852 91.0494 512.563C91.0494 513.273 91.4153 513.732 91.9718 513.732C92.3454 513.732 92.6427 513.526 92.7952 513.06L93.7862 513.319C93.527 514.16 92.8485 514.588 91.9794 514.588ZM95.5654 514.511H94.5362V509.163H95.5654V512.464L96.9986 510.615H98.2107L96.6632 512.471L98.2717 514.511H97.0138L95.5654 512.571V514.511Z" fill="#4B5563"/>
<path d="M153.823 504.006C153.823 502.951 154.676 502.096 155.729 502.096H251.976C253.028 502.096 253.882 502.951 253.882 504.006V519.764C253.882 520.819 253.028 521.674 251.976 521.674H155.729C154.676 521.674 153.823 520.819 153.823 519.764V504.006Z" fill="#2D64D6"/>
<path d="M196.608 514.511H195.579V509.163H196.699L199.101 512.945H199.162C199.139 512.418 199.131 511.959 199.131 511.47V509.163H200.16V514.511H199.032L196.631 510.729H196.577C196.6 511.264 196.608 511.707 196.608 512.204V514.511ZM204.797 512.448C204.797 512.586 204.789 512.739 204.774 512.861H202.007C202.091 513.503 202.449 513.839 202.975 513.839C203.356 513.839 203.623 513.671 203.791 513.273L204.713 513.518C204.423 514.221 203.852 514.588 202.96 514.588C201.702 514.588 201 513.701 201 512.563C201 511.424 201.694 510.538 202.944 510.538C204.096 510.538 204.797 511.318 204.797 512.448ZM202.944 511.287C202.456 511.287 202.121 511.608 202.022 512.189H203.813C203.745 511.577 203.417 511.287 202.944 511.287ZM206.301 514.511H205.196L206.4 512.525L205.272 510.615H206.393L207.14 512.005H207.193L207.933 510.615H209.03L207.902 512.532L209.107 514.511H207.978L207.178 513.075H207.124L206.301 514.511ZM211.46 514.588C210.713 514.588 210.21 514.175 210.21 513.296V511.432H209.462V510.615H210.263L210.431 509.514H211.239V510.615H212.276V511.432H211.239V513.243C211.239 513.594 211.429 513.747 211.696 513.747C211.849 513.747 211.994 513.717 212.161 513.617L212.413 514.328C212.1 514.519 211.826 514.588 211.46 514.588Z" fill="white"/>
</g>
</g>
<g filter="url(#filter1_d_3468_5715)">
<g clip-path="url(#clip2_3468_5715)">
<path d="M307 369.279C307 364.983 310.652 361.5 315.157 361.5H558.843C563.348 361.5 567 364.983 567 369.279V473.321C567 477.618 563.348 481.1 558.843 481.1H315.157C310.652 481.1 307 477.618 307 473.321V369.279Z" fill="white"/>
<path d="M324.468 382.469C323.606 382.469 322.857 382.121 322.605 381.388L323.301 381.192C323.5 381.685 323.991 381.887 324.468 381.887C325.084 381.887 325.396 381.616 325.396 381.243C325.396 380.213 322.705 380.832 322.705 379.094C322.705 378.405 323.321 377.918 324.335 377.918C325.164 377.918 325.813 378.247 326.052 378.936L325.349 379.132C325.177 378.683 324.773 378.5 324.342 378.5C323.779 378.5 323.46 378.759 323.46 379.094C323.46 380.118 326.158 379.492 326.158 381.249C326.158 381.982 325.522 382.469 324.468 382.469ZM329.922 380.706C329.922 380.807 329.916 380.927 329.902 381.015H327.457C327.523 381.59 327.868 381.919 328.385 381.919C328.742 381.919 329.001 381.774 329.173 381.42L329.843 381.609C329.597 382.178 329.1 382.469 328.378 382.469C327.324 382.469 326.714 381.736 326.714 380.794C326.714 379.852 327.318 379.119 328.371 379.119C329.312 379.119 329.922 379.739 329.922 380.706ZM328.371 379.669C327.881 379.669 327.55 379.979 327.463 380.51H329.213C329.153 379.96 328.829 379.669 328.371 379.669ZM331.389 382.406H330.64V377.981H331.389V382.406ZM335.32 380.706C335.32 380.807 335.313 380.927 335.3 381.015H332.855C332.921 381.59 333.265 381.919 333.782 381.919C334.14 381.919 334.399 381.774 334.571 381.42L335.24 381.609C334.995 382.178 334.498 382.469 333.776 382.469C332.722 382.469 332.112 381.736 332.112 380.794C332.112 379.852 332.715 379.119 333.769 379.119C334.71 379.119 335.32 379.739 335.32 380.706ZM333.769 379.669C333.279 379.669 332.947 379.979 332.861 380.51H334.611C334.551 379.96 334.226 379.669 333.769 379.669ZM337.536 382.469C336.482 382.469 335.873 381.736 335.873 380.794C335.873 379.852 336.482 379.119 337.536 379.119C338.252 379.119 338.809 379.448 339.021 380.13L338.305 380.339C338.159 379.916 337.887 379.726 337.529 379.726C336.986 379.726 336.621 380.149 336.621 380.794C336.621 381.439 336.986 381.862 337.529 381.862C337.887 381.862 338.179 381.673 338.338 381.249L339.054 381.458C338.828 382.134 338.239 382.469 337.536 382.469ZM341.133 382.469C340.529 382.469 340.119 382.14 340.119 381.477V379.764H339.462V379.182H340.165L340.311 378.285H340.867V379.182H341.809V379.764H340.867V381.445C340.867 381.748 341.046 381.881 341.278 381.881C341.431 381.881 341.563 381.85 341.716 381.761L341.921 382.254C341.663 382.412 341.424 382.469 341.133 382.469ZM348.156 382.406H347.348L347.016 381.451H344.975L344.637 382.406H343.862L345.492 377.981H346.513L348.156 382.406ZM345.976 378.595L345.18 380.864H346.811L346.016 378.595H345.976ZM350.364 382.406H349.449L348.25 379.182H349.038L349.9 381.742H349.94L350.795 379.182H351.563L350.364 382.406ZM354.926 380.263V380.699C354.926 381.268 354.926 381.831 354.959 382.406H354.309L354.243 381.843H354.19C353.978 382.248 353.6 382.469 353.063 382.469C352.401 382.469 351.963 382.09 351.963 381.515C351.963 380.901 352.427 380.529 353.368 380.478L354.203 380.434V380.288C354.203 379.865 353.872 379.675 353.474 379.675C353.05 379.675 352.772 379.871 352.653 380.238L352.003 380.055C352.142 379.448 352.719 379.119 353.474 379.119C354.396 379.119 354.926 379.543 354.926 380.263ZM353.249 381.906C353.773 381.906 354.183 381.496 354.203 380.92L353.521 380.965C352.991 380.996 352.686 381.129 352.686 381.47C352.686 381.736 352.898 381.906 353.249 381.906ZM356.175 378.765C355.884 378.765 355.658 378.569 355.658 378.304C355.658 378.032 355.884 377.836 356.175 377.836C356.46 377.836 356.686 378.032 356.686 378.304C356.686 378.569 356.46 378.765 356.175 378.765ZM356.547 382.406H355.798V379.182H356.547V382.406ZM358.184 382.406H357.435V377.981H358.184V382.406ZM361.915 380.263V380.699C361.915 381.268 361.915 381.831 361.949 382.406H361.299L361.233 381.843H361.18C360.968 382.248 360.59 382.469 360.053 382.469C359.39 382.469 358.953 382.09 358.953 381.515C358.953 380.901 359.417 380.529 360.358 380.478L361.193 380.434V380.288C361.193 379.865 360.862 379.675 360.464 379.675C360.04 379.675 359.762 379.871 359.642 380.238L358.993 380.055C359.132 379.448 359.708 379.119 360.464 379.119C361.385 379.119 361.915 379.543 361.915 380.263ZM360.239 381.906C360.762 381.906 361.173 381.496 361.193 380.92L360.51 380.965C359.98 380.996 359.675 381.129 359.675 381.47C359.675 381.736 359.887 381.906 360.239 381.906ZM364.677 382.469C364.186 382.469 363.815 382.254 363.59 381.875H363.537L363.464 382.406H362.755C362.788 381.831 362.788 381.262 362.788 380.687V377.981H363.537V379.713H363.59C363.815 379.334 364.186 379.119 364.677 379.119C365.531 379.119 366.075 379.783 366.075 380.8C366.075 381.812 365.531 382.469 364.677 382.469ZM364.431 381.856C364.975 381.856 365.326 381.445 365.326 380.8C365.326 380.156 364.975 379.732 364.431 379.732C363.888 379.732 363.537 380.156 363.537 380.8C363.537 381.445 363.888 381.856 364.431 381.856ZM367.549 382.406H366.8V377.981H367.549V382.406ZM371.48 380.706C371.48 380.807 371.473 380.927 371.46 381.015H369.014C369.081 381.59 369.425 381.919 369.942 381.919C370.3 381.919 370.559 381.774 370.731 381.42L371.4 381.609C371.155 382.178 370.658 382.469 369.936 382.469C368.882 382.469 368.272 381.736 368.272 380.794C368.272 379.852 368.875 379.119 369.929 379.119C370.87 379.119 371.48 379.739 371.48 380.706ZM369.929 379.669C369.439 379.669 369.107 379.979 369.021 380.51H370.771C370.711 379.96 370.386 379.669 369.929 379.669ZM375.739 382.406H374.977V378.62H373.479V377.981H377.237V378.62H375.739V382.406ZM378.207 378.765C377.915 378.765 377.69 378.569 377.69 378.304C377.69 378.032 377.915 377.836 378.207 377.836C378.492 377.836 378.717 378.032 378.717 378.304C378.717 378.569 378.492 378.765 378.207 378.765ZM378.578 382.406H377.829V379.182H378.578V382.406ZM380.215 382.406H379.466V380.901C379.466 380.326 379.466 379.757 379.433 379.182H380.142L380.208 379.682H380.255C380.48 379.309 380.864 379.119 381.288 379.119C381.792 379.119 382.124 379.334 382.309 379.751H382.362C382.587 379.334 382.992 379.119 383.476 379.119C384.185 379.119 384.589 379.53 384.589 380.39V382.406H383.84V380.522C383.84 380.01 383.601 379.745 383.197 379.745C382.727 379.745 382.402 380.105 382.402 380.604V382.406H381.653V380.522C381.653 380.01 381.414 379.745 381.01 379.745C380.54 379.745 380.215 380.105 380.215 380.604V382.406ZM388.488 380.706C388.488 380.807 388.482 380.927 388.469 381.015H386.023C386.089 381.59 386.434 381.919 386.951 381.919C387.309 381.919 387.567 381.774 387.74 381.42L388.409 381.609C388.164 382.178 387.667 382.469 386.944 382.469C385.89 382.469 385.281 381.736 385.281 380.794C385.281 379.852 385.884 379.119 386.938 379.119C387.879 379.119 388.488 379.739 388.488 380.706ZM386.938 379.669C386.447 379.669 386.116 379.979 386.03 380.51H387.779C387.72 379.96 387.395 379.669 386.938 379.669Z" fill="#111827"/>
<path d="M324.333 391.886H395.875C396.861 391.886 397.66 392.648 397.66 393.588V406.228C397.66 407.168 396.861 407.93 395.875 407.93H324.333C323.348 407.93 322.549 407.168 322.549 406.228V393.588C322.549 392.648 323.348 391.886 324.333 391.886Z" fill="white"/>
<path d="M324.333 391.886H395.875C396.861 391.886 397.66 392.648 397.66 393.588V406.228C397.66 407.168 396.861 407.93 395.875 407.93H324.333C323.348 407.93 322.549 407.168 322.549 406.228V393.588C322.549 392.648 323.348 391.886 324.333 391.886Z" stroke="#D1D5DB"/>
<path d="M329.89 402.407C328.683 402.407 327.834 401.42 327.834 399.957C327.834 398.493 328.683 397.506 329.89 397.506C331.096 397.506 331.938 398.487 331.938 399.957C331.938 401.427 331.096 402.407 329.89 402.407ZM329.89 401.849C330.746 401.849 331.296 401.148 331.296 399.957C331.296 398.766 330.746 398.065 329.89 398.065C329.033 398.065 328.476 398.766 328.476 399.957C328.476 401.148 329.033 401.849 329.89 401.849ZM334.399 402.407C333.393 402.407 332.615 401.856 332.615 401.039C332.615 400.501 332.95 400.045 333.478 399.848C333.043 399.637 332.757 399.269 332.757 398.793C332.757 398.037 333.421 397.506 334.399 397.506C335.377 397.506 336.04 398.037 336.04 398.793C336.04 399.269 335.755 399.637 335.32 399.848C335.848 400.045 336.183 400.501 336.183 401.039C336.183 401.856 335.405 402.407 334.399 402.407ZM334.399 399.603C334.977 399.603 335.398 399.297 335.398 398.834C335.398 398.357 334.977 398.051 334.399 398.051C333.821 398.051 333.4 398.357 333.4 398.834C333.4 399.297 333.821 399.603 334.399 399.603ZM334.399 401.863C335.084 401.863 335.541 401.529 335.541 400.985C335.541 400.454 335.084 400.113 334.399 400.113C333.721 400.113 333.257 400.454 333.257 400.985C333.257 401.529 333.721 401.863 334.399 401.863ZM337.274 399.684C337.01 399.684 336.789 399.501 336.789 399.242C336.789 398.983 337.01 398.8 337.274 398.8C337.538 398.8 337.752 398.983 337.752 399.242C337.752 399.501 337.538 399.684 337.274 399.684ZM337.274 402.407C337.01 402.407 336.789 402.223 336.789 401.965C336.789 401.706 337.01 401.522 337.274 401.522C337.538 401.522 337.752 401.706 337.752 401.965C337.752 402.223 337.538 402.407 337.274 402.407ZM340.449 402.407C339.243 402.407 338.394 401.42 338.394 399.957C338.394 398.493 339.243 397.506 340.449 397.506C341.655 397.506 342.497 398.487 342.497 399.957C342.497 401.427 341.655 402.407 340.449 402.407ZM340.449 401.849C341.306 401.849 341.855 401.148 341.855 399.957C341.855 398.766 341.306 398.065 340.449 398.065C339.593 398.065 339.036 398.766 339.036 399.957C339.036 401.148 339.593 401.849 340.449 401.849ZM345.265 402.407C344.059 402.407 343.21 401.42 343.21 399.957C343.21 398.493 344.059 397.506 345.265 397.506C346.471 397.506 347.314 398.487 347.314 399.957C347.314 401.427 346.471 402.407 345.265 402.407ZM345.265 401.849C346.122 401.849 346.671 401.148 346.671 399.957C346.671 398.766 346.122 398.065 345.265 398.065C344.409 398.065 343.852 398.766 343.852 399.957C343.852 401.148 344.409 401.849 345.265 401.849ZM352.266 402.339H351.58L351.181 401.25H348.847L348.447 402.339H347.791L349.582 397.574H350.467L352.266 402.339ZM349.996 398.105L349.032 400.739H350.995L350.032 398.105H349.996ZM353.544 402.339H352.937V397.574H353.944L355.464 401.652L356.984 397.574H358.005V402.339H357.362V398.269H357.327L355.807 402.339H355.1L353.58 398.269H353.544V402.339ZM362.946 400.705H360.591V400.161H362.946V400.705ZM366.982 402.339H366.34V398.344H366.304L365.198 398.963V398.282L366.518 397.574H366.982V402.339ZM369.602 402.339H368.96V398.344H368.924L367.818 398.963V398.282L369.138 397.574H369.602V402.339ZM370.96 399.684C370.696 399.684 370.475 399.501 370.475 399.242C370.475 398.983 370.696 398.8 370.96 398.8C371.224 398.8 371.438 398.983 371.438 399.242C371.438 399.501 371.224 399.684 370.96 399.684ZM370.96 402.407C370.696 402.407 370.475 402.223 370.475 401.965C370.475 401.706 370.696 401.522 370.96 401.522C371.224 401.522 371.438 401.706 371.438 401.965C371.438 402.223 371.224 402.407 370.96 402.407ZM374.135 402.407C372.929 402.407 372.08 401.42 372.08 399.957C372.08 398.493 372.929 397.506 374.135 397.506C375.341 397.506 376.183 398.487 376.183 399.957C376.183 401.427 375.341 402.407 374.135 402.407ZM374.135 401.849C374.992 401.849 375.541 401.148 375.541 399.957C375.541 398.766 374.992 398.065 374.135 398.065C373.279 398.065 372.722 398.766 372.722 399.957C372.722 401.148 373.279 401.849 374.135 401.849ZM378.951 402.407C377.745 402.407 376.896 401.42 376.896 399.957C376.896 398.493 377.745 397.506 378.951 397.506C380.157 397.506 381 398.487 381 399.957C381 401.427 380.157 402.407 378.951 402.407ZM378.951 401.849C379.808 401.849 380.357 401.148 380.357 399.957C380.357 398.766 379.808 398.065 378.951 398.065C378.095 398.065 377.538 398.766 377.538 399.957C377.538 401.148 378.095 401.849 378.951 401.849ZM385.951 402.339H385.266L384.866 401.25H382.533L382.133 402.339H381.476L383.268 397.574H384.153L385.951 402.339ZM383.682 398.105L382.718 400.739H384.681L383.717 398.105H383.682ZM387.23 402.339H386.623V397.574H387.63L389.15 401.652L390.67 397.574H391.691V402.339H391.048V398.269H391.013L389.492 402.339H388.786L387.266 398.269H387.23V402.339Z" fill="#6B7280"/>
<path d="M407.601 391.886H479.144C480.129 391.886 480.928 392.648 480.928 393.588V406.228C480.928 407.168 480.129 407.93 479.144 407.93H407.601C406.616 407.93 405.817 407.168 405.817 406.228V393.588C405.817 392.648 406.616 391.886 407.601 391.886Z" fill="white"/>
<path d="M407.601 391.886H479.144C480.129 391.886 480.928 392.648 480.928 393.588V406.228C480.928 407.168 480.129 407.93 479.144 407.93H407.601C406.616 407.93 405.817 407.168 405.817 406.228V393.588C405.817 392.648 406.616 391.886 407.601 391.886Z" stroke="#D1D5DB"/>
<path d="M413.034 402.339H412.392V398.344H412.356L411.25 398.963V398.282L412.57 397.574H413.034V402.339ZM415.655 402.339H415.013V398.344H414.977L413.871 398.963V398.282L415.191 397.574H415.655V402.339ZM417.012 399.684C416.748 399.684 416.527 399.501 416.527 399.242C416.527 398.983 416.748 398.8 417.012 398.8C417.276 398.8 417.491 398.983 417.491 399.242C417.491 399.501 417.276 399.684 417.012 399.684ZM417.012 402.407C416.748 402.407 416.527 402.223 416.527 401.965C416.527 401.706 416.748 401.522 417.012 401.522C417.276 401.522 417.491 401.706 417.491 401.965C417.491 402.223 417.276 402.407 417.012 402.407ZM420.187 402.407C418.981 402.407 418.132 401.42 418.132 399.957C418.132 398.493 418.981 397.506 420.187 397.506C421.394 397.506 422.236 398.487 422.236 399.957C422.236 401.427 421.394 402.407 420.187 402.407ZM420.187 401.849C421.044 401.849 421.593 401.148 421.593 399.957C421.593 398.766 421.044 398.065 420.187 398.065C419.331 398.065 418.774 398.766 418.774 399.957C418.774 401.148 419.331 401.849 420.187 401.849ZM425.003 402.407C423.797 402.407 422.948 401.42 422.948 399.957C422.948 398.493 423.797 397.506 425.003 397.506C426.21 397.506 427.052 398.487 427.052 399.957C427.052 401.427 426.21 402.407 425.003 402.407ZM425.003 401.849C425.86 401.849 426.41 401.148 426.41 399.957C426.41 398.766 425.86 398.065 425.003 398.065C424.147 398.065 423.59 398.766 423.59 399.957C423.59 401.148 424.147 401.849 425.003 401.849ZM432.004 402.339H431.319L430.919 401.25H428.585L428.186 402.339H427.529L429.321 397.574H430.206L432.004 402.339ZM429.734 398.105L428.771 400.739H430.734L429.77 398.105H429.734ZM433.282 402.339H432.676V397.574H433.682L435.202 401.652L436.722 397.574H437.743V402.339H437.101V398.269H437.065L435.545 402.339H434.838L433.318 398.269H433.282V402.339ZM442.685 400.705H440.33V400.161H442.685V400.705ZM447.134 402.407C445.927 402.407 445.078 401.42 445.078 399.957C445.078 398.493 445.927 397.506 447.134 397.506C448.34 397.506 449.182 398.487 449.182 399.957C449.182 401.427 448.34 402.407 447.134 402.407ZM447.134 401.849C447.99 401.849 448.54 401.148 448.54 399.957C448.54 398.766 447.99 398.065 447.134 398.065C446.277 398.065 445.72 398.766 445.72 399.957C445.72 401.148 446.277 401.849 447.134 401.849ZM453.249 402.339H449.859V401.829L451.336 400.569C452.129 399.895 452.571 399.514 452.571 398.909C452.571 398.364 452.1 398.051 451.55 398.051C451.008 398.051 450.551 398.344 450.33 398.881L449.752 398.684C450.009 397.935 450.701 397.506 451.55 397.506C452.485 397.506 453.213 398.024 453.213 398.909C453.213 399.65 452.7 400.161 451.75 400.964L450.844 401.726V401.76H453.249V402.339ZM454.378 399.684C454.114 399.684 453.893 399.501 453.893 399.242C453.893 398.983 454.114 398.8 454.378 398.8C454.642 398.8 454.857 398.983 454.857 399.242C454.857 399.501 454.642 399.684 454.378 399.684ZM454.378 402.407C454.114 402.407 453.893 402.223 453.893 401.965C453.893 401.706 454.114 401.522 454.378 401.522C454.642 401.522 454.857 401.706 454.857 401.965C454.857 402.223 454.642 402.407 454.378 402.407ZM457.553 402.407C456.347 402.407 455.498 401.42 455.498 399.957C455.498 398.493 456.347 397.506 457.553 397.506C458.76 397.506 459.602 398.487 459.602 399.957C459.602 401.427 458.76 402.407 457.553 402.407ZM457.553 401.849C458.41 401.849 458.959 401.148 458.959 399.957C458.959 398.766 458.41 398.065 457.553 398.065C456.697 398.065 456.14 398.766 456.14 399.957C456.14 401.148 456.697 401.849 457.553 401.849ZM462.37 402.407C461.163 402.407 460.314 401.42 460.314 399.957C460.314 398.493 461.163 397.506 462.37 397.506C463.576 397.506 464.418 398.487 464.418 399.957C464.418 401.427 463.576 402.407 462.37 402.407ZM462.37 401.849C463.226 401.849 463.776 401.148 463.776 399.957C463.776 398.766 463.226 398.065 462.37 398.065C461.513 398.065 460.956 398.766 460.956 399.957C460.956 401.148 461.513 401.849 462.37 401.849ZM465.966 402.339H465.323V397.574H467.143C468.25 397.574 468.892 398.119 468.892 399.058C468.892 399.991 468.25 400.535 467.143 400.535H465.966V402.339ZM465.966 398.119V399.991H467.115C467.829 399.991 468.25 399.657 468.25 399.058C468.25 398.459 467.829 398.119 467.115 398.119H465.966ZM470.265 402.339H469.658V397.574H470.665L472.185 401.652L473.705 397.574H474.726V402.339H474.083V398.269H474.048L472.527 402.339H471.821L470.301 398.269H470.265V402.339Z" fill="#6B7280"/>
<path d="M324.333 415.709H395.875C396.861 415.709 397.66 416.471 397.66 417.411V430.051C397.66 430.991 396.861 431.753 395.875 431.753H324.333C323.348 431.753 322.549 430.991 322.549 430.051V417.411C322.549 416.471 323.348 415.709 324.333 415.709Z" fill="white"/>
<path d="M324.333 415.709H395.875C396.861 415.709 397.66 416.471 397.66 417.411V430.051C397.66 430.991 396.861 431.753 395.875 431.753H324.333C323.348 431.753 322.549 430.991 322.549 430.051V417.411C322.549 416.471 323.348 415.709 324.333 415.709Z" stroke="#D1D5DB"/>
<path d="M328.615 426.23C327.409 426.23 326.56 425.243 326.56 423.78C326.56 422.316 327.409 421.329 328.615 421.329C329.821 421.329 330.663 422.309 330.663 423.78C330.663 425.25 329.821 426.23 328.615 426.23ZM328.615 425.672C329.472 425.672 330.021 424.971 330.021 423.78C330.021 422.588 329.472 421.887 328.615 421.887C327.759 421.887 327.202 422.588 327.202 423.78C327.202 424.971 327.759 425.672 328.615 425.672ZM334.731 426.162H331.341V425.651L332.818 424.392C333.611 423.718 334.053 423.337 334.053 422.731C334.053 422.187 333.582 421.874 333.033 421.874C332.49 421.874 332.033 422.166 331.812 422.704L331.234 422.507C331.491 421.758 332.183 421.329 333.033 421.329C333.968 421.329 334.696 421.846 334.696 422.731C334.696 423.473 334.182 423.984 333.232 424.787L332.326 425.549V425.583H334.731V426.162ZM335.86 423.507C335.596 423.507 335.375 423.323 335.375 423.065C335.375 422.806 335.596 422.622 335.86 422.622C336.124 422.622 336.338 422.806 336.338 423.065C336.338 423.323 336.124 423.507 335.86 423.507ZM335.86 426.23C335.596 426.23 335.375 426.046 335.375 425.787C335.375 425.529 335.596 425.345 335.86 425.345C336.124 425.345 336.338 425.529 336.338 425.787C336.338 426.046 336.124 426.23 335.86 426.23ZM339.035 426.23C337.829 426.23 336.98 425.243 336.98 423.78C336.98 422.316 337.829 421.329 339.035 421.329C340.241 421.329 341.084 422.309 341.084 423.78C341.084 425.25 340.241 426.23 339.035 426.23ZM339.035 425.672C339.892 425.672 340.441 424.971 340.441 423.78C340.441 422.588 339.892 421.887 339.035 421.887C338.179 421.887 337.622 422.588 337.622 423.78C337.622 424.971 338.179 425.672 339.035 425.672ZM343.852 426.23C342.645 426.23 341.796 425.243 341.796 423.78C341.796 422.316 342.645 421.329 343.852 421.329C345.058 421.329 345.9 422.309 345.9 423.78C345.9 425.25 345.058 426.23 343.852 426.23ZM343.852 425.672C344.708 425.672 345.258 424.971 345.258 423.78C345.258 422.588 344.708 421.887 343.852 421.887C342.995 421.887 342.438 422.588 342.438 423.78C342.438 424.971 342.995 425.672 343.852 425.672ZM347.447 426.162H346.805V421.397H348.625C349.731 421.397 350.374 421.942 350.374 422.881C350.374 423.814 349.731 424.358 348.625 424.358H347.447V426.162ZM347.447 421.942V423.814H348.596C349.31 423.814 349.731 423.48 349.731 422.881C349.731 422.282 349.31 421.942 348.596 421.942H347.447ZM351.747 426.162H351.14V421.397H352.147L353.667 425.474L355.187 421.397H356.208V426.162H355.565V422.091H355.53L354.009 426.162H353.303L351.783 422.091H351.747V426.162ZM361.149 424.528H358.794V423.984H361.149V424.528ZM365.598 426.23C364.392 426.23 363.542 425.243 363.542 423.78C363.542 422.316 364.392 421.329 365.598 421.329C366.804 421.329 367.646 422.309 367.646 423.78C367.646 425.25 366.804 426.23 365.598 426.23ZM365.598 425.672C366.454 425.672 367.004 424.971 367.004 423.78C367.004 422.588 366.454 421.887 365.598 421.887C364.741 421.887 364.185 422.588 364.185 423.78C364.185 424.971 364.741 425.672 365.598 425.672ZM370.121 422.983C371.149 422.983 371.927 423.63 371.927 424.596C371.927 425.563 371.149 426.23 370.086 426.23C369.022 426.23 368.251 425.563 368.251 424.596C368.251 424.106 368.437 423.739 368.808 423.242L370.193 421.397H370.978V421.445L369.75 423.017C369.872 422.997 370 422.983 370.121 422.983ZM370.086 425.685C370.778 425.685 371.285 425.236 371.285 424.596C371.285 423.956 370.778 423.507 370.086 423.507C369.386 423.507 368.894 423.956 368.894 424.596C368.894 425.236 369.386 425.685 370.086 425.685ZM372.947 423.507C372.683 423.507 372.462 423.323 372.462 423.065C372.462 422.806 372.683 422.622 372.947 422.622C373.211 422.622 373.425 422.806 373.425 423.065C373.425 423.323 373.211 423.507 372.947 423.507ZM372.947 426.23C372.683 426.23 372.462 426.046 372.462 425.787C372.462 425.529 372.683 425.345 372.947 425.345C373.211 425.345 373.425 425.529 373.425 425.787C373.425 426.046 373.211 426.23 372.947 426.23ZM376.122 426.23C374.916 426.23 374.067 425.243 374.067 423.78C374.067 422.316 374.916 421.329 376.122 421.329C377.329 421.329 378.171 422.309 378.171 423.78C378.171 425.25 377.329 426.23 376.122 426.23ZM376.122 425.672C376.979 425.672 377.528 424.971 377.528 423.78C377.528 422.588 376.979 421.887 376.122 421.887C375.266 421.887 374.709 422.588 374.709 423.78C374.709 424.971 375.266 425.672 376.122 425.672ZM380.939 426.23C379.733 426.23 378.883 425.243 378.883 423.78C378.883 422.316 379.733 421.329 380.939 421.329C382.145 421.329 382.987 422.309 382.987 423.78C382.987 425.25 382.145 426.23 380.939 426.23ZM380.939 425.672C381.795 425.672 382.345 424.971 382.345 423.78C382.345 422.588 381.795 421.887 380.939 421.887C380.083 421.887 379.526 422.588 379.526 423.78C379.526 424.971 380.083 425.672 380.939 425.672ZM384.535 426.162H383.892V421.397H385.712C386.819 421.397 387.461 421.942 387.461 422.881C387.461 423.814 386.819 424.358 385.712 424.358H384.535V426.162ZM384.535 421.942V423.814H385.684C386.397 423.814 386.819 423.48 386.819 422.881C386.819 422.282 386.397 421.942 385.684 421.942H384.535ZM388.834 426.162H388.228V421.397H389.234L390.754 425.474L392.274 421.397H393.295V426.162H392.653V422.091H392.617L391.097 426.162H390.39L388.87 422.091H388.834V426.162Z" fill="#6B7280"/>
<path d="M322.294 448.526C322.294 447.452 323.207 446.581 324.333 446.581H427.314C428.44 446.581 429.353 447.452 429.353 448.526V464.57C429.353 465.644 428.44 466.515 427.314 466.515H324.333C323.207 466.515 322.294 465.644 322.294 464.57V448.526Z" fill="#E5E7EB"/>
<path d="M369.023 459.222H366.461V453.777H368.86C370.002 453.777 370.744 454.22 370.744 455.216C370.744 455.83 370.434 456.227 369.985 456.406V456.46C370.621 456.655 370.988 457.067 370.988 457.744C370.988 458.67 370.369 459.222 369.023 459.222ZM367.579 454.609V456.079H368.754C369.324 456.079 369.643 455.815 369.643 455.348C369.643 454.881 369.324 454.609 368.754 454.609H367.579ZM367.579 456.842V458.39H368.925C369.52 458.39 369.863 458.11 369.863 457.619C369.863 457.122 369.52 456.842 368.925 456.842H367.579ZM375.54 456.6V457.137C375.54 457.837 375.54 458.522 375.58 459.222H374.61L374.52 458.545H374.446C374.185 459.043 373.737 459.3 373.084 459.3C372.277 459.3 371.747 458.833 371.747 458.117C371.747 457.363 372.318 456.904 373.451 456.842L374.479 456.787V456.639C374.479 456.165 374.104 455.963 373.663 455.963C373.19 455.963 372.88 456.18 372.742 456.585L371.796 456.344C371.942 455.597 372.652 455.177 373.663 455.177C374.871 455.177 375.54 455.714 375.54 456.6ZM373.419 458.514C373.99 458.514 374.446 458.086 374.479 457.433L373.704 457.479C373.117 457.518 372.799 457.658 372.799 458.032C372.799 458.32 373.035 458.514 373.419 458.514ZM378.477 459.3C377.123 459.3 376.381 458.397 376.381 457.238C376.381 456.079 377.123 455.177 378.477 455.177C379.415 455.177 380.1 455.605 380.361 456.468L379.309 456.733C379.162 456.266 378.86 456.048 378.469 456.048C377.873 456.048 377.482 456.515 377.482 457.238C377.482 457.962 377.873 458.428 378.469 458.428C378.869 458.428 379.187 458.218 379.35 457.744L380.41 458.008C380.133 458.864 379.407 459.3 378.477 459.3ZM382.314 459.222H381.213V453.777H382.314V457.137L383.847 455.255H385.144L383.488 457.145L385.209 459.222H383.864L382.314 457.246V459.222Z" fill="#4B5563"/>
<path d="M444.647 448.526C444.647 447.452 445.56 446.581 446.686 446.581H549.667C550.793 446.581 551.706 447.452 551.706 448.526V464.57C551.706 465.644 550.793 466.515 549.667 466.515H446.686C445.56 466.515 444.647 465.644 444.647 464.57V448.526Z" fill="#2D64D6"/>
<path d="M490.425 459.222H489.324V453.777H490.523L493.093 457.627H493.158C493.133 457.091 493.125 456.624 493.125 456.126V453.777H494.227V459.222H493.019L490.45 455.371H490.393C490.417 455.916 490.425 456.367 490.425 456.873V459.222ZM499.187 457.122C499.187 457.262 499.179 457.417 499.163 457.542H496.202C496.292 458.195 496.675 458.537 497.238 458.537C497.646 458.537 497.931 458.366 498.111 457.962L499.098 458.211C498.788 458.926 498.176 459.3 497.222 459.3C495.876 459.3 495.125 458.397 495.125 457.238C495.125 456.079 495.868 455.177 497.205 455.177C498.437 455.177 499.187 455.97 499.187 457.122ZM497.205 455.939C496.683 455.939 496.324 456.266 496.218 456.857H498.135C498.062 456.235 497.711 455.939 497.205 455.939ZM500.797 459.222H499.614L500.903 457.199L499.696 455.255H500.895L501.694 456.67H501.751L502.542 455.255H503.717L502.51 457.207L503.799 459.222H502.591L501.735 457.76H501.678L500.797 459.222ZM506.317 459.3C505.517 459.3 504.979 458.88 504.979 457.985V456.087H504.179V455.255H505.036L505.215 454.135H506.08V455.255H507.189V456.087H506.08V457.931C506.08 458.288 506.284 458.444 506.569 458.444C506.733 458.444 506.887 458.413 507.067 458.312L507.336 459.035C507.002 459.23 506.708 459.3 506.317 459.3Z" fill="white"/>
</g>
<path d="M307.5 377.5C307.5 368.94 314.44 362 323 362H551C559.56 362 566.5 368.94 566.5 377.5V465.1C566.5 473.66 559.56 480.6 551 480.6H323C314.44 480.6 307.5 473.66 307.5 465.1V377.5Z" stroke="#E5E7EB" shape-rendering="crispEdges"/>
</g>
<defs>
<filter id="filter0_d_3468_5715" x="0.175781" y="256" width="293" height="305" filterUnits="userSpaceOnUse" color-interpolation-filters="sRGB">
<feFlood flood-opacity="0" result="BackgroundImageFix"/>
<feColorMatrix in="SourceAlpha" type="matrix" values="0 0 0 0 0 0 0 0 0 0 0 0 0 0 0 0 0 0 127 0" result="hardAlpha"/>
<feOffset/>
<feGaussianBlur stdDeviation="12.5"/>
<feComposite in2="hardAlpha" operator="out"/>
<feColorMatrix type="matrix" values="0 0 0 0 0 0 0 0 0 0 0 0 0 0 0 0 0 0 0.08 0"/>
<feBlend mode="normal" in2="BackgroundImageFix" result="effect1_dropShadow_3468_5715"/>
<feBlend mode="normal" in="SourceGraphic" in2="effect1_dropShadow_3468_5715" result="shape"/>
</filter>
<filter id="filter1_d_3468_5715" x="307" y="361.5" width="280" height="139.6" filterUnits="userSpaceOnUse" color-interpolation-filters="sRGB">
<feFlood flood-opacity="0" result="BackgroundImageFix"/>
<feColorMatrix in="SourceAlpha" type="matrix" values="0 0 0 0 0 0 0 0 0 0 0 0 0 0 0 0 0 0 127 0" result="hardAlpha"/>
<feOffset dx="10" dy="10"/>
<feGaussianBlur stdDeviation="5"/>
<feComposite in2="hardAlpha" operator="out"/>
<feColorMatrix type="matrix" values="0 0 0 0 0 0 0 0 0 0 0 0 0 0 0 0 0 0 0.05 0"/>
<feBlend mode="normal" in2="BackgroundImageFix" result="effect1_dropShadow_3468_5715"/>
<feBlend mode="normal" in="SourceGraphic" in2="effect1_dropShadow_3468_5715" result="shape"/>
</filter>
<clipPath id="clip0_3468_5715">
<path d="M75.1758 16C75.1758 7.71573 81.8915 1 90.1758 1H510.176C518.46 1 525.176 7.71573 525.176 16V306C525.176 314.284 518.46 321 510.176 321H90.1758C81.8915 321 75.1758 314.284 75.1758 306V16Z" fill="white"/>
</clipPath>
<clipPath id="clip1_3468_5715">
<path d="M25.1758 289C25.1758 284.582 28.7575 281 33.1758 281H260.176C264.594 281 268.176 284.582 268.176 289V528C268.176 532.418 264.594 536 260.176 536H33.1758C28.7575 536 25.1758 532.418 25.1758 528V289Z" fill="white"/>
</clipPath>
<clipPath id="clip2_3468_5715">
<path d="M307 377.5C307 368.663 314.163 361.5 323 361.5H551C559.837 361.5 567 368.663 567 377.5V465.1C567 473.937 559.837 481.1 551 481.1H323C314.163 481.1 307 473.937 307 465.1V377.5Z" fill="white"/>
</clipPath>
</defs>
</svg>
