<svg width="550" height="534" viewBox="0 0 550 534" fill="none" xmlns="http://www.w3.org/2000/svg">
<g clip-path="url(#clip0_3023_3181)">
<mask id="path-1-outside-1_3023_3181" maskUnits="userSpaceOnUse" x="39" y="59" width="501" height="402" fill="black">
<rect fill="white" x="39" y="59" width="501" height="402"/>
<path d="M40 75C40 66.7157 46.7157 60 55 60H540V460H55C46.7157 460 40 453.284 40 445V75Z"/>
</mask>
<path d="M40 75C40 66.7157 46.7157 60 55 60H540V460H55C46.7157 460 40 453.284 40 445V75Z" fill="white"/>
<mask id="path-3-inside-2_3023_3181" fill="white">
<path d="M40 60H540V121H40V60Z"/>
</mask>
<path d="M40 60H540V121H40V60Z" fill="#F9FAFB"/>
<path d="M540 120H40V122H540V120Z" fill="#F3F4F6" mask="url(#path-3-inside-2_3023_3181)"/>
<path d="M60.952 96.16C59.9067 96.16 58.984 95.92 58.184 95.44C57.3947 94.96 56.7813 94.2827 56.344 93.408C55.9173 92.5333 55.704 91.5307 55.704 90.4C55.704 89.2693 55.9173 88.2667 56.344 87.392C56.7813 86.5173 57.3947 85.84 58.184 85.36C58.984 84.88 59.9067 84.64 60.952 84.64C62.008 84.64 62.9307 84.88 63.72 85.36C64.52 85.84 65.1333 86.5173 65.56 87.392C65.9973 88.2667 66.216 89.2693 66.216 90.4C66.216 91.5307 65.9973 92.5333 65.56 93.408C65.1333 94.2827 64.52 94.96 63.72 95.44C62.9307 95.92 62.008 96.16 60.952 96.16ZM60.952 94.288C61.5707 94.288 62.1093 94.1333 62.568 93.824C63.0267 93.5147 63.3787 93.0667 63.624 92.48C63.88 91.8933 64.008 91.2 64.008 90.4C64.008 89.6 63.88 88.9067 63.624 88.32C63.3787 87.7333 63.0267 87.2853 62.568 86.976C62.1093 86.6667 61.5707 86.512 60.952 86.512C60.344 86.512 59.8053 86.6667 59.336 86.976C58.8773 87.2853 58.52 87.7333 58.264 88.32C58.0187 88.9067 57.896 89.6 57.896 90.4C57.896 91.2 58.0187 91.8933 58.264 92.48C58.52 93.0667 58.8773 93.5147 59.336 93.824C59.8053 94.1333 60.344 94.288 60.952 94.288ZM67.9303 92.192C67.9303 90.2613 67.9036 88.8107 67.8503 87.84H69.9143L70.0743 89.168H70.2183C70.5383 88.688 70.9276 88.32 71.3863 88.064C71.8556 87.808 72.3729 87.68 72.9383 87.68C73.8663 87.68 74.5863 87.968 75.0983 88.544C75.6103 89.12 75.8663 89.9627 75.8663 91.072V96H73.6903V91.488C73.6903 90.848 73.5463 90.368 73.2583 90.048C72.9809 89.7173 72.5863 89.552 72.0743 89.552C71.6796 89.552 71.3329 89.648 71.0343 89.84C70.7356 90.032 70.5009 90.2987 70.3303 90.64C70.1703 90.9707 70.0903 91.3493 70.0903 91.776V96H67.9303V92.192ZM77.8209 96V84.8H79.9809V96H77.8209ZM82.024 96V87.84H84.184V96H82.024ZM83.096 86.864C82.7013 86.864 82.3707 86.7413 82.104 86.496C81.8373 86.24 81.704 85.92 81.704 85.536C81.704 85.1627 81.8373 84.8533 82.104 84.608C82.3707 84.352 82.7013 84.224 83.096 84.224C83.4907 84.224 83.8213 84.352 84.088 84.608C84.3547 84.8533 84.488 85.1627 84.488 85.536C84.488 85.92 84.3547 86.24 84.088 86.496C83.8213 86.7413 83.4907 86.864 83.096 86.864ZM86.2115 92.192C86.2115 90.2613 86.1848 88.8107 86.1315 87.84H88.1955L88.3555 89.168H88.4995C88.8195 88.688 89.2088 88.32 89.6675 88.064C90.1368 87.808 90.6542 87.68 91.2195 87.68C92.1475 87.68 92.8675 87.968 93.3795 88.544C93.8915 89.12 94.1475 89.9627 94.1475 91.072V96H91.9715V91.488C91.9715 90.848 91.8275 90.368 91.5395 90.048C91.2622 89.7173 90.8675 89.552 90.3555 89.552C89.9608 89.552 89.6142 89.648 89.3155 89.84C89.0168 90.032 88.7822 90.2987 88.6115 90.64C88.4515 90.9707 88.3715 91.3493 88.3715 91.776V96H86.2115V92.192ZM99.8141 96.16C98.9608 96.16 98.2248 95.9787 97.6061 95.616C96.9875 95.2427 96.5128 94.736 96.1821 94.096C95.8621 93.4453 95.7021 92.72 95.7021 91.92C95.7021 91.12 95.8621 90.4 96.1821 89.76C96.5021 89.1093 96.9661 88.6027 97.5741 88.24C98.1928 87.8667 98.9288 87.68 99.7821 87.68C100.582 87.68 101.27 87.8507 101.846 88.192C102.433 88.5227 102.881 88.992 103.19 89.6C103.51 90.208 103.67 90.9013 103.67 91.68C103.67 92 103.654 92.288 103.622 92.544H97.1101V91.136H102.246L101.638 92.064C101.638 92 101.638 91.936 101.638 91.872C101.638 91.808 101.638 91.744 101.638 91.68C101.638 90.88 101.473 90.2773 101.142 89.872C100.822 89.456 100.369 89.248 99.7821 89.248C99.1635 89.248 98.6728 89.4827 98.3101 89.952C97.9581 90.4107 97.7821 91.0667 97.7821 91.92C97.7821 92.784 97.9635 93.4453 98.3261 93.904C98.6995 94.3627 99.2061 94.592 99.8461 94.592C100.251 94.592 100.593 94.5013 100.87 94.32C101.158 94.128 101.387 93.824 101.558 93.408L103.494 93.92C103.185 94.6667 102.726 95.2267 102.118 95.6C101.51 95.9733 100.742 96.16 99.8141 96.16ZM109.245 96V84.8H113.949C115.101 84.8 116.003 85.0453 116.653 85.536C117.315 86.0267 117.645 86.768 117.645 87.76C117.645 88.368 117.512 88.88 117.245 89.296C116.979 89.712 116.616 90.016 116.157 90.208V90.32C116.797 90.5227 117.283 90.8427 117.613 91.28C117.955 91.7173 118.125 92.2773 118.125 92.96C118.125 93.9307 117.805 94.6827 117.165 95.216C116.525 95.7387 115.56 96 114.269 96H109.245ZM114.077 94.288C114.653 94.288 115.101 94.1493 115.421 93.872C115.752 93.5947 115.917 93.2053 115.917 92.704C115.917 92.192 115.752 91.7973 115.421 91.52C115.101 91.2427 114.653 91.104 114.077 91.104H111.437V94.288H114.077ZM113.741 89.536C114.307 89.536 114.739 89.408 115.037 89.152C115.336 88.8853 115.485 88.512 115.485 88.032C115.485 87.552 115.336 87.1787 115.037 86.912C114.739 86.6453 114.307 86.512 113.741 86.512H111.437V89.536H113.741ZM123.595 96.16C122.742 96.16 122.001 95.9733 121.371 95.6C120.753 95.2267 120.283 94.7253 119.963 94.096C119.643 93.456 119.483 92.7307 119.483 91.92C119.483 91.1093 119.643 90.3893 119.963 89.76C120.283 89.12 120.753 88.6133 121.371 88.24C122.001 87.8667 122.742 87.68 123.595 87.68C124.459 87.68 125.201 87.8667 125.819 88.24C126.438 88.6133 126.907 89.12 127.227 89.76C127.558 90.3893 127.723 91.1093 127.723 91.92C127.723 92.7307 127.558 93.456 127.227 94.096C126.907 94.7253 126.438 95.2267 125.819 95.6C125.201 95.9733 124.459 96.16 123.595 96.16ZM123.595 94.368C124.182 94.368 124.651 94.1493 125.003 93.712C125.366 93.264 125.547 92.6667 125.547 91.92C125.547 91.1733 125.366 90.5813 125.003 90.144C124.651 89.696 124.182 89.472 123.595 89.472C123.009 89.472 122.534 89.696 122.171 90.144C121.819 90.5813 121.643 91.1733 121.643 91.92C121.643 92.6667 121.819 93.264 122.171 93.712C122.534 94.1493 123.009 94.368 123.595 94.368ZM133.064 96.16C132.211 96.16 131.469 95.9733 130.84 95.6C130.221 95.2267 129.752 94.7253 129.432 94.096C129.112 93.456 128.952 92.7307 128.952 91.92C128.952 91.1093 129.112 90.3893 129.432 89.76C129.752 89.12 130.221 88.6133 130.84 88.24C131.469 87.8667 132.211 87.68 133.064 87.68C133.928 87.68 134.669 87.8667 135.288 88.24C135.907 88.6133 136.376 89.12 136.696 89.76C137.027 90.3893 137.192 91.1093 137.192 91.92C137.192 92.7307 137.027 93.456 136.696 94.096C136.376 94.7253 135.907 95.2267 135.288 95.6C134.669 95.9733 133.928 96.16 133.064 96.16ZM133.064 94.368C133.651 94.368 134.12 94.1493 134.472 93.712C134.835 93.264 135.016 92.6667 135.016 91.92C135.016 91.1733 134.835 90.5813 134.472 90.144C134.12 89.696 133.651 89.472 133.064 89.472C132.477 89.472 132.003 89.696 131.64 90.144C131.288 90.5813 131.112 91.1733 131.112 91.92C131.112 92.6667 131.288 93.264 131.64 93.712C132.003 94.1493 132.477 94.368 133.064 94.368ZM138.821 96V87.84H140.981V96H138.821ZM139.893 86.864C139.498 86.864 139.168 86.7413 138.901 86.496C138.634 86.24 138.501 85.92 138.501 85.536C138.501 85.1627 138.634 84.8533 138.901 84.608C139.168 84.352 139.498 84.224 139.893 84.224C140.288 84.224 140.618 84.352 140.885 84.608C141.152 84.8533 141.285 85.1627 141.285 85.536C141.285 85.92 141.152 86.24 140.885 86.496C140.618 86.7413 140.288 86.864 139.893 86.864ZM143.008 92.192C143.008 90.2613 142.982 88.8107 142.928 87.84H144.992L145.152 89.168H145.296C145.616 88.688 146.006 88.32 146.464 88.064C146.934 87.808 147.451 87.68 148.016 87.68C148.944 87.68 149.664 87.968 150.176 88.544C150.688 89.12 150.944 89.9627 150.944 91.072V96H148.768V91.488C148.768 90.848 148.624 90.368 148.336 90.048C148.059 89.7173 147.664 89.552 147.152 89.552C146.758 89.552 146.411 89.648 146.112 89.84C145.814 90.032 145.579 90.2987 145.408 90.64C145.248 90.9707 145.168 91.3493 145.168 91.776V96H143.008V92.192ZM156.739 99.36C155.715 99.36 154.851 99.1627 154.147 98.768C153.454 98.3733 152.995 97.808 152.771 97.072L154.739 96.544C155.016 97.344 155.678 97.744 156.723 97.744C157.288 97.744 157.731 97.5893 158.051 97.28C158.371 96.9813 158.531 96.5387 158.531 95.952V94.288H158.387C157.822 95.28 156.958 95.776 155.795 95.776C155.134 95.776 154.552 95.616 154.051 95.296C153.55 94.9653 153.166 94.496 152.899 93.888C152.632 93.28 152.499 92.5707 152.499 91.76C152.499 90.928 152.632 90.208 152.899 89.6C153.166 88.9813 153.55 88.5067 154.051 88.176C154.552 87.8453 155.134 87.68 155.795 87.68C156.958 87.68 157.822 88.176 158.387 89.168H158.531L158.707 87.84H160.771C160.718 88.8107 160.691 90.2293 160.691 92.096V96C160.691 96.672 160.542 97.2587 160.243 97.76C159.955 98.272 159.512 98.6667 158.915 98.944C158.328 99.2213 157.603 99.36 156.739 99.36ZM156.579 94.048C157.176 94.048 157.651 93.84 158.003 93.424C158.355 92.9973 158.531 92.4373 158.531 91.744C158.531 91.0613 158.355 90.512 158.003 90.096C157.651 89.68 157.176 89.472 156.579 89.472C155.992 89.472 155.523 89.6853 155.171 90.112C154.83 90.528 154.659 91.0773 154.659 91.76C154.659 92.4427 154.83 92.9973 155.171 93.424C155.523 93.84 155.992 94.048 156.579 94.048ZM166.699 96V84.8H174.571V86.64H168.891V89.616H174.059V91.44H168.891V96H166.699ZM179.72 96.16C178.867 96.16 178.126 95.9733 177.496 95.6C176.878 95.2267 176.408 94.7253 176.088 94.096C175.768 93.456 175.608 92.7307 175.608 91.92C175.608 91.1093 175.768 90.3893 176.088 89.76C176.408 89.12 176.878 88.6133 177.496 88.24C178.126 87.8667 178.867 87.68 179.72 87.68C180.584 87.68 181.326 87.8667 181.944 88.24C182.563 88.6133 183.032 89.12 183.352 89.76C183.683 90.3893 183.848 91.1093 183.848 91.92C183.848 92.7307 183.683 93.456 183.352 94.096C183.032 94.7253 182.563 95.2267 181.944 95.6C181.326 95.9733 180.584 96.16 179.72 96.16ZM179.72 94.368C180.307 94.368 180.776 94.1493 181.128 93.712C181.491 93.264 181.672 92.6667 181.672 91.92C181.672 91.1733 181.491 90.5813 181.128 90.144C180.776 89.696 180.307 89.472 179.72 89.472C179.134 89.472 178.659 89.696 178.296 90.144C177.944 90.5813 177.768 91.1733 177.768 91.92C177.768 92.6667 177.944 93.264 178.296 93.712C178.659 94.1493 179.134 94.368 179.72 94.368ZM185.477 92.192C185.477 90.2613 185.45 88.8107 185.397 87.84H187.461L187.701 89.712L187.525 89.504H187.829C188.042 88.9067 188.352 88.4533 188.757 88.144C189.162 87.8347 189.637 87.68 190.181 87.68C190.405 87.68 190.592 87.6853 190.741 87.696V89.824C190.57 89.8027 190.368 89.792 190.133 89.792C189.418 89.792 188.821 90.0213 188.341 90.48C187.872 90.9387 187.637 91.6747 187.637 92.688V96H185.477V92.192ZM192.102 92.192C192.102 90.2613 192.075 88.8107 192.022 87.84H194.086L194.23 89.088H194.374C194.651 88.6293 195.009 88.2827 195.446 88.048C195.883 87.8027 196.363 87.68 196.886 87.68C197.483 87.68 197.985 87.8187 198.39 88.096C198.795 88.3627 199.11 88.7573 199.334 89.28H199.478C199.755 88.7467 200.123 88.3467 200.582 88.08C201.051 87.8133 201.579 87.68 202.166 87.68C203.019 87.68 203.675 87.9467 204.134 88.48C204.593 89.0027 204.822 89.7813 204.822 90.816V96H202.662V91.296C202.662 90.72 202.539 90.288 202.294 90C202.049 89.7013 201.702 89.552 201.254 89.552C200.913 89.552 200.614 89.6373 200.358 89.808C200.102 89.9787 199.899 90.2133 199.75 90.512C199.611 90.8107 199.542 91.152 199.542 91.536V96H197.382V91.296C197.382 90.72 197.259 90.288 197.014 90C196.769 89.7013 196.422 89.552 195.974 89.552C195.633 89.552 195.334 89.6373 195.078 89.808C194.822 89.9787 194.619 90.2133 194.47 90.512C194.331 90.8107 194.262 91.152 194.262 91.536V96H192.102V92.192Z" fill="black"/>
<path d="M62.68 149.08C62.1093 149.08 61.6133 148.96 61.192 148.72C60.7707 148.48 60.4907 148.131 60.352 147.672L61.376 147.408C61.4827 147.685 61.6533 147.891 61.888 148.024C62.1227 148.157 62.3867 148.224 62.68 148.224C63 148.224 63.248 148.16 63.424 148.032C63.6 147.899 63.688 147.723 63.688 147.504C63.688 147.339 63.6347 147.205 63.528 147.104C63.4213 146.997 63.2853 146.915 63.12 146.856C62.96 146.797 62.736 146.731 62.448 146.656C62.032 146.544 61.6933 146.432 61.432 146.32C61.1707 146.208 60.944 146.035 60.752 145.8C60.5653 145.56 60.472 145.243 60.472 144.848C60.472 144.549 60.552 144.285 60.712 144.056C60.8773 143.827 61.1147 143.648 61.424 143.52C61.7333 143.387 62.0987 143.32 62.52 143.32C63.064 143.32 63.5227 143.432 63.896 143.656C64.2693 143.88 64.5253 144.211 64.664 144.648L63.624 144.912C63.5387 144.661 63.3973 144.477 63.2 144.36C63.008 144.237 62.7813 144.176 62.52 144.176C62.2267 144.176 61.9973 144.24 61.832 144.368C61.6667 144.491 61.584 144.651 61.584 144.848C61.584 145.008 61.6347 145.139 61.736 145.24C61.8427 145.336 61.976 145.416 62.136 145.48C62.296 145.539 62.52 145.605 62.808 145.68C63.224 145.787 63.5627 145.899 63.824 146.016C64.0907 146.128 64.32 146.304 64.512 146.544C64.704 146.784 64.8 147.107 64.8 147.512C64.8 147.827 64.7147 148.101 64.544 148.336C64.3787 148.571 64.136 148.755 63.816 148.888C63.496 149.016 63.1173 149.08 62.68 149.08ZM67.4774 149.08C67.0507 149.08 66.6827 148.989 66.3734 148.808C66.064 148.621 65.8267 148.368 65.6614 148.048C65.5014 147.723 65.4214 147.36 65.4214 146.96C65.4214 146.56 65.5014 146.2 65.6614 145.88C65.8214 145.555 66.0534 145.301 66.3574 145.12C66.6667 144.933 67.0347 144.84 67.4614 144.84C67.8614 144.84 68.2054 144.925 68.4934 145.096C68.7867 145.261 69.0107 145.496 69.1654 145.8C69.3254 146.104 69.4054 146.451 69.4054 146.84C69.4054 147 69.3974 147.144 69.3814 147.272H66.1254V146.568H68.6934L68.3894 147.032C68.3894 147 68.3894 146.968 68.3894 146.936C68.3894 146.904 68.3894 146.872 68.3894 146.84C68.3894 146.44 68.3067 146.139 68.1414 145.936C67.9814 145.728 67.7547 145.624 67.4614 145.624C67.152 145.624 66.9067 145.741 66.7254 145.976C66.5494 146.205 66.4614 146.533 66.4614 146.96C66.4614 147.392 66.552 147.723 66.7334 147.952C66.92 148.181 67.1734 148.296 67.4934 148.296C67.696 148.296 67.8667 148.251 68.0054 148.16C68.1494 148.064 68.264 147.912 68.3494 147.704L69.3174 147.96C69.1627 148.333 68.9334 148.613 68.6294 148.8C68.3254 148.987 67.9414 149.08 67.4774 149.08ZM70.2073 149V143.4H71.2873V149H70.2073ZM74.1649 149.08C73.7382 149.08 73.3702 148.989 73.0609 148.808C72.7515 148.621 72.5142 148.368 72.3489 148.048C72.1889 147.723 72.1089 147.36 72.1089 146.96C72.1089 146.56 72.1889 146.2 72.3489 145.88C72.5089 145.555 72.7409 145.301 73.0449 145.12C73.3542 144.933 73.7222 144.84 74.1489 144.84C74.5489 144.84 74.8929 144.925 75.1809 145.096C75.4742 145.261 75.6982 145.496 75.8529 145.8C76.0129 146.104 76.0929 146.451 76.0929 146.84C76.0929 147 76.0849 147.144 76.0689 147.272H72.8129V146.568H75.3809L75.0769 147.032C75.0769 147 75.0769 146.968 75.0769 146.936C75.0769 146.904 75.0769 146.872 75.0769 146.84C75.0769 146.44 74.9942 146.139 74.8289 145.936C74.6689 145.728 74.4422 145.624 74.1489 145.624C73.8395 145.624 73.5942 145.741 73.4129 145.976C73.2369 146.205 73.1489 146.533 73.1489 146.96C73.1489 147.392 73.2395 147.723 73.4209 147.952C73.6075 148.181 73.8609 148.296 74.1809 148.296C74.3835 148.296 74.5542 148.251 74.6929 148.16C74.8369 148.064 74.9515 147.912 75.0369 147.704L76.0049 147.96C75.8502 148.333 75.6209 148.613 75.3169 148.8C75.0129 148.987 74.6289 149.08 74.1649 149.08ZM78.7508 149.08C78.3188 149.08 77.9481 148.987 77.6388 148.8C77.3295 148.613 77.0948 148.363 76.9348 148.048C76.7748 147.728 76.6948 147.365 76.6948 146.96C76.6948 146.555 76.7748 146.195 76.9348 145.88C77.0948 145.56 77.3295 145.307 77.6388 145.12C77.9481 144.933 78.3188 144.84 78.7508 144.84C79.2148 144.84 79.6068 144.952 79.9268 145.176C80.2521 145.4 80.4761 145.731 80.5988 146.168L79.5668 146.44C79.4975 146.2 79.3908 146.024 79.2468 145.912C79.1081 145.795 78.9401 145.736 78.7428 145.736C78.4495 145.736 78.2148 145.848 78.0388 146.072C77.8628 146.291 77.7748 146.587 77.7748 146.96C77.7748 147.333 77.8628 147.632 78.0388 147.856C78.2148 148.075 78.4495 148.184 78.7428 148.184C78.9455 148.184 79.1215 148.125 79.2708 148.008C79.4201 147.891 79.5321 147.715 79.6068 147.48L80.6468 147.752C80.5135 148.184 80.2788 148.515 79.9428 148.744C79.6121 148.968 79.2148 149.08 78.7508 149.08ZM83.2024 149.08C82.7971 149.08 82.4771 148.968 82.2424 148.744C82.0078 148.515 81.8904 148.176 81.8904 147.728V145.776H81.1064V144.92H81.9464L82.1224 143.768H82.9704V144.92H84.0584V145.776H82.9704V147.672C82.9704 147.848 83.0131 147.981 83.0984 148.072C83.1838 148.157 83.3011 148.2 83.4504 148.2C83.6211 148.2 83.7838 148.155 83.9384 148.064L84.2024 148.808C84.0424 148.909 83.8824 148.979 83.7224 149.016C83.5678 149.059 83.3944 149.08 83.2024 149.08ZM89.3744 149.08C88.8464 149.08 88.3851 148.96 87.9904 148.72C87.5958 148.48 87.2891 148.141 87.0704 147.704C86.8571 147.267 86.7504 146.765 86.7504 146.2C86.7504 145.635 86.8571 145.133 87.0704 144.696C87.2891 144.259 87.5958 143.92 87.9904 143.68C88.3851 143.44 88.8464 143.32 89.3744 143.32C89.9771 143.32 90.4864 143.467 90.9024 143.76C91.3184 144.053 91.6064 144.491 91.7664 145.072L90.6944 145.352C90.5824 144.979 90.4144 144.701 90.1904 144.52C89.9664 144.339 89.6944 144.248 89.3744 144.248C89.0651 144.248 88.7958 144.325 88.5664 144.48C88.3371 144.635 88.1584 144.861 88.0304 145.16C87.9078 145.453 87.8464 145.8 87.8464 146.2C87.8464 146.6 87.9078 146.949 88.0304 147.248C88.1584 147.541 88.3371 147.765 88.5664 147.92C88.7958 148.075 89.0651 148.152 89.3744 148.152C89.6998 148.152 89.9771 148.061 90.2064 147.88C90.4411 147.699 90.6171 147.421 90.7344 147.048L91.8064 147.328C91.6464 147.915 91.3558 148.355 90.9344 148.648C90.5131 148.936 89.9931 149.08 89.3744 149.08ZM93.8292 149.08C93.4345 149.08 93.1172 148.971 92.8772 148.752C92.6372 148.528 92.5172 148.232 92.5172 147.864C92.5172 147.469 92.6585 147.16 92.9412 146.936C93.2239 146.712 93.6399 146.584 94.1892 146.552L95.2932 146.488V147.152L94.4372 147.208C94.1332 147.229 93.9092 147.283 93.7652 147.368C93.6212 147.453 93.5492 147.589 93.5492 147.776C93.5492 147.925 93.6025 148.045 93.7092 148.136C93.8212 148.227 93.9705 148.272 94.1572 148.272C94.3492 148.272 94.5252 148.224 94.6852 148.128C94.8452 148.027 94.9705 147.885 95.0612 147.704C95.1519 147.523 95.1972 147.317 95.1972 147.088V146.344C95.1972 146.115 95.1199 145.941 94.9652 145.824C94.8159 145.707 94.6265 145.648 94.3972 145.648C94.1625 145.648 93.9705 145.704 93.8212 145.816C93.6719 145.923 93.5625 146.08 93.4932 146.288L92.5652 146.04C92.6345 145.661 92.8319 145.368 93.1572 145.16C93.4879 144.947 93.9012 144.84 94.3972 144.84C94.9892 144.84 95.4425 144.971 95.7572 145.232C96.0772 145.488 96.2372 145.845 96.2372 146.304V146.856C96.2372 147.805 96.2505 148.52 96.2772 149H95.3252L95.2372 148.304H95.1652C95.0372 148.56 94.8612 148.755 94.6372 148.888C94.4185 149.016 94.1492 149.08 93.8292 149.08ZM99.0149 149.08C98.6096 149.08 98.2896 148.968 98.0549 148.744C97.8203 148.515 97.7029 148.176 97.7029 147.728V145.776H96.9189V144.92H97.7589L97.9349 143.768H98.7829V144.92H99.8709V145.776H98.7829V147.672C98.7829 147.848 98.8256 147.981 98.9109 148.072C98.9963 148.157 99.1136 148.2 99.2629 148.2C99.4336 148.2 99.5963 148.155 99.7509 148.064L100.015 148.808C99.8549 148.909 99.6949 148.979 99.5349 149.016C99.3803 149.059 99.2069 149.08 99.0149 149.08ZM102.548 149.08C102.121 149.08 101.753 148.989 101.444 148.808C101.134 148.621 100.897 148.368 100.732 148.048C100.572 147.723 100.492 147.36 100.492 146.96C100.492 146.56 100.572 146.2 100.732 145.88C100.892 145.555 101.124 145.301 101.428 145.12C101.737 144.933 102.105 144.84 102.532 144.84C102.932 144.84 103.276 144.925 103.564 145.096C103.857 145.261 104.081 145.496 104.236 145.8C104.396 146.104 104.476 146.451 104.476 146.84C104.476 147 104.468 147.144 104.452 147.272H101.196V146.568H103.764L103.46 147.032C103.46 147 103.46 146.968 103.46 146.936C103.46 146.904 103.46 146.872 103.46 146.84C103.46 146.44 103.377 146.139 103.212 145.936C103.052 145.728 102.825 145.624 102.532 145.624C102.222 145.624 101.977 145.741 101.796 145.976C101.62 146.205 101.532 146.533 101.532 146.96C101.532 147.392 101.622 147.723 101.804 147.952C101.99 148.181 102.244 148.296 102.564 148.296C102.766 148.296 102.937 148.251 103.076 148.16C103.22 148.064 103.334 147.912 103.42 147.704L104.388 147.96C104.233 148.333 104.004 148.613 103.7 148.8C103.396 148.987 103.012 149.08 102.548 149.08ZM107.198 150.68C106.686 150.68 106.254 150.581 105.902 150.384C105.555 150.187 105.326 149.904 105.214 149.536L106.198 149.272C106.336 149.672 106.667 149.872 107.19 149.872C107.472 149.872 107.694 149.795 107.854 149.64C108.014 149.491 108.094 149.269 108.094 148.976V148.144H108.022C107.739 148.64 107.307 148.888 106.726 148.888C106.395 148.888 106.104 148.808 105.854 148.648C105.603 148.483 105.411 148.248 105.278 147.944C105.144 147.64 105.078 147.285 105.078 146.88C105.078 146.464 105.144 146.104 105.278 145.8C105.411 145.491 105.603 145.253 105.854 145.088C106.104 144.923 106.395 144.84 106.726 144.84C107.307 144.84 107.739 145.088 108.022 145.584H108.094L108.182 144.92H109.214C109.187 145.405 109.174 146.115 109.174 147.048V149C109.174 149.336 109.099 149.629 108.95 149.88C108.806 150.136 108.584 150.333 108.286 150.472C107.992 150.611 107.63 150.68 107.198 150.68ZM107.118 148.024C107.416 148.024 107.654 147.92 107.83 147.712C108.006 147.499 108.094 147.219 108.094 146.872C108.094 146.531 108.006 146.256 107.83 146.048C107.654 145.84 107.416 145.736 107.118 145.736C106.824 145.736 106.59 145.843 106.414 146.056C106.243 146.264 106.158 146.539 106.158 146.88C106.158 147.221 106.243 147.499 106.414 147.712C106.59 147.92 106.824 148.024 107.118 148.024ZM112.048 149.08C111.621 149.08 111.25 148.987 110.936 148.8C110.626 148.613 110.392 148.363 110.232 148.048C110.072 147.728 109.992 147.365 109.992 146.96C109.992 146.555 110.072 146.195 110.232 145.88C110.392 145.56 110.626 145.307 110.936 145.12C111.25 144.933 111.621 144.84 112.048 144.84C112.48 144.84 112.85 144.933 113.16 145.12C113.469 145.307 113.704 145.56 113.864 145.88C114.029 146.195 114.112 146.555 114.112 146.96C114.112 147.365 114.029 147.728 113.864 148.048C113.704 148.363 113.469 148.613 113.16 148.8C112.85 148.987 112.48 149.08 112.048 149.08ZM112.048 148.184C112.341 148.184 112.576 148.075 112.752 147.856C112.933 147.632 113.024 147.333 113.024 146.96C113.024 146.587 112.933 146.291 112.752 146.072C112.576 145.848 112.341 145.736 112.048 145.736C111.754 145.736 111.517 145.848 111.336 146.072C111.16 146.291 111.072 146.587 111.072 146.96C111.072 147.333 111.16 147.632 111.336 147.856C111.517 148.075 111.754 148.184 112.048 148.184ZM114.926 147.096C114.926 146.131 114.913 145.405 114.886 144.92H115.918L116.038 145.856L115.95 145.752H116.102C116.209 145.453 116.363 145.227 116.566 145.072C116.769 144.917 117.006 144.84 117.278 144.84C117.39 144.84 117.483 144.843 117.558 144.848V145.912C117.473 145.901 117.371 145.896 117.254 145.896C116.897 145.896 116.598 146.011 116.358 146.24C116.123 146.469 116.006 146.837 116.006 147.344V149H114.926V147.096ZM118.847 150.6L119.407 149.144L117.847 144.92H118.967L119.951 147.96H120.007L120.983 144.92H122.079L119.983 150.6H118.847Z" fill="black"/>
<path d="M60 163.5C60 162.119 61.1193 161 62.5 161H117.5C118.881 161 120 162.119 120 163.5C120 164.881 118.881 166 117.5 166H62.5C61.1193 166 60 164.881 60 163.5Z" fill="#E5E7EB"/>
<path d="M60 172.5C60 171.119 61.1193 170 62.5 170H157.5C158.881 170 160 171.119 160 172.5C160 173.881 158.881 175 157.5 175H62.5C61.1193 175 60 173.881 60 172.5Z" fill="#E5E7EB"/>
<path d="M60 181.5C60 180.119 61.1193 179 62.5 179H137.5C138.881 179 140 180.119 140 181.5C140 182.881 138.881 184 137.5 184H62.5C61.1193 184 60 182.881 60 181.5Z" fill="#E5E7EB"/>
<path d="M60 206.5C60 205.119 61.1193 204 62.5 204H117.5C118.881 204 120 205.119 120 206.5C120 207.881 118.881 209 117.5 209H62.5C61.1193 209 60 207.881 60 206.5Z" fill="#E5E7EB"/>
<path d="M60 215.5C60 214.119 61.1193 213 62.5 213H157.5C158.881 213 160 214.119 160 215.5C160 216.881 158.881 218 157.5 218H62.5C61.1193 218 60 216.881 60 215.5Z" fill="#E5E7EB"/>
<path d="M60 224.5C60 223.119 61.1193 222 62.5 222H137.5C138.881 222 140 223.119 140 224.5C140 225.881 138.881 227 137.5 227H62.5C61.1193 227 60 225.881 60 224.5Z" fill="#E5E7EB"/>
<path d="M60 249.5C60 248.119 61.1193 247 62.5 247H117.5C118.881 247 120 248.119 120 249.5C120 250.881 118.881 252 117.5 252H62.5C61.1193 252 60 250.881 60 249.5Z" fill="#E5E7EB"/>
<path d="M60 258.5C60 257.119 61.1193 256 62.5 256H157.5C158.881 256 160 257.119 160 258.5C160 259.881 158.881 261 157.5 261H62.5C61.1193 261 60 259.881 60 258.5Z" fill="#E5E7EB"/>
<path d="M60 267.5C60 266.119 61.1193 265 62.5 265H137.5C138.881 265 140 266.119 140 267.5C140 268.881 138.881 270 137.5 270H62.5C61.1193 270 60 268.881 60 267.5Z" fill="#E5E7EB"/>
<path d="M197.68 149.08C197.109 149.08 196.613 148.96 196.192 148.72C195.771 148.48 195.491 148.131 195.352 147.672L196.376 147.408C196.483 147.685 196.653 147.891 196.888 148.024C197.123 148.157 197.387 148.224 197.68 148.224C198 148.224 198.248 148.16 198.424 148.032C198.6 147.899 198.688 147.723 198.688 147.504C198.688 147.339 198.635 147.205 198.528 147.104C198.421 146.997 198.285 146.915 198.12 146.856C197.96 146.797 197.736 146.731 197.448 146.656C197.032 146.544 196.693 146.432 196.432 146.32C196.171 146.208 195.944 146.035 195.752 145.8C195.565 145.56 195.472 145.243 195.472 144.848C195.472 144.549 195.552 144.285 195.712 144.056C195.877 143.827 196.115 143.648 196.424 143.52C196.733 143.387 197.099 143.32 197.52 143.32C198.064 143.32 198.523 143.432 198.896 143.656C199.269 143.88 199.525 144.211 199.664 144.648L198.624 144.912C198.539 144.661 198.397 144.477 198.2 144.36C198.008 144.237 197.781 144.176 197.52 144.176C197.227 144.176 196.997 144.24 196.832 144.368C196.667 144.491 196.584 144.651 196.584 144.848C196.584 145.008 196.635 145.139 196.736 145.24C196.843 145.336 196.976 145.416 197.136 145.48C197.296 145.539 197.52 145.605 197.808 145.68C198.224 145.787 198.563 145.899 198.824 146.016C199.091 146.128 199.32 146.304 199.512 146.544C199.704 146.784 199.8 147.107 199.8 147.512C199.8 147.827 199.715 148.101 199.544 148.336C199.379 148.571 199.136 148.755 198.816 148.888C198.496 149.016 198.117 149.08 197.68 149.08ZM202.477 149.08C202.051 149.08 201.683 148.989 201.373 148.808C201.064 148.621 200.827 148.368 200.661 148.048C200.501 147.723 200.421 147.36 200.421 146.96C200.421 146.56 200.501 146.2 200.661 145.88C200.821 145.555 201.053 145.301 201.357 145.12C201.667 144.933 202.035 144.84 202.461 144.84C202.861 144.84 203.205 144.925 203.493 145.096C203.787 145.261 204.011 145.496 204.165 145.8C204.325 146.104 204.405 146.451 204.405 146.84C204.405 147 204.397 147.144 204.381 147.272H201.125V146.568H203.693L203.389 147.032C203.389 147 203.389 146.968 203.389 146.936C203.389 146.904 203.389 146.872 203.389 146.84C203.389 146.44 203.307 146.139 203.141 145.936C202.981 145.728 202.755 145.624 202.461 145.624C202.152 145.624 201.907 145.741 201.725 145.976C201.549 146.205 201.461 146.533 201.461 146.96C201.461 147.392 201.552 147.723 201.733 147.952C201.92 148.181 202.173 148.296 202.493 148.296C202.696 148.296 202.867 148.251 203.005 148.16C203.149 148.064 203.264 147.912 203.349 147.704L204.317 147.96C204.163 148.333 203.933 148.613 203.629 148.8C203.325 148.987 202.941 149.08 202.477 149.08ZM205.207 147.096C205.207 146.131 205.194 145.405 205.167 144.92H206.199L206.319 145.856L206.231 145.752H206.383C206.49 145.453 206.645 145.227 206.847 145.072C207.05 144.917 207.287 144.84 207.559 144.84C207.671 144.84 207.765 144.843 207.839 144.848V145.912C207.754 145.901 207.653 145.896 207.535 145.896C207.178 145.896 206.879 146.011 206.639 146.24C206.405 146.469 206.287 146.837 206.287 147.344V149H205.207V147.096ZM209.544 149L208.128 144.92H209.248L210.192 148.032H210.248L211.184 144.92H212.28L210.856 149H209.544ZM212.91 149V144.92H213.99V149H212.91ZM213.446 144.432C213.249 144.432 213.084 144.371 212.95 144.248C212.817 144.12 212.75 143.96 212.75 143.768C212.75 143.581 212.817 143.427 212.95 143.304C213.084 143.176 213.249 143.112 213.446 143.112C213.644 143.112 213.809 143.176 213.942 143.304C214.076 143.427 214.142 143.581 214.142 143.768C214.142 143.96 214.076 144.12 213.942 144.248C213.809 144.371 213.644 144.432 213.446 144.432ZM216.86 149.08C216.428 149.08 216.058 148.987 215.748 148.8C215.439 148.613 215.204 148.363 215.044 148.048C214.884 147.728 214.804 147.365 214.804 146.96C214.804 146.555 214.884 146.195 215.044 145.88C215.204 145.56 215.439 145.307 215.748 145.12C216.058 144.933 216.428 144.84 216.86 144.84C217.324 144.84 217.716 144.952 218.036 145.176C218.362 145.4 218.586 145.731 218.708 146.168L217.676 146.44C217.607 146.2 217.5 146.024 217.356 145.912C217.218 145.795 217.05 145.736 216.852 145.736C216.559 145.736 216.324 145.848 216.148 146.072C215.972 146.291 215.884 146.587 215.884 146.96C215.884 147.333 215.972 147.632 216.148 147.856C216.324 148.075 216.559 148.184 216.852 148.184C217.055 148.184 217.231 148.125 217.38 148.008C217.53 147.891 217.642 147.715 217.716 147.48L218.756 147.752C218.623 148.184 218.388 148.515 218.052 148.744C217.722 148.968 217.324 149.08 216.86 149.08ZM221.368 149.08C220.941 149.08 220.573 148.989 220.264 148.808C219.955 148.621 219.717 148.368 219.552 148.048C219.392 147.723 219.312 147.36 219.312 146.96C219.312 146.56 219.392 146.2 219.552 145.88C219.712 145.555 219.944 145.301 220.248 145.12C220.557 144.933 220.925 144.84 221.352 144.84C221.752 144.84 222.096 144.925 222.384 145.096C222.677 145.261 222.901 145.496 223.056 145.8C223.216 146.104 223.296 146.451 223.296 146.84C223.296 147 223.288 147.144 223.272 147.272H220.016V146.568H222.584L222.28 147.032C222.28 147 222.28 146.968 222.28 146.936C222.28 146.904 222.28 146.872 222.28 146.84C222.28 146.44 222.197 146.139 222.032 145.936C221.872 145.728 221.645 145.624 221.352 145.624C221.043 145.624 220.797 145.741 220.616 145.976C220.44 146.205 220.352 146.533 220.352 146.96C220.352 147.392 220.443 147.723 220.624 147.952C220.811 148.181 221.064 148.296 221.384 148.296C221.587 148.296 221.757 148.251 221.896 148.16C222.04 148.064 222.155 147.912 222.24 147.704L223.208 147.96C223.053 148.333 222.824 148.613 222.52 148.8C222.216 148.987 221.832 149.08 221.368 149.08ZM226.084 149V143.4H227.26L229.78 147.36H229.844C229.822 146.88 229.812 146.365 229.812 145.816V143.4H230.892V149H229.708L227.188 145.04H227.132C227.153 145.52 227.164 146.035 227.164 146.584V149H226.084ZM233.173 149.08C232.778 149.08 232.461 148.971 232.221 148.752C231.981 148.528 231.861 148.232 231.861 147.864C231.861 147.469 232.002 147.16 232.285 146.936C232.568 146.712 232.984 146.584 233.533 146.552L234.637 146.488V147.152L233.781 147.208C233.477 147.229 233.253 147.283 233.109 147.368C232.965 147.453 232.893 147.589 232.893 147.776C232.893 147.925 232.946 148.045 233.053 148.136C233.165 148.227 233.314 148.272 233.501 148.272C233.693 148.272 233.869 148.224 234.029 148.128C234.189 148.027 234.314 147.885 234.405 147.704C234.496 147.523 234.541 147.317 234.541 147.088V146.344C234.541 146.115 234.464 145.941 234.309 145.824C234.16 145.707 233.97 145.648 233.741 145.648C233.506 145.648 233.314 145.704 233.165 145.816C233.016 145.923 232.906 146.08 232.837 146.288L231.909 146.04C231.978 145.661 232.176 145.368 232.501 145.16C232.832 144.947 233.245 144.84 233.741 144.84C234.333 144.84 234.786 144.971 235.101 145.232C235.421 145.488 235.581 145.845 235.581 146.304V146.856C235.581 147.805 235.594 148.52 235.621 149H234.669L234.581 148.304H234.509C234.381 148.56 234.205 148.755 233.981 148.888C233.762 149.016 233.493 149.08 233.173 149.08ZM236.606 147.096C236.606 146.131 236.592 145.405 236.566 144.92H237.598L237.67 145.544H237.742C237.88 145.315 238.059 145.141 238.278 145.024C238.496 144.901 238.736 144.84 238.998 144.84C239.296 144.84 239.547 144.909 239.75 145.048C239.952 145.181 240.11 145.379 240.222 145.64H240.294C240.432 145.373 240.616 145.173 240.846 145.04C241.08 144.907 241.344 144.84 241.638 144.84C242.064 144.84 242.392 144.973 242.622 145.24C242.851 145.501 242.966 145.891 242.966 146.408V149H241.886V146.648C241.886 146.36 241.824 146.144 241.702 146C241.579 145.851 241.406 145.776 241.182 145.776C241.011 145.776 240.862 145.819 240.734 145.904C240.606 145.989 240.504 146.107 240.43 146.256C240.36 146.405 240.326 146.576 240.326 146.768V149H239.246V146.648C239.246 146.36 239.184 146.144 239.062 146C238.939 145.851 238.766 145.776 238.542 145.776C238.371 145.776 238.222 145.819 238.094 145.904C237.966 145.989 237.864 146.107 237.79 146.256C237.72 146.405 237.686 146.576 237.686 146.768V149H236.606V147.096ZM245.798 149.08C245.371 149.08 245.003 148.989 244.694 148.808C244.384 148.621 244.147 148.368 243.982 148.048C243.822 147.723 243.742 147.36 243.742 146.96C243.742 146.56 243.822 146.2 243.982 145.88C244.142 145.555 244.374 145.301 244.678 145.12C244.987 144.933 245.355 144.84 245.782 144.84C246.182 144.84 246.526 144.925 246.814 145.096C247.107 145.261 247.331 145.496 247.486 145.8C247.646 146.104 247.726 146.451 247.726 146.84C247.726 147 247.718 147.144 247.702 147.272H244.446V146.568H247.014L246.71 147.032C246.71 147 246.71 146.968 246.71 146.936C246.71 146.904 246.71 146.872 246.71 146.84C246.71 146.44 246.627 146.139 246.462 145.936C246.302 145.728 246.075 145.624 245.782 145.624C245.472 145.624 245.227 145.741 245.046 145.976C244.87 146.205 244.782 146.533 244.782 146.96C244.782 147.392 244.872 147.723 245.054 147.952C245.24 148.181 245.494 148.296 245.814 148.296C246.016 148.296 246.187 148.251 246.326 148.16C246.47 148.064 246.584 147.912 246.67 147.704L247.638 147.96C247.483 148.333 247.254 148.613 246.95 148.8C246.646 148.987 246.262 149.08 245.798 149.08Z" fill="black"/>
<path d="M195 171.5C195 169.843 196.343 168.5 198 168.5H242C243.657 168.5 245 169.843 245 171.5C245 173.157 243.657 174.5 242 174.5H198C196.343 174.5 195 173.157 195 171.5Z" fill="#E8F0FD"/>
<path d="M195 187.5C195 185.843 196.343 184.5 198 184.5H292C293.657 184.5 295 185.843 295 187.5C295 189.157 293.657 190.5 292 190.5H198C196.343 190.5 195 189.157 195 187.5Z" fill="#E5E7EB"/>
<path d="M195 199.5C195 197.843 196.343 196.5 198 196.5H324.5C326.157 196.5 327.5 197.843 327.5 199.5C327.5 201.157 326.157 202.5 324.5 202.5H198C196.343 202.5 195 201.157 195 199.5Z" fill="#E5E7EB"/>
<path d="M195 215.5C195 213.843 196.343 212.5 198 212.5H222C223.657 212.5 225 213.843 225 215.5C225 217.157 223.657 218.5 222 218.5H198C196.343 218.5 195 217.157 195 215.5Z" fill="#E5E7EB"/>
<path d="M377.5 169C377.5 164.582 381.082 161 385.5 161H512C516.418 161 520 164.582 520 169V218C520 222.418 516.418 226 512 226H385.5C381.082 226 377.5 222.418 377.5 218V169Z" fill="#F3F4F6"/>
<path d="M195 251.5C195 249.843 196.343 248.5 198 248.5H242C243.657 248.5 245 249.843 245 251.5C245 253.157 243.657 254.5 242 254.5H198C196.343 254.5 195 253.157 195 251.5Z" fill="#E8F0FD"/>
<path d="M195 267.5C195 265.843 196.343 264.5 198 264.5H292C293.657 264.5 295 265.843 295 267.5C295 269.157 293.657 270.5 292 270.5H198C196.343 270.5 195 269.157 195 267.5Z" fill="#E5E7EB"/>
<path d="M195 279.5C195 277.843 196.343 276.5 198 276.5H324.5C326.157 276.5 327.5 277.843 327.5 279.5C327.5 281.157 326.157 282.5 324.5 282.5H198C196.343 282.5 195 281.157 195 279.5Z" fill="#E5E7EB"/>
<path d="M195 295.5C195 293.843 196.343 292.5 198 292.5H222C223.657 292.5 225 293.843 225 295.5C225 297.157 223.657 298.5 222 298.5H198C196.343 298.5 195 297.157 195 295.5Z" fill="#E5E7EB"/>
<path d="M377.5 249C377.5 244.582 381.082 241 385.5 241H512C516.418 241 520 244.582 520 249V298C520 302.418 516.418 306 512 306H385.5C381.082 306 377.5 302.418 377.5 298V249Z" fill="#F3F4F6"/>
<path d="M195 331.5C195 329.843 196.343 328.5 198 328.5H242C243.657 328.5 245 329.843 245 331.5C245 333.157 243.657 334.5 242 334.5H198C196.343 334.5 195 333.157 195 331.5Z" fill="#E8F0FD"/>
<path d="M195 347.5C195 345.843 196.343 344.5 198 344.5H292C293.657 344.5 295 345.843 295 347.5C295 349.157 293.657 350.5 292 350.5H198C196.343 350.5 195 349.157 195 347.5Z" fill="#E5E7EB"/>
<path d="M195 359.5C195 357.843 196.343 356.5 198 356.5H324.5C326.157 356.5 327.5 357.843 327.5 359.5C327.5 361.157 326.157 362.5 324.5 362.5H198C196.343 362.5 195 361.157 195 359.5Z" fill="#E5E7EB"/>
<path d="M195 375.5C195 373.843 196.343 372.5 198 372.5H222C223.657 372.5 225 373.843 225 375.5C225 377.157 223.657 378.5 222 378.5H198C196.343 378.5 195 377.157 195 375.5Z" fill="#E5E7EB"/>
<path d="M377.5 329C377.5 324.582 381.082 321 385.5 321H512C516.418 321 520 324.582 520 329V378C520 382.418 516.418 386 512 386H385.5C381.082 386 377.5 382.418 377.5 378V329Z" fill="#F3F4F6"/>
<path d="M372.5 416.5C372.5 414.291 374.291 412.5 376.5 412.5H516C518.209 412.5 520 414.291 520 416.5V434.5C520 436.709 518.209 438.5 516 438.5H376.5C374.291 438.5 372.5 436.709 372.5 434.5V416.5Z" fill="#407CEE"/>
<path d="M434.96 429V422H436.43L439.58 426.95H439.66C439.633 426.35 439.62 425.707 439.62 425.02V422H440.97V429H439.49L436.34 424.05H436.27C436.297 424.65 436.31 425.293 436.31 425.98V429H434.96ZM444.642 429.1C444.108 429.1 443.648 428.987 443.262 428.76C442.875 428.527 442.578 428.21 442.372 427.81C442.172 427.403 442.072 426.95 442.072 426.45C442.072 425.95 442.172 425.5 442.372 425.1C442.572 424.693 442.862 424.377 443.242 424.15C443.628 423.917 444.088 423.8 444.622 423.8C445.122 423.8 445.552 423.907 445.912 424.12C446.278 424.327 446.558 424.62 446.752 425C446.952 425.38 447.052 425.813 447.052 426.3C447.052 426.5 447.042 426.68 447.022 426.84H442.952V425.96H446.162L445.782 426.54C445.782 426.5 445.782 426.46 445.782 426.42C445.782 426.38 445.782 426.34 445.782 426.3C445.782 425.8 445.678 425.423 445.472 425.17C445.272 424.91 444.988 424.78 444.622 424.78C444.235 424.78 443.928 424.927 443.702 425.22C443.482 425.507 443.372 425.917 443.372 426.45C443.372 426.99 443.485 427.403 443.712 427.69C443.945 427.977 444.262 428.12 444.662 428.12C444.915 428.12 445.128 428.063 445.302 427.95C445.482 427.83 445.625 427.64 445.732 427.38L446.942 427.7C446.748 428.167 446.462 428.517 446.082 428.75C445.702 428.983 445.222 429.1 444.642 429.1ZM447.575 429L449.155 426.4L447.675 423.9H449.145L450.125 425.72H450.195L451.165 423.9H452.605L451.125 426.41L452.705 429H451.225L450.175 427.12H450.105L449.025 429H447.575ZM455.802 429.1C455.295 429.1 454.895 428.96 454.602 428.68C454.309 428.393 454.162 427.97 454.162 427.41V424.97H453.182V423.9H454.232L454.452 422.46H455.512V423.9H456.872V424.97H455.512V427.34C455.512 427.56 455.565 427.727 455.672 427.84C455.779 427.947 455.925 428 456.112 428C456.325 428 456.529 427.943 456.722 427.83L457.052 428.76C456.852 428.887 456.652 428.973 456.452 429.02C456.259 429.073 456.042 429.1 455.802 429.1Z" fill="white"/>
</g>
<path d="M39 75C39 66.1634 46.1634 59 55 59H540V61H55C47.268 61 41 67.268 41 75H39ZM540 461H55C46.1634 461 39 453.837 39 445H41C41 452.732 47.268 459 55 459H540V461ZM55 461C46.1634 461 39 453.837 39 445V75C39 66.1634 46.1634 59 55 59V61C47.268 61 41 67.268 41 75V445C41 452.732 47.268 459 55 459V461ZM540 60V460V60Z" fill="#E5E7EB" mask="url(#path-1-outside-1_3023_3181)"/>
<g filter="url(#filter0_d_3023_3181)">
<path d="M10 310H250C255.523 310 260 314.477 260 320V494C260 499.523 255.523 504 250 504H10V310Z" fill="white" shape-rendering="crispEdges"/>
<path d="M35.888 342V333.6H38.72C39.536 333.6 40.252 333.776 40.868 334.128C41.484 334.472 41.956 334.964 42.284 335.604C42.62 336.236 42.788 336.968 42.788 337.8C42.788 338.632 42.62 339.368 42.284 340.008C41.956 340.64 41.484 341.132 40.868 341.484C40.252 341.828 39.536 342 38.72 342H35.888ZM38.72 340.812C39.264 340.812 39.74 340.692 40.148 340.452C40.556 340.212 40.868 339.864 41.084 339.408C41.3 338.952 41.408 338.416 41.408 337.8C41.408 337.184 41.3 336.648 41.084 336.192C40.868 335.736 40.556 335.388 40.148 335.148C39.74 334.908 39.264 334.788 38.72 334.788H37.256V340.812H38.72ZM45.9003 342.12C45.3003 342.12 44.8163 341.956 44.4483 341.628C44.0883 341.3 43.9083 340.86 43.9083 340.308C43.9083 339.716 44.1203 339.252 44.5443 338.916C44.9763 338.58 45.6123 338.388 46.4523 338.34L48.1083 338.244V339.168L46.7283 339.264C46.2243 339.296 45.8443 339.388 45.5883 339.54C45.3403 339.684 45.2163 339.912 45.2163 340.224C45.2163 340.472 45.3043 340.672 45.4803 340.824C45.6643 340.976 45.9163 341.052 46.2363 341.052C46.5563 341.052 46.8483 340.968 47.1123 340.8C47.3763 340.632 47.5843 340.4 47.7363 340.104C47.8883 339.808 47.9643 339.472 47.9643 339.096V337.98C47.9643 337.596 47.8403 337.308 47.5923 337.116C47.3443 336.916 47.0283 336.816 46.6443 336.816C46.2603 336.816 45.9443 336.908 45.6963 337.092C45.4483 337.276 45.2683 337.54 45.1563 337.884L43.9803 337.536C44.1003 336.968 44.4003 336.532 44.8803 336.228C45.3603 335.916 45.9483 335.76 46.6443 335.76C47.4763 335.76 48.1203 335.952 48.5763 336.336C49.0403 336.712 49.2723 337.244 49.2723 337.932V338.76C49.2723 340.192 49.2923 341.272 49.3323 342H48.1563L48.0363 340.932H47.9403C47.7483 341.316 47.4803 341.612 47.1363 341.82C46.7923 342.02 46.3803 342.12 45.9003 342.12ZM53.36 342.12C52.8 342.12 52.352 341.96 52.016 341.64C51.688 341.32 51.524 340.852 51.524 340.236V336.984H50.336V335.88H51.608L51.872 334.176H52.88V335.88H54.584V336.984H52.88V340.176C52.88 340.448 52.948 340.656 53.084 340.8C53.22 340.936 53.4 341.004 53.624 341.004C53.904 341.004 54.168 340.928 54.416 340.776L54.788 341.712C54.556 341.864 54.328 341.968 54.104 342.024C53.88 342.088 53.632 342.12 53.36 342.12ZM58.5668 342.12C57.9508 342.12 57.4148 341.98 56.9588 341.7C56.5028 341.42 56.1548 341.04 55.9148 340.56C55.6748 340.08 55.5548 339.54 55.5548 338.94C55.5548 338.34 55.6708 337.8 55.9028 337.32C56.1428 336.84 56.4908 336.46 56.9468 336.18C57.4028 335.9 57.9388 335.76 58.5548 335.76C59.1148 335.76 59.6068 335.884 60.0308 336.132C60.4548 336.372 60.7828 336.72 61.0148 337.176C61.2468 337.632 61.3628 338.164 61.3628 338.772C61.3628 338.988 61.3508 339.184 61.3268 339.36H56.3708V338.4H60.5588L60.0788 339.072C60.0868 339.016 60.0908 338.964 60.0908 338.916C60.0908 338.86 60.0908 338.804 60.0908 338.748C60.0908 338.124 59.9508 337.644 59.6708 337.308C59.3988 336.972 59.0268 336.804 58.5548 336.804C58.0348 336.804 57.6228 336.996 57.3188 337.38C57.0228 337.756 56.8748 338.276 56.8748 338.94C56.8748 339.612 57.0268 340.136 57.3308 340.512C57.6428 340.888 58.0588 341.076 58.5788 341.076C58.9068 341.076 59.1868 341 59.4188 340.848C59.6588 340.696 59.8548 340.456 60.0068 340.128L61.2188 340.488C60.9948 341.032 60.6588 341.44 60.2108 341.712C59.7708 341.984 59.2228 342.12 58.5668 342.12ZM67.3573 342.12C66.7573 342.12 66.2733 341.956 65.9053 341.628C65.5453 341.3 65.3653 340.86 65.3653 340.308C65.3653 339.716 65.5773 339.252 66.0013 338.916C66.4333 338.58 67.0693 338.388 67.9093 338.34L69.5653 338.244V339.168L68.1853 339.264C67.6813 339.296 67.3013 339.388 67.0453 339.54C66.7973 339.684 66.6733 339.912 66.6733 340.224C66.6733 340.472 66.7613 340.672 66.9373 340.824C67.1213 340.976 67.3733 341.052 67.6933 341.052C68.0133 341.052 68.3053 340.968 68.5693 340.8C68.8333 340.632 69.0413 340.4 69.1933 340.104C69.3453 339.808 69.4213 339.472 69.4213 339.096V337.98C69.4213 337.596 69.2973 337.308 69.0493 337.116C68.8013 336.916 68.4853 336.816 68.1013 336.816C67.7173 336.816 67.4013 336.908 67.1533 337.092C66.9053 337.276 66.7253 337.54 66.6133 337.884L65.4373 337.536C65.5573 336.968 65.8573 336.532 66.3373 336.228C66.8173 335.916 67.4053 335.76 68.1013 335.76C68.9333 335.76 69.5773 335.952 70.0333 336.336C70.4973 336.712 70.7293 337.244 70.7293 337.932V338.76C70.7293 340.192 70.7493 341.272 70.7893 342H69.6133L69.4933 340.932H69.3973C69.2053 341.316 68.9373 341.612 68.5933 341.82C68.2493 342.02 67.8373 342.12 67.3573 342.12ZM72.3196 339.144C72.3196 337.696 72.2996 336.608 72.2596 335.88H73.5436L73.6756 336.888H73.7596C73.9916 336.528 74.2836 336.252 74.6356 336.06C74.9876 335.86 75.3756 335.76 75.7996 335.76C76.5036 335.76 77.0516 335.98 77.4436 336.42C77.8356 336.852 78.0316 337.496 78.0316 338.352V342H76.6636V338.544C76.6636 338.016 76.5476 337.62 76.3156 337.356C76.0836 337.084 75.7556 336.948 75.3316 336.948C75.0036 336.948 74.7116 337.028 74.4556 337.188C74.2076 337.34 74.0156 337.552 73.8796 337.824C73.7436 338.096 73.6756 338.4 73.6756 338.736V342H72.3196V339.144ZM81.8055 342.12C81.2935 342.12 80.8455 341.992 80.4615 341.736C80.0775 341.472 79.7815 341.1 79.5735 340.62C79.3735 340.14 79.2735 339.584 79.2735 338.952C79.2735 338.312 79.3735 337.752 79.5735 337.272C79.7815 336.792 80.0775 336.42 80.4615 336.156C80.8455 335.892 81.2935 335.76 81.8055 335.76C82.2455 335.76 82.6295 335.856 82.9575 336.048C83.2935 336.24 83.5655 336.52 83.7735 336.888H83.8695V333.6H85.2255V338.736C85.2255 340.184 85.2455 341.272 85.2855 342H84.0015L83.8695 340.992H83.7735C83.5655 341.36 83.2935 341.64 82.9575 341.832C82.6295 342.024 82.2455 342.12 81.8055 342.12ZM82.2495 340.956C82.7375 340.956 83.1295 340.776 83.4255 340.416C83.7215 340.048 83.8695 339.56 83.8695 338.952C83.8695 338.336 83.7215 337.844 83.4255 337.476C83.1295 337.108 82.7375 336.924 82.2495 336.924C81.7615 336.924 81.3695 337.108 81.0735 337.476C80.7775 337.844 80.6295 338.336 80.6295 338.952C80.6295 339.56 80.7775 340.048 81.0735 340.416C81.3695 340.776 81.7615 340.956 82.2495 340.956ZM92.2428 342.12C91.6828 342.12 91.2348 341.96 90.8988 341.64C90.5708 341.32 90.4068 340.852 90.4068 340.236V336.984H89.2188V335.88H90.4908L90.7548 334.176H91.7628V335.88H93.4668V336.984H91.7628V340.176C91.7628 340.448 91.8308 340.656 91.9668 340.8C92.1028 340.936 92.2828 341.004 92.5068 341.004C92.7868 341.004 93.0508 340.928 93.2988 340.776L93.6708 341.712C93.4388 341.864 93.2108 341.968 92.9868 342.024C92.7628 342.088 92.5148 342.12 92.2428 342.12ZM94.8899 342V335.88H96.2459V342H94.8899ZM95.5739 335.088C95.3099 335.088 95.0859 335.004 94.9019 334.836C94.7259 334.668 94.6379 334.46 94.6379 334.212C94.6379 333.956 94.7259 333.744 94.9019 333.576C95.0859 333.408 95.3099 333.324 95.5739 333.324C95.8379 333.324 96.0579 333.408 96.2339 333.576C96.4099 333.744 96.4979 333.956 96.4979 334.212C96.4979 334.46 96.4099 334.668 96.2339 334.836C96.0579 335.004 95.8379 335.088 95.5739 335.088ZM97.8548 339.144C97.8548 337.696 97.8348 336.608 97.7948 335.88H99.0788L99.1988 336.828H99.2828C99.4828 336.484 99.7468 336.22 100.075 336.036C100.403 335.852 100.763 335.76 101.155 335.76C101.611 335.76 101.991 335.86 102.295 336.06C102.599 336.26 102.835 336.56 103.003 336.96H103.099C103.307 336.568 103.583 336.272 103.927 336.072C104.279 335.864 104.675 335.76 105.115 335.76C105.763 335.76 106.259 335.964 106.603 336.372C106.955 336.772 107.131 337.372 107.131 338.172V342H105.775V338.424C105.775 337.944 105.671 337.58 105.463 337.332C105.263 337.076 104.979 336.948 104.611 336.948C104.331 336.948 104.079 337.02 103.855 337.164C103.639 337.3 103.471 337.492 103.351 337.74C103.231 337.988 103.171 338.268 103.171 338.58V342H101.815V338.424C101.815 337.944 101.711 337.58 101.503 337.332C101.303 337.076 101.019 336.948 100.651 336.948C100.371 336.948 100.119 337.02 99.8948 337.164C99.6788 337.3 99.5108 337.492 99.3908 337.74C99.2708 337.988 99.2108 338.268 99.2108 338.58V342H97.8548V339.144ZM111.383 342.12C110.767 342.12 110.231 341.98 109.775 341.7C109.319 341.42 108.971 341.04 108.731 340.56C108.491 340.08 108.371 339.54 108.371 338.94C108.371 338.34 108.487 337.8 108.719 337.32C108.959 336.84 109.307 336.46 109.763 336.18C110.219 335.9 110.755 335.76 111.371 335.76C111.931 335.76 112.423 335.884 112.847 336.132C113.271 336.372 113.599 336.72 113.831 337.176C114.063 337.632 114.179 338.164 114.179 338.772C114.179 338.988 114.167 339.184 114.143 339.36H109.187V338.4H113.375L112.895 339.072C112.903 339.016 112.907 338.964 112.907 338.916C112.907 338.86 112.907 338.804 112.907 338.748C112.907 338.124 112.767 337.644 112.487 337.308C112.215 336.972 111.843 336.804 111.371 336.804C110.851 336.804 110.439 336.996 110.135 337.38C109.839 337.756 109.691 338.276 109.691 338.94C109.691 339.612 109.843 340.136 110.147 340.512C110.459 340.888 110.875 341.076 111.395 341.076C111.723 341.076 112.003 341 112.235 340.848C112.475 340.696 112.671 340.456 112.823 340.128L114.035 340.488C113.811 341.032 113.475 341.44 113.027 341.712C112.587 341.984 112.039 342.12 111.383 342.12Z" fill="black"/>
<path d="M35.5 360C35.5 358.067 37.067 356.5 39 356.5H231C232.933 356.5 234.5 358.067 234.5 360V383C234.5 384.933 232.933 386.5 231 386.5H39C37.067 386.5 35.5 384.933 35.5 383V360Z" fill="white"/>
<path d="M35.5 360C35.5 358.067 37.067 356.5 39 356.5H231C232.933 356.5 234.5 358.067 234.5 360V383C234.5 384.933 232.933 386.5 231 386.5H39C37.067 386.5 35.5 384.933 35.5 383V360Z" stroke="#D1D5DB"/>
<path d="M48.768 376.12C48.312 376.12 47.888 376.06 47.496 375.94C47.112 375.82 46.76 375.64 46.44 375.4C46.128 375.152 45.848 374.848 45.6 374.488L46.488 373.468C46.88 374.028 47.256 374.416 47.616 374.632C47.976 374.848 48.404 374.956 48.9 374.956C49.204 374.956 49.48 374.908 49.728 374.812C49.976 374.716 50.172 374.584 50.316 374.416C50.46 374.248 50.532 374.056 50.532 373.84C50.532 373.696 50.508 373.56 50.46 373.432C50.412 373.304 50.336 373.188 50.232 373.084C50.136 372.98 50.008 372.884 49.848 372.796C49.696 372.708 49.516 372.632 49.308 372.568C49.1 372.496 48.86 372.436 48.588 372.388C48.156 372.3 47.78 372.184 47.46 372.04C47.14 371.896 46.872 371.716 46.656 371.5C46.44 371.284 46.28 371.04 46.176 370.768C46.072 370.488 46.02 370.176 46.02 369.832C46.02 369.496 46.092 369.184 46.236 368.896C46.388 368.608 46.592 368.36 46.848 368.152C47.112 367.936 47.42 367.772 47.772 367.66C48.124 367.54 48.504 367.48 48.912 367.48C49.344 367.48 49.74 367.536 50.1 367.648C50.46 367.76 50.78 367.928 51.06 368.152C51.34 368.368 51.572 368.636 51.756 368.956L50.844 369.856C50.684 369.592 50.504 369.372 50.304 369.196C50.104 369.012 49.884 368.876 49.644 368.788C49.404 368.692 49.148 368.644 48.876 368.644C48.564 368.644 48.292 368.692 48.06 368.788C47.828 368.884 47.644 369.02 47.508 369.196C47.38 369.364 47.316 369.564 47.316 369.796C47.316 369.964 47.348 370.12 47.412 370.264C47.476 370.4 47.572 370.524 47.7 370.636C47.836 370.74 48.016 370.836 48.24 370.924C48.464 371.004 48.732 371.076 49.044 371.14C49.484 371.236 49.876 371.36 50.22 371.512C50.564 371.656 50.856 371.828 51.096 372.028C51.336 372.228 51.516 372.452 51.636 372.7C51.764 372.948 51.828 373.216 51.828 373.504C51.828 374.04 51.704 374.504 51.456 374.896C51.208 375.288 50.856 375.592 50.4 375.808C49.944 376.016 49.4 376.12 48.768 376.12ZM56.2923 376.12C55.6443 376.12 55.0683 375.984 54.5643 375.712C54.0683 375.432 53.6763 375.052 53.3883 374.572C53.1083 374.092 52.9683 373.54 52.9683 372.916C52.9683 372.42 53.0483 371.968 53.2083 371.56C53.3683 371.152 53.5883 370.8 53.8683 370.504C54.1563 370.2 54.4963 369.968 54.8883 369.808C55.2883 369.64 55.7203 369.556 56.1843 369.556C56.5923 369.556 56.9723 369.636 57.3243 369.796C57.6763 369.948 57.9803 370.16 58.2363 370.432C58.5003 370.704 58.7003 371.028 58.8363 371.404C58.9803 371.772 59.0483 372.176 59.0403 372.616L59.0283 373.144H53.8803L53.6043 372.16H57.9603L57.7803 372.364V372.076C57.7563 371.812 57.6683 371.576 57.5163 371.368C57.3643 371.16 57.1723 370.996 56.9403 370.876C56.7083 370.756 56.4563 370.696 56.1843 370.696C55.7523 370.696 55.3883 370.78 55.0923 370.948C54.7963 371.108 54.5723 371.348 54.4203 371.668C54.2683 371.98 54.1923 372.368 54.1923 372.832C54.1923 373.272 54.2843 373.656 54.4683 373.984C54.6523 374.304 54.9123 374.552 55.2483 374.728C55.5843 374.904 55.9723 374.992 56.4123 374.992C56.7243 374.992 57.0123 374.94 57.2763 374.836C57.5483 374.732 57.8403 374.544 58.1523 374.272L58.7763 375.148C58.5843 375.34 58.3483 375.508 58.0683 375.652C57.7963 375.796 57.5043 375.912 57.1923 376C56.8883 376.08 56.5883 376.12 56.2923 376.12ZM60.4075 376V367.12H61.6435V376H60.4075ZM66.2181 376.12C65.5701 376.12 64.9941 375.984 64.4901 375.712C63.9941 375.432 63.6021 375.052 63.3141 374.572C63.0341 374.092 62.8941 373.54 62.8941 372.916C62.8941 372.42 62.9741 371.968 63.1341 371.56C63.2941 371.152 63.5141 370.8 63.7941 370.504C64.0821 370.2 64.4221 369.968 64.8141 369.808C65.2141 369.64 65.6461 369.556 66.1101 369.556C66.5181 369.556 66.8981 369.636 67.2501 369.796C67.6021 369.948 67.9061 370.16 68.1621 370.432C68.4261 370.704 68.6261 371.028 68.7621 371.404C68.9061 371.772 68.9741 372.176 68.9661 372.616L68.9541 373.144H63.8061L63.5301 372.16H67.8861L67.7061 372.364V372.076C67.6821 371.812 67.5941 371.576 67.4421 371.368C67.2901 371.16 67.0981 370.996 66.8661 370.876C66.6341 370.756 66.3821 370.696 66.1101 370.696C65.6781 370.696 65.3141 370.78 65.0181 370.948C64.7221 371.108 64.4981 371.348 64.3461 371.668C64.1941 371.98 64.1181 372.368 64.1181 372.832C64.1181 373.272 64.2101 373.656 64.3941 373.984C64.5781 374.304 64.8381 374.552 65.1741 374.728C65.5101 374.904 65.8981 374.992 66.3381 374.992C66.6501 374.992 66.9381 374.94 67.2021 374.836C67.4741 374.732 67.7661 374.544 68.0781 374.272L68.7021 375.148C68.5101 375.34 68.2741 375.508 67.9941 375.652C67.7221 375.796 67.4301 375.912 67.1181 376C66.8141 376.08 66.5141 376.12 66.2181 376.12ZM72.9853 376.12C72.4013 376.12 71.8773 375.976 71.4133 375.688C70.9573 375.4 70.5933 375.008 70.3213 374.512C70.0573 374.016 69.9253 373.46 69.9253 372.844C69.9253 372.228 70.0573 371.672 70.3213 371.176C70.5933 370.68 70.9573 370.288 71.4133 370C71.8773 369.712 72.4013 369.568 72.9853 369.568C73.5453 369.568 74.0533 369.684 74.5093 369.916C74.9733 370.14 75.3253 370.448 75.5653 370.84L74.8813 371.68C74.7533 371.496 74.5893 371.328 74.3893 371.176C74.1893 371.024 73.9773 370.904 73.7533 370.816C73.5293 370.728 73.3133 370.684 73.1053 370.684C72.7213 370.684 72.3773 370.78 72.0733 370.972C71.7773 371.156 71.5413 371.412 71.3653 371.74C71.1893 372.068 71.1013 372.436 71.1013 372.844C71.1013 373.252 71.1933 373.62 71.3773 373.948C71.5613 374.268 71.8053 374.524 72.1093 374.716C72.4133 374.908 72.7493 375.004 73.1173 375.004C73.3333 375.004 73.5413 374.968 73.7413 374.896C73.9493 374.824 74.1493 374.716 74.3413 374.572C74.5333 374.428 74.7133 374.252 74.8813 374.044L75.5653 374.884C75.3093 375.244 74.9413 375.54 74.4613 375.772C73.9893 376.004 73.4973 376.12 72.9853 376.12ZM77.5112 376V368.092H78.7472V376H77.5112ZM76.2032 370.9V369.7H80.2112V370.9H76.2032ZM85.0119 376V367.6H88.2999C88.8999 367.6 89.4399 367.7 89.9199 367.9C90.4079 368.1 90.8239 368.388 91.1679 368.764C91.5119 369.14 91.7759 369.584 91.9599 370.096C92.1439 370.608 92.2359 371.176 92.2359 371.8C92.2359 372.424 92.1439 372.996 91.9599 373.516C91.7759 374.028 91.5119 374.472 91.1679 374.848C90.8319 375.216 90.4199 375.5 89.9319 375.7C89.4439 375.9 88.8999 376 88.2999 376H85.0119ZM86.3079 374.884L86.2719 374.752H88.2399C88.6639 374.752 89.0399 374.684 89.3679 374.548C89.7039 374.412 89.9839 374.22 90.2079 373.972C90.4399 373.716 90.6159 373.404 90.7359 373.036C90.8559 372.668 90.9159 372.256 90.9159 371.8C90.9159 371.344 90.8559 370.936 90.7359 370.576C90.6159 370.208 90.4399 369.896 90.2079 369.64C89.9759 369.384 89.6959 369.188 89.3679 369.052C89.0399 368.916 88.6639 368.848 88.2399 368.848H86.2359L86.3079 368.74V374.884ZM96.1005 376.12C95.5805 376.12 95.1045 375.976 94.6725 375.688C94.2485 375.4 93.9085 375.008 93.6525 374.512C93.3965 374.016 93.2685 373.456 93.2685 372.832C93.2685 372.2 93.3965 371.64 93.6525 371.152C93.9165 370.656 94.2685 370.268 94.7085 369.988C95.1565 369.708 95.6565 369.568 96.2085 369.568C96.5365 369.568 96.8365 369.616 97.1085 369.712C97.3805 369.808 97.6165 369.944 97.8165 370.12C98.0245 370.288 98.1925 370.484 98.3205 370.708C98.4565 370.932 98.5405 371.172 98.5725 371.428L98.2965 371.332V369.7H99.5445V376H98.2965V374.5L98.5845 374.416C98.5365 374.632 98.4365 374.844 98.2845 375.052C98.1405 375.252 97.9525 375.432 97.7205 375.592C97.4965 375.752 97.2445 375.88 96.9645 375.976C96.6925 376.072 96.4045 376.12 96.1005 376.12ZM96.4245 374.98C96.8005 374.98 97.1325 374.888 97.4205 374.704C97.7085 374.52 97.9325 374.268 98.0925 373.948C98.2605 373.62 98.3445 373.248 98.3445 372.832C98.3445 372.424 98.2605 372.06 98.0925 371.74C97.9325 371.42 97.7085 371.168 97.4205 370.984C97.1325 370.8 96.8005 370.708 96.4245 370.708C96.0565 370.708 95.7285 370.8 95.4405 370.984C95.1605 371.168 94.9365 371.42 94.7685 371.74C94.6085 372.06 94.5285 372.424 94.5285 372.832C94.5285 373.248 94.6085 373.62 94.7685 373.948C94.9365 374.268 95.1605 374.52 95.4405 374.704C95.7285 374.888 96.0565 374.98 96.4245 374.98ZM102.05 376V368.092H103.286V376H102.05ZM100.742 370.9V369.7H104.75V370.9H100.742ZM108.757 376.12C108.109 376.12 107.533 375.984 107.029 375.712C106.533 375.432 106.141 375.052 105.853 374.572C105.573 374.092 105.433 373.54 105.433 372.916C105.433 372.42 105.513 371.968 105.673 371.56C105.833 371.152 106.053 370.8 106.333 370.504C106.621 370.2 106.961 369.968 107.353 369.808C107.753 369.64 108.185 369.556 108.649 369.556C109.057 369.556 109.437 369.636 109.789 369.796C110.141 369.948 110.445 370.16 110.701 370.432C110.965 370.704 111.165 371.028 111.301 371.404C111.445 371.772 111.513 372.176 111.505 372.616L111.493 373.144H106.345L106.069 372.16H110.425L110.245 372.364V372.076C110.221 371.812 110.133 371.576 109.981 371.368C109.829 371.16 109.637 370.996 109.405 370.876C109.173 370.756 108.921 370.696 108.649 370.696C108.217 370.696 107.853 370.78 107.557 370.948C107.261 371.108 107.037 371.348 106.885 371.668C106.733 371.98 106.657 372.368 106.657 372.832C106.657 373.272 106.749 373.656 106.933 373.984C107.117 374.304 107.377 374.552 107.713 374.728C108.049 374.904 108.437 374.992 108.877 374.992C109.189 374.992 109.477 374.94 109.741 374.836C110.013 374.732 110.305 374.544 110.617 374.272L111.241 375.148C111.049 375.34 110.813 375.508 110.533 375.652C110.261 375.796 109.969 375.912 109.657 376C109.353 376.08 109.053 376.12 108.757 376.12Z" fill="#9CA3AF"/>
<path d="M35.5 406C35.5 404.067 37.067 402.5 39 402.5H231C232.933 402.5 234.5 404.067 234.5 406V429C234.5 430.933 232.933 432.5 231 432.5H39C37.067 432.5 35.5 430.933 35.5 429V406Z" fill="white"/>
<path d="M35.5 406C35.5 404.067 37.067 402.5 39 402.5H231C232.933 402.5 234.5 404.067 234.5 406V429C234.5 430.933 232.933 432.5 231 432.5H39C37.067 432.5 35.5 430.933 35.5 429V406Z" stroke="#D1D5DB"/>
<path d="M48.768 422.12C48.312 422.12 47.888 422.06 47.496 421.94C47.112 421.82 46.76 421.64 46.44 421.4C46.128 421.152 45.848 420.848 45.6 420.488L46.488 419.468C46.88 420.028 47.256 420.416 47.616 420.632C47.976 420.848 48.404 420.956 48.9 420.956C49.204 420.956 49.48 420.908 49.728 420.812C49.976 420.716 50.172 420.584 50.316 420.416C50.46 420.248 50.532 420.056 50.532 419.84C50.532 419.696 50.508 419.56 50.46 419.432C50.412 419.304 50.336 419.188 50.232 419.084C50.136 418.98 50.008 418.884 49.848 418.796C49.696 418.708 49.516 418.632 49.308 418.568C49.1 418.496 48.86 418.436 48.588 418.388C48.156 418.3 47.78 418.184 47.46 418.04C47.14 417.896 46.872 417.716 46.656 417.5C46.44 417.284 46.28 417.04 46.176 416.768C46.072 416.488 46.02 416.176 46.02 415.832C46.02 415.496 46.092 415.184 46.236 414.896C46.388 414.608 46.592 414.36 46.848 414.152C47.112 413.936 47.42 413.772 47.772 413.66C48.124 413.54 48.504 413.48 48.912 413.48C49.344 413.48 49.74 413.536 50.1 413.648C50.46 413.76 50.78 413.928 51.06 414.152C51.34 414.368 51.572 414.636 51.756 414.956L50.844 415.856C50.684 415.592 50.504 415.372 50.304 415.196C50.104 415.012 49.884 414.876 49.644 414.788C49.404 414.692 49.148 414.644 48.876 414.644C48.564 414.644 48.292 414.692 48.06 414.788C47.828 414.884 47.644 415.02 47.508 415.196C47.38 415.364 47.316 415.564 47.316 415.796C47.316 415.964 47.348 416.12 47.412 416.264C47.476 416.4 47.572 416.524 47.7 416.636C47.836 416.74 48.016 416.836 48.24 416.924C48.464 417.004 48.732 417.076 49.044 417.14C49.484 417.236 49.876 417.36 50.22 417.512C50.564 417.656 50.856 417.828 51.096 418.028C51.336 418.228 51.516 418.452 51.636 418.7C51.764 418.948 51.828 419.216 51.828 419.504C51.828 420.04 51.704 420.504 51.456 420.896C51.208 421.288 50.856 421.592 50.4 421.808C49.944 422.016 49.4 422.12 48.768 422.12ZM56.2923 422.12C55.6443 422.12 55.0683 421.984 54.5643 421.712C54.0683 421.432 53.6763 421.052 53.3883 420.572C53.1083 420.092 52.9683 419.54 52.9683 418.916C52.9683 418.42 53.0483 417.968 53.2083 417.56C53.3683 417.152 53.5883 416.8 53.8683 416.504C54.1563 416.2 54.4963 415.968 54.8883 415.808C55.2883 415.64 55.7203 415.556 56.1843 415.556C56.5923 415.556 56.9723 415.636 57.3243 415.796C57.6763 415.948 57.9803 416.16 58.2363 416.432C58.5003 416.704 58.7003 417.028 58.8363 417.404C58.9803 417.772 59.0483 418.176 59.0403 418.616L59.0283 419.144H53.8803L53.6043 418.16H57.9603L57.7803 418.364V418.076C57.7563 417.812 57.6683 417.576 57.5163 417.368C57.3643 417.16 57.1723 416.996 56.9403 416.876C56.7083 416.756 56.4563 416.696 56.1843 416.696C55.7523 416.696 55.3883 416.78 55.0923 416.948C54.7963 417.108 54.5723 417.348 54.4203 417.668C54.2683 417.98 54.1923 418.368 54.1923 418.832C54.1923 419.272 54.2843 419.656 54.4683 419.984C54.6523 420.304 54.9123 420.552 55.2483 420.728C55.5843 420.904 55.9723 420.992 56.4123 420.992C56.7243 420.992 57.0123 420.94 57.2763 420.836C57.5483 420.732 57.8403 420.544 58.1523 420.272L58.7763 421.148C58.5843 421.34 58.3483 421.508 58.0683 421.652C57.7963 421.796 57.5043 421.912 57.1923 422C56.8883 422.08 56.5883 422.12 56.2923 422.12ZM60.4075 422V413.12H61.6435V422H60.4075ZM66.2181 422.12C65.5701 422.12 64.9941 421.984 64.4901 421.712C63.9941 421.432 63.6021 421.052 63.3141 420.572C63.0341 420.092 62.8941 419.54 62.8941 418.916C62.8941 418.42 62.9741 417.968 63.1341 417.56C63.2941 417.152 63.5141 416.8 63.7941 416.504C64.0821 416.2 64.4221 415.968 64.8141 415.808C65.2141 415.64 65.6461 415.556 66.1101 415.556C66.5181 415.556 66.8981 415.636 67.2501 415.796C67.6021 415.948 67.9061 416.16 68.1621 416.432C68.4261 416.704 68.6261 417.028 68.7621 417.404C68.9061 417.772 68.9741 418.176 68.9661 418.616L68.9541 419.144H63.8061L63.5301 418.16H67.8861L67.7061 418.364V418.076C67.6821 417.812 67.5941 417.576 67.4421 417.368C67.2901 417.16 67.0981 416.996 66.8661 416.876C66.6341 416.756 66.3821 416.696 66.1101 416.696C65.6781 416.696 65.3141 416.78 65.0181 416.948C64.7221 417.108 64.4981 417.348 64.3461 417.668C64.1941 417.98 64.1181 418.368 64.1181 418.832C64.1181 419.272 64.2101 419.656 64.3941 419.984C64.5781 420.304 64.8381 420.552 65.1741 420.728C65.5101 420.904 65.8981 420.992 66.3381 420.992C66.6501 420.992 66.9381 420.94 67.2021 420.836C67.4741 420.732 67.7661 420.544 68.0781 420.272L68.7021 421.148C68.5101 421.34 68.2741 421.508 67.9941 421.652C67.7221 421.796 67.4301 421.912 67.1181 422C66.8141 422.08 66.5141 422.12 66.2181 422.12ZM72.9853 422.12C72.4013 422.12 71.8773 421.976 71.4133 421.688C70.9573 421.4 70.5933 421.008 70.3213 420.512C70.0573 420.016 69.9253 419.46 69.9253 418.844C69.9253 418.228 70.0573 417.672 70.3213 417.176C70.5933 416.68 70.9573 416.288 71.4133 416C71.8773 415.712 72.4013 415.568 72.9853 415.568C73.5453 415.568 74.0533 415.684 74.5093 415.916C74.9733 416.14 75.3253 416.448 75.5653 416.84L74.8813 417.68C74.7533 417.496 74.5893 417.328 74.3893 417.176C74.1893 417.024 73.9773 416.904 73.7533 416.816C73.5293 416.728 73.3133 416.684 73.1053 416.684C72.7213 416.684 72.3773 416.78 72.0733 416.972C71.7773 417.156 71.5413 417.412 71.3653 417.74C71.1893 418.068 71.1013 418.436 71.1013 418.844C71.1013 419.252 71.1933 419.62 71.3773 419.948C71.5613 420.268 71.8053 420.524 72.1093 420.716C72.4133 420.908 72.7493 421.004 73.1173 421.004C73.3333 421.004 73.5413 420.968 73.7413 420.896C73.9493 420.824 74.1493 420.716 74.3413 420.572C74.5333 420.428 74.7133 420.252 74.8813 420.044L75.5653 420.884C75.3093 421.244 74.9413 421.54 74.4613 421.772C73.9893 422.004 73.4973 422.12 72.9853 422.12ZM77.5112 422V414.092H78.7472V422H77.5112ZM76.2032 416.9V415.7H80.2112V416.9H76.2032ZM86.6079 422V414.848H84.2559V413.6H90.3279V414.848H87.9039V422H86.6079ZM91.818 422V415.7H93.054V422H91.818ZM92.418 414.308C92.154 414.308 91.95 414.24 91.806 414.104C91.662 413.968 91.59 413.776 91.59 413.528C91.59 413.296 91.662 413.108 91.806 412.964C91.958 412.82 92.162 412.748 92.418 412.748C92.682 412.748 92.886 412.816 93.03 412.952C93.174 413.088 93.246 413.28 93.246 413.528C93.246 413.76 93.17 413.948 93.018 414.092C92.874 414.236 92.674 414.308 92.418 414.308ZM94.9298 422V415.7H96.1778V417.044L95.9498 417.188C96.0138 416.98 96.1138 416.78 96.2498 416.588C96.3938 416.396 96.5658 416.228 96.7658 416.084C96.9738 415.932 97.1938 415.812 97.4258 415.724C97.6658 415.636 97.9098 415.592 98.1578 415.592C98.5178 415.592 98.8338 415.652 99.1058 415.772C99.3778 415.892 99.6018 416.072 99.7778 416.312C99.9538 416.552 100.082 416.852 100.162 417.212L99.9698 417.164L100.054 416.96C100.142 416.776 100.262 416.604 100.414 416.444C100.574 416.276 100.754 416.128 100.954 416C101.154 415.872 101.366 415.772 101.59 415.7C101.814 415.628 102.034 415.592 102.25 415.592C102.722 415.592 103.11 415.688 103.414 415.88C103.726 416.072 103.958 416.364 104.11 416.756C104.27 417.148 104.35 417.636 104.35 418.22V422H103.102V418.292C103.102 417.932 103.054 417.64 102.958 417.416C102.87 417.184 102.734 417.012 102.55 416.9C102.366 416.788 102.13 416.732 101.842 416.732C101.618 416.732 101.406 416.772 101.206 416.852C101.014 416.924 100.846 417.028 100.702 417.164C100.558 417.3 100.446 417.46 100.366 417.644C100.286 417.82 100.246 418.016 100.246 418.232V422H98.9978V418.268C98.9978 417.94 98.9498 417.664 98.8538 417.44C98.7578 417.208 98.6178 417.032 98.4338 416.912C98.2498 416.792 98.0258 416.732 97.7618 416.732C97.5378 416.732 97.3298 416.772 97.1378 416.852C96.9458 416.924 96.7778 417.028 96.6338 417.164C96.4898 417.292 96.3778 417.448 96.2978 417.632C96.2178 417.808 96.1778 418 96.1778 418.208V422H94.9298ZM108.945 422.12C108.297 422.12 107.721 421.984 107.217 421.712C106.721 421.432 106.329 421.052 106.041 420.572C105.761 420.092 105.621 419.54 105.621 418.916C105.621 418.42 105.701 417.968 105.861 417.56C106.021 417.152 106.241 416.8 106.521 416.504C106.809 416.2 107.149 415.968 107.541 415.808C107.941 415.64 108.373 415.556 108.837 415.556C109.245 415.556 109.625 415.636 109.977 415.796C110.329 415.948 110.633 416.16 110.889 416.432C111.153 416.704 111.353 417.028 111.489 417.404C111.633 417.772 111.701 418.176 111.693 418.616L111.681 419.144H106.533L106.257 418.16H110.613L110.433 418.364V418.076C110.409 417.812 110.321 417.576 110.169 417.368C110.017 417.16 109.825 416.996 109.593 416.876C109.361 416.756 109.109 416.696 108.837 416.696C108.405 416.696 108.041 416.78 107.745 416.948C107.449 417.108 107.225 417.348 107.073 417.668C106.921 417.98 106.845 418.368 106.845 418.832C106.845 419.272 106.937 419.656 107.121 419.984C107.305 420.304 107.565 420.552 107.901 420.728C108.237 420.904 108.625 420.992 109.065 420.992C109.377 420.992 109.665 420.94 109.929 420.836C110.201 420.732 110.493 420.544 110.805 420.272L111.429 421.148C111.237 421.34 111.001 421.508 110.721 421.652C110.449 421.796 110.157 421.912 109.845 422C109.541 422.08 109.241 422.12 108.945 422.12Z" fill="#9CA3AF"/>
<path d="M35 452C35 449.791 36.7909 448 39 448H231C233.209 448 235 449.791 235 452V480C235 482.209 233.209 484 231 484H39C36.7909 484 35 482.209 35 480V452Z" fill="#22C55E"/>
<path d="M121.852 470V461.6H123.616L127.396 467.54H127.492C127.46 466.82 127.444 466.048 127.444 465.224V461.6H129.064V470H127.288L123.508 464.06H123.424C123.456 464.78 123.472 465.552 123.472 466.376V470H121.852ZM133.47 470.12C132.83 470.12 132.278 469.984 131.814 469.712C131.35 469.432 130.994 469.052 130.746 468.572C130.506 468.084 130.386 467.54 130.386 466.94C130.386 466.34 130.506 465.8 130.746 465.32C130.986 464.832 131.334 464.452 131.79 464.18C132.254 463.9 132.806 463.76 133.446 463.76C134.046 463.76 134.562 463.888 134.994 464.144C135.434 464.392 135.77 464.744 136.002 465.2C136.242 465.656 136.362 466.176 136.362 466.76C136.362 467 136.35 467.216 136.326 467.408H131.442V466.352H135.294L134.838 467.048C134.838 467 134.838 466.952 134.838 466.904C134.838 466.856 134.838 466.808 134.838 466.76C134.838 466.16 134.714 465.708 134.466 465.404C134.226 465.092 133.886 464.936 133.446 464.936C132.982 464.936 132.614 465.112 132.342 465.464C132.078 465.808 131.946 466.3 131.946 466.94C131.946 467.588 132.082 468.084 132.354 468.428C132.634 468.772 133.014 468.944 133.494 468.944C133.798 468.944 134.054 468.876 134.262 468.74C134.478 468.596 134.65 468.368 134.778 468.056L136.23 468.44C135.998 469 135.654 469.42 135.198 469.7C134.742 469.98 134.166 470.12 133.47 470.12ZM136.99 470L138.886 466.88L137.11 463.88H138.874L140.05 466.064H140.134L141.298 463.88H143.026L141.25 466.892L143.146 470H141.37L140.11 467.744H140.026L138.73 470H136.99ZM146.862 470.12C146.254 470.12 145.774 469.952 145.422 469.616C145.07 469.272 144.894 468.764 144.894 468.092V465.164H143.718V463.88H144.978L145.242 462.152H146.514V463.88H148.146V465.164H146.514V468.008C146.514 468.272 146.578 468.472 146.706 468.608C146.834 468.736 147.01 468.8 147.234 468.8C147.49 468.8 147.734 468.732 147.966 468.596L148.362 469.712C148.122 469.864 147.882 469.968 147.642 470.024C147.41 470.088 147.15 470.12 146.862 470.12Z" fill="white"/>
</g>
<g filter="url(#filter1_d_3023_3181)">
<path d="M290 20C290 14.4772 294.477 10 300 10H540V229H300C294.477 229 290 224.523 290 219V20Z" fill="white" shape-rendering="crispEdges"/>
<path d="M313.936 42.12C313.128 42.12 312.42 41.948 311.812 41.604C311.204 41.252 310.788 40.74 310.564 40.068L311.824 39.696C311.992 40.144 312.268 40.476 312.652 40.692C313.044 40.908 313.472 41.016 313.936 41.016C314.48 41.016 314.896 40.904 315.184 40.68C315.472 40.456 315.616 40.16 315.616 39.792C315.616 39.528 315.532 39.308 315.364 39.132C315.196 38.956 314.98 38.82 314.716 38.724C314.46 38.628 314.108 38.516 313.66 38.388C313.036 38.212 312.532 38.04 312.148 37.872C311.764 37.704 311.432 37.448 311.152 37.104C310.88 36.76 310.744 36.296 310.744 35.712C310.744 35.28 310.864 34.896 311.104 34.56C311.344 34.224 311.684 33.96 312.124 33.768C312.572 33.576 313.096 33.48 313.696 33.48C314.472 33.48 315.132 33.644 315.676 33.972C316.22 34.292 316.596 34.772 316.804 35.412L315.532 35.784C315.38 35.384 315.14 35.084 314.812 34.884C314.492 34.684 314.124 34.584 313.708 34.584C313.212 34.584 312.82 34.692 312.532 34.908C312.252 35.116 312.112 35.384 312.112 35.712C312.112 35.976 312.196 36.192 312.364 36.36C312.54 36.528 312.752 36.664 313 36.768C313.256 36.864 313.608 36.972 314.056 37.092C314.68 37.26 315.184 37.432 315.568 37.608C315.96 37.776 316.296 38.036 316.576 38.388C316.856 38.74 316.996 39.212 316.996 39.804C316.996 40.268 316.872 40.676 316.624 41.028C316.384 41.372 316.032 41.64 315.568 41.832C315.112 42.024 314.568 42.12 313.936 42.12ZM321.016 42.12C320.4 42.12 319.864 41.98 319.408 41.7C318.952 41.42 318.604 41.04 318.364 40.56C318.124 40.08 318.004 39.54 318.004 38.94C318.004 38.34 318.12 37.8 318.352 37.32C318.592 36.84 318.94 36.46 319.396 36.18C319.852 35.9 320.388 35.76 321.004 35.76C321.564 35.76 322.056 35.884 322.48 36.132C322.904 36.372 323.232 36.72 323.464 37.176C323.696 37.632 323.812 38.164 323.812 38.772C323.812 38.988 323.8 39.184 323.776 39.36H318.82V38.4H323.008L322.528 39.072C322.536 39.016 322.54 38.964 322.54 38.916C322.54 38.86 322.54 38.804 322.54 38.748C322.54 38.124 322.4 37.644 322.12 37.308C321.848 36.972 321.476 36.804 321.004 36.804C320.484 36.804 320.072 36.996 319.768 37.38C319.472 37.756 319.324 38.276 319.324 38.94C319.324 39.612 319.476 40.136 319.78 40.512C320.092 40.888 320.508 41.076 321.028 41.076C321.356 41.076 321.636 41 321.868 40.848C322.108 40.696 322.304 40.456 322.456 40.128L323.668 40.488C323.444 41.032 323.108 41.44 322.66 41.712C322.22 41.984 321.672 42.12 321.016 42.12ZM325.113 39.144C325.113 37.696 325.093 36.608 325.053 35.88H326.337L326.517 37.236L326.373 37.104H326.589C326.757 36.664 326.997 36.332 327.309 36.108C327.629 35.876 327.997 35.76 328.413 35.76C328.589 35.76 328.737 35.764 328.857 35.772V37.092C328.729 37.076 328.577 37.068 328.401 37.068C327.857 37.068 327.397 37.252 327.021 37.62C326.653 37.98 326.469 38.56 326.469 39.36V42H325.113V39.144ZM331.501 42L329.329 35.88H330.757L332.317 40.74H332.389L333.937 35.88H335.329L333.157 42H331.501ZM336.327 42V35.88H337.683V42H336.327ZM337.011 35.088C336.747 35.088 336.523 35.004 336.339 34.836C336.163 34.668 336.075 34.46 336.075 34.212C336.075 33.956 336.163 33.744 336.339 33.576C336.523 33.408 336.747 33.324 337.011 33.324C337.275 33.324 337.495 33.408 337.671 33.576C337.847 33.744 337.935 33.956 337.935 34.212C337.935 34.46 337.847 34.668 337.671 34.836C337.495 35.004 337.275 35.088 337.011 35.088ZM342.004 42.12C341.388 42.12 340.852 41.98 340.396 41.7C339.94 41.42 339.592 41.04 339.352 40.56C339.112 40.08 338.992 39.54 338.992 38.94C338.992 38.34 339.112 37.8 339.352 37.32C339.592 36.84 339.94 36.46 340.396 36.18C340.852 35.9 341.388 35.76 342.004 35.76C342.668 35.76 343.232 35.924 343.696 36.252C344.168 36.572 344.5 37.048 344.692 37.68L343.396 38.076C343.268 37.676 343.084 37.384 342.844 37.2C342.604 37.008 342.32 36.912 341.992 36.912C341.496 36.912 341.096 37.096 340.792 37.464C340.496 37.832 340.348 38.324 340.348 38.94C340.348 39.556 340.496 40.048 340.792 40.416C341.096 40.784 341.496 40.968 341.992 40.968C342.328 40.968 342.62 40.872 342.868 40.68C343.124 40.488 343.32 40.196 343.456 39.804L344.752 40.2C344.552 40.824 344.208 41.3 343.72 41.628C343.232 41.956 342.66 42.12 342.004 42.12ZM348.672 42.12C348.056 42.12 347.52 41.98 347.064 41.7C346.608 41.42 346.26 41.04 346.02 40.56C345.78 40.08 345.66 39.54 345.66 38.94C345.66 38.34 345.776 37.8 346.008 37.32C346.248 36.84 346.596 36.46 347.052 36.18C347.508 35.9 348.044 35.76 348.66 35.76C349.22 35.76 349.712 35.884 350.136 36.132C350.56 36.372 350.888 36.72 351.12 37.176C351.352 37.632 351.468 38.164 351.468 38.772C351.468 38.988 351.456 39.184 351.432 39.36H346.476V38.4H350.664L350.184 39.072C350.192 39.016 350.196 38.964 350.196 38.916C350.196 38.86 350.196 38.804 350.196 38.748C350.196 38.124 350.056 37.644 349.776 37.308C349.504 36.972 349.132 36.804 348.66 36.804C348.14 36.804 347.728 36.996 347.424 37.38C347.128 37.756 346.98 38.276 346.98 38.94C346.98 39.612 347.132 40.136 347.436 40.512C347.748 40.888 348.164 41.076 348.684 41.076C349.012 41.076 349.292 41 349.524 40.848C349.764 40.696 349.96 40.456 350.112 40.128L351.324 40.488C351.1 41.032 350.764 41.44 350.316 41.712C349.876 41.984 349.328 42.12 348.672 42.12ZM357.463 42.12C356.863 42.12 356.379 41.956 356.011 41.628C355.651 41.3 355.471 40.86 355.471 40.308C355.471 39.716 355.683 39.252 356.107 38.916C356.539 38.58 357.175 38.388 358.015 38.34L359.671 38.244V39.168L358.291 39.264C357.787 39.296 357.407 39.388 357.151 39.54C356.903 39.684 356.779 39.912 356.779 40.224C356.779 40.472 356.867 40.672 357.043 40.824C357.227 40.976 357.479 41.052 357.799 41.052C358.119 41.052 358.411 40.968 358.675 40.8C358.939 40.632 359.147 40.4 359.299 40.104C359.451 39.808 359.527 39.472 359.527 39.096V37.98C359.527 37.596 359.403 37.308 359.155 37.116C358.907 36.916 358.591 36.816 358.207 36.816C357.823 36.816 357.507 36.908 357.259 37.092C357.011 37.276 356.831 37.54 356.719 37.884L355.543 37.536C355.663 36.968 355.963 36.532 356.443 36.228C356.923 35.916 357.511 35.76 358.207 35.76C359.039 35.76 359.683 35.952 360.139 36.336C360.603 36.712 360.835 37.244 360.835 37.932V38.76C360.835 40.192 360.855 41.272 360.895 42H359.719L359.599 40.932H359.503C359.311 41.316 359.043 41.612 358.699 41.82C358.355 42.02 357.943 42.12 357.463 42.12ZM364.657 42.12C364.145 42.12 363.697 41.992 363.313 41.736C362.929 41.472 362.633 41.1 362.425 40.62C362.225 40.14 362.125 39.584 362.125 38.952C362.125 38.312 362.225 37.752 362.425 37.272C362.633 36.792 362.929 36.42 363.313 36.156C363.697 35.892 364.145 35.76 364.657 35.76C365.097 35.76 365.481 35.856 365.809 36.048C366.145 36.24 366.417 36.52 366.625 36.888H366.721V33.6H368.077V38.736C368.077 40.184 368.097 41.272 368.137 42H366.853L366.721 40.992H366.625C366.417 41.36 366.145 41.64 365.809 41.832C365.481 42.024 365.097 42.12 364.657 42.12ZM365.101 40.956C365.589 40.956 365.981 40.776 366.277 40.416C366.573 40.048 366.721 39.56 366.721 38.952C366.721 38.336 366.573 37.844 366.277 37.476C365.981 37.108 365.589 36.924 365.101 36.924C364.613 36.924 364.221 37.108 363.925 37.476C363.629 37.844 363.481 38.336 363.481 38.952C363.481 39.56 363.629 40.048 363.925 40.416C364.221 40.776 364.613 40.956 365.101 40.956ZM371.911 42.12C371.399 42.12 370.951 41.992 370.567 41.736C370.183 41.472 369.887 41.1 369.679 40.62C369.479 40.14 369.379 39.584 369.379 38.952C369.379 38.312 369.479 37.752 369.679 37.272C369.887 36.792 370.183 36.42 370.567 36.156C370.951 35.892 371.399 35.76 371.911 35.76C372.351 35.76 372.735 35.856 373.063 36.048C373.399 36.24 373.671 36.52 373.879 36.888H373.975V33.6H375.331V38.736C375.331 40.184 375.351 41.272 375.391 42H374.107L373.975 40.992H373.879C373.671 41.36 373.399 41.64 373.063 41.832C372.735 42.024 372.351 42.12 371.911 42.12ZM372.355 40.956C372.843 40.956 373.235 40.776 373.531 40.416C373.827 40.048 373.975 39.56 373.975 38.952C373.975 38.336 373.827 37.844 373.531 37.476C373.235 37.108 372.843 36.924 372.355 36.924C371.867 36.924 371.475 37.108 371.179 37.476C370.883 37.844 370.735 38.336 370.735 38.952C370.735 39.56 370.883 40.048 371.179 40.416C371.475 40.776 371.867 40.956 372.355 40.956ZM376.933 39.144C376.933 37.696 376.913 36.608 376.873 35.88H378.157L378.337 37.236L378.193 37.104H378.409C378.577 36.664 378.817 36.332 379.129 36.108C379.449 35.876 379.817 35.76 380.233 35.76C380.409 35.76 380.557 35.764 380.677 35.772V37.092C380.549 37.076 380.397 37.068 380.221 37.068C379.677 37.068 379.217 37.252 378.841 37.62C378.473 37.98 378.289 38.56 378.289 39.36V42H376.933V39.144ZM384.414 42.12C383.798 42.12 383.262 41.98 382.806 41.7C382.35 41.42 382.002 41.04 381.762 40.56C381.522 40.08 381.402 39.54 381.402 38.94C381.402 38.34 381.518 37.8 381.75 37.32C381.99 36.84 382.338 36.46 382.794 36.18C383.25 35.9 383.786 35.76 384.402 35.76C384.962 35.76 385.454 35.884 385.878 36.132C386.302 36.372 386.63 36.72 386.862 37.176C387.094 37.632 387.21 38.164 387.21 38.772C387.21 38.988 387.198 39.184 387.174 39.36H382.218V38.4H386.406L385.926 39.072C385.934 39.016 385.938 38.964 385.938 38.916C385.938 38.86 385.938 38.804 385.938 38.748C385.938 38.124 385.798 37.644 385.518 37.308C385.246 36.972 384.874 36.804 384.402 36.804C383.882 36.804 383.47 36.996 383.166 37.38C382.87 37.756 382.722 38.276 382.722 38.94C382.722 39.612 382.874 40.136 383.178 40.512C383.49 40.888 383.906 41.076 384.426 41.076C384.754 41.076 385.034 41 385.266 40.848C385.506 40.696 385.702 40.456 385.854 40.128L387.066 40.488C386.842 41.032 386.506 41.44 386.058 41.712C385.618 41.984 385.07 42.12 384.414 42.12ZM390.84 42.12C390.184 42.12 389.612 41.992 389.124 41.736C388.644 41.472 388.328 41.072 388.176 40.536L389.328 40.188C389.432 40.516 389.62 40.76 389.892 40.92C390.164 41.08 390.476 41.16 390.828 41.16C391.172 41.16 391.44 41.088 391.632 40.944C391.824 40.792 391.92 40.6 391.92 40.368C391.92 40.192 391.86 40.052 391.74 39.948C391.62 39.836 391.472 39.752 391.296 39.696C391.12 39.632 390.872 39.56 390.552 39.48C390.088 39.368 389.704 39.252 389.4 39.132C389.104 39.004 388.848 38.808 388.632 38.544C388.424 38.28 388.32 37.916 388.32 37.452C388.32 37.132 388.412 36.844 388.596 36.588C388.788 36.324 389.056 36.12 389.4 35.976C389.752 35.832 390.164 35.76 390.636 35.76C391.244 35.76 391.764 35.884 392.196 36.132C392.636 36.38 392.928 36.748 393.072 37.236L391.908 37.572C391.812 37.284 391.652 37.072 391.428 36.936C391.204 36.792 390.944 36.72 390.648 36.72C390.32 36.72 390.064 36.788 389.88 36.924C389.704 37.06 389.616 37.236 389.616 37.452C389.616 37.628 389.676 37.772 389.796 37.884C389.916 37.996 390.064 38.084 390.24 38.148C390.416 38.212 390.668 38.284 390.996 38.364C391.46 38.476 391.84 38.592 392.136 38.712C392.432 38.832 392.684 39.024 392.892 39.288C393.108 39.552 393.216 39.912 393.216 40.368C393.216 40.888 393 41.312 392.568 41.64C392.144 41.96 391.568 42.12 390.84 42.12ZM396.781 42.12C396.125 42.12 395.553 41.992 395.065 41.736C394.585 41.472 394.269 41.072 394.117 40.536L395.269 40.188C395.373 40.516 395.561 40.76 395.833 40.92C396.105 41.08 396.417 41.16 396.769 41.16C397.113 41.16 397.381 41.088 397.573 40.944C397.765 40.792 397.861 40.6 397.861 40.368C397.861 40.192 397.801 40.052 397.681 39.948C397.561 39.836 397.413 39.752 397.237 39.696C397.061 39.632 396.813 39.56 396.493 39.48C396.029 39.368 395.645 39.252 395.341 39.132C395.045 39.004 394.789 38.808 394.573 38.544C394.365 38.28 394.261 37.916 394.261 37.452C394.261 37.132 394.353 36.844 394.537 36.588C394.729 36.324 394.997 36.12 395.341 35.976C395.693 35.832 396.105 35.76 396.577 35.76C397.185 35.76 397.705 35.884 398.137 36.132C398.577 36.38 398.869 36.748 399.013 37.236L397.849 37.572C397.753 37.284 397.593 37.072 397.369 36.936C397.145 36.792 396.885 36.72 396.589 36.72C396.261 36.72 396.005 36.788 395.821 36.924C395.645 37.06 395.557 37.236 395.557 37.452C395.557 37.628 395.617 37.772 395.737 37.884C395.857 37.996 396.005 38.084 396.181 38.148C396.357 38.212 396.609 38.284 396.937 38.364C397.401 38.476 397.781 38.592 398.077 38.712C398.373 38.832 398.625 39.024 398.833 39.288C399.049 39.552 399.157 39.912 399.157 40.368C399.157 40.888 398.941 41.312 398.509 41.64C398.085 41.96 397.509 42.12 396.781 42.12Z" fill="black"/>
<path d="M310 58.5C310 57.1193 311.119 56 312.5 56H367.5C368.881 56 370 57.1193 370 58.5C370 59.8807 368.881 61 367.5 61H312.5C311.119 61 310 59.8807 310 58.5Z" fill="#E5E7EB"/>
<path d="M310 67.5C310 66.1193 311.119 65 312.5 65H517.5C518.881 65 520 66.1193 520 67.5C520 68.8807 518.881 70 517.5 70H312.5C311.119 70 310 68.8807 310 67.5Z" fill="#E5E7EB"/>
<path d="M310 76.5C310 75.1193 311.119 74 312.5 74H387.5C388.881 74 390 75.1193 390 76.5C390 77.8807 388.881 79 387.5 79H312.5C311.119 79 310 77.8807 310 76.5Z" fill="#E5E7EB"/>
<path d="M314.404 116.12C313.652 116.12 312.984 115.94 312.4 115.58C311.816 115.22 311.364 114.712 311.044 114.056C310.724 113.4 310.564 112.648 310.564 111.8C310.564 110.952 310.724 110.2 311.044 109.544C311.364 108.888 311.816 108.38 312.4 108.02C312.984 107.66 313.652 107.48 314.404 107.48C315.252 107.48 315.98 107.692 316.588 108.116C317.204 108.54 317.632 109.176 317.872 110.024L316.552 110.42C316.368 109.828 316.092 109.388 315.724 109.1C315.364 108.804 314.924 108.656 314.404 108.656C313.908 108.656 313.472 108.784 313.096 109.04C312.728 109.288 312.44 109.652 312.232 110.132C312.032 110.604 311.932 111.16 311.932 111.8C311.932 112.44 312.032 113 312.232 113.48C312.44 113.952 312.728 114.316 313.096 114.572C313.472 114.82 313.908 114.944 314.404 114.944C314.94 114.944 315.392 114.8 315.76 114.512C316.128 114.224 316.412 113.78 316.612 113.18L317.944 113.576C317.68 114.432 317.24 115.072 316.624 115.496C316.016 115.912 315.276 116.12 314.404 116.12ZM321.93 116.12C321.314 116.12 320.778 115.98 320.322 115.7C319.866 115.42 319.518 115.04 319.278 114.56C319.038 114.08 318.918 113.54 318.918 112.94C318.918 112.34 319.038 111.8 319.278 111.32C319.518 110.84 319.866 110.46 320.322 110.18C320.778 109.9 321.314 109.76 321.93 109.76C322.546 109.76 323.082 109.9 323.538 110.18C323.994 110.46 324.342 110.84 324.582 111.32C324.83 111.8 324.954 112.34 324.954 112.94C324.954 113.54 324.83 114.08 324.582 114.56C324.342 115.04 323.994 115.42 323.538 115.7C323.082 115.98 322.546 116.12 321.93 116.12ZM321.93 114.956C322.434 114.956 322.834 114.776 323.13 114.416C323.434 114.048 323.586 113.556 323.586 112.94C323.586 112.324 323.434 111.836 323.13 111.476C322.834 111.108 322.434 110.924 321.93 110.924C321.434 110.924 321.034 111.108 320.73 111.476C320.426 111.836 320.274 112.324 320.274 112.94C320.274 113.556 320.426 114.048 320.73 114.416C321.034 114.776 321.434 114.956 321.93 114.956ZM326.249 113.144C326.249 111.696 326.229 110.608 326.189 109.88H327.473L327.605 110.888H327.689C327.921 110.528 328.213 110.252 328.565 110.06C328.917 109.86 329.305 109.76 329.729 109.76C330.433 109.76 330.981 109.98 331.373 110.42C331.765 110.852 331.961 111.496 331.961 112.352V116H330.593V112.544C330.593 112.016 330.477 111.62 330.245 111.356C330.013 111.084 329.685 110.948 329.261 110.948C328.933 110.948 328.641 111.028 328.385 111.188C328.137 111.34 327.945 111.552 327.809 111.824C327.673 112.096 327.605 112.4 327.605 112.736V116H326.249V113.144ZM335.989 116.12C335.429 116.12 334.981 115.96 334.645 115.64C334.317 115.32 334.153 114.852 334.153 114.236V110.984H332.965V109.88H334.237L334.501 108.176H335.509V109.88H337.213V110.984H335.509V114.176C335.509 114.448 335.577 114.656 335.713 114.8C335.849 114.936 336.029 115.004 336.253 115.004C336.533 115.004 336.797 114.928 337.045 114.776L337.417 115.712C337.185 115.864 336.957 115.968 336.733 116.024C336.509 116.088 336.261 116.12 335.989 116.12ZM340.318 116.12C339.718 116.12 339.234 115.956 338.866 115.628C338.506 115.3 338.326 114.86 338.326 114.308C338.326 113.716 338.538 113.252 338.962 112.916C339.394 112.58 340.03 112.388 340.87 112.34L342.526 112.244V113.168L341.146 113.264C340.642 113.296 340.262 113.388 340.006 113.54C339.758 113.684 339.634 113.912 339.634 114.224C339.634 114.472 339.722 114.672 339.898 114.824C340.082 114.976 340.334 115.052 340.654 115.052C340.974 115.052 341.266 114.968 341.53 114.8C341.794 114.632 342.002 114.4 342.154 114.104C342.306 113.808 342.382 113.472 342.382 113.096V111.98C342.382 111.596 342.258 111.308 342.01 111.116C341.762 110.916 341.446 110.816 341.062 110.816C340.678 110.816 340.362 110.908 340.114 111.092C339.866 111.276 339.686 111.54 339.574 111.884L338.398 111.536C338.518 110.968 338.818 110.532 339.298 110.228C339.778 109.916 340.366 109.76 341.062 109.76C341.894 109.76 342.538 109.952 342.994 110.336C343.458 110.712 343.69 111.244 343.69 111.932V112.76C343.69 114.192 343.71 115.272 343.75 116H342.574L342.454 114.932H342.358C342.166 115.316 341.898 115.612 341.554 115.82C341.21 116.02 340.798 116.12 340.318 116.12ZM347.993 116.12C347.377 116.12 346.841 115.98 346.385 115.7C345.929 115.42 345.581 115.04 345.341 114.56C345.101 114.08 344.981 113.54 344.981 112.94C344.981 112.34 345.101 111.8 345.341 111.32C345.581 110.84 345.929 110.46 346.385 110.18C346.841 109.9 347.377 109.76 347.993 109.76C348.657 109.76 349.221 109.924 349.685 110.252C350.157 110.572 350.489 111.048 350.681 111.68L349.385 112.076C349.257 111.676 349.073 111.384 348.833 111.2C348.593 111.008 348.309 110.912 347.981 110.912C347.485 110.912 347.085 111.096 346.781 111.464C346.485 111.832 346.337 112.324 346.337 112.94C346.337 113.556 346.485 114.048 346.781 114.416C347.085 114.784 347.485 114.968 347.981 114.968C348.317 114.968 348.609 114.872 348.857 114.68C349.113 114.488 349.309 114.196 349.445 113.804L350.741 114.2C350.541 114.824 350.197 115.3 349.709 115.628C349.221 115.956 348.649 116.12 347.993 116.12ZM354.516 116.12C353.956 116.12 353.508 115.96 353.172 115.64C352.844 115.32 352.68 114.852 352.68 114.236V110.984H351.492V109.88H352.764L353.028 108.176H354.036V109.88H355.74V110.984H354.036V114.176C354.036 114.448 354.104 114.656 354.24 114.8C354.376 114.936 354.556 115.004 354.78 115.004C355.06 115.004 355.324 114.928 355.572 114.776L355.944 115.712C355.712 115.864 355.484 115.968 355.26 116.024C355.036 116.088 354.788 116.12 354.516 116.12ZM362.313 116.12C361.801 116.12 361.353 115.992 360.969 115.736C360.585 115.472 360.289 115.1 360.081 114.62C359.881 114.14 359.781 113.584 359.781 112.952C359.781 112.312 359.881 111.752 360.081 111.272C360.289 110.792 360.585 110.42 360.969 110.156C361.353 109.892 361.801 109.76 362.313 109.76C362.753 109.76 363.137 109.856 363.465 110.048C363.801 110.24 364.073 110.52 364.281 110.888H364.377V107.6H365.733V112.736C365.733 114.184 365.753 115.272 365.793 116H364.509L364.377 114.992H364.281C364.073 115.36 363.801 115.64 363.465 115.832C363.137 116.024 362.753 116.12 362.313 116.12ZM362.757 114.956C363.245 114.956 363.637 114.776 363.933 114.416C364.229 114.048 364.377 113.56 364.377 112.952C364.377 112.336 364.229 111.844 363.933 111.476C363.637 111.108 363.245 110.924 362.757 110.924C362.269 110.924 361.877 111.108 361.581 111.476C361.285 111.844 361.137 112.336 361.137 112.952C361.137 113.56 361.285 114.048 361.581 114.416C361.877 114.776 362.269 114.956 362.757 114.956ZM370.047 116.12C369.431 116.12 368.895 115.98 368.439 115.7C367.983 115.42 367.635 115.04 367.395 114.56C367.155 114.08 367.035 113.54 367.035 112.94C367.035 112.34 367.151 111.8 367.383 111.32C367.623 110.84 367.971 110.46 368.427 110.18C368.883 109.9 369.419 109.76 370.035 109.76C370.595 109.76 371.087 109.884 371.511 110.132C371.935 110.372 372.263 110.72 372.495 111.176C372.727 111.632 372.843 112.164 372.843 112.772C372.843 112.988 372.831 113.184 372.807 113.36H367.851V112.4H372.039L371.559 113.072C371.567 113.016 371.571 112.964 371.571 112.916C371.571 112.86 371.571 112.804 371.571 112.748C371.571 112.124 371.431 111.644 371.151 111.308C370.879 110.972 370.507 110.804 370.035 110.804C369.515 110.804 369.103 110.996 368.799 111.38C368.503 111.756 368.355 112.276 368.355 112.94C368.355 113.612 368.507 114.136 368.811 114.512C369.123 114.888 369.539 115.076 370.059 115.076C370.387 115.076 370.667 115 370.899 114.848C371.139 114.696 371.335 114.456 371.487 114.128L372.699 114.488C372.475 115.032 372.139 115.44 371.691 115.712C371.251 115.984 370.703 116.12 370.047 116.12ZM376.606 116.12C376.046 116.12 375.598 115.96 375.262 115.64C374.934 115.32 374.77 114.852 374.77 114.236V110.984H373.582V109.88H374.854L375.118 108.176H376.126V109.88H377.83V110.984H376.126V114.176C376.126 114.448 376.194 114.656 376.33 114.8C376.466 114.936 376.646 115.004 376.87 115.004C377.15 115.004 377.414 114.928 377.662 114.776L378.034 115.712C377.802 115.864 377.574 115.968 377.35 116.024C377.126 116.088 376.878 116.12 376.606 116.12ZM380.935 116.12C380.335 116.12 379.851 115.956 379.483 115.628C379.123 115.3 378.943 114.86 378.943 114.308C378.943 113.716 379.155 113.252 379.579 112.916C380.011 112.58 380.647 112.388 381.487 112.34L383.143 112.244V113.168L381.763 113.264C381.259 113.296 380.879 113.388 380.623 113.54C380.375 113.684 380.251 113.912 380.251 114.224C380.251 114.472 380.339 114.672 380.515 114.824C380.699 114.976 380.951 115.052 381.271 115.052C381.591 115.052 381.883 114.968 382.147 114.8C382.411 114.632 382.619 114.4 382.771 114.104C382.923 113.808 382.999 113.472 382.999 113.096V111.98C382.999 111.596 382.875 111.308 382.627 111.116C382.379 110.916 382.063 110.816 381.679 110.816C381.295 110.816 380.979 110.908 380.731 111.092C380.483 111.276 380.303 111.54 380.191 111.884L379.015 111.536C379.135 110.968 379.435 110.532 379.915 110.228C380.395 109.916 380.983 109.76 381.679 109.76C382.511 109.76 383.155 109.952 383.611 110.336C384.075 110.712 384.307 111.244 384.307 111.932V112.76C384.307 114.192 384.327 115.272 384.367 116H383.191L383.071 114.932H382.975C382.783 115.316 382.515 115.612 382.171 115.82C381.827 116.02 381.415 116.12 380.935 116.12ZM385.898 116V109.88H387.254V116H385.898ZM386.582 109.088C386.318 109.088 386.094 109.004 385.91 108.836C385.734 108.668 385.646 108.46 385.646 108.212C385.646 107.956 385.734 107.744 385.91 107.576C386.094 107.408 386.318 107.324 386.582 107.324C386.846 107.324 387.066 107.408 387.242 107.576C387.418 107.744 387.506 107.956 387.506 108.212C387.506 108.46 387.418 108.668 387.242 108.836C387.066 109.004 386.846 109.088 386.582 109.088ZM388.863 116V107.6H390.219V116H388.863ZM394.191 116.12C393.535 116.12 392.963 115.992 392.475 115.736C391.995 115.472 391.679 115.072 391.527 114.536L392.679 114.188C392.783 114.516 392.971 114.76 393.243 114.92C393.515 115.08 393.827 115.16 394.179 115.16C394.523 115.16 394.791 115.088 394.983 114.944C395.175 114.792 395.271 114.6 395.271 114.368C395.271 114.192 395.211 114.052 395.091 113.948C394.971 113.836 394.823 113.752 394.647 113.696C394.471 113.632 394.223 113.56 393.903 113.48C393.439 113.368 393.055 113.252 392.751 113.132C392.455 113.004 392.199 112.808 391.983 112.544C391.775 112.28 391.671 111.916 391.671 111.452C391.671 111.132 391.763 110.844 391.947 110.588C392.139 110.324 392.407 110.12 392.751 109.976C393.103 109.832 393.515 109.76 393.987 109.76C394.595 109.76 395.115 109.884 395.547 110.132C395.987 110.38 396.279 110.748 396.423 111.236L395.259 111.572C395.163 111.284 395.003 111.072 394.779 110.936C394.555 110.792 394.295 110.72 393.999 110.72C393.671 110.72 393.415 110.788 393.231 110.924C393.055 111.06 392.967 111.236 392.967 111.452C392.967 111.628 393.027 111.772 393.147 111.884C393.267 111.996 393.415 112.084 393.591 112.148C393.767 112.212 394.019 112.284 394.347 112.364C394.811 112.476 395.191 112.592 395.487 112.712C395.783 112.832 396.035 113.024 396.243 113.288C396.459 113.552 396.567 113.912 396.567 114.368C396.567 114.888 396.351 115.312 395.919 115.64C395.495 115.96 394.919 116.12 394.191 116.12Z" fill="black"/>
<path d="M310 132.5C310 131.119 311.119 130 312.5 130H367.5C368.881 130 370 131.119 370 132.5C370 133.881 368.881 135 367.5 135H312.5C311.119 135 310 133.881 310 132.5Z" fill="#E5E7EB"/>
<path d="M310 141.5C310 140.119 311.119 139 312.5 139H517.5C518.881 139 520 140.119 520 141.5C520 142.881 518.881 144 517.5 144H312.5C311.119 144 310 142.881 310 141.5Z" fill="#E5E7EB"/>
<path d="M310 150.5C310 149.119 311.119 148 312.5 148H387.5C388.881 148 390 149.119 390 150.5C390 151.881 388.881 153 387.5 153H312.5C311.119 153 310 151.881 310 150.5Z" fill="#E5E7EB"/>
<path d="M310 177C310 174.791 311.791 173 314 173H516C518.209 173 520 174.791 520 177V205C520 207.209 518.209 209 516 209H314C311.791 209 310 207.209 310 205V177Z" fill="#F7CD4B"/>
<path d="M398.02 195.12C397.164 195.12 396.42 194.94 395.788 194.58C395.156 194.22 394.736 193.696 394.528 193.008L396.064 192.612C396.224 193.028 396.48 193.336 396.832 193.536C397.184 193.736 397.58 193.836 398.02 193.836C398.5 193.836 398.872 193.74 399.136 193.548C399.4 193.348 399.532 193.084 399.532 192.756C399.532 192.508 399.452 192.308 399.292 192.156C399.132 191.996 398.928 191.872 398.68 191.784C398.44 191.696 398.104 191.596 397.672 191.484C397.048 191.316 396.54 191.148 396.148 190.98C395.756 190.812 395.416 190.552 395.128 190.2C394.848 189.84 394.708 189.364 394.708 188.772C394.708 188.324 394.828 187.928 395.068 187.584C395.316 187.24 395.672 186.972 396.136 186.78C396.6 186.58 397.148 186.48 397.78 186.48C398.596 186.48 399.284 186.648 399.844 186.984C400.404 187.32 400.788 187.816 400.996 188.472L399.436 188.868C399.308 188.492 399.096 188.216 398.8 188.04C398.512 187.856 398.172 187.764 397.78 187.764C397.34 187.764 396.996 187.86 396.748 188.052C396.5 188.236 396.376 188.476 396.376 188.772C396.376 189.012 396.452 189.208 396.604 189.36C396.764 189.504 396.964 189.624 397.204 189.72C397.444 189.808 397.78 189.908 398.212 190.02C398.836 190.18 399.344 190.348 399.736 190.524C400.136 190.692 400.48 190.956 400.768 191.316C401.056 191.676 401.2 192.16 401.2 192.768C401.2 193.24 401.072 193.652 400.816 194.004C400.568 194.356 400.204 194.632 399.724 194.832C399.244 195.024 398.676 195.12 398.02 195.12ZM404.556 195.12C403.868 195.12 403.332 194.904 402.948 194.472C402.564 194.04 402.372 193.408 402.372 192.576V188.88H403.992V192.264C403.992 192.744 404.096 193.108 404.304 193.356C404.52 193.596 404.82 193.716 405.204 193.716C405.5 193.716 405.76 193.644 405.984 193.5C406.216 193.356 406.392 193.16 406.512 192.912C406.632 192.656 406.692 192.368 406.692 192.048V188.88H408.324V191.736C408.324 193.184 408.344 194.272 408.384 195H406.836L406.704 194.004H406.596C406.356 194.364 406.06 194.64 405.708 194.832C405.364 195.024 404.98 195.12 404.556 195.12ZM413.51 195.12C413.078 195.12 412.698 195.024 412.37 194.832C412.05 194.64 411.782 194.364 411.566 194.004H411.47L411.338 195H409.79C409.83 194.272 409.85 193.184 409.85 191.736V186.6H411.47V189.876H411.566C411.782 189.516 412.05 189.24 412.37 189.048C412.698 188.856 413.078 188.76 413.51 188.76C414.014 188.76 414.45 188.892 414.818 189.156C415.194 189.412 415.482 189.78 415.682 190.26C415.89 190.732 415.994 191.296 415.994 191.952C415.994 192.592 415.89 193.152 415.682 193.632C415.482 194.112 415.194 194.48 414.818 194.736C414.45 194.992 414.014 195.12 413.51 195.12ZM412.922 193.776C413.362 193.776 413.714 193.612 413.978 193.284C414.242 192.948 414.374 192.504 414.374 191.952C414.374 191.392 414.242 190.944 413.978 190.608C413.714 190.272 413.362 190.104 412.922 190.104C412.482 190.104 412.13 190.272 411.866 190.608C411.602 190.944 411.47 191.392 411.47 191.952C411.47 192.504 411.602 192.948 411.866 193.284C412.13 193.612 412.482 193.776 412.922 193.776ZM417.221 192.144C417.221 190.696 417.201 189.608 417.161 188.88H418.709L418.817 189.816H418.925C419.133 189.472 419.401 189.212 419.729 189.036C420.057 188.852 420.417 188.76 420.809 188.76C421.257 188.76 421.633 188.864 421.937 189.072C422.241 189.272 422.477 189.568 422.645 189.96H422.753C422.961 189.56 423.237 189.26 423.581 189.06C423.933 188.86 424.329 188.76 424.769 188.76C425.409 188.76 425.901 188.96 426.245 189.36C426.589 189.752 426.761 190.336 426.761 191.112V195H425.141V191.472C425.141 191.04 425.049 190.716 424.865 190.5C424.681 190.276 424.421 190.164 424.085 190.164C423.829 190.164 423.605 190.228 423.413 190.356C423.221 190.484 423.069 190.66 422.957 190.884C422.853 191.108 422.801 191.364 422.801 191.652V195H421.181V191.472C421.181 191.04 421.089 190.716 420.905 190.5C420.721 190.276 420.461 190.164 420.125 190.164C419.869 190.164 419.645 190.228 419.453 190.356C419.261 190.484 419.109 190.66 418.997 190.884C418.893 191.108 418.841 191.364 418.841 191.652V195H417.221V192.144ZM428.225 195V188.88H429.845V195H428.225ZM429.029 188.148C428.733 188.148 428.485 188.056 428.285 187.872C428.085 187.68 427.985 187.44 427.985 187.152C427.985 186.872 428.085 186.64 428.285 186.456C428.485 186.264 428.733 186.168 429.029 186.168C429.325 186.168 429.573 186.264 429.773 186.456C429.973 186.64 430.073 186.872 430.073 187.152C430.073 187.44 429.973 187.68 429.773 187.872C429.573 188.056 429.325 188.148 429.029 188.148ZM434.054 195.12C433.446 195.12 432.966 194.952 432.614 194.616C432.262 194.272 432.086 193.764 432.086 193.092V190.164H430.91V188.88H432.17L432.434 187.152H433.706V188.88H435.338V190.164H433.706V193.008C433.706 193.272 433.77 193.472 433.898 193.608C434.026 193.736 434.202 193.8 434.426 193.8C434.682 193.8 434.926 193.732 435.158 193.596L435.554 194.712C435.314 194.864 435.074 194.968 434.834 195.024C434.602 195.088 434.342 195.12 434.054 195.12Z" fill="white"/>
</g>
<defs>
<filter id="filter0_d_3023_3181" x="0" y="300" width="290" height="234" filterUnits="userSpaceOnUse" color-interpolation-filters="sRGB">
<feFlood flood-opacity="0" result="BackgroundImageFix"/>
<feColorMatrix in="SourceAlpha" type="matrix" values="0 0 0 0 0 0 0 0 0 0 0 0 0 0 0 0 0 0 127 0" result="hardAlpha"/>
<feOffset dx="10" dy="10"/>
<feGaussianBlur stdDeviation="10"/>
<feComposite in2="hardAlpha" operator="out"/>
<feColorMatrix type="matrix" values="0 0 0 0 0.176471 0 0 0 0 0.392157 0 0 0 0 0.839216 0 0 0 0.1 0"/>
<feBlend mode="normal" in2="BackgroundImageFix" result="effect1_dropShadow_3023_3181"/>
<feBlend mode="normal" in="SourceGraphic" in2="effect1_dropShadow_3023_3181" result="shape"/>
</filter>
<filter id="filter1_d_3023_3181" x="260" y="0" width="290" height="259" filterUnits="userSpaceOnUse" color-interpolation-filters="sRGB">
<feFlood flood-opacity="0" result="BackgroundImageFix"/>
<feColorMatrix in="SourceAlpha" type="matrix" values="0 0 0 0 0 0 0 0 0 0 0 0 0 0 0 0 0 0 127 0" result="hardAlpha"/>
<feOffset dx="-10" dy="10"/>
<feGaussianBlur stdDeviation="10"/>
<feComposite in2="hardAlpha" operator="out"/>
<feColorMatrix type="matrix" values="0 0 0 0 0.176471 0 0 0 0 0.392157 0 0 0 0 0.839216 0 0 0 0.1 0"/>
<feBlend mode="normal" in2="BackgroundImageFix" result="effect1_dropShadow_3023_3181"/>
<feBlend mode="normal" in="SourceGraphic" in2="effect1_dropShadow_3023_3181" result="shape"/>
</filter>
<clipPath id="clip0_3023_3181">
<path d="M40 75C40 66.7157 46.7157 60 55 60H540V460H55C46.7157 460 40 453.284 40 445V75Z" fill="white"/>
</clipPath>
</defs>
</svg>
